<?xml version="1.0" encoding="UTF-8"?><svg xmlns="http://www.w3.org/2000/svg" viewBox="0 0 75.41 75.41"><defs><style>.d{fill:none;}.e{fill:#00758f;}</style></defs><g id="a"/><g id="b"><g id="c"><g><rect class="d" width="75.41" height="75.41"/><path class="e" d="M47.15,38.59c.48,.96,.69,2.03,.61,3.11,0,2.52-.76,3.79-2.29,3.79-.7,.04-1.37-.3-1.76-.89h0c-.48-.97-.69-2.05-.61-3.13,0-2.52,.76-3.77,2.29-3.77,.71-.05,1.38,.29,1.76,.89Z"/><g><path class="e" d="M45.23,31.88h0Z"/><path class="e" d="M45.19,31.87h0Z"/><path class="e" d="M45.34,31.91s.02,0,0,0h0Z"/><path class="e" d="M45.28,31.9h0Z"/><path class="e" d="M45.3,31.9h0Z"/><path class="e" d="M66.04,15.51L37.7,1.86,9.37,15.51,2.37,45.94l19.59,24.84h31.48l19.59-24.84-7-30.43ZM27.9,49.21c-.35-.02-.7-.1-1.02-.25v-.89h.71c.42,.03,.83-.12,1.15-.41,.33-.27,.53-.67,.53-1.09-.06-.58-.2-1.14-.41-1.68l-1.83-5.7h1.63l1.32,4.25c.25,.65,.37,1.34,.36,2.04,.75-2.03,1.26-4.14,1.53-6.29h1.58c-.37,2.87-1.28,5.65-2.7,8.17v-.08c-.55,1.1-1.63,1.83-2.85,1.93Zm-11.23-12.6h2.06l2.39,7.33,2.55-7.33h1.78c.43,3.64,.69,6.98,.76,9.98h-1.68c0-2.83-.2-5.47-.48-7.94l-2.55,7.94h-1.15l-2.55-7.94c-.2,2.37-.31,5.09-.36,7.94h-1.53c0-3.54,.36-6.87,.74-9.98Zm21.1,5.88l-2.14-1.17c-.74-.45-1.18-1.27-1.15-2.14-.01-.75,.3-1.47,.87-1.96,.61-.51,1.39-.77,2.19-.74,.9,0,1.79,.25,2.55,.74l-.41,.87c-.6-.28-1.25-.42-1.91-.43-.42-.03-.84,.11-1.17,.38-.28,.23-.45,.58-.46,.94,0,.59,.43,1.09,1.2,1.53l2.14,1.22c.76,.42,1.21,1.24,1.17,2.11,.05,.78-.26,1.54-.84,2.06-.71,.59-1.62,.88-2.55,.81-1.01-.02-2-.34-2.83-.92l.41-.87c.66,.36,1.39,.56,2.14,.59,.5,.03,1-.11,1.43-.38,.34-.27,.54-.68,.53-1.12,0-.59-.41-1.09-1.17-1.53Zm19.27-7.2c.47,.34,.89,.74,1.25,1.2l.36,.36c.03,.07,.07,.14,.11,.21-.04-.06-.09-.12-.14-.16l-.81-.56c-.46-.28-.97-.46-1.45-.74l-.76-.56c-.25-.21-.46-.46-.61-.74,0,0,0-.28-.2-.38-.2-.1,.31-.23,.48-.31,.75-.27,1.55-.38,2.34-.33,0-.25-.64-.53-.84-.69l-1.2-.81c-.2-.13-.59-.23-.81-.36-.23-.13-1.07-.25-1.25-.51-.34-.5-.62-1.04-.84-1.6-.25-.59-.56-1.2-.81-1.78-.25-.59-.2-.53-.36-.81-.85-1.69-2.15-3.11-3.74-4.12-.54-.36-1.12-.64-1.73-.84-.36,0-.79,0-1.17-.13h-.25c-.23,0-.41-.28-.56-.41-.38-.24-.78-.45-1.2-.61-.15,0-.61-.23-.76,0-.15,.23-.13,0-.15,.15-.03,.15,0,.36,0,.51,.19,.32,.42,.63,.66,.92,.22,.3,.43,.62,.61,.94,.31,.66,.46,1.43,.74,2.09,.13,.27,.27,.53,.43,.79,.15,.18,.38,.31,.46,.53,.08,.23-.23,1.04-.31,1.3-.33,1.04-.33,2.16,0,3.21,.15,.33,.28,.74,.66,.84,.02-.62,.14-1.24,.33-1.83,.17-.29,.36-.56,.59-.81,.13,0,.13,.28,.2,.43,.15,.4,.32,.79,.51,1.17,.39,.77,.84,1.5,1.35,2.19,.18,.26,.39,.49,.61,.71,.11,.06,.21,.15,.28,.25-.36-.13-.59-.51-.87-.71-.61-.45-1.15-1-1.58-1.63-.15-.33-.31-.66-.48-.99v.33c-.18,.61,0,1.3-.59,1.5-.59,.2-1.07-.41-1.27-.71-.64-1.25-.76-2.71-.33-4.05,.04-.31,.13-.61,.28-.89,0-.23-.23-.28-.31-.41-.18-.24-.33-.5-.46-.76-.25-.52-.45-1.05-.61-1.6,0-.23-.13-.43-.2-.64-.18-.32-.38-.63-.61-.92-.28-.38-1.07-1.17-.76-1.93,.15-.41,.56-.67,.99-.64,.71,.09,1.38,.35,1.96,.76,.18,0,.38,.33,.56,.41h.92c.53,.09,1.05,.26,1.53,.51,1.93,1.05,3.54,2.61,4.66,4.51,.25,.43,.38,.89,.61,1.37s.64,1.43,.99,2.09c.14,.33,.3,.64,.48,.94,0,0,.33,.15,.46,.23,.13,.08,.89,.36,1.27,.59,.69,.46,1.36,.96,1.99,1.5,.2,.2,.38,.48,.59,.69v.13l-.59,.15c-.41,0-.79,0-1.2,.2-.27,.09-.54,.16-.81,.2,.15,.43,.99,.79,1.37,1.07Zm-.66,10.28v-.2h.97v.2h-.36v1.02h-.25v-1.02h-.36Zm-.76-.2l-.03,1.22h-4.68v-9.98h1.58v8.76h3.13Zm-5.98,1.48l-.66,1.12-2.37-1.4c-.42,.12-.86,.19-1.3,.18-1.07,.08-2.12-.33-2.85-1.12-.78-1.12-1.15-2.48-1.04-3.84-.1-1.44,.32-2.88,1.17-4.05,.74-.85,1.83-1.32,2.95-1.27,2.6,0,3.9,1.65,3.9,4.96,.11,1.45-.31,2.9-1.17,4.07-.14,.16-.29,.3-.46,.43l1.83,.92Zm-3.82-23.52c.02,.23-.08,.46-.25,.61l-.28-.59c-.13-.18-.28-.31-.38-.48,.16-.03,.32-.03,.48,0,.12,.09,.23,.18,.33,.28,.03,.06,.06,.12,.1,.18Zm13.19,23.27h-.25v-.92l-.36,.92h-.18l-.33-.92v.92h-.23v-1.22h.36l.33,.84,.31-.84h.38l-.03,1.22Z"/></g></g></g></g></svg>