<svg xmlns="http://www.w3.org/2000/svg" xmlns:xlink="http://www.w3.org/1999/xlink" viewBox="0 0 24 24"><defs><style>.cls-1{fill:none;}.cls-2{fill:#323e45;}</style><symbol id="diagram-application" data-name="diagram-application" viewBox="0 0 24 24"><rect class="cls-1" width="24" height="24"/><polygon class="cls-2" points="12.68 15.49 15.38 13.94 15.38 10.81 12.68 12.38 12.68 15.49"/><polygon class="cls-2" points="12 8.12 9.32 9.66 12 11.22 14.68 9.66 12 8.12"/><polygon class="cls-2" points="8.62 13.94 11.32 15.49 11.32 12.38 8.62 10.81 8.62 13.94"/><path class="cls-2" d="M20.08,6.07,12,2.18,3.92,6.07l-2,8.74,5.59,7h9l5.59-7Zm-3.35,7.87a1.34,1.34,0,0,1-.68,1.17l-3.37,1.94a1.31,1.31,0,0,1-1.36,0L8,15.11a1.34,1.34,0,0,1-.68-1.17V10.06A1.34,1.34,0,0,1,8,8.89L11.32,7a1.31,1.31,0,0,1,1.36,0l3.37,1.94a1.34,1.34,0,0,1,.68,1.17Z"/></symbol></defs><title>자산 6</title><g id="레이어_2" data-name="레이어 2"><g id="레이어_1-2" data-name="레이어 1"><use width="24" height="24" xlink:href="#diagram-application"/></g></g></svg>