<?xml version="1.0" encoding="UTF-8"?><svg xmlns="http://www.w3.org/2000/svg" viewBox="0 0 75.41 75.41"><defs><style>.d{fill:none;}.e{fill:#e25a1c;}</style></defs><g id="a"/><g id="b"><g id="c"><g><rect class="d" width="75.41" height="75.41"/><path class="e" d="M30.12,42.23h0c0,1.05-.56,2.03-1.48,2.55-.66,.42-1.48,.51-2.21,.25-.93-.32-1.5-1.24-1.37-2.21,.14-1.25,1.06-2.28,2.29-2.55,1.09-.24,2.18,.37,2.55,1.43,.09,.17,.17,.35,.23,.53Z"/><polygon class="e" points="32.31 34.98 32.41 35.72 31.92 35.72 32.31 34.98"/><path class="e" d="M29.53,35.36h-.28v-.56h.28c.2,0,.2,.08,.2,.23,.02,.14-.07,.28-.2,.33Z"/><polygon class="e" points="26.58 35.72 26.09 35.72 26.45 34.98 26.58 35.72"/><path class="e" d="M66.04,15.51L37.7,1.86,9.37,15.51,2.37,45.94l19.59,24.84h31.48l19.59-24.84-7-30.43Zm-9.01,18.94c.61,1.12,1.2,2.24,1.78,3.39,.16,.25,.25,.54,.25,.84,0,.69-.51,1.28-1.2,1.37-.38,.05-.76,0-1.12-.13l-2.67-.81s-.13,0-.13-.15c0-.64-.23-1.25-.33-1.88l3.08,.84v-.18l-1.71-3.26v-.28c.92-1.04,1.81-2.11,2.72-3.18,0-.05,0-.1,0-.15l-.81,.23-3.28,.87c-.06,.05-.15,.05-.2,0-.61-1.04-1.25-2.11-1.88-3.13l-.13-.15-.15,.84-.53,2.93c-.01,.11-.01,.22,0,.33l-.15,.15-3.9,1.25s-.1-.02-.15,0l3.18,1.25-1.99,1.3c-.07,.04-.16,.04-.23,0l-2.55-1.07c-.36-.15-.69-.39-.94-.69-.44-.51-.39-1.28,.12-1.72,.06-.05,.12-.1,.19-.13,.25-.16,.53-.29,.81-.38l3.79-1.2c.1-.02,.17-.1,.18-.2l.53-2.95c.06-.53,.2-1.06,.41-1.55,.09-.19,.21-.36,.36-.51,.39-.48,1.1-.55,1.58-.15,.06,.05,.11,.1,.15,.15,.18,.19,.34,.39,.48,.61l1.76,2.9q0,.13,.25,0l4.25-1.12c.29-.06,.6-.06,.89,0,.49,.04,.85,.47,.81,.96,0,.1-.03,.19-.07,.28-.12,.27-.28,.52-.48,.74l-.05,.08-2.93,3.44c-.06,.07-.06,.18,0,.25ZM14.94,44.81l2.06-1.09v.15c0,.15,.23,.48,.36,.69,.38,.62,1.18,.84,1.83,.51,.18-.08,.35-.18,.51-.31,.45-.36,.53-1.02,.18-1.48-.2-.29-.42-.56-.66-.81-.59-.64-1.17-1.22-1.71-1.88-.39-.42-.64-.96-.71-1.53-.1-.62,.02-1.25,.36-1.78,.75-1.29,2.15-2.05,3.64-1.99,.87,.05,1.67,.48,2.19,1.17,.15,.2,.31,.43,.48,.64l-1.88,1.43-.31-.48c-.23-.39-.64-.65-1.09-.69-.39-.04-.78,.11-1.04,.41-.24,.27-.24,.67,0,.94,.25,.35,.53,.67,.84,.97,.46,.53,.97,1.02,1.43,1.53,.44,.46,.75,1.03,.89,1.65,.12,.75-.02,1.51-.41,2.16-.61,1.22-1.8,2.05-3.16,2.19l-.08-.18c-.6,.13-1.23,.13-1.83,0-.68-.25-1.24-.75-1.55-1.4-.13-.27-.24-.54-.33-.81Zm37.93-7.51v.53l.23,1.43c.05,.06,.05,.15,0,.2l-2.19,2.34,3.8,5.32h-2.25c-.07,.04-.16,.04-.23,0l-2.85-4.33v-.18c-.2,1.58-.41,3.11-.61,4.63h-2.11v-.61l.61-4.71,.61-4.51,2.19-1.4c-.2,1.68-.43,3.36-.64,5.09,1.12-1.27,2.27-2.55,3.44-3.82Zm-6.34,3.21l-1.17,.05c-.32,0-.6,.21-.69,.51-.01,.12-.01,.24,0,.36-.2,1.5-.38,2.98-.59,4.48l-.15,1.12h-1.96v-.84l.41-2.9c.13-.84,.23-1.68,.36-2.55,.23-1.18,1.22-2.06,2.42-2.16h1.63c0,.64-.18,1.27-.25,1.93Zm-4.68-4.23v.48h-1.37l.41-2.37h1.3v.48h-.81v.46h.74v.46h-.76v.48h.51Zm-3.05-1.07l.15-.92h.48l-.41,2.34h-.48l.15-.99h-1.02l-.18,.94h-.48l.43-2.29h.48l-.18,.92h1.04Zm-3.64,.89s.04,0,.05,0c.19,0,.38-.06,.53-.18v.56c-.18,.04-.36,.04-.53,0-.55,.02-1.01-.42-1.02-.96,0-.04,0-.07,0-.11,.12-.61,.63-1.06,1.25-1.12,.17-.04,.34-.04,.51,0v.56c-.13-.12-.31-.18-.48-.18-.44,.01-.8,.37-.81,.81-.03,.31,.2,.58,.51,.61Zm-9.24,.03l-.25,.51h-.64l1.27-2.34h.56l.43,2.34h-.56v-.51h-.81Zm1.12,2.29c1.09-.27,2.25-.09,3.21,.51,.94,.61,1.55,1.61,1.65,2.72,.21,1.56-.37,3.13-1.55,4.18-.74,.74-1.69,1.22-2.72,1.37-1.06,.18-2.14-.06-3.03-.66h-.13c0,.48,0,.92-.18,1.35-.18,.43-.18,1.17-.23,1.78h-1.91v-.84l.48-3c.15-1.12,.28-2.24,.46-3.33,.4-2.01,1.95-3.61,3.95-4.07Zm1.37-1.78l.43-2.34h.74c.33-.04,.64,.19,.68,.53,0,.04,0,.07,0,.11,.02,.45-.34,.83-.79,.84-.04,0-.07,0-.11,0h-.31l-.15,.87h-.51Zm3.28-.38l-.25,.51h-.59l1.27-2.34h.53l.43,2.34h-.53l-.08-.51h-.79Zm1.86,9.57c-.67-.76-1.01-1.74-.94-2.75,.08-2.51,1.99-4.59,4.48-4.89,1.33-.24,2.68,.26,3.54,1.3,.62,.7,.94,1.61,.89,2.55-.03,.79-.13,1.43-.2,2.04v.08c0,.92-.23,1.83-.36,2.72h-1.86v-.61c0-1.04,.28-2.09,.41-3.13,.1-.65,0-1.32-.28-1.91-.28-.6-.87-1-1.53-1.04-1.46-.14-2.81,.83-3.13,2.27-.22,.88,.12,1.81,.87,2.34,.68,.45,1.55,.51,2.29,.15,.41-.17,.77-.42,1.07-.74,0,.81-.2,1.58-.31,2.34,.01,.04,.01,.09,0,.13-1.65,.84-3.66,.5-4.94-.84Zm21.79,.43v-.15h.66l.1,.15h-.31v.84h-.15v-.84h-.31Zm1.6,.84l-.33-.81v.81h-.18v-.99h.25l.31,.76,.28-.76h.25l-.13,.99h-.15v-.81l-.31,.81Z"/></g></g></g></svg>