<?xml version="1.0" encoding="UTF-8"?><svg xmlns="http://www.w3.org/2000/svg" viewBox="0 0 75.35 75.35"><defs><style>.d{fill:none;}.e,.f{fill:#fff;}.g{fill:#202467;}.f{fill-rule:evenodd;}</style></defs><g id="a"/><g id="b"><g id="c"><g><polygon class="g" points="71.54 39.71 67.21 20.88 65.94 15.53 61.35 13.24 42.26 4.07 37.68 2.04 33.1 4.07 14.26 13.24 9.42 15.53 8.15 20.88 3.82 39.71 2.29 45.82 6.36 50.92 17.31 64.92 21.89 70.77 29.53 70.77 45.82 70.77 53.46 70.77 58.04 64.92 68.99 50.92 73.06 45.82 71.54 39.71"/><rect class="d" width="75.35" height="75.35"/><path class="d" d="M28.26,45.31c-.76-1.02-1.53-2.04-2.04-3.05v7.89h8.15c-2.29-1.27-4.58-2.8-6.11-4.84Z"/><path class="f" d="M42.63,23.51h1.26c.88,0,1.22,.56,1.22,1.38,0,.54-.24,1.06-.7,1.19v.02c.56,.13,.85,.66,.85,1.37,0,.96-.52,1.54-1.38,1.54h-1.25v-5.5h0Zm.41,2.42h.65c.7,0,1.02-.36,1.02-1,0-.73-.31-1-.95-1h-.72v2Zm0,2.67h.76c.71,0,1.05-.39,1.05-1.12s-.34-1.13-1.05-1.13h-.76v2.25Zm3.51-1.79l-1.23-3.3h.43l1,2.74,1-2.74h.43l-1.23,3.3v2.2h-.41v-2.2h0ZM26.19,15.02h1.23c.88,0,1.25,.62,1.25,1.56,0,.85-.35,1.56-1.39,1.56h-.68v2.39h-.41v-5.5h0Zm.41,2.7h.7c.54,0,.97-.29,.97-1.14s-.34-1.14-.97-1.14h-.7v2.28Zm3.95-2.79c.93,0,1.45,.87,1.45,2.84s-.52,2.84-1.45,2.84-1.45-.87-1.45-2.84,.52-2.84,1.45-2.84h0Zm0,5.27c.65,0,1.05-.65,1.05-2.43s-.4-2.43-1.05-2.43-1.05,.65-1.05,2.43,.4,2.43,1.05,2.43Zm1.72-5.18h.41l.8,4.84h.01l.78-4.84h.47l.78,4.84h.01l.8-4.84h.41l-.96,5.5h-.51l-.75-4.84h-.01l-.75,4.84h-.51l-.96-5.5h0Zm5.07,0h1.83v.42h-1.5v2h1.4v.42h-1.4v2.25h1.54v.42h-1.88v-5.5h0Zm2.4,0h1.36c.76,0,1.18,.52,1.18,1.38,0,.66-.22,1.26-.82,1.39v.02c.57,.06,.76,.45,.78,1.3v.6c.02,.3,.04,.59,.2,.81h-.48c-.1-.19-.12-.48-.12-.77v-.46c-.04-.97-.19-1.28-.92-1.28h-.77v2.51h-.41v-5.5h0Zm.41,2.57h.7c.64,0,1.02-.35,1.02-1.08,0-.67-.24-1.08-.98-1.08h-.75v2.16h0Zm5.36-2.57h1.1c1.33,0,1.65,.96,1.65,2.75s-.33,2.75-1.65,2.75h-1.1v-5.5h0Zm.41,5.09h.66c.89,0,1.27-.54,1.27-2.33s-.38-2.34-1.27-2.34h-.66v4.67Zm-2.82-5.1h1.83v.42h-1.5v2h1.4v.42h-1.4v2.25h1.55v.42h-1.88v-5.5h0Z"/><g><path class="f" d="M20.44,58.32c.28,.67,1.1,2.41,2.7,2.41,1.11,0,1.83-.66,1.83-1.87,0-1.48-1.18-1.94-1.97-2.35-.57-.29-2.41-.96-2.41-2.65,0-1.42,1.07-2.67,2.97-2.67,.83,0,1.32,.23,1.75,.34,.06,.51,.15,1.1,.26,1.99l-.22,.04c-.32-.89-.76-2.02-2.12-2.02-1.13,0-1.64,.76-1.64,1.68,0,1.08,.83,1.61,1.94,2.12,1.08,.48,2.48,1.11,2.48,2.85,0,1.64-1.37,2.91-3.22,2.94-.53-.03-1.02-.13-1.37-.25-.37-.12-.61-.23-.77-.31-.13-.38-.29-1.42-.44-2.19l.22-.06h0Z"/><path class="f" d="M29.22,59.24c0,1.24,.09,1.38,1.19,1.5v.16h-3.27v-.16c1.05-.13,1.15-.26,1.15-1.5v-1.3c0-.18-.05-.32-.3-.74-.27-.47-.7-1.26-1.41-2.52-.48-.85-.54-.94-1.2-1.07v-.16h2.72v.16l-.54,.12c-.27,.06-.32,.14-.15,.56,.1,.25,1.12,2.1,1.65,2.97,.42-.79,1.16-2.18,1.44-2.89,.18-.45,.09-.6-.33-.68l-.48-.08v-.16h2.45v.16c-.75,.13-.84,.31-1.33,1.07-.42,.65-.84,1.44-1.36,2.43-.22,.4-.23,.53-.23,.71v1.42h0Z"/><path class="f" d="M34.82,53.45c.77,0,1.3,.14,1.67,.4,.39,.27,.6,.69,.6,1.26,0,1.01-.95,1.5-1.51,1.64v.02c1.05,.15,1.99,.77,1.99,1.93,0,.81-.4,1.39-1.07,1.77-.57,.32-1.31,.44-2.19,.44h-2.56v-.16c.96-.13,1.05-.26,1.05-1.5v-4.13c-.01-1.24-.08-1.38-.99-1.5v-.16h2.99Zm-1.11,3.29h.72c1.1,0,1.65-.5,1.65-1.5,0-.69-.29-1.56-1.64-1.56-.38,0-.54,.01-.63,.06-.07,.03-.1,.08-.1,.31v2.69h0Zm0,.23v2.56c0,.91,.15,1.12,.99,1.12,.97,0,1.79-.54,1.79-1.8s-.91-1.88-2.11-1.88h-.67Zm3.29,3.93v-.16c.75-.18,.88-.26,1.32-1.38l2.35-6.04,.15-.05,.85,2.19c.56,1.44,1.07,2.9,1.53,4.07,.37,.94,.52,1.03,1.23,1.2v.16h-2.74v-.16l.38-.1c.41-.1,.45-.22,.34-.57-.08-.28-.41-1.17-.75-2.05h-2.45c-.14,.36-.42,1.25-.54,1.71-.17,.69-.07,.83,.55,.96l.24,.06v.16h-2.45Zm2.32-3.23h2.21l-1.1-2.92h-.02l-1.09,2.92Zm4.88,1.2c.22,.53,.86,1.89,2.12,1.89,.87,0,1.43-.52,1.43-1.47,0-1.16-.93-1.52-1.55-1.85-.45-.23-1.89-.76-1.89-2.07,0-1.11,.84-2.1,2.33-2.1,.65,0,1.03,.18,1.38,.26,.05,.4,.11,.86,.21,1.56l-.17,.03c-.25-.7-.6-1.58-1.66-1.58-.88,0-1.28,.6-1.28,1.32,0,.85,.65,1.26,1.52,1.66,.85,.38,1.95,.87,1.95,2.24,0,1.28-1.08,2.28-2.52,2.3-.41-.02-.8-.1-1.08-.19-.29-.09-.48-.18-.61-.24-.1-.3-.23-1.11-.34-1.72l.17-.05h0Z"/><path class="f" d="M49.62,55.11c0-1.24-.09-1.38-1.01-1.5v-.16h4.97c.01,.19,.07,1.03,.13,1.67l-.17,.03c-.16-.57-.36-.87-.52-1.05-.17-.2-.52-.4-1.39-.4h-.76c-.32,0-.34,.02-.34,.34v2.8h1.16c.99,0,1.02-.11,1.25-.96h.17v2.27h-.17c-.11-.44-.18-.68-.34-.8-.16-.14-.41-.16-.91-.16h-1.16v2.2c0,.65,.07,.93,.26,1.08,.24,.18,.65,.18,1.19,.18,.65,0,1.19-.18,1.44-.46,.2-.21,.4-.6,.67-1.12l.17,.03c-.06,.32-.31,1.49-.4,1.8h-5.38v-.16c1.03-.13,1.12-.26,1.12-1.5v-4.13h0Zm5.75-1.09c0,.29-.24,.53-.54,.53s-.54-.24-.54-.53,.24-.54,.54-.54,.54,.24,.54,.54Zm-.99,0c0,.26,.2,.46,.44,.46s.44-.21,.44-.46-.2-.47-.44-.47-.44,.21-.44,.47Zm.46-.3c.1,0,.21,.03,.21,.16,0,.07-.06,.13-.13,.15,.02,.03,.05,.09,.08,.13,.03,.04,.05,.07,.07,.1s.04,.03,.05,.04h0v.02h-.05c-.08,0-.12-.03-.16-.09-.03-.05-.06-.1-.08-.15-.01-.02-.03-.03-.04-.03h-.04v.14c0,.07,0,.08,.08,.1v.03h-.27v-.03c.07-.01,.08-.02,.08-.1v-.35c0-.07,0-.09-.08-.1v-.03h.27Zm-.09,.3h.06s.05,0,.07-.02c.05-.03,.06-.09,.06-.11,0-.11-.07-.14-.12-.14-.06,0-.06,0-.06,.05v.22h0Zm-29.46-.64s.06,.17,.08,.24h.14l-.22-.24Z"/></g><path class="e" d="M33.92,23.72c4.22-.22,5.74,2.17,6.27,3.61,.51,1.38,.35,2.82-.41,3.85-.6,.81-1.48,1.22-2.47,1.16-.95-.06-1.28-.59-1.27-1.06,0-.37,.22-.8,.81-.82l.4-.02v-1.5l-.44,.02c-1.47,.04-2.25,1.19-2.27,2.3-.02,1.17,.82,2.48,2.69,2.59,1.49,.09,2.87-.56,3.77-1.77,1.07-1.44,1.3-3.41,.62-5.27-.54-1.47-2.38-4.88-7.76-4.6-2.92,.15-6.62,2.21-8.69,5.88v4.82c.66-5.75,5.34-9.02,8.77-9.2Z"/><path class="e" d="M39.02,49.53c-6.46-1.22-10.37-5.91-10.41-5.97-1.69-2.26-3.12-4.44-3.46-7.71v5.15c.64,1.22,1.41,2.33,2.25,3.46,.03,.04,2.46,3.05,6.76,5.07"/></g></g></g></svg>