<?xml version="1.0" encoding="UTF-8"?><svg xmlns="http://www.w3.org/2000/svg" viewBox="0 0 75.41 75.41"><defs><style>.d{fill:none;}.e{fill:#ef0006;}</style></defs><g id="a"/><g id="b"><g id="c"><g><path class="e" d="M58.71,48.55h-.15v-.18l.15,.18Z"/><path class="e" d="M58.55,48.37c.22,0,.41,.18,.41,.41,0,.22-.18,.41-.41,.41-.22,0-.41-.18-.41-.41,0-.22,.18-.41,.41-.41h0Zm.15,.18h0v-.18h.05v.53h0v.13h0l-.05-.48Z"/><path class="e" d="M24.21,50.43c.12,.51,.06,1.05-.18,1.53-.24,.5-.75,.8-1.3,.79h-3.82c-.52,.03-1.02-.22-1.3-.66-.15-.22-.24-.47-.28-.74-.11-.38-.11-.79,0-1.17,.15-.55,.61-.96,1.17-1.04h4.18c.46,0,.89,.23,1.15,.61,.17,.2,.3,.44,.38,.69Z"/><g><rect class="d" width="75.41" height="75.41"/><path class="e" d="M53.46,32.08c.13,.97,.13,1.96,0,2.93,.04,1.48-.25,2.95-.87,4.3-.59,1.13-1.47,2.08-2.55,2.75-.86,.53-1.82,.87-2.83,.99-.4,.03-.8,.03-1.2,0H28.49c-.68,0-1.37-.06-2.04-.2-1.67-.4-3.12-1.42-4.07-2.85-.65-.99-1.1-2.1-1.32-3.26-.16-.84-.23-1.69-.2-2.55,0-1.29,.27-2.57,.76-3.77,.48-1.17,1.25-2.19,2.24-2.98,.87-.7,1.9-1.17,3-1.35,.47-.09,.95-.14,1.43-.13h17.82c.97-.02,1.93,.15,2.83,.51,1.29,.5,2.39,1.39,3.16,2.55,.66,.92,1.13,1.95,1.37,3.05Z"/><path class="e" d="M66.04,15.51L37.7,1.86,9.37,15.51,2.37,45.94l19.59,24.84h31.48l19.59-24.84-7-30.43Zm-29.4,35.69v.13l-.41,.66c-.06,.04-.14,.04-.2,0h-1.78c-.1,0-.19,.04-.23,.13l-.92,1.35h-1.02c1.02-1.63,2.06-3.26,3.08-4.91,.12-.24,.4-.37,.66-.31,.16,.02,.3,.13,.36,.28l1.4,2.21,1.65,2.72v.15h-.97l-2.55-4.2-1.15,1.78h2.06Zm20.39-2.11h-4.05c-.6,.16-1.04,.66-1.12,1.27h5.09v.15l-.38,.61c-.02,.09-.11,.14-.2,.13h-4.43c.07,.56,.44,1.04,.97,1.25,.15,.02,.31,.02,.46,0h4.2v.13c-.15,.2-.29,.42-.41,.64-.06,.03-.14,.03-.2,0h-3.49c-.9,.04-1.72-.48-2.09-1.3-.48-.89-.48-1.96,0-2.85,.51-.61,1.31-.89,2.09-.74h4.15l-.59,.71Zm.66-14.18c-.06,1.94-.52,3.85-1.35,5.6v.05c-.88,1.9-2.28,3.52-4.02,4.68-1.19,.78-2.52,1.31-3.92,1.58-.77,.13-1.56,.2-2.34,.2H28.23c-1.63,0-3.23-.34-4.71-1.02-1.76-.81-3.26-2.07-4.35-3.67-1.02-1.44-1.73-3.08-2.06-4.81-.28-1.24-.38-2.52-.31-3.79,.06-1.93,.53-3.82,1.37-5.55,.86-1.86,2.21-3.45,3.9-4.61,1.2-.79,2.56-1.32,3.97-1.58,.72-.14,1.45-.21,2.19-.2h17.97c1.77-.01,3.51,.39,5.09,1.17,1.63,.82,3.02,2.05,4.05,3.56,1,1.43,1.69,3.05,2.04,4.76,.25,1.19,.36,2.4,.31,3.61Zm-6.77,17.87v.13c0,.2-.25,.38-.36,.59s0,.15-.25,.15h-4v-5.37h.84v4.51h3.77Zm-10.82-.76c.24,.44,.7,.7,1.2,.69h4.07v.13l-.41,.64c-.06,.04-.14,.04-.2,0h-3.36c-1.05,.04-2-.63-2.32-1.63-.3-.85-.2-1.78,.28-2.55,.38-.67,1.09-1.08,1.86-1.09h4.35c-.02,.06-.04,.12-.08,.18v.15l-.38,.61s0,.13-.2,0h-3.44c-.18-.03-.36-.03-.53,0-.36,.07-.67,.31-.84,.64-.43,.68-.43,1.56,0,2.24Zm-9.22-2.29c-.11-.26-.36-.42-.64-.41h-3.72v4.51h-.94v-5.35h4.28c.74,0,1.39,.5,1.58,1.22,.21,.85-.3,1.7-1.15,1.91-.12,.03-.25,.05-.38,.05h-.61c.33,.38,.71,.71,1.07,1.07l.91,.89h-.73l-1.58-1.53c-.46-.46-.92-.92-1.4-1.35h2.7c.24,.01,.47-.09,.61-.28,.15-.22,.15-.52,0-.74Zm-14.21-.31c.4-.81,1.24-1.31,2.14-1.27h3.84c.83,0,1.59,.46,1.99,1.2,.6,.97,.58,2.2-.05,3.16-.39,.72-1.15,1.15-1.96,1.12h-3.79c-1.07,.05-2.03-.63-2.34-1.65-.3-.84-.24-1.76,.18-2.55Zm42.07-.28c-.06,.02-.13,.01-.2,0-.25,.01-.47-.18-.48-.43,0-.02,0-.03,0-.05,0-.25,.21-.46,.46-.46,.26-.06,.52,.1,.58,.36,.06,.26-.1,.52-.36,.58Z"/></g></g></g></g></svg>