<?xml version="1.0" encoding="UTF-8"?><svg xmlns="http://www.w3.org/2000/svg" viewBox="0 0 75.41 75.41"><defs><style>.d{fill:none;}.e{fill:#12924f;}.f{fill:#10aa50;}</style></defs><g id="a"/><g id="b"><g id="c"><g><path class="d" d="M58.55,48.7l.33,.38h-.13l-.2-.43h-.38v.43h0v-.97h.28c.31,0,.31,.08,.31,.25,0,.2-.2,.33-.2,.33Zm-.2-.18c.2,0,.2-.15,.2-.15h-.25v.18l.05-.03Z"/><path class="d" d="M56.97,47.35c0,.78-.52,1.47-1.27,1.71-.52,.19-1.07,.28-1.63,.25h-2.32c-.08-.03,.13-.38,.13-.38h.43c.31-.08,.31-.18,.31-.48v-4.3c0-.28-.1-.43-.31-.43h-.59c-.05-.05,.15-.38,.15-.38h2.8c.76,0,1.81,.28,1.81,1.43-.03,.56-.39,1.04-.92,1.22h0c.73,.07,1.32,.64,1.4,1.37Zm-3.44-1.53h.71c.24,.05,.48,.05,.71,0,.31-.18,.49-.53,.46-.89,0-.84-.59-1.17-1.48-1.17h-.36v.15c-.13,.36-.13,1.27-.05,1.91Zm1.09,3.16c.65,.04,1.22-.44,1.27-1.09,0-.87-.64-1.35-1.81-1.35h-.51v2.01c0,.19,.11,.36,.28,.46,.25,.06,.51,.06,.76,0v-.03Z"/><path class="d" d="M59.29,48.65c0,.41-.33,.75-.74,.76h0c-.42,0-.76-.34-.76-.76s.34-.76,.76-.76c.41,.03,.73,.36,.74,.76Zm-.05,0c0-.38-.3-.7-.69-.71h0c-.38,.01-.69,.33-.69,.71-.02,.09-.02,.18,0,.27,.07,.39,.45,.64,.83,.57,.39-.07,.64-.45,.57-.83h-.03Z"/><path class="e" d="M53.66,45.82h0v-2.06h.36c.89,0,1.48,.33,1.48,1.17,.03,.36-.15,.71-.46,.89-.24,.05-.48,.05-.71,0h-.66Z"/><path class="e" d="M55.96,47.5c0,.07,0,.14,0,.21-.06,.66-.64,1.14-1.3,1.09-.25,.06-.51,.06-.76,0-.17-.1-.27-.27-.28-.46v-2.01h.51c1.17,0,1.88,.48,1.83,1.17Z"/><path class="e" d="M49.11,43.91c.77,.49,1.21,1.36,1.17,2.27,.07,.78-.22,1.55-.79,2.09-.38,.35-.89,.53-1.4,.51-.35,.02-.69-.06-.99-.23h0c-.12-.1-.19-.25-.2-.41v-4.43h0c.16-.03,.32-.03,.48,0,.58-.11,1.19-.04,1.73,.2Z"/><path class="e" d="M59.27,48.65h0c.02,.09,.02,.18,0,.27-.07,.39-.45,.64-.83,.57-.39-.07-.64-.45-.57-.83,0-.38,.3-.7,.69-.71h0c.39,0,.71,.32,.71,.71Zm-.38,.48l-.2-.43q.18-.03,.18-.28c0-.25-.08-.25-.31-.25h-.25v.97h0v-.43h.25l.18,.43h.15Z"/><path class="e" d="M58.76,48.55c0,.15-.05,.15-.2,.15h-.25v-.33h.25s.2,.03,.2,.18Z"/><g><rect class="d" width="75.41" height="75.41"/><path class="d" d="M38.34,18.51h0c2.38,2.2,4.02,5.1,4.68,8.27-.66-3.18-2.3-6.07-4.68-8.27Z"/><path class="d" d="M43.15,30.91c-.42,2.98-2.02,5.68-4.43,7.48-.23,1.04-.53,2.11-.53,3.16h-.56c-.15-1.5-.36-2.93-.36-2.93h0c.46,.17,.96,.09,1.35-.2,2.45-1.8,4.08-4.5,4.53-7.51Z"/><path class="d" d="M41.93,45.34c1.04,.06,1.84,.94,1.78,1.98,.03,.72-.32,1.41-.92,1.81-.37,.23-.79,.36-1.22,.38-.09,0-.18,0-.26,0-1.06-.1-1.85-1.04-1.75-2.11-.04-.68,.29-1.32,.87-1.68,.41-.25,.87-.38,1.35-.38,.05,0,.1,0,.16,0Zm.89,2.31c0-1.15-.56-1.91-1.4-1.91-.16,0-.32,.05-.46,.13-.39,.29-.59,.77-.53,1.25,0,1.15,.59,1.96,1.4,1.96,.22,0,.43-.07,.61-.2,.29-.34,.43-.78,.38-1.22Z"/><path class="d" d="M43.28,30.88v-1.07c-.15,.36-.15,.74,0,1.07Z"/><path class="d" d="M23.57,49.11h0c.01,.11,.01,.22,0,.33h-1.99c-.03-.11-.03-.22,0-.33h.33c.23-.05,.23-.2,.23-.36v-1.93c-.04-.45-.44-.79-.89-.76-.32,.02-.63,.14-.89,.33h.18c.03,.24,.03,.48,0,.71v1.6c0,.28,.2,.28,.2,.28h.28c.03,.08,.03,.17,0,.25h-2.01v-.15c-.02-.06-.02-.12,0-.18h.28c.23-.05,.23-.13,.23-.31,.05-.67,.05-1.34,0-2.01-.03-.44-.4-.78-.84-.76-.32,.06-.63,.21-.87,.43-.03,.07-.03,.14,0,.2v2.29s.08,.03,.13,.03h.25c.03,.11,.03,.22,0,.33h-2.01c-.01-.07-.01-.14,0-.2h0c.13,.01,.25,.01,.38,0,.25-.05,.25,.18,.25-.36v-2.21h0c.04-.08,.04-.17,0-.25-.16-.1-.33-.18-.51-.23v-.13h.15c.46-.06,.92-.18,1.35-.36,.01,.05,.01,.1,0,.15h0v.31h0c.41-.3,.9-.46,1.4-.48,.43,0,.82,.23,1.02,.61h0c.39-.33,.87-.54,1.37-.61,.81,0,1.3,.59,1.3,1.6v1.81c.02,.09,.09,.17,.18,.2l.48,.15Z"/><path class="d" d="M38.34,46.08h-.28c.01,.12,.01,.24,0,.36,.05,.5-.18,.98-.59,1.27-.3,.22-.65,.36-1.02,.41h-.25c-.13,.02-.23,.12-.25,.25,0,.13,.1,.31,.46,.31h.25c.48,0,.96,.07,1.43,.18,.4,.14,.66,.52,.64,.94-.07,.73-.54,1.36-1.22,1.63-.37,.17-.77,.26-1.17,.25h0c-.44,.03-.89-.1-1.25-.36-.27-.21-.44-.52-.46-.87,0-.17,.06-.34,.18-.46,.23-.25,.5-.46,.79-.64h0c-.27-.08-.48-.29-.56-.56h0s-.03-.11,0-.15l.23-.15,.41-.25h0c-.59-.16-.97-.72-.92-1.32,0-.44,.2-.86,.56-1.12,.38-.25,.82-.39,1.27-.43h0c.33,.02,.65,.09,.94,.23,.19,.04,.39,.04,.59,0,.23,.02,.45-.07,.61-.23,.01,.06,.01,.12,0,.18,.04,.13,.04,.27,0,.41-.1,.11-.23,.18-.38,.18h0v-.05Zm-2.37,3.59c-.36,.25-.53,.48-.53,.74,0,.25,.11,.48,.31,.64,.3,.24,.68,.36,1.07,.33,.89,0,1.27-.48,1.27-.97,.02-.32-.2-.6-.51-.66-.4-.12-.81-.17-1.22-.15h0c-.13,0-.26,.03-.38,.08Zm1.37-2.8c0-.71-.36-1.15-.94-1.15h0c-.46,0-.76,.36-.76,.92s.25,1.22,.97,1.22c.18,0,.35-.06,.48-.18,.18-.23,.27-.52,.25-.81Z"/><path class="d" d="M26.73,45.34c1.04,.06,1.84,.94,1.78,1.98,.04,.72-.31,1.41-.92,1.81-.36,.23-.77,.36-1.2,.38-.1,0-.19,0-.29,0-1.06-.1-1.85-1.04-1.74-2.11-.03-.68,.31-1.32,.89-1.68,.4-.25,.86-.38,1.32-.38,.05,0,.1,0,.16,0Zm.91,2.31c0-1.15-.56-1.91-1.4-1.91-.17,0-.34,.05-.48,.13-.37,.3-.56,.77-.51,1.25,0,1.15,.56,1.96,1.4,1.96,.22,0,.43-.08,.61-.2,.28-.34,.42-.78,.38-1.22Z"/><path class="d" d="M34.04,49.01c.05,.12,.05,.26,0,.38h-2.04v-.38h.41c.18-.05,.18-.13,.18-.48,.03-.59,.03-1.19,0-1.78,0-.22-.11-.42-.28-.56-.17-.13-.37-.2-.59-.2-.3,0-.59,.11-.81,.31-.13,.05-.13,.13-.13,.33v2.11c0,.28,.05,.28,.2,.28,.14,.01,.27,.01,.41,0,.05,.12,.05,.26,0,.38h-2.06v-.38h.36c.15-.04,.25-.18,.23-.33v-2.21c.03-.08,.03-.17,0-.25-.16-.1-.33-.18-.51-.23h0c-.25-.05-.2-.31,0-.31,.46-.06,.92-.18,1.35-.36,.02,.06,.02,.12,0,.18-.01,.14-.01,.29,0,.43h0c.36-.36,.82-.58,1.32-.64,.41,0,.79,.2,1.02,.53,.28,.34,.44,.76,.46,1.2v1.91c.18,.07,.37,.13,.56,.15l-.08-.08Z"/><path class="d" d="M50.33,43.76c.12,.11,.22,.23,.32,.36,1.07,1.38,.82,3.36-.55,4.43-.75,.5-1.65,.74-2.55,.69h-2.55c-.05-.08,.13-.38,.13-.38h.41c.25-.08,.25,.08,.25-.51v-2.14c0-.59,.03-1.81,0-2.11s-.15-.43-.41-.43h-.56c-.03-.05,.18-.38,.18-.38h3.08c.78-.12,1.58,.06,2.24,.48Zm-.25,2.7c.04-.91-.4-1.77-1.17-2.27-.5-.28-1.06-.41-1.63-.38-.16-.03-.32-.03-.48,0h0v4.43c.01,.16,.09,.3,.2,.41h0c.3,.17,.65,.25,.99,.23,.52,.02,1.02-.16,1.4-.51,.48-.51,.73-1.21,.69-1.91Z"/><path class="e" d="M37.35,46.97c.02,.29-.07,.58-.25,.81-.14,.11-.31,.18-.48,.18-.71,0-.97-.66-.97-1.22s.31-.92,.76-.92h0c.59,0,.94,.33,.94,1.15Z"/><path class="e" d="M42.82,47.73c.05,.44-.09,.89-.38,1.22-.18,.13-.39,.2-.61,.2-.81,0-1.4-.81-1.4-1.96-.06-.48,.15-.96,.53-1.25,.14-.08,.3-.12,.46-.13,.84,0,1.4,.69,1.4,1.91Z"/><path class="e" d="M35.97,49.59c.13-.02,.26-.02,.38,0h0c.41-.02,.83,.03,1.22,.15,.31,.06,.53,.35,.51,.66,0,.48-.38,.97-1.27,.97-.39,.03-.77-.09-1.07-.33-.19-.15-.31-.39-.31-.64,0-.25,.2-.48,.53-.81Z"/><path class="e" d="M27.65,47.73c.04,.44-.1,.88-.38,1.22-.18,.13-.39,.2-.61,.2-.84,0-1.4-.81-1.4-1.96-.05-.48,.14-.95,.51-1.25,.15-.08,.31-.12,.48-.13,.84,0,1.4,.69,1.4,1.91Z"/><path class="f" d="M43.15,26.78h0c.15,1,.2,2.02,.13,3.03,.07-1.01,.03-2.03-.13-3.03Z"/><path class="f" d="M37.8,35.39c-.02,1.09-.19,2.17-.51,3.21h0c-3.25-2.37-5.15-6.16-5.09-10.18,.1-3.93,1.86-7.64,4.86-10.18,.35-.3,.55-.74,.53-1.2,.2,.48,.44,.95,.71,1.4-.26-.41-.48-.83-.66-1.27,.28,1.35,.28,10.67,.28,11.81,.06,2.15,.01,4.3-.15,6.44,.02,.49,.07,.99,.15,1.48-.07-.5-.11-1-.13-1.5Z"/><path class="e" d="M66.04,15.51L37.7,1.86,9.37,15.51,2.37,45.94l19.59,24.84h31.48l19.59-24.84-7-30.43Zm-23.14,33.63c-.37,.23-.79,.36-1.22,.38-1.07,.05-1.97-.78-2.02-1.85,0-.09,0-.18,0-.26-.04-.68,.29-1.32,.87-1.68,.41-.25,.87-.38,1.35-.38,1.04-.03,1.91,.79,1.94,1.83,0,.05,0,.1,0,.16,.01,.74-.38,1.43-1.02,1.81h.1Zm.38-18.25c-.47,3.03-2.14,5.73-4.63,7.51h.1c-.23,1.04-.41,2.11-.53,3.16h-.48c-.15-1.5-.36-2.93-.36-2.93-3.25-2.37-5.15-6.16-5.09-10.18,.1-3.93,1.86-7.64,4.86-10.18,.35-.3,.55-.74,.53-1.2,.2,.48,.44,.95,.71,1.4,2.38,2.2,4.02,5.1,4.68,8.27,.18,1.02,.25,2.05,.2,3.08v1.07Zm-10.92,15.38c-.17-.13-.37-.2-.59-.2-.3,0-.59,.11-.81,.31,0,0-.13,.13-.13,.33v2.11c0,.46,0,.25,.2,.28,.14,.01,.27,.01,.41,0,.05,.12,.05,.26,0,.38h-2.06v-.38h.36c.15-.04,.25-.18,.23-.33v-2.21c.03-.08,.03-.17,0-.25-.16-.1-.33-.18-.51-.23-.23,0-.18-.25,0-.31,.46-.06,.92-.18,1.35-.36,.02,.06,.02,.12,0,.18-.01,.14-.01,.29,0,.43,.36-.36,.82-.58,1.32-.64,.37,0,.73,.17,.97,.46,.21,.35,.31,.76,.28,1.17v1.91c.18,.07,.37,.13,.56,.15,.11,.11,.17,.26,.15,.41h-2.04v-.38h.41c.13,0,.18-.13,.18-.48,.03-.59,.03-1.19,0-1.78,0-.22-.11-.42-.28-.56Zm-3.84,1.01c0,.05,0,.1,0,.16,0,.69-.34,1.33-.92,1.71-.36,.23-.77,.36-1.2,.38-1.07,.06-1.98-.75-2.04-1.82,0-.1,0-.19,0-.29,0-.64,.34-1.24,.89-1.58,.4-.25,.86-.38,1.32-.38,1.04-.03,1.91,.79,1.94,1.83Zm-12.25,1.79c.13,.01,.25,.01,.38,0,.18,0,.25-.13,.25-.36v-2.21c.04-.08,.04-.17,0-.25-.16-.1-.33-.18-.51-.23v-.13c0-.13,0,0,.15,0,.45-.13,.87-.32,1.27-.56,.01,.05,.01,.1,0,.15v.36c.38-.32,.84-.52,1.32-.59,.43,0,.82,.23,1.02,.61h.2c.39-.33,.87-.54,1.37-.61,.81,0,1.3,.59,1.3,1.6v1.81c.02,.09,.07,.16,.15,.2l.51,.13c-.02,.15-.06,.3-.13,.43h-1.99c-.03-.11-.03-.22,0-.33h.33c.15,0,.2-.13,.23-.36s0-1.6,0-1.93c-.04-.45-.44-.79-.89-.76-.32,.02-.63,.14-.89,.33,.03,.24,.03,.48,0,.71v1.63c0,.2,0,.23,.2,.28h.28c.03,.08,.03,.17,0,.25h-1.93v-.15c-.02-.06-.02-.12,0-.18h.28c.15,0,.2-.13,.23-.31,.05-.67,.05-1.34,0-2.01-.03-.44-.4-.78-.84-.76-.33,.02-.65,.13-.92,.33-.03,.07-.03,.14,0,.2v2.29c-.01,.14,.09,.27,.23,.28h.44c.03,.11,.03,.22,0,.33h-2.06c-.01-.07-.01-.14,0-.2Zm20.19,2.72c-.44,.03-.89-.1-1.25-.36-.27-.21-.44-.52-.46-.87,0-.17,.06-.34,.18-.46,.23-.25,.5-.46,.79-.64-.27-.08-.48-.29-.56-.56-.03-.05-.03-.11,0-.15l.23-.15,.41-.25c-.59-.16-.97-.72-.92-1.32,0-.44,.2-.86,.56-1.12,.38-.25,.82-.39,1.27-.43,.33,.02,.65,.09,.94,.23,.19,.04,.39,.04,.59,0,.23,.02,.45-.07,.61-.23,.01,.06,.01,.12,0,.18,.04,.13,.04,.27,0,.41-.1,.11-.23,.18-.38,.18h-.28c0,.1,.01,.2,0,.31,.05,.5-.18,.98-.59,1.27-.3,.22-.65,.36-1.02,.41h-.25c-.13,.02-.23,.12-.25,.25,0,.13,0,.28,.46,.31h.25c.48,0,.96,.07,1.43,.18,.4,.14,.66,.52,.64,.94-.07,.73-.54,1.36-1.22,1.63-.37,.17-.77,.26-1.17,.25Zm11.1-2.37h-2.55s0-.38,.13-.38h.41c.18,0,.23-.18,.25-.51,.03-.33,0-1.32,0-2.14v-2.11c0-.36-.15-.38-.41-.43h-.56s.13-.31,.18-.38h3.08c.77-.03,1.53,.21,2.14,.69,1.27,1.2,1.32,3.2,.13,4.46-.11,.12-.23,.22-.36,.32l.1-.2c-.75,.5-1.65,.74-2.55,.69Zm9.47-1.81c-.07,.76-.61,1.39-1.35,1.58h.1c-.52,.19-1.07,.28-1.63,.25h-2.32s0-.36,.13-.38h.43c.25,0,.28-.15,.31-.48s0-1.4,0-2.19v-2.11c0-.28,0-.38-.31-.43h-.59s0-.36,.15-.38h2.8c.76,0,1.81,.28,1.81,1.43-.03,.56-.39,1.04-.92,1.22,.77,.09,1.35,.73,1.37,1.5Zm1.61,1.81s-.05,0-.08,0h.05c-.42,0-.76-.34-.76-.76s.34-.76,.76-.76c.43,0,.78,.34,.79,.76,0,.42-.34,.77-.76,.77Z"/></g></g></g></g></svg>