<svg xmlns="http://www.w3.org/2000/svg" xmlns:xlink="http://www.w3.org/1999/xlink" viewBox="0 0 24 24"><defs><style>.cls-1{fill:none;}.cls-2{fill:#323e45;}</style><symbol id="diagram-aiAnlyze" data-name="diagram-aiAnlyze" viewBox="0 0 24 24"><rect class="cls-1" width="24" height="24"/><path class="cls-2" d="M13,2v3a7,7,0,0,1,5.52,9.46L21.12,16A9.86,9.86,0,0,0,22,12,10,10,0,0,0,13,2ZM12,19A7,7,0,0,1,11,5.05V2a10,10,0,1,0,9.05,15.86l-2.6-1.53A7,7,0,0,1,12,19Z"/><path class="cls-2" d="M12,13.14H9.67l-.41,1.15H7.9l2.29-5.9h1.36l2.29,5.9H12.37ZM11.55,12,10.82,10,10.08,12Z"/><path class="cls-2" d="M15.83,8.79A.79.79,0,1,1,15,8,.77.77,0,0,1,15.83,8.79Zm-.14,5.51H14.4V10.05h1.29Z"/></symbol></defs><title>자산 4</title><g id="레이어_2" data-name="레이어 2"><g id="레이어_1-2" data-name="레이어 1"><use width="24" height="24" xlink:href="#diagram-aiAnlyze"/></g></g></svg>