<?xml version="1.0" encoding="UTF-8"?><svg xmlns="http://www.w3.org/2000/svg" xmlns:xlink="http://www.w3.org/1999/xlink" viewBox="0 0 75.41 75.41"><defs><style>.i{fill:url(#e);}.j{fill:url(#d);}.k{fill:url(#g);}.l{fill:url(#f);}.m{fill:url(#h);}.n{fill:none;}</style><linearGradient id="d" x1="-9172.44" y1="-8246.7" x2="-9171.23" y2="-8246.7" gradientTransform="translate(23373.15 -20943.33) scale(2.55 -2.55)" gradientUnits="userSpaceOnUse"><stop offset="0" stop-color="#0094c8"/><stop offset="1" stop-color="#006494"/></linearGradient><linearGradient id="e" x1="2.37" y1="36.32" x2="73.03" y2="36.32" gradientTransform="matrix(1, 0, 0, 1, 0, 0)" xlink:href="#d"/><linearGradient id="f" x1="-9163.61" y1="-8246.72" x2="-9162.28" y2="-8246.72" xlink:href="#d"/><linearGradient id="g" x1="-9167.98" y1="-8235.06" x2="-9167.16" y2="-8235.06" xlink:href="#d"/><linearGradient id="h" x1="17736.29" y1="-35256.7" x2="17736.09" y2="-35256.43" gradientTransform="translate(-417867.34 -838903.9) scale(23.57 -23.8)" gradientUnits="userSpaceOnUse"><stop offset="0" stop-color="#fbca24"/><stop offset="1" stop-color="#fde064"/></linearGradient></defs><g id="a"/><g id="b"><g id="c"><g><path class="j" d="M25.33,50.79c0,1.63-.48,2.55-1.48,2.55-.58,0-1.14-.19-1.6-.53v-3.95c.16-.14,.35-.25,.56-.31,.35-.12,.72-.18,1.09-.18,.97,0,1.43,.79,1.43,2.42Z"/><g><path class="i" d="M66.04,15.51L37.7,1.86,9.37,15.51,2.37,45.94l19.59,24.84h31.48l19.59-24.84-7-30.43ZM21.23,48.68c.18-.21,.4-.39,.64-.53,.66-.37,1.41-.56,2.16-.53,.73-.02,1.42,.35,1.81,.97,.46,.7,.7,1.53,.66,2.37,.04,.74-.17,1.47-.59,2.09-.41,.62-1.11,.99-1.86,.97-.64,.02-1.28-.17-1.81-.53v3.59l-1.02-.36v-8.02Zm7.84,4.23c.31,.26,.71,.39,1.12,.36,.54-.02,1.07-.21,1.5-.53v-4.94h.99l-.03,5.52c.05,.78-.05,1.57-.31,2.32-.32,.47-.77,.84-1.3,1.04-.53,.21-1.09,.32-1.65,.33l-.18-.64c.43-.05,.85-.13,1.27-.23,.43-.12,.79-.4,1.02-.79,.17-.51,.24-1.04,.2-1.58v-.31c-.69,.31-1.43,.47-2.19,.46-.48,.02-.94-.14-1.3-.46-.41-.32-.64-.81-.64-1.32v-4.15l1.02-.36v4.23c-.03,.4,.14,.79,.46,1.04Zm7.54-4.53h-1.15v3.92c-.03,.3,.08,.61,.31,.81,.26,.14,.55,.22,.84,.23v.61h-.33c-.48,.03-.96-.12-1.35-.41-.32-.28-.49-.7-.46-1.12v-4.05h-.69v-.64h.69v-1.65l.99-.36v2.06h1.15v.59Zm-1.58-18.61c-1.91,.04-3.45,1.58-3.49,3.49v2.55h-1.93c-1.63,0-2.55-1.15-2.98-2.83-.52-1.87-.52-3.84,0-5.7,.33-1.66,1.8-2.85,3.49-2.83h7.64v-.71h-5.6v-2.14c0-1.63,.41-2.55,2.8-2.93,.88-.16,1.78-.24,2.67-.23,1.04-.03,2.08,.04,3.11,.2,1.51,.18,2.69,1.41,2.8,2.93l-.13,5.4c-.02,1.49-1.19,2.71-2.67,2.8h-5.7Zm2.8,14.82l1.02-.33v4.12c.6-.47,1.35-.72,2.11-.71,.49-.01,.96,.18,1.3,.53,.34,.37,.52,.85,.51,1.35l-.03,4.4h-1.02v-4c.02-.35-.07-.69-.25-.99-.19-.31-.53-.5-.89-.48-.64,.06-1.25,.32-1.73,.74v4.68h-1.02v-9.32Zm5.8,6.21c-.03-.79,.25-1.56,.76-2.16,.5-.6,1.24-.93,2.01-.92,.79-.03,1.56,.31,2.06,.92,.48,.62,.73,1.38,.71,2.16,.02,.78-.22,1.55-.66,2.19l-.03,.08c-.5,.65-1.27,1.02-2.09,.99-.81,.02-1.59-.35-2.09-.99-.47-.66-.71-1.46-.69-2.27Zm9.93-2.09c-.3-.26-.7-.39-1.09-.36-.5,0-.98,.18-1.37,.48v5.09h-1.02v-5.22c.47-.38,1.02-.66,1.6-.81,.4-.12,.81-.19,1.22-.2,.23-.02,.46-.02,.69,0,.37,.06,.71,.24,.97,.51,.26,.26,.41,.62,.41,.99v4.61l-.99,.15v-4.2c.02-.39-.13-.77-.41-1.04Zm2.98-2.88v-.15h1.02v.15h-.43v1.09h-.18v-1.09h-.41Zm2.34,1.09h-.18v-1.09l-.33,1.02h-.18l-.31-1.02v1.02h-.15v-1.25h.23l.33,1.07,.38-1.07h.2v1.32Z"/><path class="l" d="M47.76,49.29c.25,.49,.37,1.03,.36,1.58,0,1.65-.59,2.55-1.68,2.55-.59,0-1.12-.35-1.35-.89-.25-.55-.37-1.15-.36-1.76,0-1.53,.59-2.39,1.68-2.39,.59,.02,1.11,.38,1.35,.92Z"/><ellipse class="k" cx="34.65" cy="21.21" rx="1.04" ry="1.07"/><rect class="n" width="75.41" height="75.41"/><path class="m" d="M46.21,24.29c1.63,0,2.42,1.22,2.8,2.83,.57,1.86,.57,3.85,0,5.7-.56,1.68-1.2,2.83-2.8,2.83h-8.4v.89h5.6v2.14c0,1.65-1.4,2.44-2.8,2.88-1.82,.57-3.78,.57-5.6,0-1.5-.46-2.8-1.35-2.8-2.88v-5.32c0-1.56,1.24-2.84,2.8-2.88h5.58c1.93-.04,3.49-1.61,3.51-3.54v-2.55l2.11-.1Zm-5.3,13.59c-.58,.01-1.03,.49-1.02,1.07,0,0,0,.02,0,.03,0,.58,.47,1.04,1.04,1.04,0,0,.02,0,.03,0,.58-.01,1.03-.49,1.02-1.07,0-.58-.46-1.06-1.04-1.07,0,0-.02,0-.03,0Z"/></g></g></g></g></svg>