<svg xmlns="http://www.w3.org/2000/svg" xmlns:xlink="http://www.w3.org/1999/xlink" viewBox="0 0 24 24"><defs><style>.cls-1{fill:none;}.cls-2{fill:#323e45;}</style><symbol id="diagram-column" data-name="diagram-column" viewBox="0 0 24 24"><rect class="cls-1" width="24" height="24"/><path class="cls-2" d="M14.6,12.45H9.49v6.72H14.6Z"/><path class="cls-2" d="M14.6,4.83H9.49v6.72H14.6Z"/><path class="cls-2" d="M15.41,11.55H21V6.62a1.8,1.8,0,0,0-1.79-1.79H15.41Z"/><path class="cls-2" d="M8.59,12.45H3v4.93a1.8,1.8,0,0,0,1.79,1.79H8.59Z"/><path class="cls-2" d="M15.41,12.45v6.72h3.76A1.8,1.8,0,0,0,21,17.38V12.45Z"/><path class="cls-2" d="M8.59,11.55V4.83H4.83A1.8,1.8,0,0,0,3,6.62v4.93Z"/></symbol></defs><title>자산 3</title><g id="레이어_2" data-name="레이어 2"><g id="레이어_1-2" data-name="레이어 1"><use width="24" height="24" xlink:href="#diagram-column"/></g></g></svg>