<?xml version="1.0" encoding="UTF-8"?><svg xmlns="http://www.w3.org/2000/svg" viewBox="0 0 75.41 75.41"><defs><style>.d{fill:none;}.e{fill:#231f20;}</style></defs><g id="a"/><g id="b"><g id="c"><g><path class="e" d="M19.14,43.91c.33,0,.64,.15,.87,.38h0c.23,.23,.36,.54,.36,.87,.04,.32-.06,.64-.25,.89h0c-.23,.23-.54,.36-.87,.36-.33,.01-.64-.12-.87-.36h0c-.24-.24-.36-.56-.36-.89,0-.33,.12-.64,.36-.87h0c.2-.22,.47-.36,.76-.38Z"/><path class="e" d="M20.52,36.43c.33,.34,.52,.8,.51,1.27,0,.48-.17,.94-.51,1.27-.02,.02-.04,.04-.06,.06-.7,.67-1.81,.64-2.48-.06-.33-.34-.51-.8-.51-1.27,0-.47,.19-.93,.51-1.27,.33-.34,.79-.54,1.27-.53,.48,0,.94,.19,1.27,.53Z"/><path class="e" d="M19.14,31.49c-.33,.01-.64-.12-.87-.36h0c-.24-.24-.36-.56-.36-.89,0-.33,.12-.64,.36-.87h0c.22-.25,.54-.39,.87-.38,.33,0,.64,.15,.87,.38h0c.23,.23,.36,.54,.36,.87,.04,.32-.06,.64-.25,.89h0c-.25,.26-.61,.39-.97,.36Z"/><g><rect class="d" width="75.41" height="75.41"/><path class="e" d="M24.41,41.93c-.13-.3-.13-.64,0-.94,.17-.28,.44-.49,.76-.59,.29-.11,.6-.11,.89,0h0c.28,.17,.49,.44,.59,.76,.11,.29,.11,.6,0,.89h0c-.16,.28-.43,.49-.74,.59h0c-.32,.09-.66,.04-.94-.13h0c-.25-.12-.45-.33-.56-.59Z"/><path class="e" d="M24.54,34.6c-.13-.3-.13-.64,0-.94,.07-.32,.28-.6,.56-.76h0c.29-.16,.62-.2,.94-.13,.3,.1,.56,.31,.71,.59h0c.11,.3,.11,.64,0,.94-.09,.31-.29,.58-.56,.76h-.02c-.57,.34-1.3,.14-1.63-.43v-.03Z"/><path class="e" d="M41.93,37.93c.13,.25,.18,.53,.15,.81,0,.28-.07,.56-.2,.81-.27,.59-.88,.96-1.53,.94-.02,0-.03,0-.05,0-.96-.03-1.71-.83-1.68-1.78h0s0-.05,0-.08c0-.96,.78-1.73,1.73-1.73,.68-.01,1.31,.39,1.58,1.02Z"/><path class="e" d="M58.04,37.93c.13,.25,.18,.53,.15,.81,0,.28-.07,.56-.2,.81-.27,.59-.88,.96-1.53,.94-.02,0-.03,0-.05,0-.96-.03-1.71-.83-1.68-1.78h0s0-.05,0-.08c0-.96,.78-1.73,1.73-1.73,.68-.01,1.31,.39,1.58,1.02Z"/><path class="e" d="M66.04,15.51L37.7,1.86,9.37,15.51,2.37,45.94l19.59,24.84h31.48l19.59-24.84-7-30.43Zm-29,26.07l-1.68,.03-2.06-2.9v2.9h-1.22v-7.82h1.35v4.23l1.99-2.21h1.63l-2.39,2.55,2.39,3.23Zm-19.55-9.7c-.49-.52-.76-1.2-.76-1.91,0-.7,.28-1.38,.76-1.88,.95-1.03,2.56-1.1,3.6-.14,.05,.05,.1,.09,.14,.14,.51,.49,.78,1.18,.76,1.88,0,.71-.27,1.4-.76,1.91-.37,.36-.82,.62-1.32,.74v1.43c.71,.11,1.36,.45,1.86,.97,.08,.07,.15,.16,.2,.25l1.22-.74c-.14-.5-.14-1.03,0-1.53,.18-.68,.62-1.27,1.22-1.63,.6-.35,1.32-.44,1.99-.25,.67,.2,1.25,.64,1.6,1.25,.35,.62,.44,1.35,.25,2.04-.18,.68-.62,1.27-1.22,1.63h-.18c-.57,.27-1.22,.34-1.83,.18-.49-.15-.93-.43-1.27-.81l-1.22,.71c.17,.52,.2,1.07,.1,1.6,0,.42-.08,.83-.23,1.22l1.22,.71c.81-.97,2.21-1.2,3.28-.53,1.29,.73,1.78,2.35,1.09,3.67-.35,.6-.91,1.03-1.58,1.22-.68,.19-1.41,.09-2.01-.28-.61-.36-1.05-.95-1.22-1.63-.14-.5-.14-1.03,0-1.53l-1.22-.71-.2,.25c-.51,.5-1.16,.83-1.86,.97v1.43c.51,.11,.97,.36,1.32,.74,.51,.49,.78,1.18,.76,1.88,0,.71-.27,1.4-.76,1.91-.95,1.03-2.56,1.1-3.6,.14-.05-.05-.1-.09-.14-.14-.48-.52-.76-1.2-.76-1.91,0-.7,.28-1.38,.76-1.88,.36-.37,.82-.63,1.32-.74v-1.43c-.7-.13-1.34-.47-1.83-.97-.66-.68-1.02-1.6-.99-2.55-.04-.95,.32-1.87,.99-2.55,.48-.52,1.13-.86,1.83-.97v-1.43c-.5-.12-.96-.38-1.32-.74Zm22.53,9.88c-1.71-.16-2.97-1.67-2.81-3.37,.14-1.49,1.32-2.68,2.81-2.81,.78-.04,1.52,.35,1.93,1.02v-.84h1.37v5.86h-1.37v-.87c-.41,.67-1.15,1.06-1.93,1.02Zm7.1-5.96v1.07h-.89v4.74h-1.37v-4.74h-.71v-1.07h.71v-.33c0-1.73,1.3-1.83,2.27-1.83v1.07c-.33,0-.89,0-.89,.81v.28h.89Zm4.28,0h1.63l-2.39,2.55,2.39,3.23-1.55,.03-2.06-2.9v2.9h-1.35v-7.82h1.35v4.23l1.99-2.21Zm8.04,5.8h-1.37v-.87c-.41,.67-1.15,1.06-1.93,1.02-1.71-.16-2.97-1.67-2.81-3.37,.14-1.49,1.32-2.68,2.81-2.81,.78-.04,1.52,.35,1.93,1.02v-.84h1.37v5.86Z"/></g></g></g></g></svg>