<?xml version="1.0" encoding="UTF-8"?><svg xmlns="http://www.w3.org/2000/svg" xmlns:xlink="http://www.w3.org/1999/xlink" viewBox="0 0 75.41 75.41"><defs><style>.j{fill:url(#e);}.k{fill:url(#d);}.l{fill:url(#g);}.m{fill:url(#f);}.n{fill:none;}.o{fill:#fff;}.p{clip-path:url(#i);}.q{clip-path:url(#h);}</style><linearGradient id="d" x1="2.37" y1="36.32" x2="73.03" y2="36.32" gradientTransform="matrix(1, 0, 0, 1, 0, 0)" gradientUnits="userSpaceOnUse"><stop offset="0" stop-color="#ff6f00"/><stop offset="1" stop-color="#ffa800"/></linearGradient><linearGradient id="e" x1="-8155.78" y1="-8569.76" x2="-8153.67" y2="-8569.76" gradientTransform="translate(8190.81 -8523.05) scale(1 -1)" xlink:href="#d"/><linearGradient id="f" x1="-8141.88" y1="-8569.76" x2="-8139.77" y2="-8569.76" gradientTransform="translate(8190.81 -8523.05) scale(1 -1)" xlink:href="#d"/><linearGradient id="g" x1="-8168.69" y1="-8568.77" x2="-8166.8" y2="-8568.77" gradientTransform="translate(8190.81 -8523.05) scale(1 -1)" xlink:href="#d"/><clipPath id="h"><polygon class="n" points="47.22 30.07 41.75 26.86 41.75 29.25 44.47 30.83 44.5 34.93 41.75 33.35 41.75 39.33 38.11 41.45 38.11 20.14 47.22 25.33 47.22 30.07"/></clipPath><clipPath id="i"><polygon class="n" points="28.18 30.07 33.66 26.86 33.66 39.33 37.3 41.45 37.3 20.14 28.18 25.33 28.18 30.07"/></clipPath></defs><g id="a"/><g id="b"><g id="c"><g><path class="k" d="M66.04,15.51L37.7,1.86,9.37,15.51,2.37,45.94l19.59,24.84h31.48l19.59-24.84-7-30.43Zm-33.6,31.79c-.22-.12-.46-.21-.71-.25-.3-.04-.6-.14-.87-.28-.43-.16-.72-.56-.74-1.02,0-.36,.16-.71,.43-.94,.34-.28,.78-.43,1.22-.41,.46-.03,.91,.12,1.27,.41,.31,.23,.48,.61,.46,.99h-.99c0-.18-.07-.36-.2-.48-.16-.13-.37-.2-.59-.18-.18,0-.36,.05-.51,.15-.14,.09-.22,.24-.2,.41-.01,.14,.06,.28,.18,.36,.24,.11,.5,.2,.76,.25,.32,.05,.63,.15,.92,.31,.21,.09,.38,.24,.51,.43,.1,.18,.15,.38,.15,.59,.02,.37-.14,.73-.43,.97-.39,.25-.84,.37-1.3,.36-.33,.01-.65-.06-.94-.2-.27-.1-.5-.28-.66-.51-.16-.22-.24-.47-.25-.74h.97c0,.21,.09,.41,.25,.53,.18,.13,.41,.2,.64,.18,.21,.01,.41-.04,.59-.15,.15-.06,.25-.2,.25-.36,0-.16-.07-.32-.2-.41Zm-4.23-1.88c-.17-.14-.39-.21-.61-.2-.38-.02-.73,.19-.89,.53v3.13h-.99v-4.4h.94v.51c.32-.38,.8-.59,1.3-.59,.92,0,1.37,.53,1.4,1.58l.03,2.93h-.99v-2.85c.02-.23-.04-.45-.18-.64Zm-5.75,2.42c.22,.22,.51,.34,.81,.33,.43,0,.84-.21,1.09-.56l.53,.51c-.17,.26-.41,.47-.69,.61-.31,.17-.66,.25-1.02,.23-.57,.02-1.12-.19-1.53-.59-.4-.43-.61-.99-.59-1.58v-.13c0-.41,.08-.81,.25-1.17,.17-.33,.41-.61,.71-.81,.31-.19,.68-.29,1.04-.28,.53-.04,1.04,.17,1.4,.56,.36,.47,.53,1.05,.48,1.63v.38h-2.88c.02,.32,.15,.62,.36,.87Zm-5.19-4.86h4.71v.84h-1.83v5.09h-1.04v-5.09h-1.83v-.84Zm19.96,5.73c-.83,.46-1.86,.33-2.55-.33-.39-.46-.59-1.05-.59-1.65,0-.4,.08-.79,.25-1.15,.15-.33,.4-.6,.71-.79,.32-.19,.69-.29,1.07-.28,.54-.03,1.07,.18,1.45,.56,.37,.43,.58,.96,.61,1.53v.18c0,.4-.08,.79-.25,1.15-.15,.33-.4,.6-.71,.79Zm3.54-4.3c.11-.02,.22-.02,.33,0v.92l-.36,.05c-.38-.05-.75,.16-.92,.51v3.03h-.99v-4.43h.94v.51c.19-.37,.58-.59,.99-.59Zm4.51,1.17v.81h-2.39v2.55h-1.04v-5.96h3.77l.03,.84h-2.75v1.76h2.39Zm.99,3.33v-5.96h.99v5.96h-.99Zm1.71-2.19c0-.4,.08-.79,.25-1.15,.16-.32,.41-.6,.71-.79,.32-.19,.69-.29,1.07-.28,.54-.03,1.07,.18,1.45,.56,.39,.41,.61,.96,.61,1.53v.18c0,.39-.08,.78-.23,1.15-.15,.34-.41,.61-.74,.79-.32,.2-.69,.3-1.07,.28-.57,.03-1.12-.2-1.5-.61-.38-.47-.57-1.05-.56-1.65Zm9.04,2.19h-.81l-.97-3.08-.94,3.03h-.81l-1.2-4.4h.97l.71,3,.92-3h.74l.89,3.03,.71-3.03h.94l-1.15,4.46Z"/><path class="j" d="M36.86,45.59c.21,.32,.3,.69,.28,1.07,.04,.4-.06,.81-.28,1.15l-.18,.18-.02,.02c-.43,.32-1.03,.23-1.35-.19-.2-.32-.3-.69-.28-1.07-.02-.4,.07-.79,.25-1.15l.2-.2c.44-.3,1.04-.21,1.37,.2Z"/><path class="m" d="M50.74,45.59c.21,.31,.32,.69,.31,1.07,.02,.4-.07,.8-.28,1.15-.16,.26-.46,.41-.76,.38-.31,.02-.61-.13-.79-.38-.2-.32-.3-.69-.28-1.07-.02-.4,.07-.79,.25-1.15,.05-.08,.12-.15,.2-.2,.43-.3,1.02-.21,1.35,.2Z"/><path class="l" d="M23.75,45.52c.17,.21,.26,.47,.25,.74h-1.88c.01-.29,.12-.57,.31-.79,.17-.18,.41-.28,.66-.28,.25,.03,.49,.15,.66,.33Z"/><rect class="n" width="75.41" height="75.41"/><polygon class="o" points="47.22 30.07 41.75 26.86 41.75 29.25 44.47 30.83 44.5 34.93 41.75 33.35 41.75 39.33 38.11 41.45 38.11 20.14 47.22 25.33 47.22 30.07"/><g class="q"><path class="o" d="M27.34,41.47h22.35V20.06H27.34v21.41Z"/></g><polygon class="o" points="28.18 30.07 33.66 26.86 33.66 39.33 37.3 41.45 37.3 20.14 28.18 25.33 28.18 30.07"/><g class="p"><path class="o" d="M27.21,41.47h22.35V20.06H27.21v21.41Z"/></g></g></g></g></svg>