<svg xmlns="http://www.w3.org/2000/svg" xmlns:xlink="http://www.w3.org/1999/xlink" viewBox="0 0 24 24"><defs><style>.cls-1{fill:none;}.cls-2{fill:#323e45;}</style><symbol id="diagram-table" data-name="diagram-table" viewBox="0 0 24 24"><rect class="cls-1" width="24" height="24"/><path class="cls-2" d="M19,12.41H5a2,2,0,0,0-2,2v3a2,2,0,0,0,2,2H19a2,2,0,0,0,2-2v-3A2,2,0,0,0,19,12.41Z"/><path class="cls-2" d="M19,4.62H5a2,2,0,0,0-1.1.3A2.21,2.21,0,0,0,3,6.61v3a2,2,0,0,0,2,2H19a2,2,0,0,0,2-2v-3A2,2,0,0,0,19,4.62Z"/></symbol></defs><title>자산 2</title><g id="레이어_2" data-name="레이어 2"><g id="레이어_1-2" data-name="레이어 1"><use width="24" height="24" xlink:href="#diagram-table"/></g></g></svg>