<?xml version="1.0" encoding="UTF-8"?><svg xmlns="http://www.w3.org/2000/svg" viewBox="0 0 75.41 75.41"><defs><style>.d{fill:none;}.e{fill:#f37726;}</style></defs><g id="a"/><g id="b"><g id="c"><g><rect class="d" width="75.41" height="75.41"/><path class="e" d="M50.92,35.64c.05,.19,.05,.39,0,.59h-3c0-.88,.69-1.61,1.58-1.65,.2,0,.4,.03,.59,.13,.19,.08,.37,.2,.51,.36,.15,.17,.26,.37,.33,.59Z"/><path class="e" d="M31.41,37.75c-.01-.14-.01-.27,0-.41v-.97c.02-.43,.2-.84,.51-1.15,.29-.31,.69-.51,1.12-.53,1.09,0,1.68,.81,1.68,2.09s-.64,2.16-1.71,2.16c-.36,0-.7-.12-.99-.33-.3-.21-.52-.51-.61-.87Z"/><path class="e" d="M66.04,15.51L37.7,1.86,9.37,15.51,2.37,45.94l19.59,24.84h31.48l19.59-24.84-7-30.43Zm-18.15,2.29c.17-.49,.49-.92,.92-1.22,.41-.31,.91-.49,1.43-.51,.34-.03,.68,.03,.99,.15,.32,.1,.62,.28,.87,.51,.25,.23,.46,.51,.61,.81,.15,.3,.23,.63,.25,.97,.03,.52-.09,1.03-.36,1.48-.26,.45-.65,.82-1.12,1.04-.47,.23-.99,.31-1.5,.23-1.05-.13-1.92-.9-2.16-1.93-.12-.5-.08-1.02,.1-1.5l-.03-.03Zm4.12,9.38c.85,1.21,1.53,2.53,2.04,3.91-4.31-4.22-10.17-6.45-16.19-6.16-6.02-.3-11.89,1.93-16.19,6.16,1.22-3.31,3.44-6.16,6.34-8.17,7.8-5.45,18.55-3.54,24,4.26Zm-3.99,10.58l.13,.13c.08,.25,.22,.48,.41,.66,.19,.19,.41,.33,.66,.43,.25,.05,.51,.05,.76,0,.53,0,1.06-.1,1.55-.31l.18,.79c-.61,.24-1.26,.35-1.91,.33-.37,.02-.74-.03-1.09-.15-.35-.14-.67-.35-.94-.61-.26-.28-.47-.61-.61-.97-.09-.36-.09-.74,0-1.09-.17-1.51,.91-2.87,2.42-3.04,.04,0,.08,0,.13-.01,1.31,.02,2.35,1.1,2.32,2.41,0,.04,0,.09,0,.13v.46h-4.1c-.05,.28-.01,.58,.1,.84Zm-2.72,1.15l.13,.13c.19,.03,.39,.03,.59,0v.79c-.3,.06-.61,.06-.92,0-.2,.05-.41,.05-.61,0-.19-.07-.37-.18-.51-.33-.31-.42-.45-.94-.38-1.45v-3.26h-.89v-.79h.89v-1.37l1.02-.23v1.63h1.48v.76h-1.48v3.03c-.08,.69,.1,1.09,.69,1.09Zm-8.71-4.68h1.15l1.22,3.33c.15,.38,.28,.81,.38,1.15,0-.33,.2-.76,.36-1.17l1.12-3.31h1.09l-1.55,4.02c-.47,1.24-1.21,2.37-2.16,3.28-.36,.33-.8,.56-1.27,.66l-.25-.87c.32-.1,.63-.27,.89-.48,.38-.31,.68-.7,.89-1.15v-.25c.06-.07,.09-.16,.1-.25l.13,.13-2.09-5.09Zm-6.24-.2l.13,.2h.94v.97c.2-.35,.49-.64,.84-.84,.36-.2,.76-.29,1.17-.25,1.32,.17,2.28,1.32,2.21,2.65,.27,1.38-.63,2.72-2.02,2.98-.17,.03-.35,.05-.53,.05-.34,0-.68-.08-.99-.23-.3-.16-.57-.38-.76-.66v3.08h-1.02v-6.08c.08-.74,.08-1.32,.03-1.86Zm-3.74,5.58c-.33,.18-.69,.28-1.07,.28-.89,0-1.96-.48-1.96-2.55v-3.31h1.04v3.08c.1,1.09,.43,1.78,1.35,1.78,.18,.04,.38,.04,.56,0,.18-.07,.35-.18,.48-.33,.14-.12,.24-.28,.31-.46,.04-.18,.04-.38,0-.56v-3.56h1.02v4.23c-.03,.52-.03,1.04,0,1.55h-.92v-.92c-.21,.32-.49,.58-.81,.76Zm-5.73-18.81c.25-.28,.58-.48,.94-.56,.37-.05,.75,0,1.09,.15,.35,.12,.66,.35,.87,.66,.56,.72,.5,1.75-.15,2.39-.34,.38-.82,.6-1.32,.61-.37,0-.73-.1-1.04-.28-.32-.2-.57-.49-.71-.84-.19-.36-.25-.77-.18-1.17,.07-.37,.26-.71,.53-.97h-.03Zm-1.53,20.47c.39-.05,.75-.23,1.02-.51,.28-.33,.38-.76,.38-2.11v-4.66h1.02v5.09c.09,.83-.15,1.66-.66,2.32-.48,.43-1.11,.65-1.76,.64v-.76Zm8.5,16.52l-.1-.05c-.34,.57-.83,1.03-1.43,1.32-.59,.28-1.24,.38-1.88,.28-.65-.06-1.27-.33-1.76-.76-.48-.43-.82-1-.97-1.63-.19-.62-.19-1.29,0-1.91,.23-.63,.65-1.17,1.2-1.55,.53-.38,1.16-.6,1.81-.64,.43-.02,.86,.04,1.27,.18,.41,.15,.78,.37,1.09,.66,.31,.29,.57,.64,.76,1.02,.49,.97,.49,2.11,0,3.08Zm-4.3-11.38c-.83-1.19-1.5-2.48-2.01-3.84,4.31,4.21,10.17,6.44,16.19,6.16,6.02,.29,11.89-1.94,16.19-6.16-1.22,3.3-3.43,6.15-6.31,8.17-7.84,5.45-18.61,3.51-24.06-4.33Zm32.64-11.56h-.36c-.35,.02-.69,.16-.94,.41-.25,.23-.41,.55-.43,.89-.01,.16-.01,.32,0,.48v3h-.99v-5.6h.92v1.12c.09-.34,.29-.64,.56-.87,.3-.25,.68-.39,1.07-.41h.31l-.13,.97Z"/></g></g></g></svg>