<?xml version="1.0" encoding="UTF-8"?><svg xmlns="http://www.w3.org/2000/svg" viewBox="0 0 75.41 75.41"><defs><style>.d{fill:none;}.e{fill:#003545;}</style></defs><g id="a"/><g id="b"><g id="c"><g><rect class="d" width="75.41" height="75.41"/><path class="e" d="M48.46,48.86c1.23,.1,2.16,1.17,2.06,2.41,.01,.15,0,.31-.01,.46-.16,1.24-1.29,2.12-2.53,1.96h-2.01v-4.81h2.01c.16-.02,.32-.03,.49-.02Z"/><path class="e" d="M41.21,50.63c.76,.03,1.35,.67,1.32,1.43,0,.05,0,.1,0,.16-.04,.74-.68,1.31-1.43,1.27-.05,0-.1,0-.16,0-.76-.04-1.34-.69-1.29-1.45h0c0-.05,0-.1,0-.16,.04-.73,.67-1.29,1.4-1.24,.05,0,.11,0,.16,0Z"/><path class="e" d="M55.41,50.92h-2.39v-2.04h2.39c.89,0,1.4,.18,1.4,1.02,0,.59-.25,1.02-1.4,1.02Z"/><path class="e" d="M56.91,52.57c0,.89-.76,1.15-1.48,1.15h-2.55v-2.32h2.55c.71,0,1.48,.28,1.48,1.17Z"/><path class="e" d="M28.81,50.63c.76,.03,1.35,.67,1.32,1.43,0,.06,0,.12,0,.18-.04,.73-.67,1.29-1.4,1.24-.07,0-.14,0-.21,0-.74-.06-1.3-.71-1.24-1.45h0c0-.05,0-.1,0-.16,.04-.73,.67-1.29,1.4-1.24,.04,0,.09,0,.13,0Z"/><path class="e" d="M66.04,15.51L37.7,1.86,9.37,15.51,2.37,45.94l19.59,24.84h31.48l19.59-24.84-7-30.43ZM18.27,48.37h.99l2.04,4.51,2.01-4.51h.92l1.5,5.83h-.97l-.99-4.2-2.09,4.2h-.87l-1.88-4.18-1.04,4.18h-1.09l1.48-5.83Zm10.21,5.86c-1.22,.09-2.28-.83-2.36-2.06,0-.08,0-.16,0-.24-.03-1.15,.88-2.11,2.03-2.14,.06,0,.12,0,.18,0,.68-.06,1.35,.24,1.76,.79v-.69h1.09l.1,4.3h-1.2v-.74c-.36,.52-.97,.81-1.6,.76Zm6.82-4.35c.23,0,.47,.05,.69,.13l-.25,.76c-.19-.02-.37-.02-.56,0-.77,0-1.4,.62-1.4,1.4,0,.03,0,.05,0,.08v2.04h-1.09v-4.33h1.09v.97c.26-.62,.86-1.03,1.53-1.04Zm2.57,3.51h.2l.18,.79c-.25,.1-.51,.14-.78,.13-.45,0-.9-.18-.9-1.19v-3.16h1.09v3.11c0,.18,0,.33,.2,.33Zm-.87-3.9c-.3,0-.56-.23-.59-.53l.1-.13c.04-.22,.21-.4,.43-.46,.32,0,.58,.24,.61,.56,0,.31-.25,.56-.56,.56Zm3.97,4.74c-1.22,.09-2.28-.83-2.36-2.06,0-.08,0-.16,0-.24,.08-1.25,1.15-2.2,2.4-2.12,.61,.04,1.17,.32,1.57,.77v-.69h1.09v4.4h-1.09v-.84c-.37,.51-.97,.8-1.6,.76Zm7.2,.08h-2.93v-5.93h2.55c2.21,0,3.31,1.22,3.31,2.93,.05,1.56-1.18,2.86-2.74,2.91-.1,0-.19,0-.29,0l.1,.1Zm9.47-1.76s0,.05,0,.08c.1,1.3-1.04,1.58-1.99,1.58l.15,.1h-3.59v-5.93h3c1.15,0,2.24,.23,2.24,1.5,.04,.66-.46,1.23-1.12,1.27-.02,0-.04,0-.05,0,.76,.01,1.36,.64,1.35,1.4Zm-1.33-27.62l-.28,.2c-.77,.46-1.44,1.07-1.99,1.78-.43,1.04-.72,2.12-.89,3.23-.28,1.22-.59,2.55-.99,4-.56,2.63-2.06,4.97-4.2,6.59l-.71,.38s0-.87,.13-1.25v-.18c.01-.09,.01-.19,0-.28,0-.25-.18-.15-.2,0-.23,.64-.51,1.27-.81,1.88-1.03,2.19-2.93,3.84-5.24,4.56-.54,.06-1.09,.05-1.63-.03l.79-.84c1.5-1.78,2.4-3.99,2.55-6.31-.24,.36-.42,.76-.53,1.17-.16,.73-.55,1.38-1.12,1.86-.38,.03-.76,.03-1.15,0h-.92c-.81,0-1.65-.15-2.55-.25-1.09-.17-2.18-.26-3.28-.28-.86-.02-1.72,.1-2.55,.36-1.08,.43-2.11,.98-3.05,1.65-.68,.46-1.4,.87-2.14,1.22l-1.07,.51c-1.13,.64-2.41,.98-3.72,.99-.13,.04-.27,.04-.41,0-.25-.36,.18-.99,.97-1.99l.36-.51c-.17-.11-.38-.15-.59-.13-.35-.18-.66-.41-.94-.69-.31-.27-.65-.5-1.02-.69h-.2c.19-.28,.44-.52,.74-.69,.39-.2,.83-.3,1.27-.28,.74,.03,1.47,.11,2.19,.25,.65,.14,1.32,.22,1.99,.25,.35,.04,.71-.06,.99-.28,.58-.54,1.1-1.14,1.53-1.81,.51-.72,1.12-1.36,1.81-1.91,.23-.2,.59-.43,.92-.69,.7-.47,1.48-.84,2.29-1.07,.35-.1,.7-.22,1.04-.36,.92-.33,1.88-.64,2.93-.97s2.32-.74,3.39-1.15c1.31-.47,2.56-1.1,3.72-1.88l.87-.79c1.02-1.12,1.88-2.38,2.55-3.74,1.45-2.55,2.93-5.09,6.29-5.4h1.48c.5-.01,.98-.13,1.43-.36,.35-.2,.73-.33,1.12-.38,.12-.06,.26-.06,.38,0,.33,.08,.46,.36,.31,1.37l.23,.1c-.23,1.18-.98,2.2-2.04,2.77Z"/></g></g></g></svg>