<?xml version="1.0" encoding="UTF-8"?><svg xmlns="http://www.w3.org/2000/svg" xmlns:xlink="http://www.w3.org/1999/xlink" viewBox="0 0 75.35 75.35"><defs><style>.g{fill:url(#d);}.h{fill:none;}.i{fill:#fff;}</style><radialGradient id="d" cx="37.68" cy="36.28" fx="37.68" fy="36.28" r="34.89" gradientTransform="matrix(1, 0, 0, 1, 0, 0)" gradientUnits="userSpaceOnUse"><stop offset="0" stop-color="#ee352c"/><stop offset="1" stop-color="#a91d22"/></radialGradient></defs><g id="a"/><g id="b"><g id="c"><g><polygon class="g" points="65.94 15.53 37.68 1.78 9.42 15.53 2.29 45.82 21.89 70.77 53.46 70.77 73.06 45.82 65.94 15.53"/><g id="e"><rect class="h" width="75.35" height="75.35"/></g><g id="f"><rect class="h" width="75.35" height="75.35"/></g><g><path class="i" d="M45.65,31.19c-.05-.91-.13-1.65-.25-2.37-.01-.06-.02-.11-.02-.15,4.06-1.21,8.55-2.3,11.52-2.75l.46-.07-.07-.11c-.4-.63-.68-1.02-1.02-1.43-.97-1.2-2.15-2.18-3.59-2.99-1.98-1.11-4.54-1.97-7.78-2.61-.61-.12-1.95-.35-3.04-.52l-.1-.18c-.6-1.05-1.25-2.35-1.64-3.23-.3-.68-.58-1.47-.74-2.04-.09-.34-.1-.36-.15-.37h0c-.11-.02-1.9,.63-3.06,1.1-1.56,.64-2.77,1.24-3.52,1.77-.25,.18-.54,.46-.64,.62h0s0,.01-.02,.04c0,0-.01,.02-.01,.02-.02,.05-.03,.11-.03,.17l.02,.02c0,.05,.02,.11,.04,.18,.07,.16,.26,.36,.47,.56,0,0,2.25,2.19,2.52,2.51,1.24,1.43,1.78,2.85,1.83,4.8,.03,1.25-.21,2.35-.8,3.63-1.05,2.29-3.27,4.82-6.69,7.63l.05-.02s-.05,.04-.08,.06c-.41,.32-1.02,.93-1.32,1.31-.46,.58-.82,1.19-.98,1.66-.28,.85-.14,1.71,.39,2.5,.69,1.01,2.06,2.04,3.65,2.74,.81,.36,2.18,.82,3.21,1.08,1.71,.43,5.03,.9,6.85,.97,.37,.02,.86,.02,.88,0,.04-.03,.32-.57,.65-1.24,1.12-2.29,1.93-4.44,2.37-6.27,.26-1.11,.47-2.59,.61-4.34,.04-.49,.05-2.13,.02-2.69Zm-.79,.18c.01,.21,0,.34,0,.34-.04,0-.85-.48-1.43-.84-.5-.32-1.45-.95-1.61-1.07,.88-.3,1.83-.6,2.81-.9,.07,.26,.2,1.59,.24,2.47Zm-4.4,.33c-.09,.74-.23,1.42-.46,2.2-.06,.19-.11,.34-.12,.35-.02,.03-.71-.65-.94-.91-.39-.45-.7-.91-.93-1.35-.11-.21-.26-.57-.27-.66,.72-.29,1.46-.58,2.24-.87,.17-.06,.35-.13,.52-.19,.02,.16,0,1.15-.04,1.44Zm-7.25,1.92c.04-.19,.06-.26,.09-.3,.9-.45,1.85-.89,2.86-1.33-.03,.1-.25,.56-.48,1-.49,.95-1.03,1.89-1.74,3.04-.12,.2-.24,.38-.25,.4-.03,.04-.04,.03-.12-.13-.17-.34-.31-.77-.39-1.17-.08-.39-.06-1.08,.03-1.51Zm3.93-11.45c-.02-.14-.03-.26-.03-.27,.02-.02,.72,.15,1.1,.26,.58,.16,1.8,.57,1.8,.6,0,0-.14,.12-.3,.26-.66,.55-1.3,1.13-2.06,1.87-.23,.22-.42,.39-.43,.39s-.02-.03-.01-.07c.12-.85,.09-1.94-.07-3.05Zm3.21-2.98c.19,.73,.27,1.55,.24,2.31-.01,.21-.02,.41-.03,.43l-.02,.05-.26-.09c-.54-.17-1.42-.43-2.17-.64-.43-.12-.78-.22-.78-.23,0-.03,.63-.66,.89-.89,.51-.45,1.89-1.52,1.94-1.51,.03,.01,.08,.18,.18,.56Zm-.59,10.58s-.02-.07-.02-.19c0-.61-.16-1.26-.43-1.82-.12-.23-.14-.29-.11-.31,.1-.09,1.57-.92,2.5-1.42,.63-.33,1.61-.83,1.62-.82,.01,.01-.68,.98-1.1,1.54-.49,.66-1.37,1.76-1.98,2.48-.25,.3-.47,.55-.48,.55Zm3.11-5.13c-.95,.47-1.76,.92-2.61,1.44-.24,.15-.44,.27-.45,.27-.02,0-.02-.02,.12-.27,.45-.83,.82-1.82,1.03-2.78,.02-.08,.04-.13,.06-.13,.07,.02,.73,.32,1.22,.57,.45,.23,1.14,.59,1.17,.62,0,0-.24,.13-.54,.28Zm-4.01-.15c.47-.41,1.47-1.21,1.49-1.2s-.16,.64-.26,.97c-.21,.64-.56,1.44-.89,2.05-.08,.14-.2,.35-.27,.46l-.13,.2-.28-.27c-.33-.32-.6-.52-.94-.69-.14-.07-.24-.13-.24-.14,0-.04,.86-.82,1.53-1.39Zm-.24,3.62h.01s.06,.04,.19,.24c.29,.43,.51,1.01,.57,1.47v.1l-.68,.27c-1.24,.48-2.38,.95-3.15,1.31-.22,.1-.6,.28-.84,.4-.25,.13-.45,.22-.45,.22s.16-.12,.35-.26c1.51-1.1,2.82-2.3,3.8-3.5,.11-.13,.2-.24,.21-.25Zm-3.98,9.04c1.65-.45,3.05-.93,4.44-1.53,.2-.08,.36-.15,.36-.15,0,0-.04,.11-.09,.23-.44,1.07-1.02,2.23-1.75,3.53-.19,.33-.34,.6-.35,.6s-.16-.09-.34-.2c-1.07-.66-2.02-1.46-2.64-2.25l-.09-.11,.46-.13Zm4.11-2.12c-.95,.36-2,.73-3.19,1.11-.28,.09-.57,.18-.85,.28-.05,.02-.03-.01,.1-.22,.59-.92,1.49-2.74,2-4.02,.09-.22,.17-.44,.19-.49,0-.02,.02-.04,.03-.06,.06-.03,.13-.05,.19-.08,.01,.02,.04,.09,.07,.17,.16,.44,.53,1.09,.84,1.5,.34,.45,.79,.94,1.17,1.26,.12,.1,.23,.2,.25,.21,.03,.03,.04,.03-.78,.34Zm1.85-1c.34-1.26,.53-2.53,.54-3.55,0-.27,0-.39,.01-.45l.11-.04c.07,.03,.18,.1,.37,.21,1.04,.65,2.46,1.44,3.06,1.7,.19,.08,.21,.05-.22,.34-.92,.63-2.07,1.24-3.47,1.86-.25,.11-.45,.2-.46,.2-.01,0,.02-.13,.06-.28Zm6.36-6.59c-2.31,.64-4.1,1.21-6.19,1.98-.23,.09-.43,.16-.44,.16-.03,0-.06,.03,.46-.45,1.33-1.23,2.52-2.58,3.39-3.9l.18-.27,.25,.16c.57,.37,1.23,.86,1.74,1.29,.29,.24,.84,.74,.95,.86l.06,.07-.41,.12Zm5.29-5.42s.14,.06,.29,.14c1.23,.7,2.43,1.61,3.38,2.54,.27,.26,.93,.95,.92,.95,0,0-.23,.02-.51,.04-2.13,.16-4.85,.61-7.47,1.24-.18,.04-.33,.08-.34,.08s.19-.2,.43-.43c1.54-1.48,2.24-2.41,3.07-4.08,.12-.25,.22-.46,.23-.47Zm-.92,.73c-.3,.43-.75,1.01-1.75,2.27-.53,.67-1.13,1.42-1.32,1.67-.2,.25-.37,.46-.37,.46s-.07-.09-.14-.2c-.57-.85-1.24-1.59-2.05-2.26-.15-.13-.32-.26-.37-.3-.06-.04-.1-.08-.1-.09,0-.02,.86-.38,1.51-.65,1.14-.46,2.7-1.02,3.86-1.38,.61-.19,1.26-.38,1.27-.37,.01,.01-.32,.54-.54,.83Zm-5.07-2.95s.96,.25,1.44,.39c1.19,.35,2.55,.85,3.44,1.26l.37,.17-.26,.06c-2.17,.5-4.03,1.08-5.82,1.8-.15,.06-.28,.11-.29,.11s.04-.12,.11-.26c.54-1.15,.89-2.34,.97-3.36,0-.1,.02-.17,.04-.17Zm-.49,.61c-.18,.75-.67,1.87-1.27,2.92-.11,.19-.2,.34-.21,.34s-.15-.07-.3-.16c-.59-.34-1.25-.67-1.98-.97-.2-.09-.38-.16-.38-.17-.04-.03,1.59-1.11,2.45-1.62,.68-.41,1.79-1.03,1.81-1.01,.02,.02-.05,.42-.11,.67Zm-.44-.83s-.08,.07-.41,.22c-1.33,.6-2.32,1.14-3.31,1.8-.26,.17-.47,.31-.48,.31s-.01-.15-.01-.32c0-.96-.19-1.93-.55-2.75-.04-.08-.07-.16-.06-.16,.02-.02,2.09,.34,3.04,.53,.7,.14,1.72,.35,1.78,.37Zm-5.2-3.32s.05,.05,.11,.18c.17,.38,.71,1.4,.84,1.6,0,.01,.02,.02,.02,.03-1.1-.17-2.02-.32-2.88-.46,0-.01,.05-.04,.11-.07,.53-.29,1.07-.67,1.54-1.07,.12-.1,.22-.19,.24-.2,0-.01,.02-.02,.02-.01Zm-3.71-2.5c.69-.32,2.59-1.11,2.73-1.14h0s.03,.15,.05,.31c.09,.71,.24,1.39,.49,2.13,.19,.56,.19,.53-.03,.46-.52-.14-2.82-.54-4.5-.77-.27-.04-.5-.07-.5-.08-.02-.02,1.21-.66,1.75-.91Zm-1.94,1.19c1.07,.36,3.76,.88,5.25,1,.17,.02,.31,.03,.31,.03,0,0-.14,.08-.32,.17-.72,.36-1.51,.8-2.05,1.14-.15,.09-.27,.16-.31,.17-.16-.03-.32-.05-.48-.08l-.48-.47c-.89-.86-1.59-1.53-1.85-1.78l-.26-.24,.2,.07Zm-.46,.14l.07-.05,.71,.89c.39,.49,.78,.97,.87,1.08,.08,.1,.13,.17,.14,.18-.5-.09-1.05-.19-1.46-.28-.3-.07-.88-.2-1.34-.36-.05-.02-.1-.04-.15-.06v-.05c0-.34,.43-.84,1.16-1.36Zm2.15,5.16c-.59-1.04-1.53-2.1-2.61-2.95-.14-.1-.25-.19-.25-.2,0,0,.09,.03,.19,.06,.19,.07,.44,.14,.73,.22,.22,.06,.44,.12,.67,.18,.3,.08,.56,.15,.56,.15,.04,.04,.55,1.67,.72,2.29,.07,.24,.12,.44,.11,.44,0,0-.06-.08-.13-.2Zm.63,.25c-.18-.7-.56-1.74-.9-2.48-.06-.12-.1-.22-.1-.23,0,.01,0,0,0,0,.03,0,.14,.02,.27,.05,.86,.19,2.4,.48,3.38,.65,.17,.03,.3,.06,.3,.07s-.06,.05-.14,.09c-.17,.09-.84,.48-1.06,.64-.56,.37-1.07,.78-1.43,1.14-.15,.15-.27,.27-.27,.27,0,0-.03-.09-.06-.19Zm-1.07,8.75c.33-.51,.5-.8,.68-1.17,.16-.33,.31-.72,.42-1.06,.04-.15,.09-.26,.1-.26,.02,0,.13,.06,.26,.13,.32,.18,.61,.37,.87,.59,.01,.01-.12,.12-.29,.24-.48,.34-1.21,.89-1.63,1.23-.44,.35-.46,.36-.41,.29Zm-1.73,2.24c.33-.36,.59-.66,.87-1.04,.19-.25,.23-.28,.51-.48,.74-.54,2.45-1.7,2.48-1.68,.02,.02-.56,.67-.95,1.07-.97,1-1.94,1.77-3.14,2.53-.15,.1-.29,.18-.3,.19-.04,.02,.01-.03,.54-.6Zm-6.14,6.86c.12-.74,.68-1.71,1.47-2.53,.53-.55,.94-.86,1.66-1.27,.24-.13,.53-.3,.78-.44,.2-.11,.4-.21,.6-.32,.02,0,.01,.04-.02,.22-.02,.13-.05,.37-.06,.54-.04,.74,.08,1.28,.44,2.03,.1,.21,.18,.38,.18,.38-.04,.03-3.38,1.01-4.43,1.3-.31,.09-.59,.16-.61,.17-.04,.01-.04,0-.03-.08Zm2.04,3.59l-.23-.19c-.27-.22-.73-.7-.94-.96-.43-.54-.73-1.11-.84-1.63-.06-.24-.06-.36,0-.38,.08-.02,1.42-.34,2.69-.63,.7-.16,1.52-.35,1.81-.42,.29-.07,.53-.13,.54-.13,.01,.01-.63,.93-1.53,2.19-.31,.44-.68,.95-.81,1.15-.14,.19-.34,.5-.46,.68l-.21,.33Zm.34,.26l-.09-.07,.15-.21c.47-.69,1.07-1.44,2.37-3.01l.89-1.08h0l.16,.18c.73,.81,1.47,1.41,2.37,1.94,.16,.09,.28,.17,.27,.18-.04,.03-3.12,1.12-4.55,1.62-.8,.28-1.46,.51-1.47,.51s-.05-.03-.1-.07Zm4.32,2l-.08-.02c-.18-.05-1.46-.5-1.8-.64-.42-.17-.85-.37-1.18-.54-.4-.22-.91-.54-.87-.55,.01,0,.7-.19,1.54-.42,2.21-.6,3.44-.95,4.24-1.2,.15-.05,.27-.08,.28-.08,0,0-.35,.58-.98,1.57-.27,.42-.57,.89-.67,1.06-.1,.16-.25,.41-.34,.56l-.15,.26Zm.4,.09s.12-.17,.27-.34c.73-.87,1.45-1.84,2.05-2.76,.17-.25,.31-.46,.31-.46,0,0,.23,.08,.5,.18,.66,.25,1.18,.4,1.87,.58,.86,.22,2.1,.43,2.83,.49,.11,.01,.17,.02,.15,.04-.04,.02-.78,.27-1.32,.44-.87,.27-3.52,1.06-5.68,1.68-.4,.12-.74,.21-.76,.22-.05,.01-.22-.04-.22-.06Zm6.94,.98c-.07,.16-.09,.2-.13,.2-.09,0-1.27-.17-2-.28-1.26-.19-3.37-.56-3.9-.68l-.12-.03,.75-.17c1.62-.36,2.39-.56,3.18-.8,1-.3,1.98-.68,2.98-1.15,.16-.07,.29-.13,.32-.13h0c.02,.05-.8,2.32-1.1,3.04Zm2.07-6.16c-.18,.63-.33,1.13-.61,2-.12,.38-.23,.7-.23,.7s-.04,0-.07-.02c-1.5-.27-2.84-.65-4.11-1.16-.35-.14-.86-.37-.89-.39-.01-.01,.29-.15,.68-.32,2.3-1.01,4.68-2.15,5.5-2.64,.1-.06,.17-.09,.19-.09,0,.12-.25,1.16-.46,1.91Zm.37-2.15c-.67,.37-2.88,1.29-5.14,2.14-.33,.12-.65,.24-.71,.27-.06,.03-.12,.04-.12,.04s.09-.18,.21-.4c.63-1.18,1.27-2.62,1.59-3.62,.04-.1,.07-.18,.07-.19s.13,.06,.27,.15c1.08,.63,2.59,1.21,3.87,1.51l.12,.03-.16,.09Zm.55-4.46c0,1.13-.12,2.67-.3,3.8-.03,.2-.06,.36-.06,.36,0,0-.15-.04-.32-.09-.76-.24-1.58-.59-2.32-1-.49-.27-1.2-.71-1.18-.73,0,0,.22-.12,.46-.25,.99-.52,1.94-1.07,2.76-1.62,.31-.21,.77-.54,.87-.63l.08-.06v.21Z"/><path class="i" d="M20.25,47.77v-.31c-.15,.12-.32,.17-.49,.17-.21,0-.37-.07-.49-.21-.12-.13-.19-.32-.19-.55s.06-.44,.2-.58c.13-.14,.3-.21,.5-.21,.17,0,.33,.05,.47,.15v-.33c-.13-.07-.29-.1-.46-.1-.32,0-.57,.1-.76,.3-.19,.2-.28,.47-.28,.79,0,.29,.08,.53,.26,.72,.18,.19,.41,.29,.69,.29,.22,0,.4-.05,.55-.14Z"/><path class="i" d="M26.82,45.81h0c-.3,0-.54,.09-.72,.26-.19,.19-.29,.46-.29,.81,0,.3,.08,.55,.26,.74,.18,.19,.42,.29,.72,.29s.54-.1,.72-.29c.18-.19,.27-.45,.27-.77s-.08-.58-.25-.76c-.17-.19-.4-.28-.7-.28Zm.46,1.62c-.11,.13-.27,.21-.48,.21s-.37-.07-.49-.21c-.12-.14-.18-.32-.18-.56,0-.26,.06-.46,.19-.59,.12-.13,.28-.19,.48-.19s.36,.06,.47,.19c.1,.14,.16,.33,.16,.59h0c0,.24-.05,.44-.16,.56Z"/><path class="i" d="M16.57,52.31h0c-1.07-.65-1.54-1.11-1.49-1.67,.17-1.52,2.05-1.31,3.09-.74v-1.03s-.57-.25-1.4-.26c-1.27-.02-2.09,.4-2.47,1.24-.56,1.25-.06,2.19,1.74,3.24,1.01,.59,1.46,1.1,1.46,1.66,0,1.15-1.39,1.56-2.83,.83-.3-.15-.55-.27-.56-.27-.05,.33-.02,1.11-.02,1.11,0,0,.44,.19,1.1,.31,1.64,.33,3.13-.44,3.27-1.69,.12-1.17-.3-1.79-1.91-2.75Z"/><path class="i" d="M23.09,48.62h0c-.08,0-.15,0-.23,0-1.56,.08-2.61,.77-3.22,2.11-.53,1.21-.47,2.79,0,4.01,.55,1.19,1.44,1.82,2.93,2.06,.31,.05,.53,.22,1.13,.94l.75,.88h1.36l-.9-.91c-.5-.5-.9-.93-.9-.97s.19-.12,.42-.19c.76-.23,1.4-.82,1.84-1.72,.36-.73,.41-.95,.46-1.85,.13-2.69-1.28-4.37-3.64-4.35Zm1.19,7.02h0c-.66,.32-1.62,.38-2.25,.15-.65-.24-1.28-.91-1.56-1.67-.31-.83-.27-2.37,.09-3.06,.58-1.1,1.34-1.61,2.45-1.61,1.65,0,2.59,1.01,2.72,2.92,.1,1.59-.44,2.78-1.45,3.27Z"/><path class="i" d="M64.01,51h0c-.11-.1-.24-.15-.4-.15s-.3,.05-.4,.16c-.11,.11-.16,.24-.16,.4s.05,.29,.16,.4c.11,.1,.24,.15,.4,.15s.29-.05,.4-.16c.11-.11,.17-.24,.17-.4,0-.16-.06-.3-.17-.4Zm-.05,.76c-.1,.1-.21,.14-.35,.14s-.26-.04-.35-.14c-.1-.1-.15-.22-.15-.36s.04-.26,.14-.35c.1-.1,.21-.14,.36-.14,.14,0,.26,.04,.35,.14,.1,.1,.15,.21,.15,.35,0,.15-.04,.26-.15,.36Z"/><polygon class="i" points="28.96 52.29 28.96 52.29 28.96 48.71 27.96 48.71 27.96 56.63 32.15 56.63 32.15 55.7 28.96 55.7 28.96 52.29"/><path class="i" d="M21.05,46.84h0c0-.23,.05-.42,.15-.54,.09-.12,.2-.17,.33-.17,.11,0,.19,.02,.24,.06v-.33s-.11-.03-.19-.03c-.12,0-.22,.04-.31,.11-.1,.08-.17,.19-.22,.34h0v-.41h-.32v2h.32v-1.03Z"/><path class="i" d="M22.9,47.91h0c.3,0,.54-.1,.72-.29,.18-.19,.27-.45,.27-.77s-.08-.58-.25-.76c-.17-.19-.4-.28-.7-.28s-.54,.09-.72,.26c-.19,.19-.29,.46-.29,.81,0,.3,.08,.55,.26,.74,.18,.19,.42,.29,.72,.29Zm-.46-1.63c.12-.13,.28-.19,.48-.19s.36,.06,.47,.19c.12,.13,.17,.33,.17,.58s-.05,.44-.16,.56c-.11,.13-.27,.21-.48,.21s-.37-.07-.49-.21c-.12-.14-.18-.32-.18-.56-.01-.24,.05-.44,.18-.58Z"/><path class="i" d="M25.29,47.73h0c.12-.11,.19-.24,.19-.41,0-.15-.05-.27-.15-.37-.08-.08-.2-.15-.37-.22-.15-.06-.25-.12-.3-.17-.05-.05-.08-.12-.08-.21,0-.08,.03-.15,.1-.2,.06-.05,.15-.08,.26-.08,.17,0,.32,.05,.46,.14v-.32c-.13-.06-.27-.1-.43-.1-.21,0-.38,.06-.51,.17-.13,.11-.2,.25-.2,.42,0,.15,.04,.27,.13,.36,.07,.08,.19,.15,.36,.22,.16,.07,.27,.13,.33,.19,.06,.05,.08,.12,.08,.19,0,.19-.13,.28-.38,.28-.19,0-.37-.06-.52-.19v.35c.14,.08,.31,.12,.49,.12,.24-.01,.42-.07,.55-.19Z"/><path class="i" d="M18.09,45.35h0c.06,0,.11-.02,.15-.06,.04-.04,.06-.09,.06-.15s-.02-.11-.06-.15c-.04-.04-.09-.06-.15-.06s-.11,.02-.15,.06c-.04,.04-.06,.09-.06,.15,0,.06,.02,.11,.06,.15,.04,.04,.09,.06,.15,.06Z"/><rect class="i" x="17.95" y="45.99" width=".28" height="1.74"/><path class="i" d="M14.69,45.98h0c0-.25,0-.44-.01-.55h0c.03,.13,.06,.23,.08,.29l.96,2.13h.16l.96-2.15c.03-.06,.05-.15,.08-.27h0c-.02,.21-.03,.4-.03,.55v1.88h.33v-2.8h-.41l-.88,1.95c-.03,.08-.08,.19-.13,.35h-.01c-.02-.08-.06-.19-.13-.33l-.86-1.97h-.44v2.8h.31v-1.88Z"/><path class="i" d="M56.5,50.85h0c-.19,0-.4,.02-.61,.07-1.32,.35-2.06,1.61-2.01,2.91,0,1.09,.21,1.63,.74,2.2,1.08,.88,2.05,.96,3.37,.48,.22-.1,.47-.2,.47-.2v-.88l-.47,.24c-1.07,.46-1.87,.46-2.51-.08-.41-.42-.59-.91-.67-1.49h3.97v-.76c0-1.54-.93-2.51-2.28-2.49Zm-1.61,2.45s.16-.96,.69-1.34c.26-.19,.56-.28,.86-.28s.59,.1,.83,.28c.5,.38,.58,1.33,.58,1.33h-2.97Z"/><path class="i" d="M51.97,53.4h0l-.82,2.13-.79-2.15-.8-2.38h-1.02c.66,1.87,1.38,3.77,2.1,5.62,.31,0,.63,0,.94,0l1.11-2.78,1.13-2.84h-.97s-.43,1.13-.88,2.39Z"/><path class="i" d="M41.97,50.86c-.19,0-.4,.03-.6,.07-1.32,.35-2.07,1.61-2.02,2.91,0,1.09,.21,1.63,.74,2.2,1.08,.88,2.05,.95,3.36,.48,.22-.1,.47-.21,.47-.21v-.88l-.47,.24c-1.06,.46-1.86,.46-2.51-.08-.41-.42-.59-.92-.67-1.49h3.98v-.76c0-1.54-.93-2.52-2.28-2.49Zm-1.61,2.46h0Zm0,0s.16-.96,.69-1.33c.26-.19,.56-.27,.86-.27s.59,.1,.83,.28c.5,.38,.58,1.33,.58,1.33h-2.97Z"/><path class="i" d="M47.77,50.91c-.57,0-1.01,.23-1.3,.69l-.23,.36v-.94h-.99v5.61h.99v-1.79c0-1.64,.02-1.83,.25-2.28,.32-.62,.86-.92,1.39-.78l.35,.1v-.97h-.46Z"/><path class="i" d="M46.9,45.78h.1v-.81h-.12l-.25,.56s-.03,.06-.04,.1h0s-.02-.05-.04-.1l-.25-.56h-.13v.81h.09v-.54h0c0-.07,0-.13,0-.16,0,.04,.02,.06,.03,.08l.28,.62h.04l.28-.62s.01-.04,.03-.08c0,.06,0,.12,0,.15v.54Z"/><path class="i" d="M28.96,45.13c.08,0,.15,.02,.21,.05v-.29c-.06-.03-.13-.03-.23-.03-.17,0-.31,.05-.43,.16-.13,.13-.21,.29-.21,.52v.33h-.34v.27h.34v1.72h.32v-1.73h.47v-.27h-.47v-.31c0-.28,.11-.42,.33-.42Z"/><path class="i" d="M62.31,50.9c-.57,0-1.01,.23-1.3,.69l-.23,.36v-.93h-.99v5.61h.99v-1.79c0-1.64,.02-1.83,.25-2.28,.32-.62,.86-.92,1.39-.78l.35,.1v-.98h-.46Z"/><polygon class="i" points="45.81 45.78 45.81 45.06 46.05 45.06 46.05 44.97 45.48 44.97 45.48 45.06 45.72 45.06 45.72 45.78 45.81 45.78"/><path class="i" d="M63.67,51.43c.06-.01,.1-.04,.13-.07,.03-.03,.04-.08,.04-.13,0-.06-.02-.1-.06-.13-.04-.04-.12-.06-.21-.06h-.2v.72h.1v-.3h.06s.09,.04,.13,.13l.08,.17h.12l-.1-.19c-.03-.08-.07-.12-.11-.13Zm-.07-.06h0Zm0,0h-.11v-.24h.09c.06,0,.11,.01,.13,.03,.03,.02,.03,.04,.03,.09,0,.08-.05,.12-.15,.12Z"/><path class="i" d="M31.33,46.18l.08,.17h.12l-.1-.19c-.04-.08-.08-.12-.12-.13,.06-.01,.1-.03,.13-.07,.03-.03,.04-.08,.04-.13,0-.06-.02-.1-.06-.14-.04-.04-.11-.06-.21-.06h-.2v.72h.1v-.3h.08s.09,.04,.13,.13Zm-.19-.22v-.24h.09c.06,0,.11,.01,.14,.03,.02,.02,.03,.04,.03,.09,0,.08-.05,.12-.15,.12h-.11Z"/><path class="i" d="M29.62,45.37v.49h-.35v.27h.35v1.19h0c0,.39,.17,.59,.53,.59,.13,0,.22-.02,.3-.07v-.27c-.06,.04-.13,.06-.21,.06-.11,0-.19-.03-.23-.08-.05-.06-.07-.15-.07-.29v-1.13h.51v-.27h-.51v-.59c-.11,.04-.22,.07-.32,.1Z"/><polygon class="i" points="41.97 50.86 41.97 50.86 41.97 50.86 41.97 50.86"/><path class="i" d="M31.66,46.39c.11-.11,.17-.24,.17-.4s-.06-.29-.17-.4c-.11-.1-.24-.15-.4-.15s-.3,.05-.4,.16c-.11,.11-.16,.24-.16,.4s.05,.3,.16,.4c.1,.1,.24,.15,.4,.15h0c.16,0,.29-.05,.4-.16Zm-.75-.04c-.1-.1-.15-.22-.15-.36s.04-.26,.14-.35c.1-.1,.21-.14,.36-.14,.14,0,.26,.04,.35,.14,.1,.1,.15,.21,.15,.35s-.05,.26-.15,.36c-.1,.1-.21,.14-.35,.14s-.26-.04-.35-.14Z"/><path class="i" d="M36.81,52.32h0c-1.07-.65-1.54-1.12-1.49-1.67,.17-1.53,2.05-1.31,3.09-.74v-1.03s-.57-.25-1.4-.26c-1.27-.02-2.09,.4-2.47,1.24-.56,1.25-.06,2.19,1.74,3.24,1.01,.59,1.46,1.1,1.46,1.65,0,1.15-1.39,1.56-2.83,.83-.29-.15-.54-.27-.56-.27-.05,.33-.02,1.11-.02,1.11,0,0,.44,.18,1.09,.31,1.64,.33,3.14-.44,3.28-1.69,.12-1.17-.3-1.78-1.9-2.74Z"/></g></g></g></g></svg>