<?xml version="1.0" encoding="UTF-8"?><svg xmlns="http://www.w3.org/2000/svg" viewBox="0 0 75.41 75.41"><defs><style>.d{fill:none;}.e{fill:#336791;}</style></defs><g id="a"/><g id="b"><g id="c"><g><rect class="d" width="75.41" height="75.41"/><path class="e" d="M26.6,45.77c0,.71-.36,1.04-1.15,1.04h-1.78v-2.14h2.01c.69,0,.92,.38,.92,1.09Z"/><path class="e" d="M29.17,49.08c-.25-.31-.38-.7-.36-1.09-.03-.21-.03-.43,0-.64,.05-.17,.15-.33,.28-.46,.26-.27,.62-.41,.99-.38,.97,0,1.43,.46,1.43,1.48,.03,.21,.03,.43,0,.64-.05,.17-.14,.32-.25,.46-.29,.28-.69,.43-1.09,.41-.38,.02-.74-.13-.99-.41Z"/><path class="e" d="M43.81,47.94c.02,.39-.1,.77-.36,1.07-.12,.12-.26,.21-.41,.28-.19,.03-.37,.03-.56,0-.97,0-1.43-.43-1.43-1.4-.02-.37,.11-.74,.36-1.02,.29-.25,.66-.38,1.04-.36,.37-.02,.72,.11,.99,.36,.26,.29,.39,.68,.36,1.07Z"/><path class="e" d="M40.58,56.24c.13,.39,.19,.81,.18,1.22,.05,.82-.23,1.62-.76,2.24-.26,.24-.56,.43-.89,.56-.36,.14-.74,.2-1.12,.2-.78,.06-1.54-.24-2.06-.81-1.02-1.29-1.02-3.11,0-4.4,.55-.53,1.3-.82,2.06-.79,.77-.04,1.52,.27,2.04,.84,.25,.27,.44,.59,.56,.94Z"/><path class="e" d="M49.08,47.53c.05-.28,.16-.54,.33-.76,.14-.12,.29-.21,.46-.28,.19-.03,.37-.03,.56,0,.36-.02,.71,.12,.97,.38,.21,.19,.35,.45,.38,.74l-2.7-.08Z"/><path class="e" d="M34.85,22.2v.31h0c.16,.22,.4,.37,.66,.41h.13c.29-.08,.5-.33,.53-.64v.23c.52,1.68,.39,3.5-.36,5.09-.13,.27-.25,.55-.36,.84l-.23,.64v.25h-.13c-.6-.1-1.14-.39-1.55-.84-.44-.49-.7-1.1-.76-1.76-.03-.26-.03-.53,0-.79,.21-1.19,.21-2.4,0-3.59l.97-.43c.32-.15,.67-.24,1.02-.28h.41c.15-.03,.31-.03,.46,0l.28-.03h-.56c-.41,0-.66,.15-.51,.59Z"/><path class="e" d="M45.67,27.42l-.31-.59c-.94-1.37-1.51-2.95-1.65-4.61v-.31c.13,.35,.46,.59,.84,.59h0c.26-.05,.5-.2,.66-.41l.15-.33h0c-.03-.15-.14-.26-.28-.31h.53v.84c-.08,.45-.13,.9-.15,1.35v1.55c.21,.72,.28,1.47,.2,2.21Z"/><path class="e" d="M33.48,31.29l-.61,.18,1.09-1.22c.33,.15,.68,.25,1.04,.31-.33,.46-.41,.56-1.53,.74Z"/><path class="e" d="M46.08,30.83c.53,.3,1.14,.44,1.76,.41h.59c-.57,.23-1.17,.36-1.78,.38h-.53c-.19-.03-.39-.03-.59,0-.03-.71,.31-.79,.56-.79Z"/><path class="e" d="M36.79,30.85c.2,.08,.2,.18,.2,.61-.39,.6-1.02,1.01-1.73,1.12h-1.25c.83-.04,1.59-.47,2.04-1.17,.17-.21,.36-.42,.56-.61l.18,.05Z"/><path class="e" d="M28,29.48c-1.04-2.78-1.73-5.68-2.06-8.63-.21-1.55,.21-3.12,1.17-4.35,.92-.87,2.17-1.31,3.44-1.22,1.03,0,2.06,.15,3.05,.43-1.35,1.85-2.06,4.08-2.04,6.36h.28l-.25,.43c.1,1.07,.1,2.14,0,3.21-.04,.36-.04,.73,0,1.09,.09,.95,.48,1.84,1.12,2.55l.15,.18c-.43,.46-1.17,1.3-1.96,2.24-.18,.25-.44,.42-.74,.51-.32-.05-.6-.23-.79-.48-.58-.69-1.04-1.48-1.37-2.32Z"/><path class="e" d="M33.09,20.8c0-2.94,2.31-5.36,5.24-5.52h.59c.05,.17,.17,.31,.33,.38,.29,0,.57-.06,.84-.15,2.06,.61,3.78,2.02,4.79,3.92,.15,.28,.38,.56,.38,.79h-.36c-2.09,0-2.7,1.09-2.85,1.99,.08,1.97,.7,3.89,1.81,5.52l.31,.53c.22,.53,.52,1.02,.89,1.45-.48,.2-1.02,.69-1.02,2.04-.03,.36-.2,1.93-.33,2.9s-.36,1.99-.36,2.55c-.04,.6-.28,1.17-.66,1.63-.48,.42-1.07,.7-1.71,.79h-.71c-.4,.01-.78-.11-1.09-.36-.31-.31-.55-.7-.69-1.12-.19-.75-.28-1.52-.25-2.29v-4.71c.01-.14,.01-.27,0-.41-.13-.37-.37-.69-.69-.92l-.33-.18c-.16-.08-.33-.13-.51-.15l.2-.56,.31-.79c.89-1.86,1.06-3.98,.46-5.96-.13-.85-.73-1.55-1.55-1.81-.28-.04-.56-.04-.84,0h-.61c-.44,.05-.88,.15-1.3,.31l-.28,.13Z"/><path class="e" d="M42.36,14.77c.42-.03,.83-.03,1.25,0,2.1-.06,4.1,.89,5.4,2.55,.5,1.63,.41,3.37-.25,4.94-.51,1.76-1.2,3.47-2.06,5.09,.1-.77,.1-1.55,0-2.32-.02-.44-.02-.88,0-1.32,.02-.4,.07-.8,.15-1.2,.08-.51,.13-1.03,.13-1.55,0-.32-.06-.64-.18-.94-.17-.46-.37-.9-.61-1.32-.87-1.65-2.2-3.01-3.82-3.92Z"/><path class="e" d="M66.04,15.51L37.7,1.86,9.37,15.51,2.37,45.94l19.59,24.84h31.48l19.59-24.84-7-30.43Zm-18.38,14.25c.61-.02,1.21-.09,1.81-.23h.51c.18-.04,.36-.04,.53,0,.39,.17,.57,.62,.41,1.02-.01,.22-.09,.44-.23,.61-.48,.54-1.07,.98-1.73,1.27-.73,.29-1.51,.45-2.29,.48h-.41c-.3,.03-.59,.03-.89,0,0,.28,0,1.09-.2,1.93s-.28,2.06-.38,2.55c-.08,.86-.44,1.68-1.02,2.32-.65,.63-1.48,1.04-2.37,1.17-.33,.04-.66,.04-.99,0-.7,.02-1.39-.22-1.93-.66-.49-.45-.87-1.01-1.09-1.63-.22-.9-.34-1.82-.36-2.75v-2.55c-.45,.31-.96,.52-1.5,.61h-.76c-.45,0-.89-.06-1.32-.18-.39-.09-.76-.27-1.07-.53-.18-.16-.29-.38-.33-.61-.31,.39-.71,.7-1.17,.89-.2,.04-.41,.04-.61,0-.69-.04-1.33-.37-1.76-.92-.65-.81-1.18-1.72-1.55-2.7-1.17-2.93-1.96-6-2.34-9.14-.26-1.89,.24-3.8,1.4-5.32,1.15-1.09,2.7-1.65,4.28-1.55,1.62,.03,3.22,.34,4.74,.92,.91-.69,2.04-1.03,3.18-.97,.74,.01,1.47,.1,2.19,.25,.39-.15,.79-.26,1.2-.33,.72-.15,1.45-.23,2.19-.23,2.5-.08,4.9,1.02,6.47,2.98,.81,1.96,.81,4.15,0,6.11-.71,2.54-1.79,4.96-3.21,7.18,.21,.04,.43,.04,.64,0Zm-6.19,21c.29,.16,.61,.23,.94,.2,.37,.04,.75-.07,1.04-.31,.22-.25,.33-.58,.31-.92l.03-.2c-.41,.33-.93,.5-1.45,.46-.58,.04-1.15-.17-1.58-.56-.18-.19-.31-.41-.38-.66-.1-.29-.16-.59-.15-.89-.07-1.09,.75-2.04,1.85-2.12,.11,0,.21,0,.32,0,.41-.02,.82,.09,1.17,.31,.09,.06,.17,.14,.23,.23v-.48h.81v3.9c0,1.25-.74,1.91-2.14,1.91-.54,.05-1.09-.07-1.55-.36-.3-.27-.49-.64-.53-1.04v-.18h.81v.15c.02,.22,.12,.42,.28,.56Zm.99,3.03h1.02v6.47h4.43l-.03,.84h-5.42v-7.31Zm3.87-7.84c.3-.17,.65-.25,.99-.23h.48v.81h-.59c-.46,0-1.07,.18-1.07,1.48v2.06h-.81v-4.25h.81v.28l.18-.15Zm-7.33,3.44c.12,.03,.24,.03,.36,0h.38v.71h-.53c-.3,.03-.61-.04-.87-.2-.15-.22-.21-.5-.15-.76v-2.55l-.66,.03v-.79h.66v-1.27h.81v1.27h.89v.74h-.89v2.55c-.04,.09-.04,.19,0,.28Zm-8.26,11.94c-.89,.06-1.77-.2-2.48-.74-.47-.52-.71-1.21-.66-1.91v-.13h1.04v.15c0,1.2,.71,1.78,2.16,1.78,.53,.05,1.06-.08,1.5-.38,.28-.24,.42-.6,.38-.97,.02-.37-.18-.72-.51-.89-.5-.17-1.01-.3-1.53-.38-.73-.09-1.44-.29-2.11-.59-.51-.36-.79-.96-.74-1.58-.05-.58,.19-1.15,.64-1.53,.67-.42,1.45-.61,2.24-.53,1.91,0,2.88,.76,2.88,2.32v.05h-1.07c0-.99-.61-1.48-1.86-1.48-.49-.03-.97,.07-1.4,.31-.27,.22-.41,.55-.38,.89-.03,.36,.16,.7,.48,.87,.57,.21,1.16,.36,1.76,.43,.68,.09,1.33,.3,1.93,.61,.51,.34,.8,.94,.74,1.55-.08,1.4-1.07,2.13-3.02,2.14Zm-2.76-13.21c-.03-.57,.16-1.12,.53-1.55,.43-.45,1.03-.7,1.65-.66,.63-.04,1.25,.2,1.71,.64,.34,.4,.53,.92,.53,1.45,.03,.58-.16,1.14-.53,1.58-.45,.45-1.07,.69-1.71,.64-.31,.04-.63,.04-.94,0-.26-.11-.5-.27-.69-.48-.39-.44-.59-1.02-.56-1.6Zm5.55,1.93c-.14-.13-.25-.29-.33-.46-.09-.2-.14-.42-.15-.64v-.15h.87v.18c.05,.12,.13,.23,.23,.31,.31,.18,.66,.26,1.02,.23,1.09,0,1.09-.46,1.09-.59,.02-.21-.12-.41-.33-.46l-.97-.1c-.41-.05-.81-.14-1.2-.25-.38-.18-.61-.57-.59-.99-.02-.41,.17-.79,.51-1.02,.19-.1,.4-.17,.61-.2,.25-.03,.51-.03,.76,0,1.55,0,1.88,.79,1.88,1.45v.15h-.84v-.15c0-.33,0-.74-1.04-.74-.29-.02-.58,.03-.84,.15-.15,.09-.24,.26-.23,.43,0,0,0,.25,.31,.36l1.07,.18c.38,0,.75,.09,1.09,.25,.4,.16,.66,.56,.64,.99,0,.61-.33,1.35-1.93,1.35-.32,.04-.65,.04-.97,0-.24-.05-.46-.14-.66-.28Zm-10.62-6.16h3.08c.48-.03,.95,.15,1.3,.48,.32,.38,.48,.86,.46,1.35,.04,.51-.16,1-.53,1.35-.4,.39-.95,.57-1.5,.51h-2.04v2.55h-.76v-6.24Zm12.25,10.59c.75-.72,1.76-1.1,2.8-1.04,.56,0,1.12,.09,1.65,.28,.47,.18,.9,.48,1.22,.87,.66,.75,1.01,1.73,.97,2.72,0,.57-.09,1.14-.28,1.68-.17,.43-.44,.82-.79,1.12l1.07,.99-.69,.71-1.12-.94c-.26,.14-.53,.24-.81,.31-.4,.04-.8,.04-1.2,0-1.05,.06-2.08-.33-2.83-1.07-1.4-1.62-1.4-4.01,0-5.63Zm17.46-6.11h-3.56c.02,.3,.13,.58,.31,.81,.28,.3,.68,.46,1.09,.43,.58,.07,1.12-.32,1.25-.89v-.13h.87v.2c-.08,.41-.29,.78-.61,1.04-.2,.15-.42,.27-.66,.36-.26,.08-.54,.13-.81,.13-.63,.03-1.24-.21-1.68-.66-.39-.44-.59-1.02-.56-1.6-.03-.58,.19-1.15,.59-1.58,.44-.41,1.03-.62,1.63-.59,.33,0,.66,.05,.97,.15,.28,.1,.53,.28,.71,.51,.37,.46,.55,1.04,.51,1.63l-.03,.18Z"/></g></g></g></svg>