<svg width="737" height="737" xmlns="http://www.w3.org/2000/svg" xmlns:xlink="http://www.w3.org/1999/xlink" xml:space="preserve" overflow="hidden"><defs><clipPath id="clip0"><rect x="2159" y="1196" width="737" height="737"/></clipPath></defs><g clip-path="url(#clip0)" transform="translate(-2159 -1196)"><path d="M2742.56 1338.02 2312.44 1338.02C2300.52 1337.74 2288.78 1340.95 2278.65 1347.24 2262.02 1359.46 2251.85 1378.59 2251 1399.22L2251 1491.49C2251 1525.46 2278.51 1553 2312.44 1553L2742.56 1553C2776.49 1553 2804 1525.46 2804 1491.49L2804 1399.22C2803.83 1365.37 2776.37 1338.02 2742.56 1338.02ZM2333.03 1483.18C2311.99 1483.35 2294.8 1466.42 2294.63 1445.36 2294.46 1424.29 2311.37 1407.08 2332.41 1406.91 2353.45 1406.74 2370.65 1423.68 2370.82 1444.74 2370.82 1444.84 2370.82 1444.94 2370.82 1445.05 2370.82 1465.99 2353.95 1483.02 2333.03 1483.18Z" fill="#385723" fill-rule="evenodd"/><path d="M2742.56 1577 2312.44 1577C2278.51 1577 2251 1604.5 2251 1638.43L2251 1730.57C2251 1764.5 2278.51 1792 2312.44 1792L2742.56 1792C2776.49 1792 2804 1764.5 2804 1730.57L2804 1638.43C2804 1604.5 2776.49 1577 2742.56 1577ZM2333.03 1721.97C2311.99 1722.14 2294.8 1705.23 2294.63 1684.19 2294.46 1663.16 2311.38 1645.97 2332.42 1645.8 2353.46 1645.63 2370.65 1662.55 2370.82 1683.58 2370.82 1683.78 2370.82 1683.99 2370.82 1684.19 2370.82 1705.06 2353.9 1721.97 2333.03 1721.97Z" fill="#385723" fill-rule="evenodd"/></g></svg>