<svg width="1054" height="1055" xmlns="http://www.w3.org/2000/svg" xmlns:xlink="http://www.w3.org/1999/xlink" xml:space="preserve" overflow="hidden"><defs><clipPath id="clip0"><rect x="1187" y="224" width="1054" height="1055"/></clipPath></defs><g clip-path="url(#clip0)" transform="translate(-1187 -224)"><path d="M1744 905 1863 836.773 1863 699 1744 768.107 1744 905Z" fill="#002060" fill-rule="evenodd"/><path d="M1714 581 1596 648.561 1714 717 1832 648.561 1714 581Z" fill="#002060" fill-rule="evenodd"/><path d="M1566 836.773 1684 905 1684 768.107 1566 699 1566 836.773Z" fill="#002060" fill-rule="evenodd"/><path d="M2069.21 491.018 1714.06 320 1358.91 491.018 1271 875.257 1516.71 1183 1912.3 1183 2158 875.257ZM1921.96 837.009C1922.03 858.296 1910.6 877.961 1892.08 888.446L1743.95 973.735C1725.58 984.891 1702.54 984.891 1684.17 973.735L1538.24 888.446C1519.72 877.961 1508.29 858.296 1508.35 837.009L1508.35 666.431C1508.29 645.143 1519.72 625.479 1538.24 614.994L1684.17 531.903C1702.54 520.748 1725.58 520.748 1743.95 531.903L1892.08 617.192C1910.6 627.677 1922.03 647.341 1921.96 668.629Z" fill="#002060" fill-rule="evenodd"/></g></svg>