<svg xmlns="http://www.w3.org/2000/svg" xmlns:xlink="http://www.w3.org/1999/xlink" viewBox="0 0 24 24"><defs><style>.cls-1{fill:none;}.cls-2{fill:#323e45;}</style><symbol id="diagram-monitoring" data-name="diagram-monitoring" viewBox="0 0 24 24"><rect class="cls-1" width="24" height="24"/><path class="cls-2" d="M19.44,3.58H4.56A1.62,1.62,0,0,0,2.92,5.22V16.14a1.62,1.62,0,0,0,1.64,1.64H8.7v1.64h6.6V17.78h4.14a1.65,1.65,0,0,0,1.64-1.64V5.22A1.62,1.62,0,0,0,19.44,3.58Zm0,12.56H4.56V5.22H19.44Z"/><path class="cls-2" d="M12,12.74a2.2,2.2,0,1,0-2.2-2.2A2.21,2.21,0,0,0,12,12.74Z"/></symbol></defs><title>자산 5</title><g id="레이어_2" data-name="레이어 2"><g id="레이어_1-2" data-name="레이어 1"><use width="24" height="24" xlink:href="#diagram-monitoring"/></g></g></svg>