<svg xmlns="http://www.w3.org/2000/svg" xmlns:xlink="http://www.w3.org/1999/xlink" viewBox="0 0 24 24"><defs><style>.cls-1{fill:none;}.cls-2{fill:#323e45;}</style><symbol id="diagram-server" data-name="diagram-server" viewBox="0 0 24 24"><rect class="cls-1" width="24" height="24"/><path class="cls-2" d="M19,4.62H5a2,2,0,0,0-1.1.3A2.21,2.21,0,0,0,3,6.61v3a2,2,0,0,0,2,2H19a2,2,0,0,0,2-2v-3A2,2,0,0,0,19,4.62ZM5.67,9.34A1.24,1.24,0,1,1,6.9,8.1,1.24,1.24,0,0,1,5.67,9.34Z"/><path class="cls-2" d="M19,12.41H5a2,2,0,0,0-2,2v3a2,2,0,0,0,2,2H19a2,2,0,0,0,2-2v-3A2,2,0,0,0,19,12.41ZM5.67,17.13A1.24,1.24,0,1,1,6.9,15.9,1.23,1.23,0,0,1,5.67,17.13Z"/></symbol></defs><title>자산 1</title><g id="레이어_2" data-name="레이어 2"><g id="레이어_1-2" data-name="레이어 1"><use width="24" height="24" xlink:href="#diagram-server"/></g></g></svg>