<svg xmlns="http://www.w3.org/2000/svg" xmlns:xlink="http://www.w3.org/1999/xlink" viewBox="0 0 24 24"><defs><style>.cls-1{fill:none;}.cls-2,.cls-3{fill:#323e45;}.cls-3{opacity:0.5;isolation:isolate;}</style><symbol id="diagram-data" data-name="diagram-data" viewBox="0 0 24 24"><rect class="cls-1" width="24" height="24"/><path class="cls-2" d="M5,14.06v3c0,1.31,3.11,2.38,7,2.38s7-1.07,7-2.38v-3c-1.65,1.07-4.47,1.46-7,1.46S6.65,15.13,5,14.06Z"/><path class="cls-3" d="M12,10.22c-2.53,0-5.35-.44-7-1.5v3C5,13,8.11,14,12,14s7-1.07,7-2.38V8.72C17.3,9.78,14.53,10.22,12,10.22Z"/><path class="cls-2" d="M19,6.38c0,1.31-3.11,2.38-7,2.38S5,7.65,5,6.38,8.11,4,12,4,19,5.07,19,6.38Z"/></symbol></defs><title>자산 7</title><g id="레이어_2" data-name="레이어 2"><g id="레이어_1-2" data-name="레이어 1"><use width="24" height="24" xlink:href="#diagram-data"/></g></g></svg>