<?xml version="1.0" encoding="UTF-8"?><svg xmlns="http://www.w3.org/2000/svg" viewBox="0 0 75.41 75.41"><defs><style>.d{fill:none;}.e{fill:#231f20;}.f{fill:#c8c037;}.f,.g,.h,.i,.j{fill-rule:evenodd;}.g{fill:#fdee21;}.h{fill:#fff;}.i{fill:#fcf6a0;}</style></defs><g id="a"/><g id="b"><g id="c"><g><rect class="d" width="75.41" height="75.41"/><polygon class="e" points="66.04 15.51 37.7 1.86 9.37 15.51 2.37 45.94 21.96 70.77 53.44 70.77 73.03 45.94 66.04 15.51"/><path class="h" d="M39.12,47.79v7.94h1.95v-3.65h.4v3.65h1.97v-7.94h-1.97v2.95h-.4v-2.95h-1.95Z"/><path class="e" d="M43.55,55.84h-2.18v-3.64h-.19v3.64h-2.16v-8.15h2.16v2.95h.19v-2.95h2.18v8.15Zm-1.97-.21h1.76v-7.73h-1.76v2.95h-.61v-2.95h-1.74v7.73h1.74v-3.65h.61v3.65Z"/><path class="h" d="M45.87,47.79h-1.9v7.94h1.9v-7.94Z"/><path class="e" d="M45.97,55.84h-2.11v-8.15h2.11v8.15Zm-1.9-.21h1.69v-7.73h-1.69v7.73Z"/><path class="h" d="M46.18,47.79l1.5,7.94h2.26l1.5-7.94h-2.02l-.5,3.4c-.04,.13-.18,.13-.21,0l-.5-3.4h-2.05Z"/><path class="e" d="M50.03,55.84h-2.44l-1.54-8.15h2.27l.51,3.48h0l.51-3.48h2.23l-1.54,8.15Zm-2.26-.21h2.09l1.46-7.73h-1.8l-.48,3.32h0c-.03,.12-.12,.18-.22,.18-.09,0-.17-.08-.19-.18h0l-.48-3.31h-1.83l1.46,7.73Z"/><path class="h" d="M55.61,47.79h-3.77v7.94h3.77v-2.08l-2.1-.02v-.89h1v-2.07h-1v-.8h2.1v-2.08Z"/><path class="e" d="M55.72,55.84h-3.98v-8.15h3.98v2.29h-2.1v.59h1v2.28h-1v.68l2.1,.02v2.29Zm-3.77-.21h3.56v-1.87l-2.1-.02v-1.1h1v-1.86h-1v-1.01h2.1v-1.87h-3.56v7.73Z"/><path class="g" d="M35.26,23.72c-.32-.87-11.24-5.11-11.38-4.65-2,.52-2.82,2.83-4.2,4.3l-3.06-.18c-1.35,1.73-2.06,3.51-1.58,5.35,1.73,2.34,3.74,4.34,4.99,7.28,.1,1.39,6,.15,7.27-.13-1.73,1.24-3.23,3.16-2.59,8.68,.59,2.59,.99,5.49,6.23,8.42,.69,.39,2.12,.83,3,1.16,.84,.39,1.83,.55,4.61-.31,1.61-.69,3.35-1.11,4.93-1.81l-1.89,.09c-2.61,.06-4.62,.25-5.24-.48l-2.4-4.14,1.4-2.72c1.94,.2,2.58,1.77,4.29,2.37l2.01-1.49c5.85,3.45,8.17-2.19,8.84-6.58-.07-1.79-3.87,.56-3.64-.27,.09-1.92-1.48-4.43-2.49-6.39l1.17-4.53c.53-.47-2.46-5.51-4.9-6.14-2.14-.55-5.37,2.16-5.37,2.16h0Z"/><path class="f" d="M44.87,33.34c.02,.49,.02,1.08,.07,1.45,0,.28-.22,.29-.39,.35l1.14,.42c.23,.38,.41,.76,.59,1.14,.21,.93,.05,.96-.09,1.03-.41,0-.82,0-1.21-.08,.17,.09,.21,.16,.23,.27,.03,.21-.1,.51-.33,.79,.34,.19,.95,.37,1.41,.54l.52-1.16c-.24-1.7-.95-3.27-1.93-4.76h0Z"/><path class="f" d="M46.99,39.04c.63,.26,1.5,.19,2.71-.44,.18-.13,.35-.05,.03,.16-1.58,1.42-2.34,.71-2.74,.28h0Z"/><path class="f" d="M49.82,38.42c.19,.36,.07,.65,.01,.95-.2,1.54-.68,2.76-1.62,4.03-3.07,4.93-6.16,1.85-8.63-.16l-1.02,2.56c-.05,.22-.28,.4,1.31,1.1l1.62-1.15c6.19,4.71,10.58-6.6,8.32-7.34h0Z"/><path class="f" d="M40.33,42.82c-.42,.03-1.66,.45-1.72,.7l.57-.85,1.14,.16Z"/><path class="f" d="M39.52,37.59c.08,0,.44,.1,.4,.08-.06-.03,0,.52,.11,.8l-.45,.98c.86-.99,2.22-.92,3.48-1.05l-.6-.37c.1-.35-.02-.62-.08-.92l-2.87,.49Z"/><path class="f" d="M41.63,34.66c-.92,.28-1.8,.74-2.4,1.73,.45-1.62,.54-1.56,.69-1.64,.63-.28,1.15-.11,1.71-.09h0Z"/><path class="i" d="M36.71,53.67c-1.11,1.23-3.6-.09-5.67-.77-5.25-3.34-6.27-6.48-6.34-9.56-.27-4.41,1.09-6.98,2.8-7.59-1.13,2.19-1.66,6.11-1.14,9.03,.42,1.62,.43,4.36,3.15,5.83,1.33,.75,.97,1.33,1.87,2.03,.99,.77,3.74,1.5,5.33,1.02h0Z"/><path class="i" d="M38.37,33.27c-1.89-2.68-4.54-3.68-7.53-3.79,.6-.2,1.2-.3,1.8-.59,.15-.15,.1-.43,.04-.7-2.88-.75-4.7-1.68-7-2.54l6.21,1.49c4.2,.16,3.84,1.2,6.48,6.13h0Z"/><path class="i" d="M40.39,31.98c-1.39-1.99-2.75-4.41-4.58-5.94-4.43-2-8.82-3.49-13.95-4.84l1.64-2.11c5.45,1.24,10.57,3.33,15.16,6.76,.78,1.96,1.29,3.93,1.74,6.13h0Z"/><path class="i" d="M43.2,28.46s-.78-1.75-1.16-2.42c-.88-.98-1.33-2.8-3.14-3.66,.57,.15,.96-.03,2.13,1.03l1.84,3.49,.33,1.57Z"/><path class="i" d="M44.17,31.5c.18-1.52,.52-3.96,.13-4.92-1.09-1.47-2.19-2.98-3.3-4.39-.18-.17-.31-.4-.46-.58,1.55,.4,3.16,1.48,5.34,5.73l-1.72,4.16Z"/><path class="j" d="M37.67,31.68c-.62-.49-1.17-2.2-2.1-2.56-.86-.07-1.18-.34-2.32-.11,.41-.21,.8-.47,1.24-.61,.3-.07,.58,0,.86,.05,.07-.03,.12-.07,.1-.14-1.14-.71-3.49-.72-5.08-1.12,1.84,.06,3.88-.04,5.26,.4,1.11,.99,1.47,2.85,2.04,4.09h0Z"/><path class="j" d="M41.04,23.4c.26,.02,1.63,2.2,1.69,2.56,.11,.79,.4,1.68,.47,2.5-.23-.79-.47-1.59-.78-2.38-.09-.22-.32-.71-.95-1.41-.29-.49-.36-.88-.43-1.27h0Z"/><path class="j" d="M45.69,35.23h-.59l.65,.17-.06-.17Z"/><path class="j" d="M41.68,34.65c-.59-.07-1.2-.08-1.79,.05-.24,.32-.26,.65-.36,.96,.72-.79,1-.84,2.15-1h0Z"/><path class="j" d="M49.74,38.73c-.33,.26-.36,.51-1.33,.81-.71,.17-1.11-.12-1.44-.5,.51,.14,.59,.53,1.94,.1l.83-.41Z"/><path class="j" d="M46.8,38.9c-.24,.65-.49,1.31-.75,1.92-.61,.72-.35,.31-1.27,1.43,.29-.45,.68-.89,.88-1.36,.14-.31,.32-.64,.39-.92-.24-.12-.74-.13-.81-.09-.82,.48-.96,.99-1.44,1.49,.35-.56,.65-1.16,1.05-1.67,.05-.07,.35-.08,.53-.12-.29-.05-.81-.15-.86-.15-.53,.13-.83,.59-1.23,.9,.29-.42,.55-.85,.92-1.21,.04-.04,1.02,.04,1.54,.25v.2l.3,.12,.22-.55,.53-.25Z"/><path class="j" d="M40.34,42.82c-.13-.04-1.29-.19-1.29-.16-.45,.32-.51,.62-.5,.88,.74-.73,.71-.73,1.79-.72h0Z"/><path class="j" d="M39.46,37.58s.84-.12,.82-.04c-.06,.29,.1,1,.12,.9l-.47,.38c.99-.5,2.02-.4,3.07-.47,0,0-.89-.24-.83-.25,.2-.03-.05-.92-.12-.94,.17-.06,.33-.1,.5-.14-1.27-.33-2-.14-3.1,.57h0Z"/><path class="j" d="M46.7,38.21l-.19,.09c-.03-.54-.61-.5-1.1-.51l-.4-.1c.12,.11,.5,.1,.35,.35-.13,.07-.19,.37-.26,.61h-.22c.39,.16,.74,.29,1.17,.47l.25,.04,.6-.32-.2-.64Z"/><path class="h" d="M41.16,37.84c-.09-.19-.57-.16-.67-.04-.08,.1,0,.73,.1,.62,.15-.14,.35-.19,.6-.18,.03-.12,.02-.24-.03-.4h0Z"/><path class="h" d="M45.7,38.78s.14-.35,.11-.44c-.06-.22-.5-.18-.5-.18-.11,.06-.2,.41-.16,.52,.02,.1,.49,.13,.56,.09h0Z"/><path class="j" d="M26.86,49.65l.28,.03c1.65,.81,4.37,2.01,8.3,1.37l.62,.97c-1.73,.84-3.59,.65-5.34,.71l-3.85-3.07Z"/><path class="j" d="M24.49,43.24l.83,3.47c2.21,1.38,5.99,2.97,9.14,2.84l-.7-1.6c-6.58-1.4-7.13-3.16-9.27-4.71h0Z"/><path class="j" d="M26.55,36.14c.4,2.69,.94,4.73,3.28,6.43,1.43,1.03,2.86,2.06,4.58,2.9,0,0-.15,.79-.28,.78-5.15-.57-8.92-4.84-9.37-6.79,.44-1.5,1.08-2.43,1.79-3.32h0Z"/><path class="j" d="M29.03,34.61c.69,2.98,2.32,6,3.95,8.74,.6,.76,.75,1.09,1.67,1.55,1.24,.39,2.12,.29,3.02,.23-.25-.46-.47-.93-.75-1.36-2.02-1.6-1.09-3.05-.55-3.97-1.12-.28-2.61-.89-2.81-1.68-.33-2.56-.16-3.38,.17-4.69-1.52,.32-3.06,.64-4.69,1.19h0Z"/><path class="j" d="M23.45,18.79c-.5,.33-.98,.79-1.5,1.32-.86,.89-1.43,1.75-2.3,2.4-.17,.15-.66,.39-1.28,.43-.29,.01-.48,.06-1.01,0-.47-.25-.92-.09-1.35,.43-.48,.69-1.08,1.99-1.34,2.82-.52,2.1,.8,3.82,2.07,5.16,1.13,1.1,1.78,1.79,2.24,2.8,.35,.66,.61,1.56,.89,2.19,.1,.2,.08,.2,.35,.26,.59,.13,1.41,.13,2.14,.19,.32,0,.75,0,1.16-.05,.57-.11,1.23-.21,1.79-.4,.54-.13,1.03-.32,1.47-.49-.06,.19-.47,.38-.63,.62-1.48,2.12-1.89,4.01-1.63,6.98,.15,1.32,.45,2.41,.91,3.66,.21,.57,.65,1.48,1.08,2.08,1.27,1.79,4.1,4.09,8.05,4.98,.69,.09,1.47,.04,2.21-.15,1.95-.59,5.92-1.99,5.92-1.99,0,0-3.52,.29-5.14,.13-.37-.06-.79-.08-1.05-.33-.04-.06-.2-.38-.1-.38,.14,0,.54-.17,1.16-.23-1.32-.14-1.3-.14-1.4-.38-.15-.37-.38-.89-.62-1.33,.58,.05,1.87,.12,2.3-.33,0,0-.76,.09-1.43,0-.23-.03-.61-.16-.73-.21-.3-.12-.55-.15-.61-.23-.1-.27-.18-.36-.3-.71-.17-.47-.19-1-.22-1.49,.44,.54,1,1,1.74,1.23,0-.02,.96,.41,1.66,.19l.14-.05s-.46,.04-.63-.04c-1.41-.6-1.62-1.12-1.85-1.38l-.61-.91c.19-.37,.29-.38,.53-.39,.74,.08,1.06,.15,1.52,.04,.3,.63,.39,1.26,1.08,1.72,2.31,.69,2.81-.2,3.37-.99,1.66,1.22,4.37,1.6,6.25,.02,2.39-2.77,3.15-7.13,2.94-7.38-.3-.51-.69-1.03-1.03-.96-1.2,.33-1.64,.94-2.83,.8,.14,0,.38-.01,.38-.03,.09-1.01,0-1.49-.05-1.58-.36-.8-.83-1.63-1.16-2.26-.09-.13-.33-1.12-.75-1.51-.18-.15-.62-.56-.62-.56l-.04,.43s.17,.03,.24,.29c.25,1.01,1.51,3.4,1.6,3.51,.45,.72,.05,1.62,.39,2.13,.03,.06,.69,0,1.21,.03,.84-.18,.81-.55,1.54-.61,.49-.04,.54,.88,.53,.95-.09,1.02-.4,2.2-.87,3.28-.98,1.9-2.09,3.6-3.65,3.84-1.91,.33-2.9-.5-3.93-1.03l-.4,.34c-1.34,1.34-2.94,1.22-3.59-.53-.32-.68-.75-1.09-1.11-1.68l-1.92,1.38c-.16,.33-.36,.85-.6,1.42-.17,.4-.31,1.09-.3,1.67-.25,.42,.85,2.12,1.55,3.16,.21,.31,.59,.84,.6,.87,.14,.36,.44,.67,.46,.71,1.29,1.68-1.63,1.3-2.23,1.19-1.19-.19-2.35-.69-3.44-1.35-.06-.04-.13-.08-.19-.12-1.3-.82-2.49-1.86-3.51-2.9-.61-.69-1.18-2.09-1.61-3.09-.64-2.4-1.56-6.55,.93-9.7,.16-.18,.33-.48,.47-.54,.74-.5,1.54-.84,2.4-1.03l-.09-.56c-.43,.1-1.88,.63-2.29,.85-.93,.27-1.7,.55-2.89,.85-.39,.05-.77,.05-1.14,0-.85-.12-2.31-.01-2.4-.1-.58-.81-.74-2.25-1.26-3.02h0v-.02c-.31-.41-.67-.75-1.03-1.1-1.26-1.26-2.35-2.47-2.65-3.76-.08-.38-.27-.77-.17-1.9h0c.3-1.06,.8-1.92,1.64-2.78,.87,.01,1.74,.03,2.41,.16,.31,.05,.95,.14,1.62,.38,1.68,.63,3.9,1.66,3.9,1.66-1.67-.92-3.53-2.1-4.71-2.34-.18-.02-.28-.1-.33-.24,1.77-1.04,2.09-2.26,3.26-3.36,.53-.23,.74-.35,1.19-.4,4.18,.66,6.81,2.33,8.9,3.44,.85,.46,1.61,.81,2.35,1.23,.64,.21,2.58,1.68,3.15,2.47,.58,1.22,1,2.53,1.38,3.8,.28,1.29,.52,1.82,.52,1.82,0,0-.23-1.08-.2-1.27,.24,.09,.82,.27,1.05,.24,0,0-1.06-.55-1.2-1.04-.45-1.56-.9-3.98-1.02-4.11-.34-.43-1.76-1.52-2.63-2.02-.33-.19-.51-.31-.52-.39,.28-.28,.62-.65,.93-.89,.3-.23,.56-.48,.98-.63,1.81-.82,2.84,.31,3.09,.09,0,0-.39-.45-.22-.37,.18,.1,.75,.21,.82,.27,.66,.52,2.38,2.4,3.42,4.39,.25,.49,.35,.81,.24,1.4-.12,.59-.21,.91-.33,1.3-.11,.26-.76,2.06-.76,2.3-.13,.99,.42,2.22,.42,2.22,0-.33-.02-.51,0-.75l.04-.43s-.02-.11-.02-.16c.03-.3,.1-.54,.12-.71,.21-1.29,.57-2.21,.98-3.34,.12-.28,.28-.44,.27-.66,0-.39-.34-.9-.59-1.41-.25-.51-.55-1.08-.95-1.68-.9-1.29-1.66-2.3-3.07-2.93-.39-.17-1.94-.34-2.47-.24-.65,.13-1.2,.27-1.65,.55-.7,.45-1.25,1.14-1.89,1.55-1.42-.71-2.11-1.24-2.24-1.32-.85-.45-1.86-.98-2.95-1.48-.52-.49-3.78-1.66-6.75-1.89h0Zm18.2,26.54c-.88-.69-1.62-1.39-2.1-2.12-.16,.85-.74,1.46-1.18,2.06-.09,.14-.15,.33,.28,.94,.12,.16,.54,.19,.83,.18-.29-.22-.74-.46-.81-.66,.51,.35,.99,.45,1.42,.39,.1-.01,.22-.12,.32-.28,.19-.41,.34-.51,.49-.62l.35,.44,.4-.34Z"/><path d="M35.26,54.2c-.24,0-.47-.02-.7-.05-.94-.21-1.86-.51-2.75-.9-.8-.35-1.57-.77-2.29-1.25-1.25-.83-2.32-1.84-3.02-2.83-.43-.61-.88-1.53-1.08-2.08-.51-1.4-.77-2.46-.91-3.66-.07-.77-.09-1.44-.06-2.05,.03-.64,.1-1.21,.22-1.76,.25-1.09,.72-2.1,1.47-3.17,.07-.12,.21-.22,.33-.31,.13-.1,.26-.2,.29-.3-.47,.18-.94,.36-1.46,.49-.47,.16-1.02,.26-1.51,.35-.1,.02-.19,.03-.28,.05-.51,.05-.98,.05-1.16,.05-.24-.02-.49-.03-.73-.05-.52-.03-1.01-.06-1.41-.14-.25-.06-.25-.06-.33-.22l-.02-.04c-.11-.25-.22-.54-.33-.85-.17-.46-.35-.94-.56-1.33-.22-.49-.49-.91-.87-1.37-.35-.42-.78-.86-1.37-1.44-.38-.4-.67-.74-.93-1.07-.32-.42-.58-.82-.78-1.22-.23-.46-.37-.92-.44-1.36-.07-.5-.05-1.01,.07-1.5,.12-.4,.34-.93,.58-1.46,.26-.55,.53-1.03,.75-1.36,.22-.26,.44-.44,.67-.51,.23-.08,.46-.05,.69,.07,.41,.05,.62,.03,.83,.02,.06,0,.12-.01,.19-.01,.62-.04,1.1-.28,1.28-.43,.57-.42,1.01-.93,1.48-1.48,.26-.3,.52-.61,.82-.92,.57-.59,1.02-1.01,1.5-1.32h0c1.78,.14,3.45,.59,4.3,.85,1.19,.36,2.18,.78,2.46,1.04,1.18,.54,2.25,1.1,2.95,1.48,.02,.01,.07,.04,.13,.09,.28,.19,.95,.65,2.1,1.23,.32-.2,.6-.47,.91-.75,.31-.28,.62-.57,.98-.8,.45-.29,1.01-.42,1.65-.55,.54-.1,2.08,.07,2.47,.24,1.39,.63,2.15,1.61,3.07,2.94,.42,.64,.73,1.23,.95,1.68,.06,.12,.13,.25,.19,.36,.21,.39,.4,.75,.4,1.04,0,.14-.06,.26-.14,.4-.04,.08-.09,.16-.13,.26-.03,.09-.07,.18-.1,.27-.37,1.01-.69,1.89-.88,3.07,0,.07-.02,.14-.04,.23-.03,.14-.06,.3-.08,.48,0,.04,.02,.14,.02,.16h0s.44,.41,.62,.56c.31,.29,.52,.89,.65,1.24,.05,.13,.08,.23,.11,.27,.08,.16,.18,.33,.27,.51,.29,.54,.62,1.15,.89,1.75,.02,.04,.06,.17,.08,.44,.02,.22,.02,.59-.03,1.13,0,.01-.06,.01-.24,.02-.04,0-.08,0-.11,0,.74,.08,1.19-.13,1.71-.38,.3-.14,.65-.3,1.09-.42,.27-.06,.62,.26,1.03,.96,.11,.13-.03,1.29-.49,2.75-.26,.83-.58,1.62-.95,2.35-.44,.88-.95,1.65-1.5,2.29-.45,.38-.97,.66-1.54,.83-.53,.16-1.09,.23-1.67,.21-.55-.02-1.1-.13-1.63-.32-.52-.18-.99-.43-1.41-.74l-.07,.1c-.54,.76-1.09,1.55-3.31,.89h0c-.52-.34-.7-.79-.88-1.25-.06-.15-.12-.31-.2-.46-.39,.09-.69,.06-1.23,0-.09-.01-.18-.02-.28-.03-.12,0-.21,0-.29,.06-.08,.05-.15,.15-.24,.33l.61,.91s.07,.09,.11,.14c.11,.15,.24,.33,.5,.54,.31,.25,.71,.48,1.23,.7,.15,.08,.54,.06,.61,.05h0l-.13,.05c-.24,.08-.54,.08-.9,.02-.29-.05-.53-.14-.67-.18-.05-.02-.08-.03-.09-.03h0c-.35-.11-.68-.28-.99-.5-.27-.2-.52-.44-.75-.73,0,.06,0,.11,.01,.17,.03,.44,.06,.89,.21,1.31,.07,.21,.13,.33,.18,.44,.04,.08,.08,.16,.12,.27,.03,.05,.14,.08,.28,.12,.1,.03,.21,.06,.33,.11,.15,.05,.51,.18,.73,.21,.66,.08,1.43,0,1.43,0h0c-.19,.2-.56,.32-1.1,.36-.34,.02-.73,.02-1.2-.02,.21,.4,.44,.9,.61,1.33h0q.09,.24,1.39,.38h0c-.4,.04-.71,.12-.91,.18-.11,.03-.2,.05-.25,.05-.01,0-.02,0-.03,.02-.03,.07,.09,.31,.13,.36,.22,.22,.56,.26,.88,.31,.05,0,.11,.02,.17,.02,1.6,.16,5.1-.13,5.14-.13h0s-3.99,1.41-5.92,1.99c-.49,.13-1.01,.2-1.51,.2Zm-8.47-18.37h0c-.03,.11-.16,.2-.3,.31-.13,.1-.26,.2-.33,.31-.75,1.07-1.22,2.08-1.47,3.17-.13,.55-.2,1.13-.22,1.76-.02,.61,0,1.28,.06,2.05,.13,1.21,.4,2.27,.91,3.66,.2,.56,.65,1.47,1.08,2.08,.7,.99,1.77,1.99,3.02,2.83,.72,.48,1.48,.9,2.29,1.25,.88,.39,1.8,.69,2.74,.9,.7,.1,1.48,.04,2.2-.15,1.86-.56,5.61-1.88,5.9-1.98-.13,.01-.96,.08-1.95,.12-.99,.05-2.34,.09-3.18,0-.05,0-.11-.02-.17-.02-.32-.05-.66-.09-.88-.31-.04-.05-.16-.29-.13-.36,0-.01,.02-.02,.03-.02,.05,0,.13-.02,.25-.05,.2-.05,.5-.13,.89-.17q-1.28-.14-1.37-.37h0c-.17-.44-.4-.94-.62-1.34h0c.47,.04,.87,.04,1.21,.02,.53-.04,.9-.15,1.09-.35-.08,0-.8,.08-1.43,0-.22-.03-.58-.15-.73-.21-.12-.05-.23-.08-.33-.11-.14-.04-.25-.08-.28-.12h0c-.04-.11-.08-.19-.12-.27-.05-.11-.11-.23-.18-.44-.15-.42-.18-.87-.21-1.31,0-.06,0-.12-.01-.17h0c.23,.29,.49,.53,.76,.73,.3,.22,.63,.39,.98,.5,0,0,.02,0,.09,.03,.13,.05,.38,.13,.67,.18,.35,.06,.65,.06,.9-.02l.11-.03c-.11,.01-.45,.02-.59-.05-.52-.22-.93-.45-1.23-.7-.26-.21-.39-.39-.5-.54-.04-.05-.07-.1-.11-.14l-.61-.91h0c.18-.37,.29-.39,.54-.39,.1,.01,.19,.02,.28,.03,.54,.06,.84,.1,1.23,0h0c.08,.16,.14,.31,.2,.47,.19,.47,.36,.91,.88,1.25,2.21,.66,2.76-.13,3.3-.89l.07-.1h0c.42,.31,.9,.56,1.41,.74,.53,.19,1.08,.29,1.63,.32,.58,.03,1.14-.04,1.67-.2,.57-.17,1.08-.45,1.54-.83,.55-.64,1.05-1.41,1.5-2.28,.37-.73,.69-1.52,.95-2.35,.21-.66,.37-1.32,.46-1.88,.08-.47,.09-.8,.03-.87-.41-.69-.75-1.01-1.02-.96-.44,.12-.78,.28-1.09,.42-.53,.25-.99,.46-1.74,.37h0s.09,0,.14-.01c.1,0,.23,0,.24-.02,.05-.54,.04-.92,.02-1.13-.02-.27-.06-.41-.08-.44-.27-.59-.6-1.21-.89-1.75-.1-.18-.19-.35-.27-.51-.02-.04-.06-.13-.11-.27-.13-.36-.34-.96-.65-1.24-.17-.14-.57-.52-.62-.55l-.04,.42s.18,.05,.24,.29c.25,1.01,1.51,3.4,1.6,3.51,.24,.39,.24,.83,.23,1.22,0,.34,0,.67,.15,.9,.02,.03,.24,.03,.49,.02,.23,0,.48-.01,.71,0,.41-.09,.61-.22,.79-.34,.2-.13,.37-.24,.74-.27h.03c.09,0,.18,.04,.25,.11,.24,.24,.26,.8,.26,.85-.05,.51-.14,1.05-.29,1.62-.15,.57-.35,1.13-.58,1.66-.96,1.85-2.07,3.6-3.65,3.84-.71,.12-1.36,.1-1.99-.09-.55-.16-1-.42-1.44-.67-.17-.1-.34-.19-.5-.28l-.39,.34c-.36,.35-.73,.61-1.11,.76-.38,.15-.74,.18-1.09,.11-.3-.07-.57-.21-.8-.44-.24-.24-.44-.56-.59-.95-.2-.42-.44-.74-.67-1.05-.15-.2-.3-.4-.44-.62l-1.92,1.38c-.11,.23-.24,.54-.39,.91-.07,.17-.14,.34-.21,.52-.15,.37-.31,1.07-.3,1.66h0c-.11,.18,.03,.64,.42,1.35,.34,.62,.81,1.33,1.13,1.81,.1,.15,.23,.34,.35,.51,.13,.19,.24,.34,.25,.36,.11,.28,.31,.53,.41,.65,.03,.03,.05,.06,.05,.07,.31,.4,.4,.72,.27,.94-.08,.13-.24,.23-.47,.29-.19,.05-.44,.08-.74,.08h-.03c-.55,0-1.1-.08-1.25-.11-1.1-.18-2.26-.63-3.45-1.35-.06-.04-.13-.08-.19-.12-1.15-.73-2.33-1.7-3.51-2.9-.25-.28-.52-.72-.82-1.32-.26-.52-.5-1.08-.71-1.57l-.09-.2c-.15-.55-.33-1.28-.47-2.08-.16-.89-.23-1.71-.23-2.48,0-.94,.12-1.83,.35-2.63,.13-.45,.3-.88,.5-1.28,.22-.43,.48-.84,.78-1.22,.05-.06,.11-.13,.16-.21,.11-.14,.22-.29,.31-.33,.37-.25,.75-.46,1.15-.63,.4-.17,.81-.3,1.24-.4l-.09-.55c-.42,.1-1.87,.63-2.29,.85-.33,.09-.63,.19-.94,.29-.58,.18-1.18,.37-1.95,.56-.39,.05-.77,.05-1.14,0-.46-.06-1.09-.06-1.6-.06-.44,0-.76,0-.81-.04-.3-.42-.49-1.01-.67-1.58-.17-.55-.34-1.07-.6-1.44h-.01c-.27-.37-.58-.68-.88-.98-.05-.05-.09-.09-.14-.14-.55-.55-1.18-1.2-1.69-1.87-.51-.68-.82-1.3-.96-1.89-.01-.07-.03-.15-.05-.23-.09-.34-.2-.76-.11-1.67h0c.31-1.08,.82-1.94,1.64-2.78h0c.94,.01,1.76,.04,2.41,.16,.04,0,.08,.01,.12,.02,.34,.05,.91,.14,1.5,.36,1.51,.56,3.48,1.46,3.84,1.63-.36-.2-.73-.41-1.08-.61-.65-.37-1.33-.76-1.94-1.06-.69-.34-1.22-.55-1.63-.64-.17-.02-.28-.1-.34-.25h0c.5-.3,.93-.63,1.31-1.03,.34-.35,.62-.72,.88-1.08,.31-.42,.63-.85,1.07-1.26h0c.08-.03,.15-.07,.22-.1,.38-.17,.59-.26,.98-.3h0c1.64,.26,3.18,.69,4.71,1.33,1.33,.55,2.44,1.16,3.42,1.7,.27,.15,.52,.29,.77,.42,.38,.21,.75,.39,1.11,.57,.43,.22,.84,.42,1.24,.65,.3,.1,.93,.5,1.6,1.02,.71,.55,1.29,1.09,1.55,1.45,.59,1.25,1.02,2.62,1.38,3.81,.24,1.14,.46,1.68,.51,1.79-.03-.16-.23-1.08-.19-1.25h0c.18,.07,.72,.24,1,.24,.02,0,.03,0,.05,0-.04-.02-.29-.15-.54-.33-.16-.12-.3-.23-.41-.33-.13-.13-.22-.26-.25-.37-.23-.79-.45-1.81-.64-2.63-.18-.79-.32-1.42-.38-1.48-.16-.2-.58-.57-1.12-.98-.54-.41-1.1-.8-1.51-1.04-.33-.19-.51-.31-.52-.39h0c.05-.06,.11-.11,.17-.17,.24-.25,.51-.53,.76-.72,.06-.04,.11-.09,.16-.13,.23-.19,.48-.38,.81-.51,.29-.13,.58-.22,.86-.26,.24-.04,.49-.05,.73-.02,.44,.04,.78,.18,1.04,.29,.23,.09,.39,.16,.46,.09-.03-.03-.29-.33-.26-.38,0,0,.02,0,.04,0,.09,.05,.29,.1,.47,.15,.17,.05,.32,.09,.35,.12,.29,.22,.87,.79,1.57,1.64,.53,.64,1.27,1.64,1.85,2.75,.26,.5,.35,.82,.24,1.4-.12,.59-.21,.91-.33,1.3-.11,.24-.76,2.06-.76,2.3-.04,.28-.04,.77,.16,1.48,.11,.38,.23,.67,.26,.73,0-.12,0-.22,0-.31,0-.16,0-.28,.01-.43l.04-.43s-.02-.12-.02-.16c.02-.18,.05-.34,.08-.48,.02-.09,.03-.17,.04-.23,.19-1.18,.51-2.06,.88-3.07,.03-.09,.07-.18,.1-.27,.04-.1,.09-.19,.13-.26,.08-.14,.14-.26,.14-.4,0-.29-.19-.66-.4-1.04-.06-.12-.13-.24-.19-.36-.22-.45-.52-1.04-.95-1.68-.92-1.32-1.68-2.31-3.07-2.93-.39-.17-1.93-.34-2.47-.24-.64,.13-1.2,.27-1.65,.55-.35,.23-.67,.52-.98,.8-.31,.28-.59,.55-.91,.75h0c-1.15-.58-1.82-1.03-2.1-1.23-.07-.05-.11-.08-.13-.09-.7-.38-1.77-.94-2.95-1.48h0c-.28-.26-1.26-.68-2.46-1.04-.84-.26-2.52-.71-4.3-.85-.47,.31-.92,.74-1.5,1.32-.3,.31-.57,.62-.82,.92-.47,.55-.91,1.06-1.48,1.48-.18,.15-.67,.39-1.28,.43-.07,0-.13,0-.19,.01-.2,.02-.41,.03-.83-.02h0c-.23-.12-.46-.15-.69-.07-.22,.07-.44,.24-.66,.51-.23,.33-.49,.81-.75,1.36-.25,.53-.46,1.06-.58,1.46-.12,.5-.15,1-.07,1.5,.07,.45,.21,.9,.44,1.36,.2,.4,.45,.8,.77,1.22,.26,.34,.56,.68,.93,1.07,.59,.57,1.02,1.01,1.37,1.44,.38,.46,.65,.88,.87,1.37,.21,.39,.39,.87,.56,1.33,.11,.31,.22,.6,.33,.85l.02,.04c.08,.16,.08,.16,.33,.21,.4,.08,.89,.11,1.41,.14,.24,.01,.49,.03,.73,.05,.18,0,.65,0,1.16-.05,.09-.02,.18-.03,.28-.05,.49-.09,1.04-.19,1.51-.35,.53-.13,.99-.31,1.47-.49h0Zm2.3-1.25h0l.09,.56h0c-.43,.09-.85,.23-1.25,.4-.4,.17-.79,.38-1.15,.63-.1,.04-.21,.19-.31,.33-.05,.07-.11,.15-.16,.21-.3,.38-.56,.79-.78,1.22-.2,.4-.37,.84-.5,1.28-.23,.8-.35,1.68-.35,2.62,0,.78,.08,1.59,.23,2.48,.14,.8,.33,1.54,.47,2.08,.03,.06,.06,.13,.09,.2,.21,.49,.45,1.05,.71,1.57,.3,.6,.57,1.03,.82,1.32,1.18,1.2,2.36,2.17,3.51,2.9,.06,.04,.13,.08,.19,.12,1.19,.72,2.34,1.17,3.44,1.35,.16,.03,.7,.11,1.25,.11h.03c.29,0,.54-.03,.74-.08,.23-.06,.39-.16,.47-.29,.13-.22,.04-.53-.27-.93,0,0-.02-.03-.05-.07-.1-.12-.3-.37-.41-.65,0-.02-.12-.18-.25-.36-.12-.17-.26-.37-.35-.51-.32-.48-.79-1.19-1.13-1.81-.18-.33-.31-.61-.38-.82-.08-.25-.1-.43-.04-.53,0-.6,.14-1.29,.3-1.67,.07-.18,.14-.35,.21-.52,.15-.37,.28-.68,.39-.91h0l1.92-1.39h0c.14,.23,.29,.43,.44,.63,.23,.31,.47,.64,.67,1.05,.15,.39,.35,.71,.59,.95,.23,.23,.5,.38,.8,.44,.34,.07,.71,.04,1.08-.11,.38-.15,.76-.4,1.11-.76l-.35-.44h-.01c-.14,.12-.29,.22-.48,.62-.09,.16-.22,.27-.32,.28-.47,.06-.94-.07-1.42-.39,.06,.14,.29,.3,.53,.46,.1,.06,.2,.13,.28,.19h0c-.31,.02-.72-.02-.83-.17-.43-.6-.38-.8-.28-.94,.08-.1,.15-.2,.23-.3,.4-.51,.82-1.05,.95-1.76h0c.45,.67,1.14,1.36,2.1,2.12h0c.17,.09,.33,.18,.5,.28,.44,.25,.89,.51,1.44,.67,.62,.18,1.27,.21,1.98,.09,1.58-.24,2.69-1.99,3.65-3.84,.23-.53,.43-1.09,.58-1.66,.15-.56,.25-1.11,.29-1.62,0-.05-.02-.61-.26-.85-.08-.08-.17-.11-.27-.11-.37,.03-.54,.14-.74,.27-.18,.12-.39,.25-.79,.34h0c-.23-.01-.49,0-.71,0-.28,0-.48,.01-.49-.02-.16-.24-.16-.56-.15-.91,0-.39,0-.84-.23-1.22-.09-.11-1.36-2.5-1.6-3.51-.06-.25-.21-.29-.23-.29-.02,.15-.02,.27-.01,.43,0,.09,0,.2,0,.32h0s-.14-.31-.26-.74c-.11-.39-.23-.97-.16-1.48,0-.14,.21-.78,.34-1.14,.17-.5,.37-1.03,.42-1.16,.13-.39,.22-.71,.33-1.3,.11-.58,.02-.9-.24-1.39-.58-1.11-1.33-2.11-1.85-2.75-.7-.86-1.28-1.42-1.57-1.64-.03-.03-.18-.07-.35-.11-.18-.05-.38-.1-.47-.15-.02,0-.03-.01-.04,0-.03,.03,.18,.28,.26,.37h0c-.08,.08-.23,.01-.47-.08-.25-.1-.6-.24-1.04-.29-.24-.02-.48-.02-.72,.02-.28,.04-.57,.13-.86,.26-.33,.12-.58,.32-.81,.5-.05,.04-.11,.09-.16,.13-.25,.19-.52,.47-.76,.72-.06,.06-.11,.12-.17,.17,.02,.08,.19,.2,.52,.39,.41,.24,.98,.62,1.52,1.04,.54,.41,.96,.78,1.12,.98,.06,.06,.2,.69,.38,1.48,.18,.82,.41,1.84,.64,2.63,.04,.14,.18,.37,.65,.7,.28,.2,.55,.33,.55,.34h0c-.25,.03-.86-.16-1.05-.24-.04,.2,.19,1.26,.2,1.27h0s-.24-.54-.52-1.81c-.36-1.19-.79-2.56-1.38-3.8-.26-.36-.84-.9-1.55-1.45-.67-.52-1.3-.92-1.6-1.02-.4-.23-.81-.43-1.24-.65-.36-.18-.72-.36-1.11-.57-.25-.13-.5-.27-.77-.42-.98-.54-2.09-1.15-3.42-1.7-1.53-.63-3.07-1.07-4.71-1.33-.38,.04-.59,.13-.97,.3-.07,.03-.14,.06-.22,.1-.43,.41-.75,.84-1.07,1.26-.26,.36-.54,.72-.88,1.08-.38,.4-.81,.73-1.31,1.03,.05,.14,.16,.22,.33,.24,.41,.08,.94,.29,1.63,.64,.61,.31,1.29,.69,1.94,1.06,.38,.22,.77,.44,1.14,.64h0s-2.24-1.03-3.9-1.65c-.59-.22-1.16-.31-1.5-.36-.04,0-.08-.01-.12-.02-.65-.12-1.48-.15-2.41-.16-.82,.84-1.33,1.69-1.64,2.76h0c-.08,.92,.03,1.34,.11,1.68,.02,.08,.04,.15,.05,.23,.14,.59,.45,1.21,.96,1.89,.5,.67,1.13,1.32,1.68,1.87,.05,.05,.09,.09,.14,.14,.3,.3,.61,.61,.88,.96h.01c.26,.39,.42,.91,.6,1.46,.18,.57,.37,1.16,.67,1.58,.04,.04,.38,.04,.8,.04,.51,0,1.14,0,1.6,.06,.36,.05,.74,.05,1.13,0,.77-.19,1.37-.38,1.95-.56,.32-.1,.62-.19,.94-.29,.19-.1,.61-.28,1.14-.47,.5-.18,.95-.33,1.15-.38h0Zm10.47,8.63c-.13,.71-.55,1.24-.95,1.75-.08,.1-.16,.2-.23,.3-.09,.15-.15,.34,.28,.94,.11,.15,.51,.19,.82,.17-.08-.06-.18-.13-.28-.19-.24-.16-.48-.32-.53-.46h0c.47,.32,.95,.45,1.42,.39,.1-.01,.22-.12,.31-.27,.19-.4,.33-.51,.48-.61h.02l.35,.43,.39-.33c-.96-.75-1.65-1.44-2.1-2.11Z"/></g></g></g></svg>