<?xml version="1.0" encoding="UTF-8"?><svg xmlns="http://www.w3.org/2000/svg" viewBox="0 0 75.41 75.41"><defs><style>.d{fill:none;}.e{fill:#2c6791;}</style></defs><g id="a"/><g id="b"><g id="c"><g><rect class="d" width="75.41" height="75.41"/><path class="e" d="M66.04,15.51L37.7,1.86,9.37,15.51,2.37,45.94l19.59,24.84h31.48l19.59-24.84-7-30.43Zm-19.47,23.77v-.13c-.33,.94-.74,1.07-1.27,1.63-.63,.49-1.19,1.05-1.68,1.68-.61,.75-.5,1.86,.26,2.47,.03,.03,.07,.05,.1,.07l.48,.2c-.28,.17-.59,.29-.92,.36,0,.76-.66,1.25-.84,1.6-.08,.26-.13,.52-.15,.79-.08,3.44-.69,6.85-1.81,10.11-.29,.97-1,1.75-1.93,2.14l-.79,.36c.3-.44,.3-1.01,0-1.45-.23-.33-1.2-.31-1.5-.61,.18-.01,.36-.01,.53,0,.48,0,.94,0,1.09-.61,.07-.53-.18-1.05-.64-1.32-.31-.16-.59-.35-.84-.59-.09-.23-.09-.48,0-.71,.35,.28,.68,.57,.99,.89,.15,.15,.33,.27,.53,.33,.18,0,.25-.18,.43-.31,.37-.29,.67-.67,.87-1.09,0-.38-.06-.75-.15-1.12-.38-1.46-.38-2.99,0-4.46,.25-1.07,.67-2.09,1.25-3.03,.95-1.23,.95-2.95,0-4.18-1.55-2.14-1.6-5.01-.13-7.2,.91-1.65,2.02-3.18,3.31-4.56,.28-.28,.46-.33,.53-.71,1.04-4.58,.39-9.38-1.83-13.52,0-.18-.92-1.32-.92-1.4s1.02,1.2,1.04,1.17l.74,.94c3.03,4.15,4.18,9.37,3.18,14.41,0,.33-.25,.36-.48,.59-1.59,1.37-2.9,3.03-3.87,4.89-.35,.82-.61,1.67-.76,2.55,0,.25,0,.76,.33,.84,.32,.08,.67,0,.92-.23,.97-1.04,1.88-2.14,2.77-3.23,.89-1.09,1.15-1.58,1.76-2.34,.27,1.62,.06,3.28-.61,4.79Zm-13.95-23.42s.74-.94,.84-.99c-1.31,1.93-2.25,4.09-2.75,6.36-.57,2.77-.57,5.63,0,8.4,.07,.3,.23,.58,.46,.79,1.53,1.47,2.8,3.19,3.74,5.09,.39,1,.64,2.06,.74,3.13,.15,1.4-.71,2.32-2.24,2.55,0-.69,0-1.32-.15-1.96-.47-2.41-1.67-4.61-3.44-6.31-.12-.15-.25-.29-.41-.41-.75-.57-1.19-1.45-1.22-2.39-.68-5.17,.94-10.38,4.43-14.26Zm3.36,35.06l-1.15-3.23c-.15-.41-.36-.69-.84-.69-.41,.04-.79-.25-.84-.66-.03-.22-.11-.43-.23-.61-.2-.23-.51-.23-.92-.28,1.35-.89,2.37-.61,2.93,.61,.63,1.55,.98,3.19,1.04,4.86Zm-4.43-9.75c-1.78-1-3-2.78-3.28-4.81v-.13c1.56,1.28,2.7,3,3.28,4.94Z"/></g></g></g></svg>