<?xml version="1.0" encoding="UTF-8"?><svg xmlns="http://www.w3.org/2000/svg" viewBox="0 0 75.41 75.41"><defs><style>.ae{fill:none;}.af,.ag{fill:#6cf;}.ah{fill:#1f1917;}.ai{fill:#cc0;}.ai,.aj,.ak,.al,.ag,.am{fill-rule:evenodd;}.aj{fill:#ff0;}.ak{fill:#fff;}.al{fill:#ffc;}</style></defs><g id="a"/><g id="b"><g id="c"><g><polygon class="af" points="66.04 15.51 37.7 1.86 9.37 15.51 2.37 45.94 21.96 70.77 53.44 70.77 73.03 45.94 66.04 15.51"/><rect class="ae" width="75.41" height="75.41"/><path id="d" class="am" d="M24.79,33.13c-.14,.37-.27,.74-.41,1.12-.34,.33-.68,.67-1.02,1.01-.37,.37-.45,.36-.36,.88,.1,.61,.39,1.24,.93,1.78,.57,.57,1.76,1.37,2.61,.99-.08,.29-.19,.59-.32,.88-.57,1.26,.83,1.51,1.81,1.77,.81,.22,2.81,.81,3.1-.26,.13-.48,.15-.74,.1-1.2,.25-.57,.33-.66,.54-.97,.29-.43,.27-.59,.2-1.12-.01-.1-.03-.21-.04-.33,.97,.15,1.9,.14,2.85,.03-.29,.17-.58,.32-.96,.51-.91,.47-.05,1.84,.34,2.44,.82,1.26,1.55,2.13,2.94,1.38,.46-.25,.5-.52,.79-.95,.16-.09,.99-.79,1.48-1.19,.19,.22,.54,.26,1.08,.3,.27,.02,1.34,.01,1.62,.01,.85,0,1.36-.08,1.42-1.01,.03-.44,.01-.53-.2-.91-.01-.48-.03-.97-.04-1.45-.01-.54-.12-.88-.33-1.39-.19-.46-.3-.86-.53-1.3,.03-.18,.06-.36,.07-.55,.29,.28,.58,.56,.86,.83,.55,.53,1,.96,1.84,.92,.87-.04,1.87-.73,2.13-1.57,.09-.28,.17-.56,.26-.84,1.32,.25,2.85,.19,4-.42,1.69-.9,2.47-2.71,2.67-4.62,.16-1.55-.15-4.15-.88-5.56-.22-.42-1.2-.94-1.63-.51-.32,.33-.55,.83-.89,1.13-.27,.23-.61,.35-.9,.47-.23-.61-.55-1.09-.95-1.57-.32-.38-.62-.57-1.04-.83-.83-.52-1.47-1.17-2.23-1.8-2.28-1.88-4.24-1.82-7.09-.63-1.36,.57-2.01,1.35-2.84,2.46-.5,.03-.85,.12-1.38,.59-.39,.35-.76,.7-1.11,1.07-2.66,.42-4.31,.93-6.06,2.48-.71,.63-1.23,1.33-1.63,2.11-.37,.41-.75,.84-1.24,1.03-.35,.13-.34,.13-.46-.19,.41-.31,.41-.9,.45-1.43,.26,.01,.36,.31,.54,.53,.1-.47,.17-1.2-.33-1.45,.08-.21,.17-.43,.25-.67-.73,.13-3.22,1.81-1.89,3.09,.09,.36,.16,.6,.27,.84,.3,.63,.99,.74,1.58,.51-.16,.75-.2,1.56-.1,2.71,.02,.27,.06,.55,.12,.83"/><path id="e" d="M24.94,33.18c-.05,.15-.11,.3-.16,.45l-.32-.12c.05-.15,.11-.3,.16-.45l.32,.12Zm-.16,.45c-.08,.22-.16,.45-.25,.67l-.32-.12c.08-.22,.16-.45,.25-.67l.32,.12Zm-.25,.67l-.04,.06-.12-.12,.16,.06Zm-.04,.06c-.18,.18-.36,.36-.54,.53l-.24-.24c.18-.18,.36-.36,.54-.53l.24,.24Zm-.54,.53c-.16,.16-.32,.32-.48,.47l-.24-.24c.16-.16,.32-.32,.48-.47l.24,.24Zm-.48,.47c-.07,.07-.1,.1-.12,.12l-.23-.24s.1-.1,.12-.11l.24,.24Zm-.12,.12c-.22,.21-.26,.25-.2,.62l-.33,.06c-.09-.55-.03-.61,.29-.92l.23,.24Zm-.2,.62c.05,.3,.15,.6,.3,.9l-.3,.16c-.17-.33-.28-.67-.34-1l.33-.06Zm.3,.9c.14,.28,.34,.54,.58,.79l-.24,.24c-.27-.27-.48-.57-.64-.87l.3-.16Zm.58,.79c.31,.32,.83,.71,1.36,.91l-.12,.31c-.58-.22-1.14-.65-1.48-.99l.24-.24Zm1.36,.91c.37,.14,.75,.19,1.07,.05l.14,.31c-.41,.18-.87,.13-1.32-.04l.12-.31Zm1.07,.05l.32-.14-.09,.34-.16-.04-.07-.15Zm.23,.2c-.04,.15-.09,.31-.15,.47l-.32-.11c.05-.15,.1-.3,.14-.44l.32,.09Zm-.15,.47c-.05,.15-.11,.3-.18,.44l-.31-.14c.06-.14,.12-.28,.17-.42l.32,.11Zm-.18,.44c-.28,.62,.01,.95,.48,1.16l-.14,.31c-.63-.29-1.04-.74-.64-1.61l.31,.14Zm.48,1.16c.3,.13,.65,.23,.98,.31l-.08,.32c-.35-.09-.72-.19-1.04-.33l.14-.31Zm.98,.31c.09,.02,.17,.04,.23,.06l-.09,.32c-.09-.02-.16-.04-.23-.06l.08-.32Zm.23,.06c.4,.11,1.09,.31,1.72,.35l-.02,.34c-.65-.04-1.37-.25-1.78-.36l.09-.32Zm1.72,.35c.56,.04,1.06-.06,1.18-.49l.33,.09c-.17,.64-.81,.79-1.53,.74l.02-.34Zm1.18-.49c.06-.23,.1-.4,.11-.58l.34,.03c-.02,.19-.06,.38-.12,.64l-.33-.09Zm.11-.58c.01-.18,0-.35-.01-.56l.33-.03c.02,.24,.03,.43,.02,.62l-.34-.03Zm-.01-.56v-.08l.17,.07-.17,.02Zm.01-.08c.23-.51,.32-.64,.48-.88l.28,.19c-.15,.22-.24,.35-.45,.83l-.31-.14Zm.48-.88s.03-.05,.07-.11l.28,.19-.07,.11-.28-.19Zm.07-.11c.13-.19,.19-.32,.21-.45l.33,.05c-.03,.19-.1,.36-.26,.59l-.28-.19Zm.21-.45c.02-.14,0-.3-.03-.56l.33-.04c.03,.28,.05,.46,.03,.64l-.33-.05Zm-.03-.56c0-.07-.02-.12-.02-.16l.33-.04c.01,.08,.02,.13,.02,.16l-.33,.04Zm-.02-.16s-.01-.09-.02-.17l.33-.05s.01,.09,.02,.17l-.33,.04Zm-.02-.17l-.03-.22,.22,.03-.02,.17-.17,.02Zm.19-.19c.48,.07,.94,.11,1.41,.11v.34c-.48,0-.97-.04-1.46-.11l.05-.33Zm1.41,.11c.47,0,.93-.03,1.4-.08l.04,.33c-.48,.06-.96,.09-1.44,.09v-.34Zm1.4-.08l.1,.31-.08-.15-.02-.17Zm.1,.31c-.27,.16-.54,.3-.89,.48l-.15-.3c.34-.18,.61-.31,.87-.47l.17,.29h0Zm-.89,.48l-.08,.04-.15-.3,.08-.04,.15,.3Zm-.08,.04c-.36,.18-.36,.57-.23,.97l-.32,.1c-.17-.55-.15-1.09,.4-1.37l.15,.3Zm-.23,.97c.14,.46,.45,.94,.64,1.23l-.28,.18c-.2-.31-.52-.82-.67-1.31l.32-.1Zm.64,1.23c.4,.61,.77,1.13,1.2,1.39l-.17,.29c-.49-.3-.89-.85-1.31-1.5l.28-.18Zm1.2,1.39c.41,.25,.88,.27,1.51-.07l.16,.3c-.75,.41-1.34,.37-1.85,.06l.17-.29Zm1.51-.07c.3-.16,.4-.34,.53-.57l.29,.17c-.16,.28-.28,.5-.67,.7l-.16-.3Zm.53-.57c.05-.09,.11-.2,.2-.33l.28,.19c-.07,.1-.13,.21-.18,.3l-.29-.17Zm.2-.33l.06-.05,.08,.15-.14-.09Zm.06-.05c.1-.05,.52-.4,.93-.74l.21,.26c-.42,.35-.86,.71-.98,.78l-.16-.3Zm.93-.74c.21-.17,.42-.35,.53-.43l.21,.26c-.2,.16-.36,.29-.52,.43l-.21-.26Zm.53-.43l.13-.1,.11,.13-.13,.11-.11-.13Zm.24,.02c.07,.08,.17,.13,.32,.16l-.08,.33c-.22-.05-.38-.13-.5-.28l.26-.22Zm.32,.16c.17,.04,.38,.06,.65,.08l-.02,.34c-.28-.02-.51-.04-.7-.09l.08-.33Zm.65,.08c.21,.01,.87,.01,1.29,.01v.34c-.44,0-1.11,0-1.32-.01l.02-.34Zm1.29,.01c.14,0,.25,0,.32,0v.34c-.07,0-.18,0-.32,0v-.34h0Zm.32,0c.4,0,.71-.02,.92-.13l.17,.29c-.27,.16-.64,.18-1.09,.18v-.34h0Zm.92-.13c.19-.11,.3-.32,.33-.72l.34,.02c-.04,.53-.21,.82-.5,.99l-.17-.29Zm.33-.72c.01-.2,.02-.33,0-.43l.33-.07c.03,.15,.03,.29,.01,.53l-.34-.02Zm0-.43c-.02-.1-.08-.21-.18-.39l.29-.16c.12,.21,.18,.34,.21,.48l-.33,.07h0Zm-.18-.39l-.02-.08h.17l-.15,.08Zm-.02-.08c0-.24-.01-.48-.02-.73h.34c0,.23,.01,.48,.02,.72h-.34Zm-.02-.72c0-.24-.01-.48-.02-.73h.34c0,.23,.01,.48,.02,.72h-.34Zm-.02-.72c0-.26-.04-.47-.09-.67l.33-.08c.06,.23,.09,.46,.1,.74h-.34Zm-.09-.66c-.05-.2-.13-.41-.23-.66l.31-.13c.11,.26,.19,.48,.25,.7l-.33,.08Zm-.23-.66c-.07-.18-.14-.35-.2-.51l.32-.12c.06,.16,.12,.32,.19,.5l-.31,.13Zm.12-.63h0l-.16,.06,.16-.06Zm-.32,.12c-.1-.26-.19-.51-.33-.78l.3-.15c.14,.28,.24,.55,.34,.82l-.32,.12Zm-.33-.78l-.02-.1,.17,.03-.15,.08Zm-.02-.1c.02-.09,.03-.18,.04-.26l.33,.04c-.01,.1-.03,.19-.04,.28l-.33-.06h0Zm.04-.26c0-.07,.02-.16,.03-.27l.34,.03c0,.08-.02,.18-.03,.29l-.33-.04h0Zm.03-.27l.03-.35,.25,.24-.12,.12h-.17Zm.28-.12c.16,.16,.33,.32,.49,.48l-.23,.24c-.16-.16-.33-.32-.49-.48l.23-.24Zm.49,.48l.37,.36-.23,.24-.37-.36,.23-.24h0Zm.37,.36c.27,.26,.51,.49,.78,.65l-.17,.29c-.3-.18-.56-.43-.84-.7l.23-.24h0Zm.78,.65c.26,.15,.55,.24,.94,.22l.02,.34c-.46,.02-.81-.09-1.12-.27l.17-.29Zm.94,.22c.41-.02,.86-.2,1.23-.47l.2,.27c-.42,.31-.93,.51-1.41,.53l-.02-.34Zm1.23-.47c.35-.26,.63-.61,.75-.98l.32,.1c-.14,.45-.46,.85-.87,1.15l-.2-.27Zm.75-.98l.12-.39,.32,.1-.12,.39-.32-.1Zm.12-.39c.05-.15,.09-.3,.14-.45l.32,.1c-.05,.15-.09,.3-.14,.45l-.32-.1Zm.14-.45l.04-.14,.15,.03-.03,.17-.16-.05Zm.19-.12c.68,.13,1.42,.17,2.14,.1l.03,.33c-.75,.08-1.52,.03-2.23-.1l.06-.33Zm2.14,.1c.63-.07,1.23-.22,1.75-.5l.16,.3c-.56,.3-1.21,.47-1.88,.54l-.03-.33Zm1.75-.5c.76-.41,1.33-1.01,1.74-1.72l.29,.17c-.44,.77-1.06,1.41-1.88,1.85l-.16-.3Zm1.74-1.72h0l.15,.08-.15-.08h0Zm0,0c.47-.81,.73-1.78,.83-2.77l.33,.03c-.11,1.04-.38,2.05-.88,2.9l-.29-.17Zm.83-2.77c.08-.81,.04-1.91-.13-2.97l.33-.05c.17,1.09,.22,2.22,.14,3.06l-.33-.03h0Zm-.13-2.97c-.15-.94-.39-1.85-.73-2.49l.3-.16c.35,.68,.61,1.62,.77,2.6l-.33,.05Zm-.73-2.49c-.03-.05-.07-.11-.13-.16l.24-.24c.08,.08,.15,.16,.19,.25l-.3,.16h0Zm-.13-.16c-.14-.14-.36-.28-.58-.35l.11-.32c.27,.09,.53,.26,.71,.43l-.24,.24h0Zm-.58-.35c-.21-.07-.41-.09-.56-.01l-.16-.3c.24-.13,.54-.11,.83,0l-.11,.32h0Zm-.56-.01s-.06,.04-.09,.06l-.24-.24c.05-.05,.11-.09,.17-.13l.16,.3h0Zm-.09,.06c-.14,.14-.26,.32-.38,.49l-.28-.19c.13-.19,.26-.38,.42-.54l.24,.24Zm-.38,.49c-.16,.23-.32,.47-.53,.64l-.22-.26c.18-.15,.32-.36,.47-.58l.28,.19h0Zm-.53,.64c-.25,.22-.55,.33-.82,.44l-.12-.31c.25-.1,.52-.21,.73-.39l.22,.26h0Zm-.82,.44s-.09,.04-.12,.05l-.13-.31c.05-.02,.09-.04,.13-.05l.12,.31Zm-.12,.05l-.16,.07-.06-.16,.16-.06,.06,.16h0Zm-.22-.1c-.11-.29-.24-.56-.4-.8l.29-.18c.17,.26,.31,.55,.43,.87l-.32,.12h0Zm-.4-.8c-.16-.25-.33-.48-.53-.71l.26-.22c.21,.24,.39,.49,.56,.75l-.29,.18Zm-.53-.71c-.15-.18-.3-.31-.45-.43l.2-.27c.18,.13,.34,.28,.51,.48l-.26,.22h0Zm-.45-.43c-.16-.12-.34-.23-.54-.36l.18-.29c.21,.13,.39,.25,.57,.38l-.2,.27h0Zm-.54-.36c-.59-.37-1.08-.8-1.58-1.24l.22-.25c.49,.43,.97,.85,1.54,1.21l-.18,.29Zm-1.58-1.24c-.21-.19-.42-.37-.66-.57l.21-.26c.22,.18,.45,.38,.67,.58l-.22,.25h0Zm-.66-.57c-1.11-.92-2.14-1.36-3.24-1.43l.02-.34c1.17,.07,2.26,.54,3.43,1.51l-.21,.26h0Zm-3.24-1.43c-1.1-.07-2.28,.24-3.68,.83l-.13-.31c1.45-.61,2.67-.93,3.83-.85l-.02,.34Zm-3.68,.83c-.66,.28-1.15,.6-1.57,.99l-.23-.25c.45-.42,.97-.76,1.67-1.06l.13,.31Zm-1.57,.99c-.43,.39-.79,.86-1.2,1.41l-.27-.2c.42-.56,.8-1.04,1.25-1.46l.23,.25Zm-1.2,1.41l-.05,.06h-.08v-.16l.13,.1Zm-.13,.07c-.23,.01-.43,.04-.63,.12l-.12-.31c.24-.09,.46-.13,.73-.14l.02,.34Zm-.63,.12c-.2,.08-.4,.21-.65,.43l-.22-.25c.28-.25,.52-.4,.75-.49l.12,.31Zm-.65,.43c-.19,.17-.38,.34-.56,.52l-.23-.24c.18-.18,.38-.36,.58-.53l.22,.25Zm-.56,.52h0l-.12-.12,.12,.12h0Zm0,0c-.18,.18-.36,.36-.54,.54l-.24-.23c.18-.19,.36-.37,.55-.55l.23,.24Zm-.54,.54l-.1,.05-.03-.17,.12,.12h0Zm-.1,.05c-1.32,.21-2.38,.44-3.34,.81l-.12-.31c.97-.38,2.06-.61,3.4-.83l.05,.33Zm-3.34,.81c-.94,.37-1.78,.87-2.64,1.63l-.22-.25c.89-.79,1.75-1.31,2.74-1.69l.12,.31Zm-2.64,1.63c-.35,.31-.65,.63-.91,.97l-.27-.2c.28-.36,.59-.7,.95-1.02l.22,.25Zm-.91,.97c-.26,.34-.49,.7-.68,1.09l-.3-.15c.21-.4,.44-.78,.72-1.14l.27,.2Zm-.68,1.09l-.02,.04-.12-.11,.15,.08Zm-.02,.04c-.19,.21-.38,.43-.59,.61l-.22-.25c.2-.18,.38-.38,.56-.58l.25,.22Zm-.59,.61c-.21,.19-.45,.36-.72,.46l-.12-.31c.22-.09,.42-.23,.61-.4l.22,.25Zm-.72,.46h0l-.06-.16,.06,.16Zm0,0c-.22,.08-.32,.12-.44,.07l.13-.31s.06-.03,.19-.08l.12,.31Zm-.44,.07h0l.07-.16-.07,.16h0Zm0,0c-.13-.05-.16-.16-.24-.37l.32-.12c.04,.12,.04,.17,.06,.17l-.13,.31Zm-.24-.37l-.04-.12,.1-.08,.1,.13-.16,.06Zm.06-.19c.31-.23,.34-.7,.37-1.14l.34,.02c-.03,.52-.07,1.06-.5,1.39l-.2-.27Zm.37-1.14c0-.06,0-.12,.01-.16l.34,.02c0,.06,0,.11-.01,.16l-.34-.02Zm.01-.16v-.16h.18v.18h-.18Zm.18-.17c.28,.01,.4,.21,.54,.42l-.28,.18c-.09-.14-.17-.26-.27-.27l.02-.34h0Zm.54,.42c.04,.06,.08,.12,.12,.17l-.26,.21c-.05-.07-.1-.13-.14-.2l.28-.18h0Zm.15,.31l-.08,.34-.22-.28,.13-.1,.16,.04Zm-.33-.07c.06-.25,.1-.59,.04-.86l.33-.07c.08,.33,.03,.72-.04,1.01l-.33-.07Zm.04-.86c-.04-.17-.12-.32-.28-.4l.15-.3c.26,.13,.39,.36,.45,.63l-.33,.07h0Zm-.28-.4l-.13-.07,.05-.14,.16,.06-.08,.15Zm-.08-.21c.02-.07,.06-.16,.1-.25l.31,.12c-.03,.07-.06,.15-.1,.25l-.32-.12Zm.1-.25c.05-.13,.1-.26,.15-.41l.32,.11c-.05,.14-.1,.28-.16,.42l-.31-.12Zm.29-.52l.28-.05-.09,.27-.16-.06-.03-.17h0Zm.06,.33c-.33,.06-1.04,.46-1.57,1l-.24-.23c.57-.59,1.38-1.03,1.75-1.1l.06,.33Zm-1.57,1c-.19,.2-.35,.41-.45,.62l-.31-.14c.12-.25,.3-.5,.51-.72l.24,.23Zm-.45,.62c-.1,.21-.14,.42-.11,.62l-.33,.06c-.05-.28,0-.55,.13-.82l.31,.14Zm-.11,.62c.03,.19,.13,.37,.32,.55l-.23,.24c-.24-.23-.37-.49-.42-.74l.33-.06Zm.32,.55l.05,.08-.16,.04,.12-.12Zm.05,.08c.04,.17,.08,.32,.12,.45l-.32,.1c-.04-.14-.08-.29-.13-.47l.33-.08Zm.12,.45c.04,.13,.08,.24,.14,.36l-.3,.14c-.06-.13-.11-.26-.16-.4l.32-.1Zm.14,.36c.12,.25,.31,.41,.53,.48l-.1,.32c-.31-.1-.57-.31-.73-.65l.3-.14Zm.53,.48c.26,.08,.56,.06,.84-.05l.12,.31c-.35,.14-.73,.17-1.06,.06l.1-.32Zm.84-.05l.29-.11-.07,.31-.16-.04-.06-.16Zm.23,.19c-.08,.36-.13,.75-.14,1.18h-.34c.02-.46,.07-.86,.15-1.25l.33,.07Zm-.14,1.18c-.02,.43,0,.91,.05,1.48l-.34,.03c-.05-.58-.07-1.07-.05-1.52h.34Zm.05,1.49c.01,.14,.03,.28,.04,.4l-.33,.04c-.02-.15-.04-.29-.05-.42l.34-.03Zm.04,.4c.02,.13,.04,.27,.07,.41l-.33,.06c-.03-.14-.05-.28-.07-.43l.33-.04Zm.07,.41v.09l-.17-.06"/><path id="f" class="aj" d="M33.38,23.01l-2.22,.36-2.02,.89-1.72,1.08-1.64,2-.92,.98-.89,.33-.24-.58,.41-.6,.09-.84h.28l.3,.29-.08-.86-.34-.22v-.33l-.78,.45-.72,.85-.15,.76,.31,.61,.29,1.03,.58,.28,.61-.03,.58-.34-.39,1.97,.39,2.19-.43,1.01-1.4,1.51,.25,.9,.66,1.04,1.25,.88,.66,.09,.74,.02-.46,1.89,1.69,.69,2.11,.28,.72-.47,.06-1.27,.8-1.33,.06-1.05,1.94,.14,1.8-.17-1.8,1.08,.3,1.3,1.14,1.77,1.11,.47,.89-.36,.36-.72,1.86-1.41,.36,.3,2.91,.11,.58-.47,.06-.83-.19-.36-.14-2.24-.97-1.94,.17-.86,.58,.3,1.64,1.52,.8,.06,.89-.36,.89-.67,.44-1.44,2.61,.17,1.58-.61,1.27-1.19,.91-1.72,.22-2.02-.19-2.36-.5-2.11-.5-.67-.69-.22-1.22,1.33-1.11,.39-.97-1.61-.97-.89-.53-.33-2.11-1.75-1.69-.91-1.69-.14-1.97,.33-1.72,.64-1.19,.97-.94,1.14-.97,.28-1.69,1.61h0Z"/><path class="ah" d="M36.31,42.2l-1.2-.51-1.18-1.85-.33-1.4,1.38-.83-1.21,.11-1.82-.13-.07,.98-.79,1.3-.06,1.31-.82,.54-2.19-.29-1.8-.74,.45-1.84-.57-.02-.74-.12-1.29-.92-.68-1.08-.27-.97,.05-.05,1.38-1.49,.4-.95-.39-2.17,.33-1.7-.38,.21-.65,.03-.67-.32-.3-1.09-.32-.62,.17-.84,.02-.03,.75-.88,1-.57-.02,.49,.33,.22,.12,1.27-.53-.48h-.1l-.1,.77-.37,.54,.16,.39,.74-.27,.9-.96,1.66-2.02,1.72-1.08,2.07-.91,2.18-.35,1.72-1.61,.93-.26,.92-1.1,1.25-1.01,1.72-.64,1.99-.34,1.78,.15,1.69,.92,2.13,1.76,.51,.32,1.01,.93,.91,1.51,.97-.34,1.25-1.37,.82,.26,.55,.75,.5,2.11,.2,2.38-.24,2.1-.94,1.75-1.32,1.22-1.61,.62-2.53-.16-.42,1.38-.95,.71-.92,.37-.88-.06-1.66-1.54-.41-.21-.12,.64,.96,1.95,.14,2.21,.2,.37-.06,.93-.67,.54-3.01-.11-.31-.27-1.75,1.33-.37,.74-.99,.4Zm-1.02-.73l1.02,.43,.79-.32,.38-.72,1.94-1.48,.41,.35,2.81,.11,.5-.4,.05-.73-.19-.38-.14-2.22-.98-1.96,.21-1.08,.77,.41,1.6,1.49,.73,.05,.84-.34,.84-.63,.46-1.5,2.68,.17,1.53-.59,1.24-1.16,.89-1.67,.22-2-.2-2.33-.49-2.06-.46-.61-.57-.18-1.21,1.3-1.21,.42-1.02-1.68-.96-.87-.51-.32-2.12-1.76-1.64-.89-1.66-.14-1.93,.33-1.67,.62-1.17,.96-.95,1.15-.98,.28-1.7,1.61h-.04l-2.2,.36-2.01,.88-1.68,1.06-1.62,1.98-.98,1.02-1.01,.37-.31-.77,.43-.63,.1-.93,.45,.02,.08,.07-.04-.45-.34-.23v-.16l-.56,.32-.68,.8-.13,.68,.29,.57,.28,1,.5,.24,.55-.03,.81-.47-.44,2.24,.39,2.2-.47,1.09-1.35,1.45,.22,.81,.64,1,1.2,.85,.63,.09,.89,.03-.47,1.94,1.57,.64,2.04,.27,.62-.41,.05-1.24,.02-.03,.79-1.3,.06-1.16,2.08,.15,2.37-.22-2.22,1.34,.28,1.18,1.1,1.72Z"/><path id="g" class="al" d="M26.95,28.01c-1.9,2.22-1.48,4.9-.95,7.53-.28-.71-.56-1.42-.84-2.13l-.31-1.95c.03-.67,.06-1.33,.09-2,.27-.64,.53-1.27,.8-1.91,.4-.59,.8-1.18,1.2-1.77,.62-.52,1.24-1.03,1.86-1.55,.68-.28,1.36-.56,2.04-.84,.8-.1,1.6-.21,2.4-.31-.74,.84-1.48,1.69-2.22,2.53-1.78,.58-2.83,.97-4.06,2.4"/><path id="h" class="al" d="M35.89,21.26c-1.32,1.29-2.04,2.26-2.88,3.77-.6,1.08-1.28,2.12-1.91,3.18-.32,.54-.35,.99-.45,1.61-.31-.37-.62-.74-.93-1.11,.15-.44,.3-.89,.44-1.33,.5-.9,1.01-1.8,1.51-2.71,1.06-1.05,2.13-2.1,3.19-3.15,.34-.09,.68-.18,1.02-.27"/><path id="i" class="al" d="M42.41,18.07c-1.06,.4-2.81,.53-2.94,1.74-.09,.86,.06,1.29,.58,2.21-1.28-1.33-1.6-1.12-4.08-.71l1.06-1.51c.62-.38,1.24-.77,1.86-1.15,.8-.18,1.6-.35,2.4-.53l1.11-.04"/><path id="j" class="ai" d="M45.32,34.49c.35,.22,.34,.37,.29,.52,.28-.11,.56-.22,.83-.33,.18-.24,.36-.48,.54-.72l.4-1.03c-.17-.13-.34-.26-.51-.38l-2.24,.29-.17,.45c.02,.21,.03,.43,.05,.64l.21,.38,.33,.17c.09,0,.17,.02,.26,.02"/><path id="k" class="ai" d="M45.12,30.66c-1.12,.32-1.11,.41-1.44,1.53,.44-.7,.76-1.06,1.44-1.53"/><path id="l" class="ai" d="M34.71,24.82c-.44,1.21-.83,2.24-1.5,3.34,.86-.92,1.38-1.71,1.87-2.75,.19-.41,.23-.88,.76-.7,.02,.4,.11,.81,.13,1.21,.29-2.06,1.1-2.92,2.98-3.71-.53,.06-1.06,.13-1.59,.19-.5,.11-1,.22-1.5,.33-.25,.36-.49,.71-.74,1.07-.13,.34-.27,.68-.4,1.02"/><path id="m" class="ai" d="M38.35,24.77c.41,1.91,.99,3.74,1.24,5.68,.16,1.26,.18,1.86-.45,2.95-.69-.04-1.12,.03-1.79,.25-2.67,.87-4.2,2.16-5.99-.43,.57,.27,1.15,.54,1.72,.81l1.23-.24c.72-.42,1.44-.84,2.17-1.26,.56-.11,1.13-.22,1.69-.33,.18-.76,.36-1.52,.55-2.28-.13-1.01-.27-2.02-.4-3.02-.02-.48-.03-.95-.05-1.43,.03-.23,.06-.46,.1-.69"/><path id="n" class="ai" d="M42.94,36.58c-.22,1.55,.52,2.38,.21,2.81-.09,.12-.2,.33-.34,.39-.47,.21-1.11-.04-1.16,.08h-1.55c-.21-.09-.41-.17-.62-.26,.32-.37,.63-.75,.95-1.12,.31-.67,.62-1.35,.93-2.02,.2-.68,.4-1.36,.59-2.05h.31c.22,.72,.44,1.44,.67,2.17"/><path id="o" class="ai" d="M40.34,32.07c.13,.7,.34,.87,.67,1.55-.22,1.11-.57,2.43-1,3.41-.18,.41-.32,.64-.64,.96-.53,.54-1.08,1.01-1.68,1.48-.44,.34-.74,.17-1.28,.09-.23,.42-.29,.65-.71,.86-.65,.32-1.23-.37-1.74-.79,.37,.57,.73,1.15,1.1,1.72,.25,.24,.51,.48,.76,.71,.21,.03,.43,.06,.64,.1,.29-.17,.57-.35,.86-.52,.15-.29,.3-.57,.45-.86,.32-.24,.63-.48,.95-.71,.39-.33,.78-.67,1.17-1,.25-.35,.49-.7,.74-1.05,.22-.41,.44-.83,.67-1.24,.29-.86,.57-1.71,.86-2.57,.02-.33,.05-.65,.07-.98-.36-.16-.71-.32-1.07-.48-.26-.25-.55-.45-.82-.7"/><path id="p" class="ai" d="M31.8,37.03c1.2,0,2.47-.07,3.57-.57,.31-.47,.62-.85,1-1.26-.35,.65-.46,1.03-.55,1.76-.12,.17-.24,.35-.36,.52-.9,.02-1.81,.05-2.71,.07-.29-.03-.59-.06-.88-.1l-.1-.1,.02-.33"/><path id="q" class="ai" d="M31.64,36.2l-.09-.85c-.21,1.24-.16,2.06-.72,3.17-.42,.49-.95,.94-1.55,1.18,.05,.3,.07,.49,.04,.72-.11,.8-1.71,.45-2.36,.41,1.06,.27,2.11,.54,3.17,.82l.71-.29,.24-1.38c.22-.41,.44-.83,.67-1.24,.04-.25,.08-.51,.12-.76-.07-.6-.14-1.19-.21-1.79"/><path id="r" class="ai" d="M29.85,29.23c-.03,.6-.07,.85,.19,1.38,.34,.67,.75,1.31,1.12,1.97,.04-.44,.08-.89,.12-1.33-.48-.67-.95-1.35-1.43-2.02"/><path id="s" class="ai" d="M24.97,33.76l-.31,.66c.28,.96,.54,1.56,1.08,2.39-.09,.34-.16,.49-.38,.76-.48-.07-.9-.09-1.38-.09,.53,.41,1.06,.83,1.59,1.24l.79-.14c.26-.26,.52-.52,.79-.79-.37-.58-.75-1.16-1.12-1.74-.35-.76-.7-1.53-1.05-2.29"/><path id="t" class="ai" d="M52.58,22.02c.32,1.46,.74,2.8,.7,4.29-.05,1.83-.4,4.14-2.1,5.25-1.9,1.24-4.13,.65-6.21,.12,.85,.35,1.7,.7,2.55,1.05,.79,.04,1.59,.08,2.38,.12,.54-.16,1.08-.32,1.62-.48,.42-.35,.84-.7,1.26-1.05,.32-.67,.63-1.33,.95-2,.12-.77,.24-1.54,.36-2.31-.1-.75-.19-1.51-.29-2.26-.17-.75-.35-1.49-.52-2.24-.23-.17-.47-.33-.7-.5"/><path id="u" class="ai" d="M24.24,26.36c-.86,.56-1.2,.81-1.11,1.85,.09,.31,.17,.62,.26,.93l.37,.25c.15,.05,.3,.1,.45,.15l.82-.19,.42-1.3c-.39,.19-.77,.38-1.16,.57h-.27l-.3-.46,.37-.54,.19-1.02,.25,.08,.3,.24c-.01-.18-.03-.36-.04-.54l-.2-.34-.2-.17c-.04,.17-.09,.34-.13,.5"/><path id="v" class="ai" d="M43.58,18.16c.77,.71,1.7,1.33,2.32,2.2,.24,.34,.5,.51,0,.98,.53-.15,.73-.14,1.16-.08,.78,.09,1.5,1.2,1.55,1.99,0,.07-.22,.24-.82,.41-.01,.02-.34-.04-.33-.02,.06,.17,.15,.2,.27,.28,.03,.19,.05,.48,.17,.69,.38,0,.75,.03,1.12,.11,.12,.21,.11,.41,.1,.62l.43-.07c-.04-.33-.08-.65-.12-.98,.13-.21,.25-.43,.38-.64-.18-.41-.37-.83-.55-1.24-.35-.33-.7-.67-1.05-1h-.1c-.39-.25-.79-.49-1.18-.73-.64-.52-1.28-1.05-1.92-1.57-.48-.31-.95-.62-1.43-.93"/><path id="w" class="ai" d="M44.87,24.03c-.04,.07-.1,.18-.18,.26,.32,.3,.48,.5,.59,.93-.36,.18-.72,.36-1.08,.54l-.91,.88c-.4-.22-.5-.38-.7-.79-.23,.06-.44,.12-.63,.05,.12,0,.19-.03,.31-.1l.58-.6,1.03-.78c.22-.07,.45-.15,.67-.22,.09-.04,.23-.12,.32-.16"/><path id="x" class="ai" d="M45.86,25.1c-1.15,.62-2.24,1.24-2.83,2.41,0-1.49,1.49-2.14,2.83-2.41"/><path id="y" class="ai" d="M42.8,22.18c-.85,.58-1.45,1.75-1.38,2.89-.28-.99-.18-1.92,.67-2.6l.43-.21,.27-.08"/><path id="a`" class="am" d="M44.43,30.99c.18-.1,.5-.23,.67-.32-.18,.03-.51,.1-.69,.13-.48,.08-.54,.2-.62,.67-.04,.22-.08,.5-.12,.73,.09-.25,.21-.55,.32-.79,.12-.26,.18-.28,.43-.41h0Zm-8.97-12.26c.38-.57,.6-.76,1.18-1.12-.79,.19-.94,.34-1.18,1.12Zm-.12,1.26c.66-1.34,1.17-1.83,2.56-2.48-1.57,.39-2.04,.66-2.56,2.48Zm-14.23,6.96c.15-.67,.28-.92,.69-1.47-.67,.47-.76,.66-.69,1.47Zm14.9,11.2c-.02-.16-.04-.32-.06-.49-.04-.29-.04-.53-.01-.83,.02-.29,.05-.57,.07-.86-.08,.29-.25,.58-.33,.87-.03,.12-.06,.21-.08,.3-1.25,.25-2.48,.27-3.73,.05-.08-.46-.18-.94-.26-1.29-.02,.39,0,1.45-.01,2.05,0,.46-.02,.62-.26,1.01-.22,.37-.32,.45-.63,1.07,.03,.39,.03,.65-.08,1.03-.17,.62-1.92,.14-2.39,.01-.57-.16-1.75-.39-1.45-1.15,.26-.67,.43-1.37,.55-2.31-1.04-1.5-2.01-3.56-2.2-5.38-.14-1.42-.06-2.29,.25-3.15,.49-1.37,1.16-2.56,2.25-3.52,1.47-1.29,2.84-1.81,4.99-2.14-.52,.58-1.03,1.19-1.59,1.85-.56,.66-.9,1.34-1.26,2.06-.5,1-.48,1.39,.17,2.27,.57,.76,.87,1.1,1.12,1.85-.2,.42-.28,.78-.35,1.35,.69,.76,1.21,1.28,1.88,1.44,.66,.16,1.21,.13,1.8-.18,1.31-.67,2.52-1.54,4-1.57,.68-1.68,.62-3.09,.29-4.72-.22-1.11-.31-2.16-.38-3.3-.28,1.17-.33,2.19-.12,3.36,.25,1.4,.44,2.95-.25,4.18-1.34,.1-2.48,.92-3.69,1.54-.48,.25-.99,.28-1.53,.13-.5-.14-.83-.47-1.37-1.08,0-.62,.13-.91,.42-1.47,.46-.9,.96-1.74,1.52-2.63-.68,.82-1.32,1.51-1.86,2.33-.2-.58-.5-.88-.98-1.53-.47-.64-.52-.92-.17-1.66,.36-.74,.66-1.4,1.26-2.05,1.05-1.13,2-2.39,3.15-3.5,.62-.6,.87-.58,1.7-.71,.74-.11,1.47-.26,2.23-.43-.73,.07-1.44,.09-2.16,.11h-.02c.7-.9,1.11-1.4,2.25-1.89,2.81-1.22,4.6-1.35,6.81,.5,.57,.48,1.07,.95,1.65,1.36-.21,.02-.39,.06-.63,.15,.29-.06,.63,0,.93,.05,.09,.06,.17,.11,.26,.16,.41,.24,.64,.37,.92,.76,.29,.41,.54,.82,.75,1.27-.14-.05-.26-.09-.36-.12-.08-.04-.16-.06-.25-.07-.18-.02-.35,.03-.49,.11h-.02c-.23,.12-.58,.24-.81,.28,.12,.04,.38,.06,.51,0,.02,0,.03-.01,.05-.02-.06,.1-.09,.21-.1,.32-.02,.16,.02,.31,.08,.44h0c.02,.05,.05,.1,.08,.13-.11,.04-.22,.08-.33,.13,.52-.08,1-.09,1.51-.03,.03,.16,.07,.33,.1,.51h-.19l-.02,.02c-.24-.19-.51-.16-.88-.08-1.12,.26-.86,.88-1.37,1.83,.54-.65,.5-1.34,1.37-1.55,.2-.05,.34-.11,.48-.09-.25,.12-.46,.33-.55,.57-.24,.68-.09,1.25-.35,1.88,.33-.56,.35-1.12,.64-1.71,.1-.21,.49-.55,.73-.56h.2c.06,.37,.09,.74,.07,1.05-.04,.56-.19,1.4-.28,1.72,.3-.38,.43-1.18,.56-1.75,.13-.59,.1-1.3-.02-1.93-.16-.87,.73-.73,1.25-1.14,.38-.3,.64-.78,.99-1.12,.35-.34,.89,.16,1.03,.49,.59,1.43,.86,3.68,.71,5.13-.18,1.62-.96,3.39-2.39,4.18-1.82,1.02-3.97,.4-5.78-.21-.39-.13-.65-.32-.99-.53,.09,.42,.13,.86,.01,1.27-.2,.66-.51,1.74,.38,1.94,.34,.08,.5,.06,.98-.18-.39,.09-.59,.07-.85,.02-.24-.04-.37-.2-.44-.38,.08,.06,.22,.09,.46,.15,.66,.16,1.3-.16,1.42-.62,.07-.27,.06-.41,.21-.78,.14,.04,.28,.08,.42,.12-.08,.27-.16,.54-.25,.8-.21,.7-1.04,1.26-1.78,1.24-.68-.01-1.11-.44-1.58-.85-.32-.29-.63-.56-.94-.83-.84-.27-1.52-.58-2.3-1.16,.56,.66,.94,1.02,1.71,1.34-.11,1.15-.51,1.99-.86,3.1-.15,.5-1.38,2.5-1.71,2.69-.24,.14-1.75,1.41-2.04,1.58-.21,.28-.4,.67-.72,.84-.97,.51-1.59-.47-2.12-1.3-.24-.38-.9-1.47-.32-1.77,.54-.29,.85-.49,1.4-.86,.08,.15,.22,.29,.31,.44h0Zm3.37,1.76c-.49,.4-1.32,1.1-1.48,1.19-.29,.43-.33,.7-.79,.95-1.38,.75-2.12-.12-2.94-1.38-.39-.6-1.24-1.97-.34-2.44,.38-.2,.67-.34,.96-.51-.95,.12-1.88,.12-2.85-.03,.02,.12,.03,.23,.04,.33,.06,.53,.08,.69-.2,1.12-.21,.31-.29,.4-.54,.97,.05,.46,.03,.72-.1,1.2-.29,1.07-2.29,.48-3.1,.26-.98-.26-2.38-.51-1.81-1.77,.13-.3,.24-.6,.32-.88-.86,.38-2.05-.43-2.61-.99-.54-.54-.83-1.17-.93-1.78-.09-.52,0-.52,.36-.88,.34-.34,.68-.67,1.02-1.01,.14-.37,.27-.74,.41-1.12-.05-.28-.09-.55-.12-.83-.1-1.14-.07-1.96,.1-2.71-.6,.23-1.28,.12-1.58-.51-.12-.24-.18-.49-.27-.84-1.33-1.28,1.16-2.96,1.89-3.09-.08,.24-.17,.45-.25,.67,.49,.26,.43,.98,.33,1.45-.18-.22-.28-.52-.54-.53-.04,.53-.03,1.11-.45,1.43,.12,.33,.12,.33,.46,.19,.49-.19,.87-.61,1.24-1.03,.4-.79,.92-1.48,1.63-2.11,1.75-1.55,3.4-2.06,6.06-2.48,.35-.37,.72-.73,1.11-1.07,.53-.47,.88-.57,1.38-.59,.83-1.11,1.49-1.89,2.84-2.46,2.84-1.2,4.8-1.25,7.09,.63,.75,.62,1.4,1.28,2.23,1.8,.42,.26,.72,.45,1.04,.83,.4,.48,.73,.95,.95,1.57,.29-.12,.63-.23,.9-.47,.35-.3,.57-.8,.89-1.13,.43-.44,1.41,.09,1.63,.51,.74,1.41,1.04,4.01,.88,5.56-.19,1.91-.98,3.72-2.67,4.62-1.15,.61-2.68,.67-4,.42-.09,.28-.17,.56-.26,.84-.26,.84-1.25,1.53-2.13,1.57-.84,.04-1.29-.39-1.84-.92-.29-.28-.58-.56-.86-.83-.02,.19-.04,.37-.07,.55,.23,.45,.34,.84,.53,1.3,.21,.51,.32,.84,.33,1.39,.01,.48,.03,.97,.04,1.45,.22,.38,.23,.48,.2,.91-.07,.92-.58,1.01-1.42,1.01-.28,0-1.35,0-1.62-.01-.54-.04-.9-.08-1.08-.3Zm2.86-5.04c-.17,.61-.4,1.18-.61,1.84-.2,.62-1.21,2.44-1.81,2.87,.12,.09,.33,.12,.71,.15,.27,.02,1.33,.03,1.6,.03,.59,.01,.81-.03,.87-.7,.03-.33,0-.39-.16-.67-.01-.51-.03-1.02-.04-1.53-.01-.48-.11-.76-.3-1.22-.11-.27-.18-.52-.25-.78Zm-17.87-8.37c.13-.01,.21,.05,.32,.16-.02-.24-.06-.42-.23-.52-.01,.04-.02,.08-.03,.12-.02,.08-.04,.16-.05,.25h0Zm.83,1.76c-.09,.25-.18,.5-.27,.76-.01,.04-.03,.09-.04,.13-.5,.21-1.16,.35-1.41-.18-.12-.26-.19-.51-.28-.83-.83-.85,.41-1.98,1.08-2.39-.1,.21-.17,.37-.21,.53-.2,.71,.09,1.34-.55,1.85,.3,.61,.29,.85,.99,.57,.27-.11,.49-.26,.69-.44Zm-.19,5.75c.38,1.31,1.03,2.6,1.74,3.69v.02c-.05,.19-.1,.37-.21,.51-.51,.69-1.82-.32-2.19-.71-.41-.42-.69-.92-.75-1.39-.05-.34,0-.35,.24-.59,.32-.32,.64-.65,.96-.97,.07-.19,.14-.38,.21-.56Zm24.27-10.54c.07,.07,.13,.16,.17,.25,.02-.02,.05-.04,.07-.06-.03-.07-.06-.13-.09-.2-.05,0-.1,0-.15,0Zm-6.28,2.36c-.07-.14-.1-.29-.1-.43-.25,.2-.51,.38-.79,.49,.38-.34,.9-1.15,1.28-1.4,.43-.29,1.01-.23,1.51-.46-.17,.15-.39,.28-.61,.4,.24,.09,.46,.27,.58,.52,.05,.11,.08,.22,.09,.33,.34-.11,.66-.16,.94-.16-.99,.28-2.05,.93-2.78,1.8,.08-.23,.2-.43,.33-.61-.19-.1-.35-.26-.45-.47h0Zm-4.61-3.6c-.55,.21-1.05,.38-1.59,.51-.49,.64-.79,.97-.9,1.84-.13-.85-.16-1,.22-1.64-.11,.06-.21,.13-.36,.26-.53,.45-1.21,2.22-1.49,2.85,.17-.76,.72-2.66,1.28-3.22,.37-.36,.45-.36,.97-.41,.62-.06,1.24-.12,1.86-.19h0Zm11.46,1.85c.45,.04,.7,.11,1.1-.09,.74-.37,1.29-.97,1.65-1.69-.22,.86-.65,1.59-1.56,1.91-.44,.16-.73,0-1.18-.14h0Zm-8.55,.08c.17-.74,.47-1.46,1.62-2.01-1.53,.38-1.82,1.03-1.62,2.01Zm-19.84,4c.13-1.49,.42-2.13,1.48-3.25-1.32,.93-1.66,1.36-1.48,3.25"/><path id="aa" class="al" d="M43.19,26.06c-.1-.21-.01-.47,.2-.57,.21-.1,.47-.01,.57,.2,0,.02,.02,.04,.02,.06-.2,.15-.39,.33-.55,.54-.11-.04-.2-.12-.25-.23"/><path id="ab" class="al" d="M47.98,24.21c.02-.18,.17-.31,.35-.29,.18,.02,.31,.18,.29,.35,0,.04-.01,.07-.03,.11-.16,.03-.32,.08-.49,.14-.07-.07-.13-.2-.12-.3"/><path id="ac" class="ai" d="M52.57,22.33c-.2,.09-.39,.14-.52,.32-.27,.39-.5,.72-.94,1-.22,.14-.45,.23-.69,.3-.2,.06-.31,0-.48,.13l.3,.05h.66l.81-.5,.48-.5c.13-.27,.26-.53,.39-.8"/><path class="ag" d="M49.91,56.57h3.5c.14-.66,.29-1.31,.43-1.97,1,0,2.03,0,3.03,0,.49,0,.92-.15,1.3-.41,.46-.31,.81-.79,.94-1.38,.22-1,.44-2,.66-3,.13-.57,.29-1.22-.12-1.73-.38-.47-.88-.51-1.42-.51-3.95,0-7.9,0-11.85,0-.4,0-.73,.13-1.08,.31-.33-.23-.62-.31-1.02-.31h-5.42c.15-.67,.3-1.33,.44-2h-3.5c-.14,.65-.29,1.3-.43,1.95h-3.08c-.43,0-.83,.13-1.19,.36-.35-.22-.61-.31-1.02-.31h-10.17c.16-.68,.31-1.35,.47-2.03-1.17,0-2.33,0-3.5,0-.67,3.01-1.34,6.02-2.02,9.02,1.17,0,2.33,0,3.5,0,.35-1.54,.7-3.08,1.05-4.62h1.18c.14,0,.11,.08,.09,.19-.33,1.48-.66,2.95-.99,4.43,7.72,0,15.45,0,23.18,0,.39,0,.7-.08,1.05-.26,.35,.23,.66,.31,1.08,.31l5.37-.05-.43,2Z"/><path class="ag" d="M34.77,49.96h-1.03c-.18,0-.23,.08-.27,.24-.13,.58-.26,1.16-.39,1.74-.04,.17,.05,.19,.19,.19h1c.16-.73,.33-1.45,.49-2.18h0Z"/><path class="ag" d="M40.69,50h1.1c.21,0,.2,.11,.16,.28-.13,.57-.25,1.13-.38,1.7-.04,.2-.17,.19-.34,.19h-1.12c-.16,0-.17-.1-.14-.23,.13-.57,.25-1.13,.38-1.7,.05-.21,.13-.25,.33-.25Z"/><path class="ag" d="M47.94,50h1.1c.21,0,.2,.11,.16,.28-.13,.57-.25,1.13-.38,1.7-.04,.2-.17,.19-.34,.19h-1.12c-.16,0-.17-.1-.14-.23,.13-.57,.25-1.13,.38-1.7,.05-.21,.13-.25,.33-.25h0Z"/><path class="ag" d="M54.41,52.19h1.03c.18,0,.23-.08,.27-.24,.13-.58,.26-1.16,.39-1.74,.04-.17-.05-.19-.19-.19h-1c-.16,.73-.33,1.45-.49,2.18"/><path class="ak" d="M44.28,48.08h-4.4c-.69,0-1.37,.56-1.52,1.25l-.78,3.53c-.15,.69,.28,1.25,.97,1.25h4.39c.69,0,1.37-.56,1.52-1.25l.78-3.53c.15-.69-.28-1.25-.97-1.25Zm-.91,2.08l-.41,1.87c-.08,.36-.44,.66-.81,.66h-2.17c-.36,0-.59-.3-.51-.66l.41-1.87c.08-.36,.44-.66,.81-.66h2.17c.36,0,.59,.3,.51,.66Z"/><path class="ak" d="M51.52,48.08h-4.39c-.69,0-1.37,.56-1.52,1.25l-.78,3.53c-.15,.69,.28,1.25,.97,1.25h4.39c.69,0,1.37-.56,1.52-1.25l.78-3.53c.15-.69-.28-1.25-.97-1.25Zm-.91,2.08l-.41,1.87c-.08,.36-.44,.66-.81,.66h-2.17c-.36,0-.59-.3-.51-.66l.41-1.87c.08-.36,.44-.66,.81-.66h2.17c.36,0,.59,.3,.51,.66Z"/><path class="ak" d="M58.4,48.07h-5.27l-1.09,4.97-.23,1.06-.44,2.02h1.69l.45-2.02h3.58c.69,0,1.37-.57,1.52-1.25l.78-3.53c.15-.69-.29-1.25-.97-1.25Zm-.91,2.08l-.41,1.87c-.08,.36-.44,.66-.8,.66h-2.47l.7-3.19h2.47c.36,0,.59,.29,.51,.66Z"/><path class="ak" d="M37.03,46.01l-.45,2.02h-3.58c-.69,0-1.37,.56-1.52,1.24l-.79,3.54c-.15,.69,.29,1.25,.97,1.25h5.28l1.34-6.03,.45-2.02h-1.69Zm-1.47,6.63h-2.47c-.36,0-.59-.3-.51-.66l.41-1.87c.08-.36,.44-.66,.81-.66h2.47l-.71,3.19Z"/><path id="ad" class="ak" d="M18.09,46.01l-.68,3.08h0l-.03,.12s-.02,.07-.03,.11l-.57,2.56h0l-.48,2.17h1.69l.48-2.17h0l.38-1.73h0l.15-.66h2.47c.36,0,.6,.3,.52,.66l-.39,1.75-.48,2.15h1.69l.48-2.15h0l.57-2.58c.15-.69-.29-1.25-.97-1.25h-3.59l.46-2.06h-1.69Z"/><path class="ak" d="M30.17,48.03h-5.67l-.31,1.42h4.57c.34,.01,.55,.29,.49,.63l-.06,.26h-3.94c-.69,0-1.37,.56-1.52,1.25l-.04,.2h0l-.23,1.03c-.15,.69,.29,1.25,.97,1.25h5.64l.16-.71h0l.67-3h0l.13-.58h0l.11-.48c.15-.68-.27-1.23-.95-1.25Zm-1.49,4.61h-3c-.24,0-.39-.2-.33-.44,.05-.24,.29-.44,.54-.44,.01,0,.03,0,.04,0h2.95l-.2,.88Z"/></g></g></g></svg>