<?xml version="1.0" ?><!DOCTYPE svg  PUBLIC '-//W3C//DTD SVG 1.1//EN'  'http://www.w3.org/Graphics/SVG/1.1/DTD/svg11.dtd'><svg enable-background="new 0 0 100 100" height="100px" id="Layer_1" version="1.1" viewBox="0 0 100 100" width="100px" xml:space="preserve" xmlns="http://www.w3.org/2000/svg" xmlns:xlink="http://www.w3.org/1999/xlink"><g><g><path d="M13.815,95h72.369c2.032,0,3.685-1.653,3.685-3.685V8.685C89.869,6.653,88.217,5,86.185,5H13.815    c-2.032,0-3.685,1.653-3.685,3.685v82.631C10.131,93.347,11.783,95,13.815,95z M49.647,26.894l-1.135-3.213h-4.17l-1.072,3.213    h-4.497l5.572-15.577h3.96l5.728,15.577H49.647z M61.227,26.894h-4.655V11.316h4.655V26.894z M84.736,32.346l-0.002,57.521H15.269    l-0.012-57.521H84.736z" fill="#E06E26"/><polygon fill="#E06E26" points="45.628,19.865 47.177,19.865 46.395,17.57   "/></g><path d="M71.86,51.858c-6.454-5.547-15.542-6.894-23.359-3.405l8.239-8.24c0.651,0.309,1.454,0.196,1.992-0.343   c0.685-0.684,0.685-1.798,0-2.481c-0.684-0.685-1.798-0.685-2.482,0c-0.538,0.538-0.65,1.341-0.342,1.992L44.574,50.715   c-0.041,0.03-0.081,0.061-0.122,0.091l-0.035,0.027h-4.69l0.001,4.689L39.7,55.559c-0.03,0.04-0.062,0.08-0.091,0.121   L28.275,67.014c-0.651-0.309-1.455-0.195-1.993,0.343c-0.685,0.685-0.684,1.798,0.001,2.482c0.684,0.684,1.797,0.684,2.481,0   c0.538-0.538,0.651-1.342,0.343-1.993l8.239-8.239c-3.488,7.818-2.141,16.905,3.406,23.359v2.371h3.51v-3.511h-2.195   c-6.135-7.157-6.558-17.809-0.824-25.433h4.045v-4.045c7.624-5.733,18.275-5.31,25.433,0.824v2.195l3.51,0.001v-3.511H71.86z    M44.108,55.215h-3.201l-0.001-3.202h3.202V55.215z" fill="#E06E26"/></g></svg>