<?xml version="1.0" ?><!DOCTYPE svg  PUBLIC '-//W3C//DTD SVG 1.1//EN'  'http://www.w3.org/Graphics/SVG/1.1/DTD/svg11.dtd'><svg enable-background="new 0 0 100 100" height="100px" id="Layer_1" version="1.1" viewBox="0 0 100 100" width="100px" xml:space="preserve" xmlns="http://www.w3.org/2000/svg" xmlns:xlink="http://www.w3.org/1999/xlink"><g><g><path d="M27.019,81.465h45.963c0.688,0,1.249-0.563,1.249-1.249v-38.22c0-0.688-0.562-1.249-1.249-1.249H27.019    c-0.688,0-1.249,0.562-1.249,1.249v38.22C25.77,80.902,26.331,81.465,27.019,81.465z M43.192,78.923    c0,0.104-0.085,0.189-0.189,0.189h-4.117c-0.104,0-0.189-0.085-0.189-0.189v-4.116c0-0.105,0.085-0.19,0.189-0.19h4.117    c0.104,0,0.189,0.085,0.189,0.19V78.923z M30.393,72.348c-0.104,0-0.19-0.086-0.19-0.19V50.055c0-0.104,0.086-0.19,0.19-0.19    h39.215c0.104,0,0.189,0.086,0.189,0.19v22.103c0,0.104-0.085,0.19-0.189,0.19H30.393z M52.561,78.923    c0,0.104-0.085,0.189-0.19,0.189h-4.116c-0.104,0-0.189-0.085-0.189-0.189v-4.116c0-0.105,0.085-0.19,0.189-0.19h4.116    c0.105,0,0.19,0.085,0.19,0.19V78.923z M61.304,78.923c0,0.104-0.085,0.189-0.19,0.189h-4.116c-0.104,0-0.189-0.085-0.189-0.189    v-4.116c0-0.105,0.085-0.19,0.189-0.19h4.116c0.105,0,0.19,0.085,0.19,0.19V78.923z M70.047,78.923    c0,0.104-0.085,0.189-0.19,0.189H65.74c-0.105,0-0.19-0.085-0.19-0.189v-4.116c0-0.105,0.085-0.19,0.19-0.19h4.116    c0.105,0,0.19,0.085,0.19,0.19V78.923z M65.55,43.247c0-0.104,0.085-0.189,0.19-0.189h4.116c0.105,0,0.19,0.085,0.19,0.189v4.116    c0,0.105-0.085,0.19-0.19,0.19H65.74c-0.105,0-0.19-0.085-0.19-0.19V43.247z M56.808,43.247c0-0.104,0.085-0.189,0.189-0.189    h4.116c0.105,0,0.19,0.085,0.19,0.189v4.116c0,0.105-0.085,0.19-0.19,0.19h-4.116c-0.104,0-0.189-0.085-0.189-0.19V43.247z     M48.064,43.247c0-0.104,0.085-0.189,0.189-0.189h4.116c0.105,0,0.19,0.085,0.19,0.189v4.116c0,0.105-0.085,0.19-0.19,0.19h-4.116    c-0.104,0-0.189-0.085-0.189-0.19V43.247z M38.696,43.247c0-0.104,0.085-0.189,0.189-0.189h4.117c0.104,0,0.189,0.085,0.189,0.189    v4.116c0,0.105-0.085,0.19-0.189,0.19h-4.117c-0.104,0-0.189-0.085-0.189-0.19V43.247z M29.953,43.247    c0-0.104,0.085-0.189,0.19-0.189h4.116c0.105,0,0.19,0.085,0.19,0.189v4.116c0,0.105-0.085,0.19-0.19,0.19h-4.116    c-0.105,0-0.19-0.085-0.19-0.19V43.247z M29.953,74.807c0-0.105,0.085-0.19,0.19-0.19h4.116c0.105,0,0.19,0.085,0.19,0.19v4.116    c0,0.104-0.085,0.189-0.19,0.189h-4.116c-0.105,0-0.19-0.085-0.19-0.189V74.807z" fill="#0765D6"/><path d="M57.869,60.593l-12.005-6.565c-0.597-0.297-1.087,0.004-1.087,0.671v12.874    c0,0.668,0.49,0.967,1.087,0.669l12.005-6.563C58.468,61.38,58.468,60.893,57.869,60.593z" fill="#0765D6"/></g><g><path d="M13.815,95h72.369c2.032,0,3.685-1.653,3.685-3.685V8.685C89.869,6.653,88.217,5,86.185,5H13.815    c-2.032,0-3.685,1.653-3.685,3.685v82.631C10.131,93.347,11.783,95,13.815,95z M43.093,26.894l-1.134-3.212h-4.166l-1.071,3.212    h-4.505l5.572-15.577h3.966l5.729,15.577H43.093z M55.943,26.894h-4.298l-5.114-15.577h4.73l2.748,8.75l2.659-8.75h4.397    L55.943,26.894z M67.784,26.894h-4.655V11.316h4.655V26.894z M84.736,32.346l-0.001,57.521H15.269l-0.012-57.521H84.736z" fill="#0765D6"/><polygon fill="#0765D6" points="39.08,19.862 40.622,19.862 39.843,17.579   "/></g></g></svg>