<?xml version="1.0" ?><!DOCTYPE svg  PUBLIC '-//W3C//DTD SVG 1.1//EN'  'http://www.w3.org/Graphics/SVG/1.1/DTD/svg11.dtd'><svg enable-background="new 0 0 100 100" height="100px" id="Layer_1" version="1.1" viewBox="0 0 100 100" width="100px" xml:space="preserve" xmlns="http://www.w3.org/2000/svg" xmlns:xlink="http://www.w3.org/1999/xlink"><g><g><path d="M13.815,95h72.369c2.032,0,3.685-1.653,3.685-3.685V8.685C89.869,6.653,88.217,5,86.185,5H13.815    c-2.032,0-3.685,1.653-3.685,3.685v82.631C10.131,93.347,11.783,95,13.815,95z M44.264,24.225    c-0.326,0.72-0.782,1.308-1.356,1.746c-0.582,0.445-1.299,0.723-2.129,0.821c-0.465,0.056-1.516,0.089-3.214,0.102h-0.003h-5.434    V11.316h6.191c1.074,0,1.864,0.05,2.417,0.151c0.618,0.114,1.181,0.357,1.672,0.722c0.487,0.361,0.896,0.843,1.213,1.431    c0.325,0.603,0.49,1.28,0.49,2.017c0,0.797-0.201,1.541-0.598,2.21c-0.146,0.246-0.313,0.472-0.497,0.675    c0.371,0.262,0.688,0.58,0.949,0.95c0.515,0.732,0.776,1.597,0.776,2.568C44.742,22.787,44.581,23.522,44.264,24.225z     M52.389,26.894h-4.835V11.316h4.835V26.894z M67.872,26.894H63.82l-3.901-6.873v6.873h-4.291V11.316h4.071l3.979,7.069v-7.069    h4.194V26.894z M84.736,32.346l-0.002,57.521H15.269l-0.012-57.521H84.736z" fill="#589C00"/><path d="M39.887,20.952c-0.092-0.035-0.509-0.148-2.014-0.148h-1.288v2.13h1.595c1.215,0,1.53-0.051,1.598-0.065    l0.022-0.005c0.202-0.04,0.354-0.129,0.476-0.279c0.121-0.146,0.183-0.375,0.183-0.677c0-0.266-0.051-0.474-0.154-0.636    C40.211,21.126,40.078,21.024,39.887,20.952z" fill="#589C00"/><path d="M39.257,16.831c0.254-0.032,0.437-0.113,0.559-0.247c0.073-0.079,0.169-0.222,0.169-0.548    c0-0.244-0.048-0.424-0.148-0.547c-0.032-0.039-0.127-0.156-0.457-0.201c-0.119-0.014-0.562-0.04-2.109-0.04h-0.685v1.625h0.895    C38.754,16.873,39.141,16.847,39.257,16.831z" fill="#589C00"/></g><g><path d="M65.597,44.184h-7.913v-3.454c0-0.695-0.563-1.258-1.258-1.258H43.574c-0.694,0-1.258,0.563-1.258,1.258    v3.454h-7.913c-0.926,0-1.677,0.751-1.677,1.677v2.864h34.547V45.86C67.273,44.935,66.522,44.184,65.597,44.184z M44.561,42.05    h10.879v2.134H44.561V42.05z" fill="#589C00"/><path d="M36.229,81.069c0.079,0.923,0.895,1.671,1.82,1.671h23.9c0.926,0,1.741-0.748,1.82-1.671l2.325-30.989    H33.904L36.229,81.069z M56.461,55.32c0-0.854,0.692-1.546,1.547-1.546c0.854,0,1.546,0.692,1.546,1.546v21.394    c0,0.854-0.692,1.546-1.546,1.546c-0.854,0-1.547-0.691-1.547-1.546V55.32z M48.454,55.32c0-0.854,0.692-1.546,1.546-1.546    s1.546,0.692,1.546,1.546v21.394c0,0.854-0.692,1.546-1.546,1.546s-1.546-0.691-1.546-1.546V55.32z M40.446,55.32    c0-0.854,0.692-1.546,1.546-1.546c0.854,0,1.547,0.692,1.547,1.546v21.394c0,0.854-0.692,1.546-1.547,1.546    c-0.854,0-1.546-0.691-1.546-1.546V55.32z" fill="#589C00"/></g></g></svg>