<?xml version="1.0" ?><!DOCTYPE svg  PUBLIC '-//W3C//DTD SVG 1.1//EN'  'http://www.w3.org/Graphics/SVG/1.1/DTD/svg11.dtd'><svg enable-background="new 0 0 100 100" height="100px" id="Layer_1" version="1.1" viewBox="0 0 100 100" width="100px" xml:space="preserve" xmlns="http://www.w3.org/2000/svg" xmlns:xlink="http://www.w3.org/1999/xlink"><g><g><path d="M13.815,95h72.369c2.032,0,3.685-1.653,3.685-3.685V8.685C89.869,6.653,88.217,5,86.185,5H13.815    c-2.032,0-3.685,1.653-3.685,3.685v82.631C10.131,93.347,11.783,95,13.815,95z M39.39,24.226    c-0.326,0.721-0.782,1.309-1.356,1.746c-0.583,0.445-1.299,0.723-2.129,0.822c-0.465,0.055-1.517,0.087-3.215,0.101h-0.003h-5.368    V11.317h6.126c1.075,0,1.865,0.05,2.418,0.151c0.618,0.114,1.181,0.356,1.672,0.722c0.487,0.361,0.895,0.843,1.212,1.43    c0.326,0.604,0.491,1.282,0.491,2.018c0,0.797-0.201,1.541-0.599,2.21c-0.146,0.246-0.312,0.472-0.496,0.675    c0.37,0.263,0.688,0.58,0.948,0.95c0.516,0.732,0.776,1.597,0.776,2.569C39.867,22.788,39.707,23.523,39.39,24.226z M53.066,26.7    l-0.212-5.961c-0.006-0.163-0.012-0.332-0.017-0.507c-0.037,0.124-0.074,0.247-0.11,0.368l-1.683,5.876h-3.354l-1.438-5.674    L46,26.7h-4.122l0.89-15.188h5.054l1.381,5.123c0.157,0.637,0.299,1.23,0.428,1.789c0.149-0.604,0.306-1.22,0.466-1.81    l1.506-5.103h4.97L57.338,26.7H53.066z M72.043,18.919c-0.394,0.672-0.904,1.216-1.528,1.601c-0.6,0.383-1.226,0.632-1.858,0.765    c-0.794,0.145-1.89,0.206-3.335,0.206h-1.239v5.21h-4.579V11.513h5.67c1.95,0,3.205,0.082,3.843,0.236    c1.025,0.237,1.896,0.777,2.588,1.592c0.691,0.813,1.036,1.858,1.036,3.106C72.64,17.407,72.441,18.239,72.043,18.919z     M84.736,32.346l-0.002,57.521H15.269l-0.012-57.521H84.736z" fill="#589C00"/><path d="M34.383,16.833c0.253-0.033,0.436-0.113,0.559-0.247c0.072-0.08,0.169-0.222,0.169-0.549    c0-0.244-0.049-0.424-0.149-0.548c-0.031-0.038-0.127-0.156-0.457-0.2c-0.119-0.014-0.561-0.04-2.108-0.04H31.71v1.625h0.896    C33.879,16.874,34.266,16.848,34.383,16.833z" fill="#589C00"/><path d="M35.013,20.953c-0.092-0.034-0.51-0.147-2.014-0.147H31.71v2.129h1.595c1.216,0,1.531-0.051,1.599-0.065    l0.022-0.005c0.202-0.04,0.353-0.128,0.476-0.279c0.121-0.146,0.182-0.374,0.182-0.677c0-0.265-0.051-0.473-0.153-0.636    C35.336,21.128,35.203,21.025,35.013,20.953z" fill="#589C00"/><path d="M66.87,15.323c-0.22-0.036-0.76-0.08-2.069-0.08h-0.719v2.52h0.917c1.504,0,2.003-0.119,2.147-0.165    c0.264-0.098,0.459-0.241,0.607-0.433c0.14-0.191,0.214-0.409,0.214-0.674c0-0.329-0.1-0.575-0.289-0.77    C67.469,15.505,67.204,15.379,66.87,15.323z" fill="#589C00"/></g><g><path d="M34.081,52.62c1.947,0,3.531-1.579,3.531-3.528c0-1.952-1.584-3.533-3.531-3.533    c-1.951,0-3.53,1.581-3.53,3.533C30.551,51.041,32.13,52.62,34.081,52.62z" fill="#589C00"/><path d="M24.953,74.187l44.38,7.825c0.505,0.088,0.986-0.25,1.076-0.755l5.538-31.41    c0.09-0.506-0.248-0.988-0.754-1.076l-4.232-0.747v-6.907c0-0.514-0.416-0.931-0.93-0.931H24.968c-0.514,0-0.93,0.417-0.93,0.931    v31.979C24.038,73.61,24.448,74.099,24.953,74.187z M27.265,44.343c0-0.514,0.417-0.93,0.931-0.93h38.608    c0.513,0,0.928,0.416,0.928,0.93v25.443c0,0.513-0.415,0.928-0.928,0.928H28.195c-0.514,0-0.931-0.415-0.931-0.928V44.343z" fill="#589C00"/><path d="M66.043,68.125l-7.935-11.543c-0.29-0.422-0.761-0.422-1.052,0l-2.726,3.971    c-0.291,0.424-0.724,0.4-0.967-0.051l-5.425-10.058c-0.122-0.226-0.281-0.339-0.441-0.339l0,0l0,0l0,0l0,0    c-0.16,0-0.319,0.113-0.44,0.339l-5.426,10.058c-0.243,0.451-0.675,0.475-0.967,0.051l-2.727-3.971    c-0.289-0.422-0.761-0.422-1.051,0l-7.935,11.543c-0.29,0.423-0.11,0.767,0.403,0.767h18.142l0,0h18.143    C66.153,68.892,66.333,68.548,66.043,68.125z" fill="#589C00"/></g></g></svg>