<?xml version="1.0" ?><!DOCTYPE svg  PUBLIC '-//W3C//DTD SVG 1.1//EN'  'http://www.w3.org/Graphics/SVG/1.1/DTD/svg11.dtd'><svg enable-background="new 0 0 100 100" height="100px" id="Layer_1" version="1.1" viewBox="0 0 100 100" width="100px" xml:space="preserve" xmlns="http://www.w3.org/2000/svg" xmlns:xlink="http://www.w3.org/1999/xlink"><g><g><path d="M13.815,95h72.369c2.032,0,3.685-1.653,3.685-3.685V8.685C89.869,6.653,88.217,5,86.185,5H13.815    c-2.032,0-3.685,1.653-3.685,3.685v82.631C10.131,93.347,11.783,95,13.815,95z M36.856,22.865c0.78,0,1.634-0.193,2.074-0.385    l0.855-0.372l0.684,3.854l-0.465,0.253c-0.603,0.327-1.858,0.678-3.577,0.678c-4.444,0-7.315-2.973-7.315-7.575    c0-4.786,3.053-8.002,7.595-8.002c1.629,0,2.854,0.364,3.456,0.704l0.481,0.271l-0.91,3.866l-0.815-0.372    c-0.641-0.293-1.341-0.441-2.081-0.441c-2.079,0-3.272,1.382-3.272,3.791C33.565,21.507,34.765,22.865,36.856,22.865z     M53.119,24.627c-1.385,1.254-3.422,1.887-6.059,1.887c-1.189,0-2.351-0.067-3.288-0.201l-0.607-0.088V12.083l0.586-0.102    c1.046-0.184,2.485-0.284,3.901-0.284c2.414,0,4.08,0.483,5.401,1.567c1.506,1.218,2.304,3.124,2.304,5.509    C55.357,21.907,54.141,23.687,53.119,24.627z M66.255,26.419l-1.98-3.213c-0.787-1.286-1.097-1.698-1.21-1.83    c-0.146-0.17-0.292-0.282-0.432-0.336c-0.064-0.024-0.252-0.078-0.693-0.093v5.472h-4.03V11.792h5.964    c1.397,0,2.408,0.134,3.089,0.408c0.74,0.299,1.336,0.83,1.771,1.577c0.417,0.717,0.629,1.54,0.629,2.447    c0,1.16-0.327,2.142-0.972,2.919c-0.361,0.437-0.818,0.784-1.367,1.041c0.098,0.098,0.191,0.198,0.278,0.301    c0.378,0.441,0.858,1.176,1.468,2.247l2.119,3.687H66.255z M84.736,32.346l-0.002,57.521H15.269l-0.012-57.521H84.736z" fill="#07A626"/><path d="M47.938,15.398c-0.208,0-0.384,0.008-0.53,0.019v7.356c0.087,0,0.17,0,0.244,0H47.7    c1.05,0,1.863-0.304,2.42-0.905c0.607-0.657,0.915-1.665,0.915-2.997c0.008-1.191-0.285-2.092-0.87-2.682    C49.644,15.665,48.894,15.398,47.938,15.398z" fill="#07A626"/><path d="M64.737,15.555c-0.075-0.011-0.394-0.035-1.653-0.035h-1.145v1.82h1.045c1.529,0,1.872-0.095,1.926-0.114    c0.134-0.05,0.228-0.126,0.304-0.247c0.088-0.14,0.132-0.336,0.132-0.584c0-0.265-0.054-0.467-0.16-0.601    C65.123,15.716,65.009,15.606,64.737,15.555z" fill="#07A626"/></g><path d="M50,37.74c-12.904,0-23.365,10.461-23.365,23.365c0,12.905,10.461,23.366,23.365,23.366   s23.365-10.461,23.365-23.366C73.365,48.201,62.904,37.74,50,37.74z M65.441,45.97l-9.164,15.872   c-0.772-0.263-1.382-0.313-1.899-0.354c-0.713-0.058-1.331-0.107-2.635-0.821l-0.058-0.031c-0.979-0.565-1.549-1.69-2.152-2.881   c-0.597-1.178-1.267-2.495-2.453-3.365l8.231-14.257C59.218,41.122,62.704,43.177,65.441,45.97z M50.199,39.474   c1.186,0.011,2.349,0.117,3.481,0.313L45.66,53.677c-1.319-0.431-2.547-0.404-3.568-0.159L50.199,39.474z M40.266,78.054   c0,0,0.034-1.98,0.083-4.759c0.72,0.15,1.431,0.416,2.103,0.803c0.709,0.409,1.318,0.924,1.825,1.511   C41.936,77.037,40.266,78.054,40.266,78.054z M59.061,66.553c-0.026,0.046-7.87,4.839-13.415,8.221   c-0.652-0.802-1.455-1.501-2.402-2.047c-0.913-0.529-1.884-0.871-2.867-1.04c0.113-6.518,0.278-15.7,0.305-15.744   c0.051-0.09,2.003-1.698,4.701-0.69c2.702,1.009,2.679,5.209,5.601,6.806c2.922,1.598,3.368,0.509,5.571,1.613   C58.758,64.775,59.111,66.466,59.061,66.553z M60.066,64.79c-0.512-0.854-1.333-1.693-2.342-2.284l8.836-15.304   c0.747,0.888,1.424,1.837,2.022,2.837L60.066,64.79z" fill="#07A626"/></g></svg>