<?xml version="1.0" ?><!DOCTYPE svg  PUBLIC '-//W3C//DTD SVG 1.1//EN'  'http://www.w3.org/Graphics/SVG/1.1/DTD/svg11.dtd'><svg enable-background="new 0 0 100 100" height="100px" id="Layer_1" version="1.1" viewBox="0 0 100 100" width="100px" xml:space="preserve" xmlns="http://www.w3.org/2000/svg" xmlns:xlink="http://www.w3.org/1999/xlink"><g><path d="M13.815,95h72.369c2.032,0,3.685-1.653,3.685-3.685V8.685C89.869,6.652,88.217,5,86.185,5H13.815   c-2.032,0-3.685,1.652-3.685,3.685v82.631C10.131,93.347,11.783,95,13.815,95z M39.064,22.866c0.78,0,1.634-0.194,2.074-0.386   l0.854-0.372l0.685,3.854l-0.466,0.253c-0.603,0.327-1.857,0.678-3.576,0.678c-4.444,0-7.315-2.973-7.315-7.575   c0-4.786,3.052-8.001,7.595-8.001c1.629,0,2.854,0.363,3.456,0.703l0.48,0.271l-0.909,3.866l-0.816-0.372   c-0.64-0.293-1.34-0.441-2.08-0.441c-2.08,0-3.272,1.382-3.272,3.791C35.773,21.506,36.973,22.866,39.064,22.866z M50.051,26.894   c-1.548,0-3.505-0.546-4.292-1.034l-0.42-0.262l0.629-3.825l0.927,0.535c0.618,0.356,2.058,0.753,3.136,0.753   c0.743,0,1.187-0.346,1.187-0.924c0-0.256,0-0.605-1.571-1.239c-2.521-0.986-3.799-2.576-3.799-4.723   c0-2.86,2.194-4.857,5.336-4.857c1.439,0,3.049,0.433,3.895,0.861l0.54,0.273l-1.021,3.701l-0.819-0.443   c-0.399-0.217-1.421-0.56-2.464-0.56c-0.865,0-0.934,0.582-0.934,0.761c0,0.299,0,0.515,1.712,1.245   c2.458,1.022,3.604,2.535,3.604,4.759C55.694,24.212,54.217,26.894,50.051,26.894z M63.037,26.894   c-1.549,0-3.505-0.546-4.292-1.035l-0.421-0.261l0.63-3.825l0.927,0.535c0.618,0.355,2.058,0.753,3.135,0.753   c0.743,0,1.188-0.346,1.188-0.924c0-0.256,0-0.605-1.572-1.239c-2.52-0.986-3.798-2.576-3.798-4.723   c0-2.86,2.193-4.858,5.336-4.858c1.439,0,3.049,0.434,3.894,0.861l0.541,0.274l-1.022,3.701l-0.819-0.443   c-0.398-0.217-1.42-0.56-2.463-0.56c-0.866,0-0.934,0.582-0.934,0.761c0,0.299,0,0.515,1.711,1.244   c2.458,1.023,3.604,2.536,3.604,4.76C68.68,24.211,67.202,26.894,63.037,26.894z M84.736,32.346l-0.001,57.521H15.269   l-0.012-57.521H84.736z" fill="#D5326E"/><g><polygon fill="#D5326E" points="51.114,46.566 44.396,75.646 48.886,75.646 55.604,46.566   "/><g><polygon fill="#D5326E" points="76.827,59.207 59.824,50.171 59.824,55.112 71.103,61.105 59.824,67.1 59.824,72.041      76.827,63.005    "/><polygon fill="#D5326E" points="23.173,59.207 40.176,50.171 40.176,55.112 28.897,61.105 40.176,67.1 40.176,72.041      23.173,63.005    "/></g></g></g></svg>