<?xml version="1.0" ?><!DOCTYPE svg  PUBLIC '-//W3C//DTD SVG 1.1//EN'  'http://www.w3.org/Graphics/SVG/1.1/DTD/svg11.dtd'><svg enable-background="new 0 0 100 100" height="100px" id="Layer_1" version="1.1" viewBox="0 0 100 100" width="100px" xml:space="preserve" xmlns="http://www.w3.org/2000/svg" xmlns:xlink="http://www.w3.org/1999/xlink"><g><g><g><rect fill="#589C00" height="8.707" width="13.059" x="61.172" y="43.405"/><rect fill="#589C00" height="8.706" width="13.059" x="61.172" y="56.754"/><rect fill="#589C00" height="8.705" width="13.059" x="61.172" y="70.103"/><rect fill="#589C00" height="8.705" width="13.059" x="43.471" y="70.103"/><rect fill="#589C00" height="8.705" width="13.059" x="25.77" y="70.103"/></g><polygon fill="#589C00" points="47.275,54.125 55.117,44.317 47.331,44.317 43.33,49.598 39.531,44.317 31.467,44.317     39.455,54.351 31.138,64.983 38.897,64.983 43.322,59.006 47.706,64.983 55.804,64.983   "/></g><path d="M86.185,5H13.815c-2.032,0-3.685,1.653-3.685,3.685v82.631c0,2.031,1.652,3.685,3.685,3.685h72.369   c2.032,0,3.685-1.653,3.685-3.685V8.685C89.869,6.653,88.217,5,86.185,5z M61.174,11.553l1.62,6.434   c0.13,0.512,0.267,1.054,0.402,1.619c0.125-0.516,0.258-1.04,0.397-1.565l1.695-6.487h4.484L65.24,26.895h-4.599l-4.313-15.342   H61.174z M48.46,20.898c-2.52-0.987-3.798-2.576-3.798-4.723c0-2.86,2.194-4.858,5.336-4.858c1.44,0,3.049,0.434,3.895,0.861   l0.54,0.274l-1.021,3.701l-0.819-0.444c-0.399-0.216-1.421-0.559-2.464-0.559c-0.865,0-0.934,0.582-0.934,0.761   c0,0.298,0,0.514,1.712,1.245c2.458,1.022,3.603,2.534,3.603,4.758c0,2.297-1.478,4.979-5.642,4.979   c-1.55,0-3.506-0.546-4.293-1.035l-0.42-0.261l0.629-3.825l0.927,0.534c0.618,0.356,2.058,0.753,3.136,0.753   c0.743,0,1.187-0.345,1.187-0.923C50.032,21.882,50.032,21.532,48.46,20.898z M37.822,11.317c1.628,0,2.853,0.364,3.456,0.704   l0.48,0.271l-0.909,3.866l-0.816-0.372c-0.641-0.293-1.34-0.441-2.08-0.441c-2.08,0-3.272,1.381-3.272,3.79   c0,2.371,1.199,3.73,3.291,3.73c0.78,0,1.634-0.194,2.073-0.385l0.855-0.373l0.684,3.854l-0.465,0.254   c-0.602,0.327-1.857,0.678-3.576,0.678c-4.444,0-7.316-2.974-7.316-7.575C30.227,14.533,33.279,11.317,37.822,11.317z    M84.734,89.866H15.269l-0.012-57.521h69.479L84.734,89.866z" fill="#589C00"/></g></svg>