<?xml version="1.0" ?><!DOCTYPE svg  PUBLIC '-//W3C//DTD SVG 1.1//EN'  'http://www.w3.org/Graphics/SVG/1.1/DTD/svg11.dtd'><svg enable-background="new 0 0 100 100" height="100px" id="Layer_1" version="1.1" viewBox="0 0 100 100" width="100px" xml:space="preserve" xmlns="http://www.w3.org/2000/svg" xmlns:xlink="http://www.w3.org/1999/xlink"><g><g><path d="M13.815,95h72.369c2.032,0,3.685-1.653,3.685-3.685V8.685C89.869,6.653,88.217,5,86.185,5H13.815    c-2.032,0-3.685,1.653-3.685,3.685v82.631C10.131,93.347,11.783,95,13.815,95z M40.256,24.91c-1.456,1.317-3.598,1.983-6.37,1.983    c-1.249,0-2.471-0.071-3.456-0.213l-0.639-0.092V11.724l0.616-0.108c1.1-0.192,2.612-0.299,4.102-0.299    c2.539,0,4.29,0.508,5.678,1.648c1.583,1.279,2.422,3.284,2.422,5.791C42.608,22.051,41.329,23.922,40.256,24.91z M54.246,26.802    l-1.107-3.136h-3.936l-1.047,3.136h-4.594l5.507-15.394h4l5.661,15.394H54.246z M70.209,15.286H66.41v11.607h-4.379V15.286h-3.808    v-3.97h11.985V15.286z M84.736,32.346l-0.002,57.521H15.269l-0.012-57.521H84.736z" fill="#9B3159"/><path d="M34.81,15.208c-0.219,0-0.403,0.008-0.557,0.02v7.732c0.09,0.002,0.179,0.002,0.256,0.002h0.05    c1.104,0,1.96-0.32,2.544-0.953c0.639-0.69,0.962-1.75,0.962-3.149c0.009-1.254-0.3-2.2-0.915-2.82    C36.602,15.488,35.813,15.208,34.81,15.208z" fill="#9B3159"/><polygon fill="#9B3159" points="50.521,19.752 51.77,19.752 51.139,17.903   "/></g><g><path d="M55.248,66.383c0.007-0.427-0.006-0.85-0.038-1.268c-0.008-0.11,0.063-0.242,0.162-0.293l3.256-1.679    c0.099-0.051,0.15-0.179,0.116-0.284l-1.159-3.569c-0.034-0.104-0.151-0.177-0.262-0.16l-3.539,0.542    c-0.11,0.017-0.243-0.049-0.299-0.145c-0.438-0.76-0.952-1.47-1.529-2.123c-0.073-0.083-0.095-0.23-0.044-0.33l1.604-3.186    c0.05-0.1,0.018-0.232-0.072-0.299l-3.036-2.206c-0.091-0.064-0.228-0.055-0.307,0.023l-2.555,2.53    c-0.079,0.078-0.226,0.104-0.328,0.062c-0.783-0.33-1.605-0.587-2.46-0.762c-0.108-0.022-0.212-0.128-0.23-0.237l-0.588-3.595    c-0.018-0.109-0.122-0.198-0.233-0.198h-3.753c-0.111,0-0.215,0.089-0.234,0.198l-0.604,3.691    c-0.018,0.11-0.121,0.219-0.229,0.245c-0.8,0.193-1.574,0.457-2.313,0.786c-0.102,0.045-0.247,0.02-0.326-0.059l-2.689-2.661    c-0.079-0.079-0.216-0.089-0.307-0.024l-3.035,2.206c-0.09,0.066-0.123,0.199-0.072,0.299l1.715,3.409    c0.051,0.1,0.03,0.246-0.044,0.329c-0.528,0.602-1.006,1.248-1.423,1.936c-0.059,0.095-0.193,0.159-0.303,0.143l-3.753-0.575    c-0.11-0.017-0.228,0.056-0.262,0.161l-1.16,3.568c-0.034,0.106,0.018,0.233,0.117,0.284l3.304,1.704    c0.099,0.051,0.167,0.182,0.154,0.292c-0.044,0.409-0.071,0.824-0.079,1.243c-0.007,0.428,0.006,0.85,0.038,1.267    c0.009,0.111-0.063,0.243-0.161,0.293l-3.256,1.68c-0.099,0.052-0.151,0.179-0.117,0.284l1.16,3.568    c0.034,0.106,0.151,0.178,0.261,0.161l3.54-0.542c0.109-0.017,0.242,0.048,0.299,0.145c0.438,0.76,0.952,1.47,1.529,2.123    c0.073,0.083,0.094,0.23,0.043,0.329l-1.603,3.188c-0.05,0.099-0.018,0.232,0.072,0.298l3.035,2.205    c0.091,0.065,0.228,0.056,0.307-0.022l2.556-2.529c0.079-0.078,0.226-0.105,0.327-0.063c0.784,0.33,1.606,0.587,2.46,0.762    c0.109,0.022,0.212,0.128,0.23,0.238l0.589,3.594c0.018,0.109,0.122,0.198,0.233,0.198h3.753c0.111,0,0.216-0.089,0.233-0.198    l0.604-3.691c0.018-0.11,0.12-0.219,0.229-0.244c0.799-0.194,1.573-0.458,2.313-0.786c0.102-0.046,0.247-0.021,0.326,0.058    l2.688,2.662c0.079,0.078,0.217,0.088,0.307,0.022l3.036-2.205c0.09-0.065,0.123-0.199,0.072-0.298l-1.715-3.41    c-0.05-0.1-0.03-0.246,0.043-0.33c0.528-0.601,1.006-1.247,1.424-1.935c0.059-0.096,0.192-0.158,0.303-0.142l3.753,0.574    c0.11,0.017,0.227-0.055,0.262-0.16l1.159-3.569c0.035-0.105-0.018-0.233-0.116-0.284l-3.304-1.704    c-0.099-0.051-0.168-0.182-0.155-0.292C55.214,67.217,55.241,66.802,55.248,66.383z M41.981,57.66c4.757,0,8.561,3.813,8.57,8.548    c0,0.098-0.003,0.253-0.006,0.35c-0.176,4.735-4.111,8.548-8.868,8.548c-4.815,0-8.653-3.906-8.569-8.723    S37.166,57.66,41.981,57.66z" fill="#9B3159"/><path d="M71.99,46.724c-0.096-0.265-0.204-0.521-0.321-0.77c-0.031-0.065-0.019-0.163,0.03-0.218l1.603-1.798    c0.049-0.055,0.051-0.146,0.005-0.201l-1.553-1.918c-0.047-0.057-0.136-0.073-0.199-0.037l-2.044,1.166    c-0.063,0.037-0.161,0.028-0.218-0.018c-0.448-0.363-0.93-0.679-1.438-0.943c-0.064-0.033-0.113-0.118-0.104-0.191l0.233-2.333    c0.007-0.073-0.044-0.147-0.114-0.167l-2.384-0.638c-0.071-0.019-0.152,0.019-0.183,0.086l-0.973,2.155    c-0.03,0.066-0.113,0.117-0.187,0.115c-0.559-0.019-1.124,0.018-1.689,0.111c-0.072,0.013-0.16-0.028-0.197-0.092l-1.208-2.067    c-0.036-0.063-0.122-0.094-0.189-0.066l-2.304,0.884c-0.068,0.026-0.112,0.105-0.098,0.178l0.5,2.407    c0.015,0.072-0.023,0.163-0.084,0.204c-0.445,0.308-0.857,0.651-1.234,1.027c-0.052,0.052-0.147,0.071-0.214,0.042l-2.278-1    c-0.066-0.029-0.153-0.004-0.192,0.058L53.61,44.77c-0.039,0.061-0.028,0.151,0.026,0.2l1.856,1.688    c0.054,0.049,0.076,0.144,0.051,0.212c-0.184,0.494-0.324,1.004-0.418,1.523c-0.014,0.072-0.081,0.144-0.152,0.159l-2.439,0.531    c-0.071,0.016-0.126,0.087-0.122,0.16l0.129,2.464c0.004,0.073,0.066,0.139,0.139,0.146l2.43,0.268    c0.072,0.009,0.145,0.072,0.163,0.144c0.069,0.262,0.15,0.522,0.244,0.781c0.097,0.264,0.204,0.521,0.322,0.769    c0.031,0.066,0.019,0.164-0.03,0.218l-1.603,1.799c-0.049,0.055-0.051,0.145-0.005,0.201l1.553,1.918    c0.046,0.057,0.135,0.073,0.198,0.037l2.045-1.167c0.063-0.036,0.161-0.027,0.218,0.019c0.448,0.362,0.931,0.678,1.438,0.942    c0.064,0.033,0.112,0.12,0.104,0.192l-0.232,2.334c-0.008,0.072,0.044,0.146,0.114,0.165l2.383,0.639    c0.07,0.02,0.152-0.02,0.183-0.086l0.973-2.154c0.03-0.067,0.113-0.118,0.187-0.116c0.559,0.019,1.124-0.018,1.689-0.111    c0.072-0.012,0.16,0.028,0.197,0.092l1.208,2.067c0.037,0.063,0.122,0.093,0.189,0.066l2.304-0.884    c0.068-0.026,0.112-0.106,0.098-0.177l-0.5-2.409c-0.015-0.071,0.023-0.162,0.083-0.203c0.445-0.308,0.858-0.652,1.235-1.028    c0.052-0.051,0.146-0.07,0.214-0.041l2.277,1c0.067,0.03,0.154,0.004,0.193-0.058l1.345-2.069    c0.039-0.062,0.028-0.151-0.026-0.199l-1.855-1.689c-0.055-0.049-0.077-0.145-0.053-0.213c0.185-0.493,0.324-1.003,0.419-1.522    c0.014-0.072,0.081-0.143,0.153-0.159l2.438-0.531c0.072-0.016,0.127-0.087,0.123-0.16l-0.129-2.464    c-0.004-0.073-0.066-0.14-0.139-0.147l-2.429-0.267c-0.073-0.009-0.146-0.073-0.164-0.144    C72.166,47.243,72.085,46.982,71.99,46.724z M61.792,44.495c2.92-1.12,6.152,0.323,7.274,3.228    c0.023,0.06,0.059,0.156,0.079,0.216c1.008,2.948-0.51,6.215-3.43,7.337c-2.955,1.134-6.231-0.359-7.315-3.335    C57.317,48.964,58.836,45.63,61.792,44.495z" fill="#9B3159"/></g></g></svg>