<svg width="209" height="220" xmlns="http://www.w3.org/2000/svg" xmlns:xlink="http://www.w3.org/1999/xlink" overflow="hidden"><defs><clipPath id="clip0"><rect x="1393" y="104" width="209" height="220"/></clipPath></defs><g clip-path="url(#clip0)" transform="translate(-1393 -104)"><path d="M1510 198 1510 207.036C1509.59 207.342 1509.25 207.669 1509 208L1509 198.964C1509.25 198.63 1509.59 198.306 1510 198" fill="#19486F" fill-rule="evenodd"/><path d="M1510 199 1510 207.543C1509.59 207.698 1509.31 207.852 1509 208L1509 199.457C1509.31 199.303 1509.59 199.142 1510 199" fill="#19486F" fill-rule="evenodd"/><path d="M1555 205C1562.42 205 1568.72 205.592 1573.93 206.432 1585.09 208.315 1591 211.541 1591 213.527 1591 215.504 1585.09 218.726 1573.93 220.554 1568.72 221.456 1562.42 222 1555 222 1531.68 222 1519 216.399 1519 213.527 1519 210.642 1531.68 205 1555 205Z" fill="#2E73B7" fill-rule="evenodd"/><path d="M1592.04 214 1592.04 223.849C1592.04 223.898 1591 223.951 1591 224.001L1591 214.152C1591 214.095 1592.04 214.042 1592.04 214" fill="#19486F" fill-rule="evenodd"/><path d="M1592.01 214 1592.01 223.786C1591.8 223.86 1591.4 223.937 1591 224L1591 214.207C1591.4 214.137 1591.8 214.067 1592.01 214" fill="#19486F" fill-rule="evenodd"/><path d="M1592 214 1592 223.701C1591.74 223.802 1591.39 223.893 1591 224L1591 214.292C1591.36 214.188 1591.74 214.101 1592 214" fill="#19486F" fill-rule="evenodd"/><path d="M1591 214.637 1591 224.211C1589.91 226.184 1584.03 228.928 1573.84 230.562 1568.55 231.466 1562.14 232 1554.6 232 1530.9 232 1518 226.434 1518 223.564L1518 214C1518 216.857 1530.9 222.43 1554.6 222.43 1562.14 222.43 1568.55 221.889 1573.84 220.991 1584.03 219.357 1589.91 216.617 1591 214.637" fill="#19486F" fill-rule="evenodd"/><path d="M1593.01 289 1593.01 298.776C1593.01 298.85 1592.44 298.927 1592 299L1592 289.217C1592.44 289.151 1593.01 289.081 1593.01 289" fill="#19486F" fill-rule="evenodd"/><path d="M1593.01 289 1593.01 298.749C1592.89 298.822 1592.53 298.92 1592 299L1592 289.258C1592.53 289.171 1592.89 289.098 1593.01 289" fill="#19486F" fill-rule="evenodd"/><path d="M1593 290 1593 299.592C1592.78 299.733 1592.43 299.859 1592 300L1592 290.409C1592.42 290.268 1592.78 290.134 1593 290" fill="#19486F" fill-rule="evenodd"/><path d="M1592 290 1592 299.489C1590.28 302.519 1579.89 307 1557.71 307 1544.36 307 1533.56 305.279 1527 303.375L1527 293.873C1533.56 295.78 1544.35 297.511 1557.71 297.511 1579.89 297.511 1590.28 293.023 1592 290" fill="#19486F" fill-rule="evenodd"/><path d="M1425 293.937 1425 303C1417.82 303 1412 296.782 1412 289.063L1412 280C1412 287.705 1417.83 293.937 1425 293.937" fill="#19486F" fill-rule="evenodd"/><path d="M1514 294 1514 302.904 1425 303 1425 294.106Z" fill="#19486F" fill-rule="evenodd"/><path d="M1591.45 194.425C1578.39 189.854 1556.93 189.692 1550.79 189.771 1532.88 190.012 1512.47 194.263 1509.05 199.568L1508.91 200.64 1508.96 203.898 1508.91 289.232C1508.91 290.808 1512.22 292.518 1513.6 293.893L1424.8 294C1417.18 294 1411 287.847 1411 280.239L1411 125.717C1411 118.15 1417.18 112.007 1424.8 112.007L1578.19 112C1585.82 112 1592 118.14 1592 125.748" fill="#2E73B7" fill-rule="evenodd"/><path d="M1592 231 1591.97 289.54C1591.97 292.511 1581.86 298 1557.54 298 1544.23 298 1534.19 296.417 1527.66 294.493 1522.8 292.917 1519.39 291.131 1519 289.791L1519 231.556C1526.08 235.95 1540.67 238.271 1555.16 238.271L1556.1 238.271C1557.62 238.217 1559.06 238.217 1560.55 238.179L1561.14 238.124C1562.44 238.076 1563.62 238.024 1564.87 237.928 1565.5 237.88 1566.09 237.829 1566.69 237.773 1567.68 237.688 1568.61 237.626 1569.54 237.526 1570.1 237.433 1570.59 237.379 1571.08 237.286 1572.13 237.186 1573.11 237.045 1574.14 236.891 1582.07 235.603 1588.19 233.469 1592 231Z" fill="#2E73B7" fill-rule="evenodd"/><path d="M1440.01 126C1432.36 126 1429 131.31 1429 143.007 1429 154.694 1432.36 160 1440.01 160 1447.65 160 1451 154.691 1451 143.007 1451 131.31 1447.65 126 1440.01 126ZM1440.01 156.068C1436.84 156.068 1434.32 154.143 1434.32 142.867 1434.32 131.861 1436.84 129.932 1440.01 129.932 1443.18 129.932 1445.7 131.857 1445.7 142.867 1445.7 154.143 1443.18 156.068 1440.01 156.068Z" fill="#FFFFFF" fill-rule="evenodd"/><path d="M1477.39 157.139C1477.3 155.157 1477.25 152.564 1477.21 150.447 1477.01 145.81 1475.25 144.009 1471.89 143.694L1471.89 143.608C1475.6 143.039 1477.54 139.763 1477.54 135.503 1477.54 129.319 1473.69 127 1468.95 127L1457 127 1457 160 1462.4 160 1462.4 145.683 1466.82 145.683C1470.52 145.683 1471.65 147.244 1471.76 150.855 1471.85 153.26 1471.8 155.109 1471.99 157.091 1472.12 158.384 1472.36 159.41 1472.89 160L1479 160C1478.29 159.544 1477.49 158.762 1477.39 157.139ZM1466.73 141.711 1462.4 141.711 1462.4 130.979 1467 130.979C1470.57 130.979 1472.12 132.827 1472.12 136.343 1472.12 139.674 1470.19 141.711 1466.73 141.711Z" fill="#FFFFFF" fill-rule="evenodd"/><path d="M1489.46 127 1480 160 1485.54 160 1487.68 151.922 1497.41 151.922 1499.46 160 1505 160 1496.24 127 1489.46 127ZM1488.65 147.707 1492.62 131.435 1492.72 131.435 1496.53 147.707 1488.65 147.707Z" fill="#FFFFFF" fill-rule="evenodd"/><path d="M1529 147.636 1523.5 147.636 1523.5 148.181C1523.5 151.211 1522.97 156.072 1518.37 156.072 1514.32 156.072 1512.5 153.415 1512.5 142.871 1512.5 132.32 1514.32 129.935 1518.37 129.935 1522.33 129.803 1523.3 133.289 1523.3 136.32L1523.3 136.857 1528.8 136.857 1528.8 136.259C1528.8 132.871 1528.23 126 1518.43 126 1509.69 126 1507 131.31 1507 143.007 1507 154.694 1509.69 160 1518.37 160 1526.49 160 1529 154.228 1529 148.313L1529 147.636Z" fill="#FFFFFF" fill-rule="evenodd"/><path d="M1551 155.572 1538.26 155.572 1538.26 127 1533 127 1533 160 1551 160Z" fill="#FFFFFF" fill-rule="evenodd"/><path d="M1573 155.572 1560.21 155.572 1560.21 145.042 1571.9 145.042 1571.9 140.6 1560.21 140.6 1560.21 131.435 1572.63 131.435 1572.63 127 1555 127 1555 160 1573 160Z" fill="#FFFFFF" fill-rule="evenodd"/><rect x="1425" y="122" width="152" height="49.9998" fill="#2E73B7"/><text fill="#FFFFFF" font-family="Arial,Arial_MSFontService,sans-serif" font-weight="700" font-size="50" transform="matrix(1 0 0 1 1425.55 169)">DB2<tspan font-size="50" x="111.325" y="113">T</tspan></text></g></svg>