<?xml version="1.0" ?><!DOCTYPE svg  PUBLIC '-//W3C//DTD SVG 1.1//EN'  'http://www.w3.org/Graphics/SVG/1.1/DTD/svg11.dtd'><svg enable-background="new 0 0 100 100" height="100px" id="Layer_1" version="1.1" viewBox="0 0 100 100" width="100px" xml:space="preserve" xmlns="http://www.w3.org/2000/svg" xmlns:xlink="http://www.w3.org/1999/xlink"><g><g><path d="M55.169,54.586c-0.013-0.11,0.057-0.241,0.155-0.292l3.304-1.704c0.099-0.051,0.151-0.179,0.116-0.284    l-1.159-3.569c-0.035-0.105-0.151-0.177-0.262-0.16L53.57,49.15c-0.11,0.017-0.244-0.046-0.303-0.142    c-0.418-0.688-0.895-1.334-1.424-1.935c-0.073-0.084-0.093-0.23-0.043-0.33l1.715-3.41c0.051-0.099,0.018-0.232-0.072-0.298    l-3.036-2.205c-0.09-0.065-0.228-0.056-0.307,0.022l-2.688,2.662c-0.079,0.078-0.225,0.104-0.326,0.058    c-0.74-0.328-1.515-0.592-2.313-0.786c-0.108-0.025-0.211-0.134-0.229-0.244l-0.604-3.691c-0.018-0.109-0.122-0.198-0.233-0.198    h-3.753c-0.111,0-0.216,0.089-0.233,0.197l-0.589,3.595c-0.019,0.11-0.121,0.216-0.23,0.238c-0.854,0.175-1.676,0.431-2.46,0.762    c-0.102,0.043-0.248,0.016-0.327-0.063l-2.556-2.529c-0.079-0.078-0.216-0.088-0.307-0.022l-3.035,2.205    c-0.09,0.065-0.122,0.199-0.072,0.298l1.603,3.188c0.051,0.099,0.03,0.246-0.043,0.329c-0.577,0.653-1.091,1.363-1.529,2.123    c-0.057,0.097-0.189,0.161-0.299,0.144l-3.54-0.541c-0.109-0.017-0.227,0.055-0.261,0.161l-1.16,3.568    c-0.034,0.105,0.019,0.232,0.117,0.284l3.256,1.68c0.099,0.05,0.17,0.182,0.162,0.292c-0.033,0.418-0.046,0.84-0.039,1.268    c0.008,0.419,0.035,0.834,0.079,1.243c0.013,0.11-0.056,0.241-0.154,0.292l-3.304,1.704c-0.1,0.051-0.15,0.178-0.117,0.284    l1.16,3.568c0.034,0.105,0.151,0.178,0.262,0.161l3.753-0.575c0.109-0.017,0.244,0.048,0.303,0.143    c0.417,0.688,0.895,1.334,1.423,1.936c0.074,0.083,0.095,0.229,0.044,0.329l-1.715,3.409c-0.051,0.1-0.018,0.232,0.072,0.299    l3.035,2.205c0.091,0.065,0.228,0.056,0.307-0.023l2.689-2.661c0.079-0.078,0.225-0.104,0.326-0.059    c0.739,0.329,1.514,0.593,2.313,0.786c0.107,0.026,0.211,0.135,0.229,0.245l0.604,3.691c0.02,0.109,0.123,0.198,0.234,0.198h3.753    c0.111,0,0.216-0.089,0.233-0.198l0.588-3.595c0.019-0.109,0.122-0.215,0.23-0.237c0.854-0.175,1.677-0.432,2.46-0.762    c0.103-0.043,0.249-0.017,0.328,0.062l2.555,2.53c0.079,0.078,0.216,0.088,0.307,0.022l3.036-2.205    c0.09-0.066,0.122-0.2,0.072-0.299l-1.604-3.186c-0.051-0.1-0.029-0.247,0.044-0.33c0.577-0.653,1.091-1.363,1.529-2.123    c0.056-0.096,0.188-0.161,0.299-0.145l3.539,0.542c0.11,0.017,0.228-0.056,0.262-0.16l1.159-3.569    c0.034-0.105-0.018-0.233-0.116-0.284l-3.256-1.679c-0.099-0.051-0.17-0.183-0.162-0.293c0.032-0.418,0.045-0.841,0.038-1.268    C55.241,55.409,55.214,54.995,55.169,54.586z M33.108,55.829c-0.084-4.817,3.754-8.723,8.569-8.723    c4.757,0,8.692,3.813,8.868,8.548c0.003,0.097,0.006,0.252,0.006,0.349c-0.01,4.736-3.813,8.548-8.57,8.548    C37.166,64.551,33.192,60.645,33.108,55.829z" fill="#B63B34"/><path d="M72.235,74.707c0.018-0.07,0.091-0.135,0.164-0.144l2.429-0.267c0.072-0.009,0.135-0.074,0.139-0.147    l0.129-2.464c0.004-0.073-0.051-0.145-0.123-0.16l-2.438-0.531c-0.072-0.017-0.14-0.087-0.153-0.159    c-0.095-0.52-0.234-1.029-0.419-1.522c-0.024-0.068-0.002-0.164,0.053-0.213l1.855-1.689c0.055-0.048,0.065-0.138,0.026-0.199    l-1.345-2.069c-0.039-0.062-0.126-0.088-0.193-0.058l-2.277,1c-0.067,0.029-0.162,0.01-0.214-0.041    c-0.377-0.376-0.79-0.721-1.235-1.028c-0.06-0.041-0.098-0.132-0.083-0.204l0.5-2.408c0.015-0.07-0.029-0.15-0.098-0.177    l-2.304-0.884c-0.067-0.026-0.152,0.004-0.189,0.066l-1.208,2.067c-0.037,0.063-0.125,0.104-0.197,0.092    c-0.565-0.094-1.131-0.13-1.689-0.111c-0.073,0.002-0.156-0.049-0.187-0.116l-0.973-2.154c-0.03-0.066-0.111-0.105-0.183-0.086    l-2.383,0.638c-0.07,0.019-0.122,0.094-0.114,0.166l0.232,2.334c0.008,0.072-0.04,0.159-0.104,0.192    c-0.508,0.265-0.99,0.579-1.438,0.942c-0.057,0.046-0.154,0.055-0.218,0.018l-2.045-1.166c-0.063-0.036-0.152-0.02-0.198,0.037    l-1.553,1.918c-0.046,0.057-0.044,0.146,0.005,0.201l1.603,1.799c0.049,0.054,0.062,0.151,0.03,0.218    c-0.118,0.248-0.226,0.505-0.322,0.769c-0.094,0.259-0.175,0.52-0.244,0.781c-0.019,0.07-0.091,0.135-0.163,0.144l-2.43,0.267    c-0.072,0.009-0.135,0.074-0.139,0.147l-0.129,2.464c-0.004,0.072,0.051,0.145,0.122,0.16l2.439,0.531    c0.071,0.016,0.139,0.087,0.152,0.159c0.095,0.52,0.234,1.029,0.418,1.523c0.025,0.068,0.003,0.163-0.051,0.212l-1.856,1.688    c-0.055,0.049-0.065,0.14-0.026,0.2l1.345,2.069c0.039,0.062,0.126,0.087,0.192,0.058l2.278-1c0.066-0.029,0.162-0.01,0.214,0.042    c0.377,0.375,0.789,0.72,1.234,1.027c0.061,0.041,0.099,0.132,0.084,0.204l-0.5,2.407c-0.015,0.072,0.029,0.151,0.098,0.178    l2.304,0.884c0.067,0.026,0.153-0.004,0.189-0.066l1.208-2.067c0.037-0.063,0.125-0.104,0.197-0.092    c0.565,0.094,1.131,0.13,1.689,0.111c0.073-0.002,0.156,0.049,0.187,0.115l0.973,2.155c0.03,0.066,0.111,0.105,0.183,0.086    l2.384-0.638c0.07-0.02,0.121-0.094,0.114-0.167l-0.233-2.333c-0.009-0.073,0.04-0.158,0.104-0.191    c0.509-0.265,0.99-0.58,1.438-0.943c0.057-0.046,0.154-0.055,0.218-0.018l2.044,1.166c0.063,0.036,0.152,0.02,0.199-0.037    l1.553-1.918c0.046-0.056,0.044-0.146-0.005-0.201l-1.603-1.798c-0.049-0.055-0.062-0.152-0.03-0.219    c0.117-0.248,0.226-0.505,0.321-0.769C72.085,75.229,72.166,74.969,72.235,74.707z M58.4,70.271    c1.084-2.976,4.36-4.469,7.315-3.335c2.92,1.122,4.438,4.389,3.43,7.337c-0.021,0.06-0.056,0.156-0.079,0.216    c-1.122,2.904-4.354,4.348-7.274,3.228C58.836,76.582,57.317,73.248,58.4,70.271z" fill="#B63B34"/></g><g><path d="M13.815,95h72.369c2.032,0,3.685-1.653,3.685-3.685V8.685C89.869,6.653,88.217,5,86.185,5H13.815    c-2.032,0-3.685,1.653-3.685,3.685v82.631C10.131,93.347,11.783,95,13.815,95z M41.029,24.862    c-1.451,1.314-3.585,1.978-6.348,1.978c-1.246,0-2.463-0.071-3.444-0.212l-0.637-0.092V11.723l0.613-0.108    c1.097-0.191,2.604-0.298,4.088-0.298c2.53,0,4.275,0.507,5.658,1.643c1.577,1.275,2.414,3.272,2.414,5.771    C43.374,22.014,42.099,23.878,41.029,24.862z M56.341,26.846l-10.727-0.026V11.503l4.419,0.062v11.262h6.308V26.846z     M69.399,26.876l-10.807,0.018V11.551h4.488v11.281h6.318V26.876z M84.736,32.346l-0.002,57.521H15.269l-0.012-57.521H84.736z" fill="#B63B34"/><path d="M35.603,15.194c-0.219,0-0.402,0.008-0.556,0.02v7.707c0.09,0,0.178,0,0.255,0l0.05,0.001    c1.1,0,1.953-0.319,2.536-0.949c0.636-0.688,0.958-1.744,0.958-3.14c0.008-1.249-0.299-2.192-0.912-2.81    C37.388,15.474,36.603,15.194,35.603,15.194z" fill="#B63B34"/></g></g></svg>