<?xml version="1.0" ?><!DOCTYPE svg  PUBLIC '-//W3C//DTD SVG 1.1//EN'  'http://www.w3.org/Graphics/SVG/1.1/DTD/svg11.dtd'><svg enable-background="new 0 0 100 100" height="100px" id="Layer_1" version="1.1" viewBox="0 0 100 100" width="100px" xml:space="preserve" xmlns="http://www.w3.org/2000/svg" xmlns:xlink="http://www.w3.org/1999/xlink"><g><path d="M89.869,91.315V8.685C89.869,6.653,88.217,5,86.185,5H13.815c-2.032,0-3.685,1.653-3.685,3.685v82.631   c0,2.031,1.652,3.685,3.685,3.685h72.369C88.217,95,89.869,93.347,89.869,91.315z M84.731,89.866h-43.87V68.731h4.997   c0.726,0,1.314-0.587,1.314-1.314V62.42h37.564L84.731,89.866z M34.55,56.108h3.682v3.683H34.55V56.108z M38.231,62.42v3.683H34.55   V62.42H38.231z M40.861,56.108h3.681v3.683h-3.681V56.108z M44.542,62.42v3.683h-3.681V62.42H44.542z M15.266,89.866L15.265,62.42   H31.92v4.997c0,0.728,0.589,1.314,1.314,1.314h4.997v21.135H15.266z M15.264,32.346h22.968v21.133h-4.997   c-0.726,0-1.314,0.589-1.314,1.315v4.997H15.265L15.264,32.346z M37.758,24.91c-1.456,1.317-3.598,1.983-6.37,1.983   c-1.249,0-2.471-0.071-3.456-0.213l-0.639-0.092V11.724l0.616-0.108c1.1-0.192,2.612-0.299,4.102-0.299   c2.538,0,4.289,0.508,5.678,1.647c1.583,1.281,2.422,3.285,2.422,5.792C40.11,22.051,38.831,23.922,37.758,24.91z M55.767,26.806   h-3.9l-1.976-8.076l-1.971,8.076h-3.965l-3.377-15.401h4.152l1.4,6.951l1.7-6.951h4.229l1.616,7.013l1.416-7.013h4.11   L55.767,26.806z M72.707,24.318l-0.221,0.232c-0.6,0.631-1.458,1.186-2.552,1.647c-1.091,0.462-2.214,0.695-3.338,0.695   c-1.442,0-2.727-0.339-3.814-1.009c-1.103-0.677-1.939-1.654-2.489-2.903c-0.529-1.2-0.796-2.52-0.796-3.922   c0-1.525,0.301-2.907,0.896-4.107c0.612-1.236,1.523-2.199,2.706-2.86c0.912-0.514,2.044-0.775,3.363-0.775   c1.722,0,3.106,0.416,4.116,1.235c0.963,0.783,1.601,1.856,1.904,3.188l-4.069,0.872c-0.137-0.399-0.346-0.717-0.645-0.955   c-0.34-0.271-0.768-0.401-1.307-0.401c-0.856,0-1.511,0.278-2.001,0.852c-0.515,0.604-0.775,1.559-0.775,2.843   c0,1.405,0.269,2.448,0.8,3.099c0.498,0.611,1.136,0.907,1.951,0.907c0.414,0,0.839-0.092,1.264-0.272   c0.323-0.137,0.614-0.295,0.869-0.472v-0.516H65.7v-3.882h7.007V24.318z M84.743,32.346l-0.006,27.445H47.173v-4.997   c0-0.727-0.589-1.315-1.314-1.315h-4.997V32.346H84.743z" fill="#2A58D6"/><path d="M32.312,15.208c-0.219,0-0.403,0.008-0.558,0.02v7.732c0.091,0.002,0.18,0.002,0.257,0.002h0.05   c1.104,0,1.96-0.321,2.544-0.953c0.639-0.69,0.962-1.75,0.962-3.149c0.008-1.253-0.3-2.2-0.915-2.819   C34.104,15.488,33.315,15.208,32.312,15.208z" fill="#2A58D6"/></g></svg>