<?xml version="1.0" ?><!DOCTYPE svg  PUBLIC '-//W3C//DTD SVG 1.1//EN'  'http://www.w3.org/Graphics/SVG/1.1/DTD/svg11.dtd'><svg enable-background="new 0 0 100 100" height="100px" id="Layer_1" version="1.1" viewBox="0 0 100 100" width="100px" xml:space="preserve" xmlns="http://www.w3.org/2000/svg" xmlns:xlink="http://www.w3.org/1999/xlink"><g><g><path d="M27.505,45.455l22.234,19.109c0.144,0.125,0.378,0.125,0.521,0l22.234-19.109    c0.145-0.124,0.11-0.225-0.076-0.225H27.581C27.395,45.23,27.36,45.331,27.505,45.455z" fill="#0462C2"/><path d="M57.351,61.423l16.618,14.106c0.144,0.124,0.262,0.063,0.262-0.134V46.822    c0-0.196-0.117-0.256-0.261-0.132L57.349,60.976C57.205,61.1,57.205,61.3,57.351,61.423z" fill="#0462C2"/><path d="M26.031,75.529l16.618-14.106c0.146-0.123,0.146-0.323,0.002-0.447L26.03,46.69    c-0.144-0.124-0.261-0.064-0.261,0.132v28.573C25.77,75.593,25.888,75.653,26.031,75.529z" fill="#0462C2"/><path d="M72.481,76.759L55.873,62.66c-0.146-0.123-0.38-0.123-0.524,0.001l-5.088,4.372    c-0.144,0.124-0.378,0.124-0.521,0l-5.088-4.372c-0.145-0.124-0.379-0.124-0.524-0.001L27.519,76.759    c-0.145,0.123-0.112,0.223,0.074,0.223h44.814C72.594,76.981,72.626,76.882,72.481,76.759z" fill="#0462C2"/></g><path d="M13.815,95h72.369c2.032,0,3.685-1.653,3.685-3.685V8.685C89.869,6.653,88.217,5,86.185,5H13.815   c-2.032,0-3.685,1.653-3.685,3.685v82.631C10.131,93.347,11.783,95,13.815,95z M39.977,26.894H28.414V11.316h11.318v3.97h-6.924   v1.491h6.441v3.96h-6.441v2.196h7.168V26.894z M53.742,26.894l-0.216-6.067c-0.006-0.163-0.011-0.336-0.018-0.517   c-0.037,0.127-0.074,0.253-0.112,0.376l-1.712,5.98h-3.414l-1.462-5.775l-0.26,6.003h-4.196l0.906-15.46h5.144l1.405,5.216   c0.16,0.648,0.305,1.252,0.436,1.821c0.152-0.616,0.313-1.241,0.474-1.843l1.534-5.194h5.06l0.779,15.46H53.742z M71.586,26.894   H60.75V11.432h4.395v11.502h6.441V26.894z M84.736,32.346l-0.002,57.521H15.269l-0.012-57.521H84.736z" fill="#0462C2"/></g></svg>