<?xml version="1.0" ?><!DOCTYPE svg  PUBLIC '-//W3C//DTD SVG 1.1//EN'  'http://www.w3.org/Graphics/SVG/1.1/DTD/svg11.dtd'><svg enable-background="new 0 0 100 100" height="100px" id="Layer_1" version="1.1" viewBox="0 0 100 100" width="100px" xml:space="preserve" xmlns="http://www.w3.org/2000/svg" xmlns:xlink="http://www.w3.org/1999/xlink"><g><g><path d="M13.815,95h72.369c2.032,0,3.685-1.653,3.685-3.685V8.685C89.869,6.653,88.217,5,86.185,5H13.815    c-2.032,0-3.685,1.653-3.685,3.685v82.631C10.131,93.347,11.783,95,13.815,95z M42.003,26.8H31.039V11.772h10.728v3.83h-6.679    v1.438h6.214v3.819h-6.214v2.119h6.915V26.8z M56.742,19.015c-0.38,0.648-0.873,1.173-1.475,1.545    c-0.58,0.37-1.184,0.61-1.795,0.739c-0.767,0.139-1.824,0.198-3.219,0.198h-1.196v5.029h-4.421V11.865h5.474    c1.883,0,3.094,0.08,3.71,0.229c0.99,0.229,1.83,0.75,2.497,1.536c0.668,0.786,1,1.795,1,3    C57.317,17.556,57.126,18.359,56.742,19.015z M65.359,17.123c2.437,1.014,3.572,2.517,3.572,4.729    c0,2.284-1.558,5.041-5.691,5.041c-1.527,0-3.461-0.54-4.24-1.024l-0.457-0.284l0.644-3.914l1.01,0.584    c0.596,0.343,1.985,0.725,3.024,0.725c0.685,0,1.168-0.389,1.168-0.91c0-0.213,0-0.536-1.485-1.135    c-2.498-0.979-3.767-2.559-3.767-4.695c0-2.846,2.271-4.923,5.392-4.923c1.423,0,3.011,0.429,3.845,0.852l0.588,0.299    l-1.045,3.784l-0.893-0.483c-0.384-0.208-1.367-0.537-2.369-0.537c-0.749,0-0.92,0.553-0.92,0.751    C63.734,16.232,63.734,16.43,65.359,17.123z M84.736,32.346l-0.002,57.521H15.269l-0.012-57.521H84.736z" fill="#CC0000"/><path d="M51.749,15.544c-0.212-0.034-0.733-0.077-1.998-0.077h-0.693v2.433h0.885c1.452,0,1.934-0.116,2.073-0.16    c0.255-0.094,0.443-0.233,0.587-0.418c0.134-0.184,0.205-0.395,0.205-0.649c0-0.318-0.096-0.555-0.278-0.743    C52.326,15.719,52.072,15.598,51.749,15.544z" fill="#CC0000"/></g><path d="M71.859,51.858c-6.453-5.547-15.541-6.894-23.358-3.405l8.239-8.24c0.651,0.309,1.454,0.195,1.992-0.343   c0.685-0.684,0.685-1.797,0-2.481c-0.684-0.685-1.798-0.685-2.482,0c-0.538,0.538-0.65,1.341-0.342,1.992L44.574,50.715   c-0.041,0.03-0.081,0.061-0.122,0.092l-0.035,0.026h-4.69l0.001,4.689L39.7,55.559c-0.03,0.04-0.062,0.08-0.091,0.121   L28.275,67.014c-0.651-0.309-1.455-0.195-1.993,0.343c-0.685,0.685-0.684,1.798,0,2.482c0.685,0.685,1.798,0.685,2.482,0   c0.538-0.538,0.651-1.342,0.343-1.993l8.239-8.239c-3.488,7.818-2.141,16.905,3.406,23.359v2.371h3.51v-3.511h-2.195   c-6.135-7.157-6.558-17.808-0.824-25.433h4.045V52.35c7.624-5.734,18.275-5.311,25.433,0.823v2.195l3.51,0.001v-3.511H71.859z    M44.108,55.215h-3.202v-3.202h3.202V55.215z" fill="#CC0000"/></g></svg>