<?xml version="1.0" ?><!DOCTYPE svg  PUBLIC '-//W3C//DTD SVG 1.1//EN'  'http://www.w3.org/Graphics/SVG/1.1/DTD/svg11.dtd'><svg enable-background="new 0 0 100 100" height="100px" id="Layer_1" version="1.1" viewBox="0 0 100 100" width="100px" xml:space="preserve" xmlns="http://www.w3.org/2000/svg" xmlns:xlink="http://www.w3.org/1999/xlink"><g><path d="M13.815,95h72.369c2.032,0,3.685-1.653,3.685-3.685V8.685C89.869,6.653,88.217,5,86.185,5H13.815   c-2.032,0-3.685,1.653-3.685,3.685v82.631C10.131,93.347,11.783,95,13.815,95z M40.271,26.894H28.905V11.316h11.12v3.97h-6.923   v1.491h6.441v3.96h-6.441v2.196h7.168V26.894z M52.144,26.894l-2.217-3.768l-2.226,3.768h-5.313l4.865-8.089L42.8,11.316h5.234   l1.936,3.376l1.896-3.376h5.204L52.61,18.9l4.878,7.993H52.144z M71.095,26.894H59.729V11.316h11.12v3.97h-6.923v1.491h6.441v3.96   h-6.441v2.196h7.168V26.894z M84.736,32.346l-0.002,57.521H15.269l-0.012-57.521H84.736z" fill="#0765D6"/><g><g><path d="M54.637,63.908c-0.258,0.097-7.963-7.601-7.864-7.854c0.207-0.537,0.388-2.544-0.583-3.515     c-0.973-0.973-1.783-1.646-3.163-1.646c-0.383,0-0.772,0.054-1.166,0.155c-0.131,0.035-0.157,0.148-0.063,0.245     c0,0,1.477,1.565,2.225,2.412c0.181,0.206,0.149,0.548-0.044,0.743l-1.202,1.236c-0.191,0.196-0.53,0.227-0.735,0.043     c-0.853-0.758-2.437-2.284-2.437-2.284c-0.098-0.097-0.207-0.069-0.242,0.062c-0.118,0.454-0.179,0.864-0.179,1.232     c0,1.378,0.671,2.184,1.645,3.151c0.97,0.964,2.975,0.783,3.51,0.588c0.257-0.097,7.963,7.6,7.863,7.853     c-0.207,0.538-0.388,2.544,0.584,3.516c0.974,0.974,1.782,1.645,3.162,1.645c0.384,0,0.772-0.053,1.166-0.154     c0.132-0.035,0.158-0.149,0.063-0.246c0,0-1.477-1.564-2.224-2.412c-0.179-0.204-0.149-0.546,0.043-0.743l1.202-1.236     c0.191-0.194,0.529-0.225,0.736-0.041c0.852,0.758,2.436,2.284,2.436,2.284c0.098,0.097,0.208,0.068,0.243-0.062     c0.117-0.455,0.178-0.865,0.178-1.232c0-1.38-0.671-2.186-1.645-3.152C57.176,63.531,55.171,63.711,54.637,63.908z" fill="#0765D6"/><path d="M47.851,62.916c-0.073-0.074-0.17-0.114-0.272-0.113c-0.103,0-0.199,0.042-0.271,0.115l-3.345,3.341     l-0.651,0.136c-0.415,0.088-1.071,0.661-1.495,1.305l-1.027,1.559c-0.223,0.334-0.441,0.854-0.513,1.027     c-0.008,0.018-0.014,0.032-0.018,0.039c-0.146,0.252-0.105,0.56,0.102,0.766c0.041,0.043,0.089,0.079,0.141,0.11     c0.238,0.138,0.597,0.156,0.807,0.039c0.273-0.086,0.626-0.263,0.975-0.488l1.556-1.028c0.642-0.42,1.216-1.077,1.305-1.497     l0.137-0.65l3.34-3.344c0.073-0.07,0.114-0.166,0.115-0.27c0-0.104-0.04-0.202-0.114-0.277L47.851,62.916z" fill="#0765D6"/><path d="M56.058,51.218c0,0-5.502,5.507-6.416,6.422c-0.1,0.099-0.1,0.261,0.002,0.359l0.87,0.875     c0.101,0.099,0.261,0.099,0.358,0l5.13-5.129c0.128-0.136,0.342-0.136,0.474,0c0.13,0.129,0.13,0.338,0,0.475l-5.127,5.125     c-0.1,0.097-0.1,0.256,0,0.356l0.486,0.491c0.1,0.101,0.258,0.1,0.357,0l5.128-5.129c0.13-0.132,0.343-0.132,0.475,0     c0.13,0.129,0.13,0.344,0,0.475l-5.128,5.128c-0.1,0.1-0.1,0.261,0,0.358l0.871,0.872c0.1,0.1,0.26,0.1,0.359,0     c0.917-0.915,6.422-6.417,6.422-6.417c0.918-0.915,0.446-2.875-0.47-3.791C58.934,50.771,56.974,50.299,56.058,51.218z" fill="#0765D6"/></g><path d="M74.23,64.957v-7.702l-4.575-0.539c-0.515-2.306-1.425-4.464-2.657-6.398l2.858-3.622l-5.446-5.446    l-3.622,2.858c-1.935-1.231-4.093-2.143-6.397-2.657l-0.54-4.575h-7.702l-0.539,4.575c-2.305,0.515-4.463,1.426-6.397,2.657    l-3.623-2.858l-5.446,5.446l2.859,3.622c-1.232,1.935-2.143,4.093-2.657,6.398l-4.575,0.539v7.702l4.575,0.539    c0.515,2.306,1.425,4.463,2.657,6.397l-2.859,3.623l5.446,5.446l3.623-2.859c1.935,1.232,4.092,2.144,6.397,2.658l0.539,4.575    h7.702l0.54-4.575c2.306-0.515,4.463-1.426,6.397-2.658l3.622,2.859l5.446-5.446l-2.858-3.623    c1.232-1.935,2.143-4.092,2.657-6.397L74.23,64.957z M50,77.548c-9.065,0-16.442-7.376-16.442-16.442    c0-9.065,7.377-16.441,16.442-16.441s16.442,7.376,16.442,16.441C66.442,70.172,59.065,77.548,50,77.548z" fill="#0765D6"/></g></g></svg>