<?xml version="1.0" ?><!DOCTYPE svg  PUBLIC '-//W3C//DTD SVG 1.1//EN'  'http://www.w3.org/Graphics/SVG/1.1/DTD/svg11.dtd'><svg enable-background="new 0 0 100 100" height="100px" id="Layer_1" version="1.1" viewBox="0 0 100 100" width="100px" xml:space="preserve" xmlns="http://www.w3.org/2000/svg" xmlns:xlink="http://www.w3.org/1999/xlink"><g><g><path d="M13.815,95h72.369c2.032,0,3.685-1.653,3.685-3.685V8.685C89.869,6.653,88.217,5,86.185,5H13.815    c-2.032,0-3.685,1.653-3.685,3.685v82.631C10.131,93.347,11.783,95,13.815,95z M39.981,15.286h-6.206v1.898h5.752v3.772h-5.752    v5.937h-4.394V11.316h10.6V15.286z M53.766,26.894H42.732V11.431h4.395v11.503h6.639V26.894z M66.232,26.894l-1.134-3.213h-4.172    l-1.072,3.213h-4.496l5.572-15.577h3.959l5.729,15.577H66.232z M84.736,32.346l-0.002,57.521H15.269l-0.012-57.521H84.736z" fill="#CE1630"/><polygon fill="#CE1630" points="62.213,19.865 63.762,19.865 62.979,17.57   "/></g><path d="M66.002,49.224l-0.001-8.021C60.255,41.303,55.479,43.583,52,47.971c-2.819,3.551-4.498,7.944-6.119,12.186   C42.71,68.457,40.42,73.14,33.998,72.983l0.011,8.019c0.176,0.006,0.319,0.008,0.492,0.008c5.32,0,9.673-2.072,12.943-6.163   c2.265-2.834,3.782-6.309,5.148-9.804h9.48V57.02h-6.215C58.17,52.157,60.793,49.314,66.002,49.224z" fill="#CE1630"/></g></svg>