<?xml version="1.0" ?><!DOCTYPE svg  PUBLIC '-//W3C//DTD SVG 1.1//EN'  'http://www.w3.org/Graphics/SVG/1.1/DTD/svg11.dtd'><svg enable-background="new 0 0 100 100" height="100px" id="Layer_1" version="1.1" viewBox="0 0 100 100" width="100px" xml:space="preserve" xmlns="http://www.w3.org/2000/svg" xmlns:xlink="http://www.w3.org/1999/xlink"><g><g><path d="M25.77,41.996v38.22c0,0.687,0.562,1.249,1.249,1.249h45.963c0.688,0,1.249-0.563,1.249-1.249v-38.22    c0-0.688-0.562-1.249-1.249-1.249H27.019C26.331,40.747,25.77,41.309,25.77,41.996z M70.013,74.718c0.105,0,0.19,0.083,0.19,0.186    v4.007c0,0.102-0.085,0.185-0.19,0.185h-4.429c-0.105,0-0.19-0.083-0.19-0.185v-4.007c0-0.103,0.085-0.186,0.19-0.186H70.013z     M61.27,74.718c0.105,0,0.19,0.083,0.19,0.186v4.007c0,0.102-0.085,0.185-0.19,0.185h-4.429c-0.104,0-0.189-0.083-0.189-0.185    v-4.007c0-0.103,0.085-0.186,0.189-0.186H61.27z M51.902,74.718c0.104,0,0.189,0.083,0.189,0.186v4.007    c0,0.102-0.085,0.185-0.189,0.185h-4.43c-0.104,0-0.189-0.083-0.189-0.185v-4.007c0-0.103,0.085-0.186,0.189-0.186H51.902z     M43.159,74.718c0.104,0,0.189,0.083,0.189,0.186v4.007c0,0.102-0.085,0.185-0.189,0.185h-4.43c-0.104,0-0.189-0.083-0.189-0.185    v-4.007c0-0.103,0.085-0.186,0.189-0.186H43.159z M34.416,74.718c0.105,0,0.19,0.083,0.19,0.186v4.007    c0,0.102-0.085,0.185-0.19,0.185h-4.429c-0.105,0-0.19-0.083-0.19-0.185v-4.007c0-0.103,0.085-0.186,0.19-0.186H34.416z     M70.473,49.864c0.105,0,0.19,0.085,0.19,0.19v22.103c0,0.104-0.085,0.189-0.19,0.189H29.527c-0.104,0-0.19-0.085-0.19-0.189    V50.055c0-0.105,0.086-0.19,0.19-0.19H70.473z M70.013,43.158c0.105,0,0.19,0.083,0.19,0.186v4.007    c0,0.103-0.085,0.185-0.19,0.185h-4.429c-0.105,0-0.19-0.082-0.19-0.185v-4.007c0-0.103,0.085-0.186,0.19-0.186H70.013z     M61.27,43.158c0.105,0,0.19,0.083,0.19,0.186v4.007c0,0.103-0.085,0.185-0.19,0.185h-4.429c-0.104,0-0.189-0.082-0.189-0.185    v-4.007c0-0.103,0.085-0.186,0.189-0.186H61.27z M51.902,43.158c0.104,0,0.189,0.083,0.189,0.186v4.007    c0,0.103-0.085,0.185-0.189,0.185h-4.43c-0.104,0-0.189-0.082-0.189-0.185v-4.007c0-0.103,0.085-0.186,0.189-0.186H51.902z     M43.159,43.158c0.104,0,0.189,0.083,0.189,0.186v4.007c0,0.103-0.085,0.185-0.189,0.185h-4.43c-0.104,0-0.189-0.082-0.189-0.185    v-4.007c0-0.103,0.085-0.186,0.189-0.186H43.159z M34.416,43.158c0.105,0,0.19,0.083,0.19,0.186v4.007    c0,0.103-0.085,0.185-0.19,0.185h-4.429c-0.105,0-0.19-0.082-0.19-0.185v-4.007c0-0.103,0.085-0.186,0.19-0.186H34.416z" fill="#A70B07"/><path d="M57.869,60.593l-12.004-6.565c-0.598-0.297-1.088,0.005-1.088,0.671v12.873c0,0.668,0.49,0.968,1.088,0.67    l12.004-6.563C58.468,61.38,58.468,60.892,57.869,60.593z" fill="#A70B07"/></g><path d="M13.815,95h72.369c2.032,0,3.685-1.653,3.685-3.685V8.685C89.869,6.652,88.217,5,86.185,5H13.815   c-2.032,0-3.685,1.652-3.685,3.685v82.631C10.131,93.347,11.783,95,13.815,95z M41.439,15.287h-6.206v1.701h5.356v3.97h-5.356   v5.937H30.67V11.317h10.77V15.287z M55.458,26.895H44.453V11.433h4.563v11.502h6.441V26.895z M64.206,26.895h-4.203l-5.114-15.577   h4.783l2.645,8.423l2.56-8.423h4.454L64.206,26.895z M84.736,32.346l-0.002,57.521H15.269l-0.012-57.521H84.736z" fill="#A70B07"/></g></svg>