<?xml version="1.0" ?><!DOCTYPE svg  PUBLIC '-//W3C//DTD SVG 1.1//EN'  'http://www.w3.org/Graphics/SVG/1.1/DTD/svg11.dtd'><svg enable-background="new 0 0 100 100" height="100px" id="Layer_1" version="1.1" viewBox="0 0 100 100" width="100px" xml:space="preserve" xmlns="http://www.w3.org/2000/svg" xmlns:xlink="http://www.w3.org/1999/xlink"><g><path d="M13.815,95h72.369c2.032,0,3.685-1.653,3.685-3.685V8.685C89.869,6.653,88.217,5,86.185,5H13.815   c-2.032,0-3.685,1.653-3.685,3.685v82.631C10.131,93.347,11.783,95,13.815,95z M46.028,24.318l-0.221,0.233   c-0.6,0.631-1.457,1.185-2.551,1.646c-1.091,0.462-2.215,0.695-3.339,0.695c-1.442,0-2.726-0.339-3.814-1.008   c-1.102-0.678-1.939-1.654-2.489-2.904c-0.528-1.199-0.796-2.519-0.796-3.922c0-1.525,0.301-2.907,0.896-4.107   c0.613-1.236,1.523-2.198,2.706-2.86c0.912-0.514,2.044-0.775,3.363-0.775c1.722,0,3.107,0.416,4.116,1.235   c0.963,0.783,1.601,1.856,1.905,3.188l-4.069,0.873c-0.138-0.399-0.347-0.718-0.646-0.956c-0.339-0.271-0.768-0.401-1.307-0.401   c-0.856,0-1.511,0.278-2.001,0.852c-0.516,0.604-0.776,1.56-0.776,2.843c0,1.405,0.27,2.448,0.801,3.099   c0.498,0.611,1.136,0.908,1.951,0.908c0.414,0,0.839-0.092,1.264-0.273c0.323-0.137,0.614-0.295,0.869-0.472v-0.515h-2.869v-3.883   h7.007V24.318z M53.681,26.894h-4.574V11.59h4.574V26.894z M67.182,15.49h-6.097v1.864h5.65v3.707h-5.65v5.832h-4.317V11.59h10.414   V15.49z M84.736,32.346l-0.002,57.521H15.269l-0.012-57.521H84.736z" fill="#7E3C1A"/><g><path d="M34.081,52.621c1.947,0,3.531-1.58,3.531-3.529c0-1.952-1.584-3.533-3.531-3.533    c-1.951,0-3.53,1.581-3.53,3.533C30.551,51.041,32.13,52.621,34.081,52.621z" fill="#7E3C1A"/><path d="M24.953,74.187l44.38,7.825c0.505,0.089,0.986-0.25,1.076-0.755l5.538-31.41    c0.09-0.506-0.248-0.988-0.754-1.076l-4.232-0.747v-6.907c0-0.514-0.416-0.931-0.93-0.931H24.968c-0.514,0-0.93,0.417-0.93,0.931    v31.979C24.038,73.61,24.448,74.099,24.953,74.187z M27.265,44.343c0-0.514,0.417-0.929,0.931-0.929h38.608    c0.513,0,0.928,0.415,0.928,0.929v25.443c0,0.513-0.415,0.929-0.928,0.929H28.195c-0.514,0-0.931-0.416-0.931-0.929V44.343z" fill="#7E3C1A"/><path d="M66.043,68.126l-7.935-11.544c-0.29-0.422-0.761-0.422-1.052,0l-2.726,3.971    c-0.291,0.424-0.724,0.4-0.967-0.051l-5.425-10.059c-0.122-0.226-0.281-0.339-0.441-0.339l0,0l0,0l0,0l0,0    c-0.16,0-0.319,0.113-0.44,0.339l-5.426,10.059c-0.243,0.451-0.675,0.475-0.967,0.051l-2.727-3.971    c-0.289-0.422-0.761-0.422-1.051,0l-7.935,11.544c-0.29,0.422-0.111,0.766,0.403,0.766h18.142l0,0h18.143    C66.153,68.892,66.333,68.548,66.043,68.126z" fill="#7E3C1A"/></g></g></svg>