<?xml version="1.0" encoding="utf-8"?>
<!-- Generator: Adobe Illustrator 26.5.0, SVG Export Plug-In . SVG Version: 6.00 Build 0)  -->
<svg version="1.1" id="레이어_1" xmlns="http://www.w3.org/2000/svg" xmlns:xlink="http://www.w3.org/1999/xlink" x="0px"
	 y="0px" viewBox="0 0 216 221" enable-background="new 0 0 216 221" xml:space="preserve">
<g transform="translate(-1125 -99)">
	<path fill-rule="evenodd" clip-rule="evenodd" fill="#17476C" d="M1241,199.8v9c-0.4,0.3-0.8,0.6-1,1v-9
		C1240.2,200.5,1240.6,200.2,1241,199.8"/>
	<path fill-rule="evenodd" clip-rule="evenodd" fill="#17476C" d="M1241,200.8v9.5c-0.4,0.2-0.7,0.3-1,0.5v-9.5
		C1240.3,201.2,1240.6,201,1241,200.8"/>
	<path fill-rule="evenodd" clip-rule="evenodd" fill="#2F6EAB" d="M1286.5,207.8c7.5,0,13.9,0.6,19.2,1.4
		c11.3,1.9,17.3,5.1,17.3,7.1c0,2-6,5.2-17.3,7c-5.3,0.9-11.7,1.4-19.2,1.4c-23.6,0-36.5-5.6-36.5-8.5
		C1250,213.5,1262.8,207.8,1286.5,207.8z"/>
	<path fill-rule="evenodd" clip-rule="evenodd" fill="#17476C" d="M1324,216.8v9.8c0,0-1,0.1-1,0.2V217
		C1323,216.9,1324,216.9,1324,216.8"/>
	<path fill-rule="evenodd" clip-rule="evenodd" fill="#17476C" d="M1324,216.8v9.8c-0.2,0.1-0.6,0.2-1,0.2v-9.8
		C1323.4,217,1323.8,216.9,1324,216.8"/>
	<path fill-rule="evenodd" clip-rule="evenodd" fill="#17476C" d="M1323,216.8v9.7c-0.3,0.1-0.6,0.2-1,0.3v-9.7
		C1322.3,217,1322.7,216.9,1323,216.8"/>
	<path fill-rule="evenodd" clip-rule="evenodd" fill="#17476C" d="M1322,217.5v9.6c-1.1,2-6.9,4.7-16.9,6.4
		c-5.2,0.9-11.5,1.4-19,1.4c-23.4,0-36.1-5.6-36.1-8.4v-9.6c0,2.9,12.7,8.4,36.1,8.4c7.4,0,13.8-0.5,19-1.4
		C1315.1,222.2,1320.9,219.5,1322,217.5"/>
	<path fill-rule="evenodd" clip-rule="evenodd" fill="#17476C" d="M1324,291.8v9.8c0,0.1-0.6,0.2-1,0.2v-9.8
		C1323.4,292,1324,291.9,1324,291.8"/>
	<path fill-rule="evenodd" clip-rule="evenodd" fill="#17476C" d="M1324,291.8v9.7c-0.1,0.1-0.5,0.2-1,0.3v-9.7
		C1323.5,292,1323.9,291.9,1324,291.8"/>
	<path fill-rule="evenodd" clip-rule="evenodd" fill="#17476C" d="M1324,291.8v9.6c-0.2,0.1-0.6,0.3-1,0.4v-9.6
		C1323.4,292.1,1323.8,292,1324,291.8"/>
	<path fill-rule="evenodd" clip-rule="evenodd" fill="#17476C" d="M1323,292.8v9.5c-1.7,3-12.1,7.5-34.3,7.5
		c-13.3,0-24.1-1.7-30.7-3.6v-9.5c6.6,1.9,17.3,3.6,30.7,3.6C1310.9,300.4,1321.3,295.9,1323,292.8"/>
	<path fill-rule="evenodd" clip-rule="evenodd" fill="#17476C" d="M1156,296.2v8.7c-7.2,0-13-5.9-13-13.3v-8.7
		C1143,290.2,1148.8,296.2,1156,296.2"/>
	<path fill-rule="evenodd" clip-rule="evenodd" fill="#17476C" d="M1245,295.8v8.9l-89,0.1V296L1245,295.8z"/>
	<path fill-rule="evenodd" clip-rule="evenodd" fill="#2F6EAB" d="M1322.4,196.8c-13.1-4.5-34.5-4.7-40.7-4.6
		c-17.9,0.2-38.3,4.5-41.7,9.7l-0.1,1.1l0,3.2l0,84.9c0,1.6,3.3,3.3,4.7,4.6l-88.8,0.1c-7.6,0-13.8-6.1-13.8-13.7V128.5
		c0-7.5,6.2-13.6,13.8-13.6l153.4,0c7.6,0,13.8,6.1,13.8,13.7"/>
	<path fill-rule="evenodd" clip-rule="evenodd" fill="#2F6EAB" d="M1323,232.8l0,58.5c0,3-10.1,8.5-34.4,8.5
		c-13.3,0-23.4-1.6-29.9-3.5c-4.9-1.6-8.3-3.4-8.7-4.7v-58.2c7.1,4.4,21.7,6.7,36.2,6.7h0.9c1.5-0.1,3-0.1,4.5-0.1l0.6-0.1
		c1.3,0,2.5-0.1,3.7-0.2c0.6,0,1.2-0.1,1.8-0.2c1-0.1,1.9-0.1,2.9-0.2c0.6-0.1,1-0.1,1.5-0.2c1.1-0.1,2-0.2,3.1-0.4
		C1313,237.5,1319.2,235.3,1323,232.8z"/>
	<path fill-rule="evenodd" clip-rule="evenodd" fill="#FFFFFF" d="M1171.5,128.8c-8,0-11.5,5.3-11.5,17c0,11.7,3.5,17,11.5,17
		s11.5-5.3,11.5-17C1183,134.2,1179.5,128.8,1171.5,128.8z M1171.5,158.9c-3.3,0-5.9-1.9-5.9-13.2c0-11,2.6-12.9,5.9-12.9
		c3.3,0,5.9,1.9,5.9,12.9C1177.4,157,1174.8,158.9,1171.5,158.9z"/>
	<path fill-rule="evenodd" clip-rule="evenodd" fill="#FFFFFF" d="M1208.4,160c-0.1-2-0.1-4.6-0.2-6.7c-0.2-4.6-2-6.4-5.3-6.8v-0.1
		c3.7-0.6,5.7-3.8,5.7-8.1c0-6.2-3.9-8.5-8.6-8.5H1188v33h5.4v-14.3h4.4c3.7,0,4.8,1.6,4.9,5.2c0.1,2.4,0,4.3,0.2,6.2
		c0.1,1.3,0.4,2.3,0.9,2.9h6.1C1209.3,162.4,1208.5,161.6,1208.4,160z M1197.7,144.6h-4.3v-10.7h4.6c3.6,0,5.1,1.8,5.1,5.4
		C1203.1,142.5,1201.2,144.6,1197.7,144.6z"/>
	<path fill-rule="evenodd" clip-rule="evenodd" fill="#FFFFFF" d="M1220.4,129.8l-9.5,33h5.5l2.1-8.1h9.7l2,8.1h5.5l-8.8-33H1220.4z
		 M1219.6,150.6l4-16.3h0.1l3.8,16.3H1219.6z"/>
	<path fill-rule="evenodd" clip-rule="evenodd" fill="#FFFFFF" d="M1260,150.5h-5.5v0.5c0,3-0.5,7.9-5.1,7.9
		c-4.1,0-5.9-2.7-5.9-13.2c0-10.6,1.8-12.9,5.9-12.9c4-0.1,4.9,3.4,4.9,6.4v0.5h5.5v-0.6c0-3.4-0.6-10.3-10.4-10.3
		c-8.7,0-11.4,5.3-11.4,17c0,11.7,2.7,17,11.4,17c8.1,0,10.6-5.8,10.6-11.7V150.5z"/>
	<path fill-rule="evenodd" clip-rule="evenodd" fill="#FFFFFF" d="M1282,158.4h-12.7v-28.6h-5.3v33h18V158.4z"/>
	<path fill-rule="evenodd" clip-rule="evenodd" fill="#FFFFFF" d="M1304,158.4h-12.8v-10.5h11.7v-4.4h-11.7v-9.2h12.4v-4.4H1286v33
		h18V158.4z"/>
	<rect x="1156" y="124.8" fill="#2F6EAB" width="152" height="50"/>
	<text transform="matrix(1 0 0 1 1172.7871 171.8482)" fill="#FFFFFF" font-family="'Arial-Black'" font-size="50px">Hive</text>
	<text transform="matrix(1 0 0 1 1268.0249 284.8482)" fill="#FFFFFF" font-family="'Arial-BoldMT'" font-size="50px">T</text>
</g>
</svg>
