<?xml version="1.0" ?><!DOCTYPE svg  PUBLIC '-//W3C//DTD SVG 1.1//EN'  'http://www.w3.org/Graphics/SVG/1.1/DTD/svg11.dtd'><svg enable-background="new 0 0 100 100" height="100px" id="Layer_1" version="1.1" viewBox="0 0 100 100" width="100px" xml:space="preserve" xmlns="http://www.w3.org/2000/svg" xmlns:xlink="http://www.w3.org/1999/xlink"><g><path d="M50,37.741c-12.884,0-23.365,10.481-23.365,23.366c0,12.884,10.481,23.365,23.365,23.365   S73.365,73.99,73.365,61.106C73.365,48.222,62.884,37.741,50,37.741z M66.046,45.061l-8.259,8.256   c-1.995-1.995-4.75-3.231-7.787-3.231s-5.792,1.236-7.787,3.231l-8.258-8.257c4.11-4.11,9.786-6.656,16.045-6.656   C56.26,38.404,61.936,40.951,66.046,45.061z M39.644,61.106c0-5.71,4.646-10.357,10.356-10.357s10.356,4.647,10.356,10.357   c0,5.711-4.646,10.357-10.356,10.357S39.644,66.817,39.644,61.106z M50,83.81c-6.259,0-11.935-2.546-16.045-6.657l8.258-8.256   c1.995,1.995,4.75,3.23,7.787,3.23s5.792-1.235,7.787-3.23l8.259,8.256C61.936,81.264,56.26,83.81,50,83.81z" fill="#CC0000"/><g><path d="M13.815,95h72.369c2.032,0,3.685-1.653,3.685-3.686V8.685C89.869,6.653,88.217,5,86.185,5H13.815    c-2.032,0-3.685,1.653-3.685,3.685v82.63C10.131,93.347,11.783,95,13.815,95z M42.514,26.895h-4.737v-5.821h-4.201v5.821H28.84    V11.317h4.735v5.348h4.201v-5.348h4.737V26.895z M55.858,26.895h-10.85V11.317h4.675v11.388h6.175V26.895z M70.549,18.913    c-0.404,0.69-0.928,1.247-1.567,1.643c-0.617,0.394-1.258,0.648-1.907,0.785c-0.814,0.147-1.938,0.211-3.419,0.211h-1.272v5.343    h-4.697V11.317h5.816c2,0,3.287,0.086,3.941,0.243c1.052,0.243,1.944,0.797,2.654,1.632c0.709,0.835,1.063,1.907,1.063,3.188    C71.16,17.363,70.957,18.218,70.549,18.913z M84.736,32.346l-0.002,57.521H15.269l-0.012-57.521H84.736z" fill="#CC0000"/><path d="M65.242,15.227c-0.225-0.038-0.778-0.082-2.122-0.082h-0.737v2.584h0.94c1.543,0,2.055-0.123,2.203-0.17    c0.271-0.099,0.472-0.248,0.623-0.444c0.143-0.195,0.219-0.418,0.219-0.689c0-0.339-0.103-0.59-0.297-0.79    C65.856,15.412,65.586,15.283,65.242,15.227z" fill="#CC0000"/></g></g></svg>