<?xml version="1.0" ?><!DOCTYPE svg  PUBLIC '-//W3C//DTD SVG 1.1//EN'  'http://www.w3.org/Graphics/SVG/1.1/DTD/svg11.dtd'><svg enable-background="new 0 0 100 100" height="100px" id="Layer_1" version="1.1" viewBox="0 0 100 100" width="100px" xml:space="preserve" xmlns="http://www.w3.org/2000/svg" xmlns:xlink="http://www.w3.org/1999/xlink"><g><path d="M50,37.74c-6.241,0-12.108,2.431-16.521,6.844s-6.844,10.281-6.844,16.521   c0,6.241,2.431,12.109,6.844,16.522S43.759,84.472,50,84.472s12.108-2.431,16.521-6.844c4.414-4.413,6.844-10.281,6.844-16.522   c0-6.24-2.43-12.108-6.844-16.521C62.108,40.171,56.241,37.74,50,37.74z M50,82.674c-11.893,0-21.568-9.675-21.568-21.568   c0-5.973,2.442-11.383,6.378-15.292c0.132,0.376,0.36,0.745,0.21,1.062c-0.109,0.23-0.634,0.407-0.77,0.634   c-0.12,0.2-0.104,0.455-0.15,0.672c-0.113,0.528-0.157,1.141-0.246,1.686c-0.079,0.482-0.545,0.952-0.771,1.38   c-0.125,0.236-0.307,0.42-0.415,0.662c-0.101,0.226-0.115,0.477-0.128,0.732c-0.028,0.552-0.214,1.103-0.03,1.611   c0.198,0.551,0.457,1.062,0.573,1.649c0.104,0.519,0.064,1.037,0.267,1.533c0.186,0.46,0.433,1.023,0.827,1.358   c0.214,0.182,0.464,0.264,0.673,0.457c0.087,0.081,0.206,0.198,0.313,0.25c0.099,0.046,0.232,0.011,0.317,0.052   c0.535,0.255,0.217,1.041,0.347,1.484c0.144,0.492,0.761,0.848,1.132,1.171c0.263,0.229,1.08,0.292,1.08,0.292   c0.044,0.025,0.903,0.693,1.558,0.377c0.483-0.232,0.668-0.26,1.074,0.147c0.471,0.472,0.501,0.504,1.163,0.596   c0.643,0.088,0.968,0.304,1.417,0.804c0.366,0.407,0.768,0.658,1.213,0.945c0.368,0.237,0.529,0.165,0.882,0.294   c0.194,0.071,0.293,0.251,0.472,0.341c0.185,0.093,0.468,0.175,0.686,0.043c0.071-0.044-0.061-0.303,0.026-0.337   c0.215-0.085,0.157,0.089,0.284,0.091c0.124,0.002,0.316-0.054,0.503-0.145c0.076,0.14,0.251,0.21,0.294,0.377   c0.044,0.172,0.059,0.356,0.102,0.527c0.038,0.157,0.119,0.245,0.099,0.429c-0.033,0.306-0.131,0.225-0.323,0.373   c-0.32,0.251-0.278,0.687-0.503,0.977c-0.212,0.273-0.32,0.43-0.356,0.802c-0.012,0.128-0.04,0.373-0.001,0.49   c0.048,0.146,0.233,0.237,0.299,0.371c0.128,0.259,0.055,0.653,0.101,0.953c0.056,0.372,0.201,0.564,0.478,0.826   c0.294,0.279,0.659,0.362,0.954,0.596c0.341,0.267,0.482,0.432,0.618,0.796c0.177,0.473,0.325,0.595,0.771,0.761   c0.79,0.295,1.938,0.14,2.654,0.574c0.483,0.292,0.565,0.464,0.597,1.023c0.021,0.357-0.133,0.694-0.179,1.051   c-0.094,0.748-0.661,1.548-0.257,2.277c0.223,0.403,0.618,0.746,0.654,1.224c0,0-0.018,1.217,0.678,1.366   c0.696,0.149,1.241-1.126,1.241-1.126l0.066-0.065c0.456-0.463,1.007-0.723,1.549-1.069c0.271-0.173,0.439-0.386,0.677-0.579   c0.313-0.254,0.427-0.226,0.423-0.668c-0.003-0.462,0.096-0.478,0.494-0.599c0.31-0.095,0.54-0.151,0.646-0.495   c0.096-0.31,0.009-0.664,0.179-0.96c0.248-0.434,0.446-0.249,0.832-0.132c0.364,0.11,0.842-0.277,0.972-0.628   c0.132-0.359-0.093-0.543,0.224-0.89c0.461-0.508,1.141-0.683,1.653-1.125c0.22-0.189,0.505-0.477,0.628-0.735   c0.069-0.145,0.062-0.341,0.133-0.489c0.067-0.141,0.243-0.284,0.301-0.438c0.208-0.563-0.147-1.535-0.015-2.099   c0.087-0.365,0.679-0.747,0.88-1.059c0.177-0.273,0.194-0.584,0.371-0.854c0.334-0.512,0.745-1.311-0.039-1.671   c-0.64-0.294-1.417-0.408-2.12-0.348c-0.311,0.027-0.608,0.04-0.93,0.025c-0.318-0.015-0.594-0.14-0.918-0.158   c-0.163-0.009-0.426,0.154-0.57,0.09c-0.228-0.1-0.104-0.287-0.204-0.484c-0.199-0.396-0.486-0.296-0.854-0.366   c-0.177-0.035-0.401-0.123-0.516-0.286c-0.242-0.348,0.027-0.431-0.378-0.509c-0.138-0.026-0.305,0.04-0.438,0.002   c-0.312-0.09-0.431-0.343-0.786-0.334c-0.17,0.004-0.381,0.042-0.531,0.1c-0.148,0.057-0.314,0.337-0.462,0.356   c-0.377,0.051-0.6-0.5-0.828-0.72c-0.232-0.225-0.5-0.442-0.793-0.497c-0.344-0.063-0.723,0.09-1.064,0.041   c-0.349-0.05-0.666,0.06-0.966,0.125c-0.323,0.069-0.58,0.138-0.927,0.154c-0.425,0.021-0.755-0.083-1.119-0.246   c-0.433-0.193-0.715,0.026-1.077,0.092c-0.229,0.041-0.465-0.055-0.649,0.063c-0.161,0.103-0.167,0.324-0.293,0.459   c-0.207,0.224-0.356-0.045-0.462,0.28c-0.143,0.442-0.499,0.826-0.842,1.103c-0.027,0.022-0.041,0.048-0.064,0.072   c-0.369,0.108-0.821,0.369-1.111,0.361c-0.381-0.009-0.743-0.048-1.059-0.257c-0.658-0.438-0.215-1.463-0.685-2.003   c-0.295-0.142-0.786-0.441-1.165-0.342c-0.352,0.092-1.002,0.875-0.979-0.004c0.004-0.169,0.164-0.394,0.198-0.625   c0.029-0.205-0.032-0.425-0.002-0.629c0.072-0.491,0.448-0.883-0.085-1.073c-0.385-0.137-1.008,0.08-1.181,0.437   c-0.225,0.464,0.199,0.874-0.396,1.073c-0.539,0.18-1.871-0.468-2.122-1.103c0.007-0.556,0.135-1.533,0.157-1.695   c0.016-0.107-0.092-0.785,0.03-1.019c0.203-0.387,0.51-0.939,0.984-1.031c0.531-0.102,1.001,0.436,1.56,0.271   c0.675-0.2,0.056-0.414,0.448-0.77c0.271-0.246,0.767,0.143,0.957,0.2c0.548,0.169,1.58,1.319,2.153,0.883   c0.338-0.256-0.327-1.086-0.314-1.482c0.028-0.853,0.399-0.522,0.88-0.99c0.24-0.233,0.299-0.847,0.383-1.158   c0.121-0.454,0.234-0.96,0.357-1.455c0.11-0.448,0.427-0.558,0.765-0.846c0.145-0.123,0.434-0.346,0.483-0.536   c0.054-0.206-0.104-0.423-0.068-0.637c0.049-0.302,0.287-0.401,0.507-0.581c0.168-0.136,0.679-0.463,0.897-0.488   c-0.239,0.19-0.436,0.727-0.176,0.922c0.334,0.252,0.271-0.265,0.444-0.555c0.12-0.202,0.254-0.449,0.421-0.59   c0.195-0.164,0.45-0.163,0.677-0.218c0.219-0.054,0.508-0.259,0.273-0.488c-0.245-0.239-0.521,0.102-0.738,0.194   c-0.234,0.1-0.438,0.163-0.7,0.099c-0.348-0.085-0.102-0.285-0.309-0.506c-0.124-0.132-0.22-0.078-0.299-0.249   c-0.048-0.104-0.053-0.339,0.019-0.427c0.165-0.207,0.671-0.098,0.932-0.108c0.349-0.014,0.503-0.053,0.607-0.367   c0.1-0.299,0.411-0.456,0.37-0.004c-0.023,0.268-0.066,0.573,0.092,0.811c0.158,0.238,0.438,0.218,0.694,0.218   c0.247,0,0.496,0.006,0.741,0.005c0.309,0,0.514-0.091,0.369-0.466c-0.226-0.582-0.974-0.255-1.39-0.493   c-0.472-0.269-0.202-0.901-0.606-1.213c-0.449-0.346-1.086-0.217-1.519-0.547c-0.232-0.177-0.343-0.296-0.675-0.237   c-0.268,0.047-0.532,0.19-0.81,0.219c-0.359,0.037-0.731-0.038-1.089,0.004c-0.226,0.028-0.835,0.06-0.976,0.275   c-0.181,0.274,0.133,0.455-0.286,0.579c-0.232,0.069-0.486,0.188-0.562,0.465c-0.068,0.252,0.078,0.547,0.215,0.741   c0.151,0.214,0.485,0.5-0.011,0.398c-0.261-0.053-0.395-0.005-0.498-0.219c-0.109-0.229-0.037-0.45-0.098-0.699   c-0.127-0.527-1.056-0.096-1.45-0.279c-0.177-0.081-0.327-0.317-0.518-0.414c-0.184-0.093-0.447-0.192-0.658-0.168   c-0.006-0.093,0.035-0.169,0.093-0.24c0.086-0.105,0.232-0.113,0.289-0.261c0.04-0.105-0.008-0.234,0.034-0.347   c0.102-0.276,0.424-0.408,0.646-0.561c0.208-0.144,0.408-0.247,0.625-0.366c0.126-0.068,0.321-0.095,0.429-0.165   c0.078-0.052,0.191-0.237,0.269-0.316c0.396-0.399,0.95-0.154,1.41,0.042c0.246,0.105,0.416,0.35,0.677,0.418   c0.223,0.059,0.528,0.093,0.761,0.096c0.55,0.007,0.771-0.522,0.729-1.023c-0.048-0.579-0.585-0.789-1.054-1.096   c-0.467-0.306-0.976-0.384-1.527-0.461c-0.447-0.063-1.215,0.074-1.389,0.565c-0.074,0.21,0.084,0.546-0.096,0.627   c-0.199,0.091-0.553-0.107-0.7-0.193c-0.268-0.157-0.361-0.306-0.688-0.323c-0.277-0.016-0.573-0.031-0.859-0.019   c-0.273,0.012-0.532,0.059-0.746,0.242c-0.18,0.153-0.294,0.483-0.529,0.587c-0.337,0.147-1.068,0.039-1.438,0.019   c-0.004-0.076-0.017-0.156-0.034-0.236c3.354-2.151,7.33-3.416,11.603-3.416c2.433,0,4.764,0.424,6.946,1.169   c-0.283,0.024-0.567,0.044-0.855,0.031c-0.577-0.024-1.067-0.335-1.636-0.387c-0.653-0.059-0.765,0.177-1.275,0.398   c-1.001,0.435-2.271-0.086-3.151-0.551c-0.769-0.404-2.38-0.644-2.764,0.44l-0.856,0.478c-0.277,0.396-0.214,0.884,0.244,1.003   c1.129,0.293,2.006-0.409,2.674,0.824c0.32,0.591,2.096,1.911,2.799,1.212c0.339-0.338-0.056-0.819-0.107-1.215   c-0.066-0.5,0.217-0.977,0.573-1.303c0.794-0.729,2.053-0.46,3.054-0.412c1.063,0.051,1.761,0.759,2.795,0.806   c0.189,0.009,0.667-0.028,0.791,0.103c0.236,0.25-0.019,0.353-0.169,0.615c-0.379,0.66,0.038,0.596,0.636,0.672   c0.643,0.082,0.698,0.051,0.866,0.674c0.113,0.418-0.022,0.334,0.411,0.443c0.273,0.069,0.507,0.044,0.78,0.18   c0.327,0.163,0.662,0.571,0.923,0.821c0.171,0.164,0.146-0.019,0.237,0.282c0.054,0.176-0.022,0.405,0,0.59   c0.074,0.603,0.905,1.589,1.635,1.429c0.993-0.218-0.23-1.296-0.379-1.775c-0.041-0.13,0.008-0.433-0.053-0.532   c-0.082-0.139-0.3-0.11-0.437-0.247c-0.25-0.251-0.169-0.566,0.021-0.823c1.428,1.178,2.686,2.548,3.771,4.051   c-0.152-0.085-0.318-0.164-0.507-0.243c-0.311-0.131-0.688-0.261-0.949-0.507c-0.25-0.235-0.223-0.545-0.589-0.626   c-0.009,0.302-0.201,1.83-0.326,1.89c-0.133,0.774,0.337,1.019,0.705,1.511c0.375,0.501,0.328,1.168,0.327,1.803   c-0.001,0.608-0.069,1.458,0.127,2.031c0.216,0.632,0.853,0.916,1.112,1.544c0.206,0.498,0.239,1.147,0.393,1.63   c0.242,0.759,0.793,1.157,1.42,1.63c0.363,0.274,0.951,0.981,1.509,0.981s0.764-1.071,0.764-1.071c0.003,0,0.004-0.003,0.006-0.003   c0.063,0.667,0.103,1.34,0.103,2.022C71.568,72.999,61.893,82.674,50,82.674z M42.581,50.555c0.029,0.139,0.305,0.223,0.234,0.394   c-0.196,0.485-0.58-0.068-0.582-0.35c-0.002-0.305,0.178-0.563,0.145-0.903v-0.048c0.105-0.101,0.251-0.146,0.384-0.038   c0.273,0.222-0.041,0.245-0.098,0.424C42.588,50.278,42.514,50.229,42.581,50.555z M41.95,48.984l-0.542,0.289   c-0.234,0.021-0.616,0.09-0.558-0.232c0.248-0.119,0.491-0.243,0.741-0.354c0.158-0.069,0.417-0.343,0.562-0.379   c0.29-0.072,0.365,0.003,0.567,0.195c0.12,0.113,0.189-0.013,0.29,0.189c0.049,0.099-0.003,0.375-0.009,0.479   C42.67,49.182,42.175,49.251,41.95,48.984z M43.584,50.657c-0.158-0.057-0.201-0.399-0.189-0.534l-0.136-0.811   c0.641-0.246,0.586,0.373,1.189,0.337c-0.055,0.207-0.257,0.217-0.368,0.328c-0.13,0.131-0.152,0.174-0.252,0.338   C43.734,50.471,43.942,50.785,43.584,50.657z" fill="#2A57D6"/><path d="M13.815,95h72.369c2.032,0,3.685-1.653,3.685-3.686V8.685C89.869,6.653,88.217,5,86.185,5H13.815   c-2.032,0-3.685,1.653-3.685,3.685v82.63C10.131,93.347,11.783,95,13.815,95z M40.593,26.807h-4.638v-5.996h-4.396v5.996h-4.638   V11.405h4.638v5.389h4.396v-5.389h4.638V26.807z M55.399,15.501h-3.724v11.394h-4.84V15.501H43.17v-4.184h12.229V15.501z    M68.748,26.807l-0.216-6.044c-0.006-0.163-0.011-0.335-0.017-0.515c-0.037,0.126-0.075,0.251-0.112,0.375l-1.706,5.957h-3.4   l-1.458-5.754l-0.258,5.98h-4.18l0.902-15.401h5.124l1.4,5.195c0.159,0.646,0.304,1.248,0.434,1.815   c0.152-0.615,0.312-1.238,0.473-1.836l1.527-5.175h5.041l0.776,15.401H68.748z M84.736,32.346l-0.002,57.521H15.269l-0.012-57.521   H84.736z" fill="#2A57D6"/></g></svg>