<?xml version="1.0" ?><!DOCTYPE svg  PUBLIC '-//W3C//DTD SVG 1.1//EN'  'http://www.w3.org/Graphics/SVG/1.1/DTD/svg11.dtd'><svg enable-background="new 0 0 100 100" height="100px" id="Layer_1" version="1.1" viewBox="0 0 100 100" width="100px" xml:space="preserve" xmlns="http://www.w3.org/2000/svg" xmlns:xlink="http://www.w3.org/1999/xlink"><g><g><path d="M13.815,95h72.369c2.032,0,3.685-1.653,3.685-3.685V8.685C89.869,6.653,88.217,5,86.185,5H13.815    c-2.032,0-3.685,1.653-3.685,3.685v82.631C10.131,93.347,11.783,95,13.815,95z M37.377,26.671h-4.498V11.55h4.498V26.671z     M47.359,17.119c2.436,1.014,3.57,2.516,3.57,4.726c0,2.282-1.556,5.039-5.687,5.039c-1.527,0-3.46-0.539-4.239-1.024    l-0.456-0.284l0.643-3.911l1.01,0.584c0.595,0.343,1.983,0.724,3.022,0.724c0.685,0,1.167-0.389,1.167-0.909    c0-0.214,0-0.536-1.484-1.135c-2.497-0.978-3.764-2.557-3.764-4.691c0-2.844,2.269-4.92,5.388-4.92    c1.421,0,3.009,0.429,3.843,0.851l0.588,0.3l-1.045,3.781l-0.893-0.482c-0.383-0.209-1.366-0.537-2.368-0.537    c-0.747,0-0.918,0.551-0.918,0.75C45.736,16.229,45.736,16.427,47.359,17.119z M60.229,26.894c-3.904,0-6.632-3.159-6.632-7.682    c0-4.644,2.812-7.886,6.836-7.886c3.938,0,6.688,3.143,6.688,7.643C67.121,23.783,64.415,26.894,60.229,26.894z M84.736,32.346    l-0.002,57.521H15.269l-0.012-57.521H84.736z" fill="#004488"/><path d="M60.358,15.246c-1.588,0-2.299,1.961-2.299,3.904c0,1.764,0.607,3.824,2.317,3.824    c1.683,0,2.28-2.104,2.28-3.904C62.657,17.228,61.938,15.246,60.358,15.246z" fill="#004488"/></g><g><path d="M50,66.979c3.238,0,5.872-2.634,5.872-5.873c0-3.238-2.634-5.872-5.872-5.872s-5.872,2.634-5.872,5.872    C44.128,64.346,46.762,66.979,50,66.979z" fill="#004488"/><path d="M50,38.606c-12.426,0-22.5,10.074-22.5,22.5c0,12.427,10.074,22.5,22.5,22.5s22.5-10.073,22.5-22.5    C72.5,48.681,62.426,38.606,50,38.606z M36.663,53.411c-0.676,1.166-1.195,2.414-1.543,3.71c-0.125,0.464-0.544,0.77-1.003,0.77    c-0.089,0-0.18-0.012-0.27-0.035c-0.554-0.149-0.883-0.719-0.733-1.272c0.395-1.473,0.984-2.891,1.752-4.214    c0.765-1.318,1.7-2.535,2.781-3.615c1.08-1.081,2.297-2.017,3.614-2.78c1.324-0.768,2.741-1.357,4.214-1.753    c0.554-0.148,1.124,0.18,1.272,0.733c0.148,0.555-0.18,1.124-0.733,1.272c-1.297,0.348-2.545,0.867-3.711,1.544    c-1.162,0.674-2.234,1.499-3.188,2.452C38.162,51.176,37.338,52.248,36.663,53.411z M50,70.106c-4.961,0-9-4.038-9-9    c0-4.961,4.039-9,9-9s9,4.039,9,9C59,66.068,54.961,70.106,50,70.106z" fill="#004488"/></g></g></svg>