<?xml version="1.0" ?><!DOCTYPE svg  PUBLIC '-//W3C//DTD SVG 1.1//EN'  'http://www.w3.org/Graphics/SVG/1.1/DTD/svg11.dtd'><svg enable-background="new 0 0 100 100" height="100px" id="Layer_1" version="1.1" viewBox="0 0 100 100" width="100px" xml:space="preserve" xmlns="http://www.w3.org/2000/svg" xmlns:xlink="http://www.w3.org/1999/xlink"><g><g><path d="M13.815,95h72.369c2.032,0,3.685-1.653,3.685-3.685V8.685C89.869,6.653,88.217,5,86.185,5H13.815    c-2.032,0-3.685,1.653-3.685,3.685v82.631C10.131,93.347,11.783,95,13.815,95z M38.699,20.818c0,1.228-0.102,2.161-0.31,2.854    c-0.298,0.968-0.846,1.751-1.629,2.336c-0.786,0.587-1.81,0.885-3.042,0.885c-1.479,0-2.646-0.474-3.473-1.407    c-0.8-0.905-1.209-2.206-1.216-3.867l-0.003-0.701l3.958-0.494l0.032,0.863c0.032,0.894,0.162,1.213,0.217,1.31    c0.139,0.249,0.293,0.341,0.569,0.341c0.431,0,0.521-0.135,0.55-0.179c0.022-0.033,0.221-0.371,0.221-1.763v-9.68h4.125V20.818z     M51.13,26.571l-1.091-3.089h-3.876l-1.031,3.089h-4.53l5.425-15.164h3.944l5.577,15.164H51.13z M66.168,26.571l-2.053-3.331    c-0.816-1.333-1.136-1.761-1.255-1.897c-0.151-0.175-0.302-0.293-0.446-0.348c-0.067-0.026-0.262-0.081-0.72-0.097v5.673h-4.267    V11.407h6.271c1.449,0,2.497,0.138,3.202,0.423c0.768,0.311,1.385,0.86,1.836,1.635c0.433,0.744,0.651,1.598,0.651,2.537    c0,1.203-0.339,2.221-1.006,3.026c-0.375,0.453-0.85,0.813-1.418,1.079c0.102,0.102,0.197,0.206,0.288,0.312    c0.393,0.458,0.89,1.22,1.521,2.33l2.197,3.822H66.168z M84.736,32.346l-0.002,57.521H15.269l-0.012-57.521H84.736z" fill="#7E3C1A"/><polygon fill="#7E3C1A" points="47.46,19.626 48.69,19.626 48.069,17.806   "/><path d="M64.595,15.308c-0.078-0.01-0.407-0.036-1.713-0.036h-1.188v1.888h1.085c1.584,0,1.94-0.099,1.995-0.118    c0.139-0.052,0.236-0.131,0.315-0.258c0.091-0.145,0.136-0.348,0.136-0.604c0-0.274-0.056-0.483-0.165-0.622    C64.995,15.476,64.877,15.361,64.595,15.308z" fill="#7E3C1A"/></g><g><path d="M50,54.906c-7.125,0-14.697,1.931-14.697,5.509c0,1.53,0.43,6.536,2.395,11.255    c2.576,6.19,6.831,9.462,12.303,9.462s9.727-3.271,12.303-9.462c1.964-4.719,2.395-9.725,2.395-11.255    C64.697,56.837,57.125,54.906,50,54.906z M50,64.411c-8.168,0-13.184-2.327-13.184-3.996c0-1.668,5.016-3.995,13.184-3.995    s13.184,2.327,13.184,3.995C63.184,62.084,58.168,64.411,50,64.411z" fill="#7E3C1A"/><path d="M60.868,73.718l-0.263-1.49c5.771-1.021,8.146-3.704,8.443-5.875c0.148-1.077-0.245-2.009-1.002-2.372    c-1.063-0.511-2.592,0.128-4.093,1.708l-1.098-1.042c1.977-2.082,4.162-2.841,5.847-2.03c1.36,0.653,2.085,2.201,1.846,3.942    C70.178,69.258,67.44,72.557,60.868,73.718z" fill="#7E3C1A"/><path d="M70.448,84.414H29.552c-0.506,0-0.917-0.41-0.917-0.916c0-0.507,0.411-0.917,0.917-0.917h40.896    c0.506,0,0.917,0.41,0.917,0.917C71.365,84.004,70.954,84.414,70.448,84.414z" fill="#7E3C1A"/><path d="M63.044,85.337H36.956c-0.507,0-0.916-0.41-0.916-0.917c0-0.506,0.409-0.916,0.916-0.916h26.088    c0.507,0,0.916,0.41,0.916,0.916C63.96,84.927,63.551,85.337,63.044,85.337z" fill="#7E3C1A"/><path d="M47.438,53.259c-0.123,0-0.248-0.029-0.363-0.093c-0.13-0.071-3.165-1.778-3.165-5.374    c0-1.634,1.189-3.012,2.449-4.471c1.529-1.77,2.973-3.441,2.268-5.437c-0.14-0.395,0.066-0.827,0.461-0.966    c0.395-0.14,0.826,0.067,0.966,0.461c0.998,2.824-0.886,5.006-2.548,6.931c-1.071,1.24-2.082,2.411-2.082,3.481    c0,2.71,2.355,4.033,2.38,4.046c0.366,0.201,0.5,0.662,0.299,1.028C47.965,53.117,47.706,53.259,47.438,53.259z" fill="#7E3C1A"/><path d="M53.83,53.259c-0.104,0-0.208-0.021-0.308-0.065c-0.157-0.07-3.854-1.763-3.854-5.401    c0-1.634,1.19-3.012,2.45-4.471c1.528-1.77,2.972-3.441,2.267-5.437c-0.14-0.395,0.067-0.827,0.461-0.966    c0.395-0.14,0.827,0.067,0.966,0.461c0.999,2.824-0.886,5.006-2.548,6.931c-1.07,1.24-2.082,2.411-2.082,3.481    c0,2.648,2.93,4.007,2.96,4.02c0.38,0.172,0.55,0.62,0.379,1C54.394,53.093,54.119,53.259,53.83,53.259z" fill="#7E3C1A"/></g></g></svg>