<?xml version="1.0" ?><!DOCTYPE svg  PUBLIC '-//W3C//DTD SVG 1.1//EN'  'http://www.w3.org/Graphics/SVG/1.1/DTD/svg11.dtd'><svg enable-background="new 0 0 100 100" height="100px" id="Layer_1" version="1.1" viewBox="0 0 100 100" width="100px" xml:space="preserve" xmlns="http://www.w3.org/2000/svg" xmlns:xlink="http://www.w3.org/1999/xlink"><g><path d="M42.83,17.445c0.238-0.091,0.415-0.23,0.552-0.419c0.128-0.188,0.191-0.407,0.191-0.67   c0-0.322-0.091-0.574-0.264-0.768c-0.188-0.211-0.427-0.337-0.728-0.392c-0.201-0.038-0.689-0.084-1.879-0.084h-0.648v2.499h0.832   C42.251,17.612,42.699,17.497,42.83,17.445z" fill="#207040"/><path d="M86.185,5H13.815c-2.032,0-3.685,1.653-3.685,3.685v82.63c0,2.032,1.652,3.686,3.685,3.686h72.369   c2.032,0,3.685-1.653,3.685-3.686V8.685C89.869,6.653,88.217,5,86.185,5z M63.987,14.953c0.612-1.236,1.522-2.198,2.706-2.86   c0.912-0.514,2.043-0.775,3.362-0.775c1.722,0,3.106,0.416,4.116,1.235c0.964,0.783,1.602,1.856,1.905,3.188l-4.07,0.873   c-0.136-0.399-0.346-0.718-0.645-0.956c-0.339-0.27-0.767-0.401-1.307-0.401c-0.856,0-1.511,0.278-2.001,0.853   c-0.515,0.603-0.775,1.559-0.775,2.842c0,1.405,0.269,2.448,0.801,3.099c0.497,0.611,1.135,0.908,1.95,0.908   c0.414,0,0.839-0.092,1.265-0.272c0.323-0.138,0.613-0.295,0.868-0.473v-0.515h-2.868v-3.883h7.006v6.506l-0.221,0.232   c-0.6,0.631-1.457,1.186-2.551,1.647c-1.092,0.461-2.215,0.694-3.338,0.694c-1.442,0-2.727-0.339-3.814-1.008   c-1.103-0.678-1.94-1.654-2.49-2.903c-0.528-1.2-0.796-2.52-0.796-3.923C63.091,17.535,63.393,16.154,63.987,14.953z M49.801,11.43   h10.968v3.869H54.11v1.919h6.195v3.324H54.11v2.059h6.894v3.861H49.801V11.43z M35.733,11.43h5.309   c1.765,0,2.903,0.073,3.477,0.228c0.93,0.242,1.723,0.772,2.343,1.579c0.632,0.807,0.943,1.845,0.943,3.08   c0,0.949-0.179,1.771-0.54,2.44c-0.354,0.665-0.819,1.201-1.381,1.589c-0.542,0.374-1.113,0.629-1.684,0.754   c-0.72,0.142-1.71,0.208-3.021,0.208h-1.125v5.154h-4.321V11.43z M27.557,20.184l0.031,0.859c0.032,0.878,0.166,1.177,0.205,1.247   c0.129,0.23,0.271,0.314,0.526,0.314c0.265,0,0.436-0.054,0.506-0.16c0.021-0.031,0.207-0.349,0.207-1.68V11.43h4.021v9.163   c0,1.183-0.098,2.083-0.299,2.754c-0.289,0.935-0.818,1.692-1.576,2.26c-0.761,0.567-1.75,0.855-2.941,0.855   c-1.43,0-2.559-0.458-3.358-1.362c-0.773-0.875-1.169-2.133-1.176-3.736l-0.003-0.698L27.557,20.184z M84.734,89.866H15.269   l-0.012-57.521h69.479L84.734,89.866z" fill="#207040"/></g><g><circle cx="34.081" cy="49.09" fill="#207040" r="3.531"/><path d="M24.953,74.187l44.379,7.825c0.506,0.089,0.987-0.25,1.077-0.755l5.538-31.41   c0.09-0.506-0.248-0.989-0.754-1.076l-4.232-0.748v-6.907c0-0.514-0.416-0.93-0.93-0.93H24.967c-0.513,0-0.929,0.417-0.929,0.93   v31.979C24.038,73.61,24.448,74.099,24.953,74.187z M27.265,44.343c0-0.514,0.417-0.929,0.931-0.929h38.608   c0.513,0,0.928,0.416,0.928,0.929v25.443c0,0.513-0.415,0.929-0.928,0.929H28.195c-0.514,0-0.931-0.416-0.931-0.929V44.343z" fill="#207040"/><path d="M66.043,68.126l-7.935-11.544c-0.29-0.422-0.761-0.422-1.052,0l-2.726,3.971   c-0.291,0.424-0.724,0.4-0.967-0.051l-5.425-10.059c-0.122-0.226-0.281-0.339-0.441-0.339l0,0l0,0l0,0l0,0   c-0.16,0-0.319,0.113-0.441,0.339l-5.425,10.059c-0.243,0.451-0.676,0.475-0.967,0.051l-2.727-3.971   c-0.29-0.422-0.761-0.422-1.051,0l-7.935,11.544c-0.29,0.422-0.111,0.766,0.402,0.766h18.143l0,0h18.143   C66.153,68.892,66.333,68.548,66.043,68.126z" fill="#207040"/></g></svg>