<?xml version="1.0" ?><!DOCTYPE svg  PUBLIC '-//W3C//DTD SVG 1.1//EN'  'http://www.w3.org/Graphics/SVG/1.1/DTD/svg11.dtd'><svg enable-background="new 0 0 100 100" height="100px" id="Layer_1" version="1.1" viewBox="0 0 100 100" width="100px" xml:space="preserve" xmlns="http://www.w3.org/2000/svg" xmlns:xlink="http://www.w3.org/1999/xlink"><g><g><path d="M13.815,95h72.369c2.032,0,3.685-1.653,3.685-3.685V8.685C89.869,6.653,88.217,5,86.185,5H13.815    c-2.032,0-3.685,1.653-3.685,3.685v82.631C10.131,93.347,11.783,95,13.815,95z M39.901,20.818c0,1.228-0.101,2.161-0.309,2.854    c-0.299,0.968-0.846,1.751-1.63,2.336c-0.785,0.587-1.809,0.885-3.042,0.885c-1.478,0-2.646-0.474-3.472-1.407    c-0.801-0.905-1.209-2.206-1.216-3.867l-0.003-0.701l3.958-0.494l0.032,0.863c0.032,0.894,0.162,1.214,0.217,1.31    c0.139,0.249,0.293,0.341,0.569,0.341c0.431,0,0.521-0.135,0.549-0.179c0.023-0.033,0.221-0.371,0.221-1.763v-9.68h4.125V20.818z     M54.584,18.919c-0.391,0.666-0.896,1.203-1.513,1.584c-0.594,0.38-1.212,0.626-1.84,0.758c-0.785,0.143-1.869,0.204-3.299,0.204    h-1.227v5.153h-4.53V11.592h5.609c1.931,0,3.172,0.082,3.804,0.233c1.015,0.235,1.875,0.77,2.56,1.575s1.024,1.84,1.024,3.075    C55.173,17.424,54.977,18.248,54.584,18.919z M69.77,24.318l-0.221,0.232c-0.599,0.631-1.457,1.186-2.551,1.647    c-1.092,0.462-2.214,0.695-3.338,0.695c-1.443,0-2.727-0.339-3.815-1.009c-1.102-0.677-1.938-1.654-2.488-2.903    c-0.529-1.2-0.797-2.52-0.797-3.922c0-1.524,0.302-2.907,0.896-4.107c0.612-1.236,1.522-2.199,2.706-2.86    c0.912-0.515,2.043-0.775,3.362-0.775c1.722,0,3.106,0.416,4.116,1.235c0.963,0.783,1.601,1.856,1.905,3.188l-4.07,0.873    c-0.137-0.4-0.346-0.718-0.645-0.956c-0.339-0.271-0.767-0.401-1.307-0.401c-0.855,0-1.51,0.278-2,0.853    c-0.516,0.603-0.776,1.558-0.776,2.841c0,1.406,0.27,2.449,0.801,3.1c0.498,0.611,1.136,0.907,1.95,0.907    c0.414,0,0.839-0.092,1.264-0.272c0.324-0.137,0.615-0.295,0.87-0.472v-0.516h-2.869v-3.882h7.006V24.318z M84.736,32.346    l-0.002,57.521H15.269l-0.012-57.521H84.736z" fill="#367200"/><path d="M49.466,15.362c-0.218-0.035-0.752-0.079-2.049-0.079h-0.711v2.492h0.907c1.489,0,1.981-0.118,2.126-0.163    c0.261-0.096,0.453-0.239,0.6-0.429c0.138-0.188,0.212-0.404,0.212-0.665c0-0.327-0.099-0.569-0.286-0.762    C50.057,15.542,49.796,15.418,49.466,15.362z" fill="#367200"/></g><g><path d="M34.081,52.621c1.947,0,3.531-1.58,3.531-3.529c0-1.952-1.584-3.533-3.531-3.533    c-1.951,0-3.53,1.581-3.53,3.533C30.551,51.041,32.13,52.621,34.081,52.621z" fill="#367200"/><path d="M24.953,74.187l44.38,7.825c0.505,0.089,0.986-0.25,1.076-0.755l5.538-31.41    c0.09-0.506-0.248-0.988-0.754-1.076l-4.232-0.747v-6.907c0-0.514-0.416-0.931-0.93-0.931H24.968c-0.514,0-0.93,0.417-0.93,0.931    v31.979C24.038,73.61,24.448,74.099,24.953,74.187z M27.265,44.343c0-0.514,0.417-0.929,0.931-0.929h38.608    c0.513,0,0.928,0.415,0.928,0.929v25.443c0,0.513-0.415,0.929-0.928,0.929H28.195c-0.514,0-0.931-0.416-0.931-0.929V44.343z" fill="#367200"/><path d="M66.043,68.126l-7.935-11.544c-0.29-0.422-0.761-0.422-1.052,0l-2.726,3.971    c-0.291,0.424-0.724,0.4-0.967-0.051l-5.425-10.059c-0.122-0.226-0.281-0.339-0.441-0.339l0,0l0,0l0,0l0,0    c-0.16,0-0.319,0.113-0.44,0.339l-5.426,10.059c-0.243,0.451-0.675,0.475-0.967,0.051l-2.727-3.971    c-0.289-0.422-0.761-0.422-1.051,0l-7.935,11.544c-0.29,0.422-0.111,0.766,0.403,0.766h18.142l0,0h18.143    C66.153,68.892,66.333,68.548,66.043,68.126z" fill="#367200"/></g></g></svg>