<?xml version="1.0" ?><!DOCTYPE svg  PUBLIC '-//W3C//DTD SVG 1.1//EN'  'http://www.w3.org/Graphics/SVG/1.1/DTD/svg11.dtd'><svg enable-background="new 0 0 100 100" height="100px" id="Layer_1" version="1.1" viewBox="0 0 100 100" width="100px" xml:space="preserve" xmlns="http://www.w3.org/2000/svg" xmlns:xlink="http://www.w3.org/1999/xlink"><g><g><path d="M13.815,95h72.369c2.032,0,3.685-1.653,3.685-3.685V8.685C89.869,6.653,88.217,5,86.185,5H13.815    c-2.032,0-3.685,1.653-3.685,3.685v82.631C10.131,93.347,11.783,95,13.815,95z M39.059,26.598l-0.213-5.996    c-0.006-0.162-0.011-0.333-0.017-0.512c-0.037,0.125-0.074,0.249-0.112,0.372l-1.691,5.911h-3.374l-1.446-5.709l-0.256,5.934    h-4.147l0.896-15.28h5.085l1.389,5.155c0.158,0.641,0.301,1.237,0.43,1.8c0.15-0.609,0.309-1.228,0.469-1.82l1.516-5.135h5.001    l0.771,15.28H39.059z M57.142,23.595h-1.525v3.3h-4.358v-3.3h-5.633v-3.084l5.135-8.999h4.856v8.112h1.525V23.595z M71.617,18.724    c-0.385,0.655-0.883,1.186-1.491,1.562c-0.587,0.374-1.196,0.617-1.814,0.748c-0.774,0.14-1.844,0.2-3.253,0.2h-1.21v5.083H59.38    V11.497h5.533c1.902,0,3.128,0.08,3.75,0.23c1.001,0.231,1.85,0.759,2.524,1.553s1.011,1.814,1.011,3.032    C72.198,17.249,72.005,18.061,71.617,18.724z M84.736,32.346l-0.002,57.521H15.269l-0.012-57.521H84.736z" fill="#087C08"/><polygon fill="#087C08" points="51.258,19.624 51.258,18.021 50.267,19.624   "/><path d="M66.569,15.215c-0.214-0.035-0.741-0.077-2.021-0.077h-0.7v2.458h0.895c1.468,0,1.954-0.117,2.097-0.161    c0.257-0.095,0.446-0.236,0.592-0.423c0.136-0.187,0.208-0.398,0.208-0.656c0-0.322-0.098-0.562-0.282-0.752    C67.152,15.392,66.896,15.27,66.569,15.215z" fill="#087C08"/></g><path d="M50,37.74c-12.884,0-23.365,10.481-23.365,23.365c0,12.885,10.481,23.366,23.365,23.366   S73.365,73.99,73.365,61.105C73.365,48.222,62.884,37.74,50,37.74z M57.13,70.798c-2.607,0.463-5.004-0.774-5.354-2.76   c-0.351-1.985,1.479-3.966,4.084-4.424c0.895-0.157,1.763-0.111,2.532,0.092v-0.001l0.009-8.995l-12.896,2.341l-0.013,12.838   c0.109,1.873-1.656,3.666-4.122,4.103c-2.607,0.459-5.003-0.777-5.354-2.761c-0.352-1.985,1.479-3.969,4.085-4.425   c0.895-0.159,1.762-0.112,2.532,0.089V51.474l18.611-3.349l0.005,18.571C61.36,68.569,59.595,70.365,57.13,70.798z" fill="#087C08"/></g></svg>