<?xml version="1.0" ?><!DOCTYPE svg  PUBLIC '-//W3C//DTD SVG 1.1//EN'  'http://www.w3.org/Graphics/SVG/1.1/DTD/svg11.dtd'><svg enable-background="new 0 0 100 100" height="100px" id="Layer_1" version="1.1" viewBox="0 0 100 100" width="100px" xml:space="preserve" xmlns="http://www.w3.org/2000/svg" xmlns:xlink="http://www.w3.org/1999/xlink"><g><path d="M28.493,75.23c0.414,0,0.768-0.063,1.064-0.232c0.904,3.1,2.734,5.222,4.846,5.222   c3.01,0,4.451-2.026,4.451-9.614c0-7.59-1.441-9.615-4.451-9.615c-1.114,0-2.151,0.592-3.014,1.606   c0.496-3.356,1.835-8.396,5.442-12.079c3.184-3.249,7.613-4.896,13.168-4.896c5.554,0,9.984,1.647,13.168,4.896   c3.607,3.684,4.946,8.724,5.443,12.079c-0.863-1.015-1.899-1.606-3.016-1.606c-3.009,0-4.45,2.025-4.45,9.615   c0,7.588,1.441,9.614,4.45,9.614c2.112,0,3.942-2.122,4.847-5.222c0.297,0.17,0.65,0.232,1.064,0.232   c1.505,0,2.724-1.971,2.724-4.625c0-2.069-0.74-3.723-1.779-4.353l0.077,0.002C72.539,65.803,72.712,55.098,65.78,48   c-3.893-3.986-9.202-6.007-15.78-6.007S38.112,44.014,34.22,48c-6.932,7.098-6.759,17.803-6.748,18.255l0.077-0.002   c-1.039,0.63-1.779,2.283-1.779,4.353C25.77,73.26,26.989,75.23,28.493,75.23z M70.456,66.206   c-0.004,0.002-0.009,0.004-0.014,0.006c0-0.002-0.001-0.004-0.002-0.007L70.456,66.206z M29.559,66.207   c0,0.002-0.001,0.003-0.001,0.005c-0.004-0.002-0.007-0.003-0.011-0.005H29.559z" fill="#0069FF"/><g><path d="M13.815,95h72.369c2.032,0,3.685-1.653,3.685-3.685V8.685C89.869,6.653,88.217,5,86.185,5H13.815    c-2.032,0-3.685,1.653-3.685,3.685v82.631C10.131,93.347,11.783,95,13.815,95z M38.714,26.894l-0.217-6.112    c-0.007-0.165-0.013-0.339-0.018-0.521c-0.038,0.127-0.076,0.254-0.114,0.379l-1.725,6.025h-3.439l-1.475-5.819l-0.26,6.049    h-4.229l0.913-15.577h5.183l1.416,5.255c0.161,0.653,0.307,1.262,0.438,1.835c0.153-0.62,0.314-1.251,0.478-1.855l1.545-5.234    h5.098l0.786,15.577H38.714z M57.31,23.552h-1.545v3.342h-4.413v-3.342h-5.704v-3.123l5.2-9.112h4.917v8.215h1.545V23.552z     M67.943,26.894h-4.732l-4.585-15.577h4.991l1.721,6.511c0.148,0.564,0.306,1.166,0.461,1.797    c0.143-0.573,0.294-1.154,0.455-1.741l1.801-6.566h4.707L67.943,26.894z M84.736,32.346l-0.002,57.521H15.269l-0.012-57.521    H84.736z" fill="#0069FF"/><polygon fill="#0069FF" points="51.352,19.531 51.352,17.916 50.257,19.531   "/></g></g></svg>