<?xml version="1.0" ?><!DOCTYPE svg  PUBLIC '-//W3C//DTD SVG 1.1//EN'  'http://www.w3.org/Graphics/SVG/1.1/DTD/svg11.dtd'><svg enable-background="new 0 0 100 100" height="100px" id="Layer_1" version="1.1" viewBox="0 0 100 100" width="100px" xml:space="preserve" xmlns="http://www.w3.org/2000/svg" xmlns:xlink="http://www.w3.org/1999/xlink"><g><path d="M13.815,95h72.369c2.032,0,3.685-1.653,3.685-3.685V8.685C89.869,6.653,88.217,5,86.185,5H13.815   c-2.032,0-3.685,1.653-3.685,3.685v82.631C10.131,93.347,11.783,95,13.815,95z M38.761,26.72l-0.212-5.954   c-0.006-0.161-0.011-0.331-0.017-0.508c-0.037,0.124-0.074,0.247-0.11,0.369l-1.681,5.869h-3.351l-1.436-5.669l-0.254,5.893h-4.119   l0.889-15.174h5.05l1.379,5.119c0.157,0.636,0.299,1.229,0.427,1.787c0.15-0.604,0.307-1.219,0.466-1.808l1.505-5.099h4.966   l0.765,15.174H38.761z M55.614,24.914c-1.453,1.315-3.591,1.979-6.357,1.979c-1.247,0-2.465-0.071-3.449-0.212l-0.637-0.092v-0.024   l-0.056-0.008V11.723l0.613-0.108c1.099-0.191,2.608-0.298,4.094-0.298c2.068,0,3.612,0.339,4.863,1.082   c0.303,0.175,0.588,0.373,0.858,0.595c1.58,1.278,2.418,3.278,2.418,5.779C57.962,22.062,56.685,23.928,55.614,24.914z    M71.945,24.185c-0.32,0.711-0.771,1.29-1.338,1.723c-0.574,0.44-1.281,0.713-2.101,0.812c-0.458,0.054-1.495,0.086-3.172,0.1   h-0.002h-5.362V11.447h6.11c1.06,0,1.839,0.049,2.384,0.149c0.61,0.113,1.165,0.353,1.65,0.713c0.48,0.356,0.883,0.831,1.196,1.411   c0.322,0.594,0.485,1.264,0.485,1.99c0,0.786-0.2,1.521-0.591,2.181c-0.145,0.242-0.308,0.465-0.491,0.665   c0.367,0.259,0.68,0.572,0.937,0.938c0.509,0.723,0.767,1.575,0.767,2.534C72.418,22.767,72.259,23.491,71.945,24.185z    M84.736,32.346l-0.002,57.521H15.269l-0.012-57.521H84.736z" fill="#9B3159"/><path d="M52.014,15.676c-0.492-0.294-1.105-0.443-1.835-0.443c-0.219,0-0.402,0.008-0.556,0.02v7.686   c0.07,0,0.139,0,0.199,0h0.051c1.101,0,1.955-0.319,2.538-0.951c0.637-0.688,0.96-1.746,0.96-3.144   c0.008-1.25-0.299-2.194-0.913-2.813C52.324,15.896,52.176,15.777,52.014,15.676z" fill="#9B3159"/><path d="M67.006,16.889c0.25-0.031,0.43-0.111,0.551-0.243c0.072-0.078,0.167-0.22,0.167-0.541   c0-0.241-0.048-0.418-0.147-0.54c-0.031-0.037-0.125-0.154-0.451-0.197c-0.117-0.015-0.553-0.04-2.08-0.04h-0.676v1.604h0.883   C66.509,16.931,66.891,16.904,67.006,16.889z" fill="#9B3159"/><path d="M67.628,20.956c-0.091-0.035-0.503-0.147-1.987-0.147h-1.271v2.102h1.574c1.198,0,1.509-0.05,1.576-0.064   l0.022-0.005c0.198-0.039,0.348-0.127,0.469-0.275c0.119-0.145,0.18-0.369,0.18-0.668c0-0.262-0.049-0.467-0.152-0.627   C67.946,21.126,67.815,21.026,67.628,20.956z" fill="#9B3159"/></g><g><path d="M66.321,67.778c0.026-0.029,0.048-0.088,0.048-0.128v-1.027c0-0.039-0.021-0.094-0.053-0.123l-0.754-0.737   c-0.03-0.028-0.03-0.073-0.002-0.102l0.482-0.31c0.028-0.028,0.031-0.077,0.008-0.109l-0.377-0.271   c-0.024-0.03-0.018-0.078,0.013-0.104l1.151-0.933c0.031-0.025,0.057-0.078,0.056-0.119l-0.002-0.663   c-0.001-0.042-0.026-0.095-0.057-0.12l-1.148-0.932c-0.031-0.026-0.033-0.07-0.005-0.099l0.756-0.479   c0.028-0.028,0.027-0.072-0.002-0.101l-0.753-0.458c-0.028-0.027-0.026-0.069,0.007-0.093l1.351-1.015   c0.032-0.023,0.035-0.063,0.006-0.093L65.9,58.649c-0.028-0.028-0.052-0.083-0.052-0.123v-1.743h2.083   c0.402,0,0.566-0.282,0.367-0.631l-0.815-1.429c1.895-1.128,3.453-3.195,3.453-5.561c0-3.572-2.896-6.469-6.47-6.469   c-3.572,0-6.469,2.896-6.469,6.469c0,2.365,1.559,4.433,3.452,5.561l-0.814,1.429c-0.199,0.349-0.035,0.631,0.367,0.631h1.429   v11.401c0,0,0.062,1.651,1.293,2.202C63.735,70.392,66.321,67.778,66.321,67.778z M64.467,47.909c-0.86,0-1.558-0.698-1.558-1.558   c0-0.861,0.697-1.559,1.558-1.559c0.861,0,1.559,0.697,1.559,1.559C66.025,47.211,65.328,47.909,64.467,47.909z" fill="#9B3159"/><path d="M63.835,76.948c0,2.28-6.223,5.461-16.355,5.461s-16.354-3.181-16.354-5.461v-7.016   c3.256,2.539,9.884,3.978,16.354,3.978c5.118,0,10.332-0.9,13.9-2.533c-0.47-0.541-0.784-1.175-0.973-1.801   c-2.815,1.276-7.259,2.272-12.928,2.272c-10.133,0-16.354-3.181-16.354-5.462v-7.016c3.256,2.54,9.884,3.978,16.354,3.978   c4.575,0,9.228-0.72,12.713-2.038l0.003-2.203c-2.824,1.231-7.186,2.18-12.716,2.18c-10.133,0-16.354-3.181-16.354-5.462v-7.017   c3.256,2.54,9.884,3.979,16.354,3.979c3.007,0,6.047-0.312,8.768-0.898c-0.323-0.878-0.499-1.797-0.499-2.726   c0-4.054,2.781-7.471,6.537-8.442c-3.553-1.915-9.237-2.98-14.806-2.98c-9.053,0-18.416,2.814-18.416,7.523v31.685   c0,4.709,9.363,7.523,18.416,7.523s18.417-2.814,18.417-7.523v-5.521l-2.062,2.091V76.948z" fill="#9C325C"/></g></svg>