<?xml version="1.0" ?><!DOCTYPE svg  PUBLIC '-//W3C//DTD SVG 1.1//EN'  'http://www.w3.org/Graphics/SVG/1.1/DTD/svg11.dtd'><svg enable-background="new 0 0 100 100" height="100px" id="Layer_1" version="1.1" viewBox="0 0 100 100" width="100px" xml:space="preserve" xmlns="http://www.w3.org/2000/svg" xmlns:xlink="http://www.w3.org/1999/xlink"><g><path d="M39.091,80.512c3.713-0.656,6.372-3.358,6.207-6.18l-0.006-19.335l19.474-3.526l-0.038,13.551l0,0   c-1.161-0.306-2.469-0.375-3.813-0.14c-3.925,0.691-6.682,3.675-6.153,6.662c0.528,2.993,4.139,4.856,8.063,4.158   c3.711-0.652,6.374-3.355,6.207-6.176l-0.008-27.971l-28.03,5.041v23.229c-1.16-0.304-2.467-0.374-3.813-0.137   c-3.924,0.688-6.682,3.674-6.153,6.665C31.556,79.343,35.163,81.204,39.091,80.512z" fill="#424444"/><g><path d="M13.815,95h72.369c2.032,0,3.685-1.653,3.685-3.685V8.685C89.869,6.652,88.217,5,86.185,5H13.815    c-2.032,0-3.685,1.652-3.685,3.685v82.631C10.131,93.347,11.783,95,13.815,95z M38.262,26.75l-0.214-6.016    c-0.006-0.166-0.012-0.337-0.018-0.513c-0.037,0.125-0.074,0.249-0.11,0.372l-1.699,5.931h-3.384l-1.451-5.727l-0.257,5.952    h-4.161l0.898-15.33h5.101l1.394,5.171c0.159,0.643,0.303,1.242,0.433,1.807c0.15-0.611,0.31-1.231,0.47-1.827l1.521-5.15h5.018    l0.772,15.33H38.262z M49.891,26.75h-4.485V11.42h4.485V26.75z M63.576,24.91c-1.456,1.317-3.598,1.983-6.37,1.983    c-1.249,0-2.471-0.071-3.456-0.212l-0.639-0.092V11.724l0.616-0.108c1.1-0.192,2.612-0.299,4.102-0.299    c2.538,0,4.289,0.509,5.678,1.647c1.583,1.281,2.422,3.285,2.422,5.792C65.929,22.051,64.649,23.922,63.576,24.91z M73.032,26.75    h-4.597V11.42h4.597V26.75z M84.736,32.346l-0.002,57.521H15.269l-0.012-57.521H84.736z" fill="#424444"/><path d="M58.13,15.208c-0.219,0-0.403,0.009-0.558,0.02v7.733c0.091,0.001,0.18,0.001,0.257,0.001h0.05    c1.104,0,1.96-0.321,2.544-0.952c0.639-0.69,0.962-1.751,0.962-3.15c0.008-1.253-0.3-2.2-0.915-2.819    C59.922,15.488,59.134,15.208,58.13,15.208z" fill="#424444"/></g></g></svg>