<?xml version="1.0" ?><!DOCTYPE svg  PUBLIC '-//W3C//DTD SVG 1.1//EN'  'http://www.w3.org/Graphics/SVG/1.1/DTD/svg11.dtd'><svg enable-background="new 0 0 100 100" height="100px" id="Layer_1" version="1.1" viewBox="0 0 100 100" width="100px" xml:space="preserve" xmlns="http://www.w3.org/2000/svg" xmlns:xlink="http://www.w3.org/1999/xlink"><g><path d="M74.23,43.219c0-0.105-0.085-0.19-0.189-0.19h-4.064c-0.104,0-0.13,0.061-0.057,0.136   c0.676,0.689,3.7,3.774,3.684,3.792l-3.643,3.623c-0.017,0.017-1.901,0.026-4.818,0.03c-0.104,0-0.13-0.06-0.056-0.135l3.428-3.427   c0.073-0.074,0.135-0.135,0.136-0.137c0.001-0.001-0.058-0.063-0.132-0.136l-3.613-3.613c-0.073-0.073-0.219-0.134-0.323-0.134   h-3.946c-0.104,0-0.13,0.061-0.056,0.134l3.612,3.613c0.074,0.074,0.074,0.194,0,0.268l-3.434,3.435   c-0.074,0.074-0.22,0.135-0.324,0.135c-1.474,0-3.048-0.001-4.672-0.002c-0.104,0-0.129-0.061-0.055-0.134l3.437-3.429   c0.074-0.074,0.134-0.135,0.132-0.137l-0.002-0.002l-3.747-3.747c-0.073-0.073-0.219-0.134-0.323-0.134h-3.946   c-0.105,0-0.13,0.061-0.056,0.134l3.613,3.613c0.073,0.073,0.073,0.194,0,0.268l-3.43,3.43c-0.074,0.074-0.219,0.134-0.324,0.134   c-1.571-0.001-3.142-0.003-4.667-0.005c-0.104-0.001-0.13-0.061-0.055-0.135l3.427-3.419c0.073-0.074,0.133-0.135,0.132-0.137   l-0.002-0.002l-3.746-3.747c-0.075-0.073-0.22-0.134-0.324-0.134H41.88c-0.105,0-0.13,0.061-0.056,0.134l3.612,3.613   c0.074,0.073,0.074,0.194,0,0.268L42.02,50.46c-0.074,0.074-0.219,0.135-0.323,0.135c-1.728-0.003-3.311-0.006-4.665-0.008   c-0.105-0.001-0.129-0.061-0.055-0.135l3.411-3.404c0.074-0.074,0.134-0.135,0.133-0.137c-0.001-0.001-0.063-0.063-0.137-0.136   l-3.612-3.613c-0.074-0.073-0.219-0.134-0.323-0.134h-3.947c-0.104,0-0.13,0.061-0.056,0.134l3.613,3.613   c0.074,0.073,0.074,0.194,0,0.268l-3.418,3.399c-0.074,0.074-0.178,0.135-0.232,0.134c-0.054,0-0.097-0.005-0.095-0.011   c0.001-0.004,0.002-0.007,0.003-0.011c0.002-0.01-0.009-1.261-0.011-1.746c0-0.104-0.023-0.271-0.053-0.372l-0.375-1.341   c-0.029-0.101-0.112-0.242-0.186-0.316l-3.607-3.617c-0.075-0.073-0.22-0.134-0.324-0.134h-1.795c-0.104,0-0.189,0.085-0.189,0.19   l-0.007,7.299c0,0.104,0.084,0.189,0.188,0.189c0,0,0.362,0,0.428,0c0.064,0,0.118,0.085,0.118,0.189V78.29   c0,0.494,0.399,0.894,0.893,0.894h45.015c0.494,0,0.895-0.399,0.895-0.894V50.896c0-0.104,0.084-0.189,0.189-0.189h0.547   c0.104,0,0.188-0.085,0.188-0.189V43.219z M28.615,48.77c-0.785,0-1.424-0.638-1.424-1.423s0.639-1.422,1.424-1.422   c0.784,0,1.422,0.637,1.422,1.422S29.399,48.77,28.615,48.77z M66.761,71.441H33.239c-0.207,0-0.374-0.232-0.374-0.519   c0-0.287,0.167-0.52,0.374-0.52h33.521c0.207,0,0.374,0.232,0.374,0.52C67.135,71.209,66.968,71.441,66.761,71.441z M66.761,64.579   H33.239c-0.207,0-0.374-0.232-0.374-0.52s0.167-0.52,0.374-0.52h33.521c0.207,0,0.374,0.232,0.374,0.52   S66.968,64.579,66.761,64.579z M66.761,57.716H33.239c-0.207,0-0.374-0.232-0.374-0.52s0.167-0.52,0.374-0.52h33.521   c0.207,0,0.374,0.232,0.374,0.52S66.968,57.716,66.761,57.716z" fill="#484C56"/><g><path d="M13.815,95h72.369c2.032,0,3.685-1.653,3.685-3.685V8.685C89.869,6.653,88.217,5,86.185,5H13.815    c-2.032,0-3.685,1.653-3.685,3.685v82.631C10.131,93.347,11.783,95,13.815,95z M38.128,26.806l-0.215-6.048    c-0.004-0.114-0.008-0.233-0.012-0.355c-0.022,0.074-0.045,0.148-0.067,0.222l-1.705,5.956H32.7l-1.414-5.584l-0.25,5.81h-4.219    l0.902-15.401h5.151l1.4,5.197c0.149,0.604,0.285,1.17,0.409,1.704c0.143-0.578,0.293-1.162,0.444-1.725l1.527-5.177h5.068    l0.776,15.401H38.128z M51.33,26.894c-3.908,0-6.638-3.161-6.638-7.688c0-4.646,2.813-7.89,6.843-7.89    c3.941,0,6.694,3.145,6.694,7.647C58.229,23.78,55.521,26.894,51.33,26.894z M68.365,26.894h-4.762L59.02,11.316h5.034l1.72,6.508    c0.141,0.532,0.288,1.098,0.435,1.69c0.135-0.539,0.278-1.084,0.429-1.635l1.8-6.563h4.746L68.365,26.894z M84.736,32.346    l-0.002,57.521H15.269l-0.012-57.521H84.736z" fill="#484C56"/><path d="M51.461,15.275c-1.566,0-2.268,1.944-2.268,3.87c0,1.748,0.599,3.789,2.285,3.789    c1.66,0,2.249-2.085,2.249-3.87C53.728,17.24,53.019,15.275,51.461,15.275z" fill="#484C56"/></g></g></svg>