<?xml version="1.0" ?><!DOCTYPE svg  PUBLIC '-//W3C//DTD SVG 1.1//EN'  'http://www.w3.org/Graphics/SVG/1.1/DTD/svg11.dtd'><svg enable-background="new 0 0 100 100" height="100px" id="Layer_1" version="1.1" viewBox="0 0 100 100" width="100px" xml:space="preserve" xmlns="http://www.w3.org/2000/svg" xmlns:xlink="http://www.w3.org/1999/xlink"><g><path d="M39.089,80.512c3.716-0.655,6.374-3.359,6.208-6.179l-0.004-19.336l19.473-3.525l-0.039,13.551l0,0   c-1.16-0.307-2.468-0.375-3.814-0.141c-3.923,0.692-6.68,3.676-6.151,6.663c0.528,2.992,4.138,4.855,8.063,4.156   c3.711-0.65,6.373-3.354,6.207-6.175l-0.009-27.971l-28.03,5.042v23.228c-1.161-0.303-2.464-0.373-3.813-0.137   c-3.925,0.689-6.682,3.674-6.153,6.666C31.556,79.343,35.163,81.202,39.089,80.512z" fill="#17A0E4"/><g><path d="M13.815,95h72.369c2.032,0,3.685-1.653,3.685-3.685V8.685C89.869,6.653,88.217,5,86.185,5H13.815    c-2.032,0-3.685,1.653-3.685,3.685v82.631C10.131,93.347,11.783,95,13.815,95z M40.022,26.521l-0.21-5.976    c-0.006-0.162-0.011-0.328-0.017-0.501c-0.036,0.123-0.073,0.244-0.108,0.364l-1.66,5.892h-3.309L33.3,20.607l-0.25,5.913h-4.067    l0.878-14.985h4.986l1.362,5.151c0.155,0.628,0.295,1.214,0.422,1.765c0.147-0.597,0.302-1.203,0.459-1.785l1.486-5.131h4.903    l0.757,14.985H40.022z M59.151,18.879c-0.39,0.663-0.894,1.199-1.509,1.58c-0.593,0.378-1.209,0.623-1.835,0.755    c-0.782,0.143-1.864,0.203-3.289,0.203h-1.224v5.14h-4.52V11.571h5.597c1.924,0,3.162,0.083,3.792,0.234    c1.011,0.234,1.869,0.767,2.553,1.569c0.682,0.803,1.021,1.835,1.021,3.067C59.738,17.388,59.543,18.209,59.151,18.879z     M65.22,26.894c-1.879,0-3.365-0.561-4.128-1.085l-0.281-0.194l0.857-3.433l0.563,0.317c0.238,0.135,1.491,0.806,2.771,0.806    c1.178,0,1.881-0.522,1.881-1.398c0-1.127-1.142-1.527-2.121-1.527h-1.729v-3.351h1.669c0.177-0.004,1.822-0.07,1.822-1.137    c0-0.857-0.892-0.985-1.423-0.985c-0.993,0-2.034,0.503-2.446,0.769l-0.572,0.369l-0.874-3.379l0.28-0.195    c0.821-0.574,2.467-1.153,4.289-1.153c2.827,0,4.801,1.649,4.801,4.01c0,1.37-0.585,2.481-1.672,3.217    c1.297,0.662,2.111,1.976,2.111,3.538C71.018,24.959,68.688,26.894,65.22,26.894z M84.736,32.346l-0.002,57.521H15.269    l-0.012-57.521H84.736z" fill="#17A0E4"/><path d="M54.047,15.332c-0.217-0.035-0.749-0.078-2.043-0.078h-0.709v2.484H52.2c1.484,0,1.976-0.117,2.12-0.163    c0.259-0.095,0.451-0.238,0.598-0.427c0.138-0.188,0.211-0.402,0.211-0.663c0-0.327-0.099-0.568-0.285-0.761    C54.636,15.511,54.377,15.388,54.047,15.332z" fill="#17A0E4"/></g></g></svg>