<?xml version="1.0" ?><!DOCTYPE svg  PUBLIC '-//W3C//DTD SVG 1.1//EN'  'http://www.w3.org/Graphics/SVG/1.1/DTD/svg11.dtd'><svg enable-background="new 0 0 100 100" height="100px" id="Layer_1" version="1.1" viewBox="0 0 100 100" width="100px" xml:space="preserve" xmlns="http://www.w3.org/2000/svg" xmlns:xlink="http://www.w3.org/1999/xlink"><g><g><path d="M13.815,95h72.369c2.032,0,3.685-1.653,3.685-3.685V8.685C89.869,6.653,88.217,5,86.185,5H13.815    c-2.032,0-3.685,1.653-3.685,3.685v82.631C10.131,93.347,11.783,95,13.815,95z M39.346,26.894l-0.217-6.211    c-0.007-0.169-0.013-0.342-0.019-0.521c-0.037,0.127-0.075,0.254-0.112,0.379l-1.726,6.124h-3.439l-1.474-5.918l-0.261,6.147    h-4.228l0.912-15.577h5.183l1.416,5.354c0.161,0.653,0.307,1.262,0.438,1.835c0.153-0.621,0.314-1.251,0.478-1.856l1.545-5.333    h5.098l0.786,15.577H39.346z M59.2,18.951c-0.403,0.686-0.924,1.24-1.561,1.634c-0.613,0.392-1.25,0.646-1.898,0.781    c-0.81,0.148-1.928,0.21-3.401,0.21h-1.266v5.317h-4.873V11.392h5.986c1.99,0,3.271,0.085,3.923,0.242    c1.046,0.242,1.934,0.793,2.641,1.623c0.706,0.831,1.057,1.898,1.057,3.173C59.808,17.409,59.605,18.258,59.2,18.951z     M72.129,23.586h-1.528v3.308h-4.368v-3.308h-5.645v-3.091l5.146-9.019h4.867v8.13h1.528V23.586z M84.736,32.346l-0.002,57.521    H15.269l-0.012-57.521H84.736z" fill="#F67800"/><path d="M53.92,15.281c-0.225-0.036-0.775-0.081-2.112-0.081h-0.733v2.57h0.936c1.535,0,2.044-0.122,2.193-0.168    c0.269-0.099,0.467-0.246,0.618-0.442c0.143-0.194,0.218-0.416,0.218-0.686c0-0.338-0.102-0.588-0.294-0.787    C54.529,15.467,54.261,15.338,53.92,15.281z" fill="#F67800"/><polygon fill="#F67800" points="66.232,19.606 66.232,17.596 65.038,19.606   "/></g><g><path d="M25.77,41.996v38.22c0,0.687,0.562,1.249,1.249,1.249h45.963c0.688,0,1.249-0.563,1.249-1.249v-38.22    c0-0.688-0.562-1.249-1.249-1.249H27.019C26.331,40.747,25.77,41.309,25.77,41.996z M70.013,74.718c0.105,0,0.19,0.083,0.19,0.186    v4.007c0,0.102-0.085,0.185-0.19,0.185h-4.429c-0.105,0-0.19-0.083-0.19-0.185v-4.007c0-0.103,0.085-0.186,0.19-0.186H70.013z     M61.27,74.718c0.105,0,0.19,0.083,0.19,0.186v4.007c0,0.102-0.085,0.185-0.19,0.185h-4.429c-0.104,0-0.189-0.083-0.189-0.185    v-4.007c0-0.103,0.085-0.186,0.189-0.186H61.27z M51.902,74.718c0.104,0,0.189,0.083,0.189,0.186v4.007    c0,0.102-0.085,0.185-0.189,0.185h-4.43c-0.104,0-0.189-0.083-0.189-0.185v-4.007c0-0.103,0.085-0.186,0.189-0.186H51.902z     M43.159,74.718c0.104,0,0.189,0.083,0.189,0.186v4.007c0,0.102-0.085,0.185-0.189,0.185h-4.43c-0.104,0-0.189-0.083-0.189-0.185    v-4.007c0-0.103,0.085-0.186,0.189-0.186H43.159z M34.416,74.718c0.105,0,0.19,0.083,0.19,0.186v4.007    c0,0.102-0.085,0.185-0.19,0.185h-4.429c-0.105,0-0.19-0.083-0.19-0.185v-4.007c0-0.103,0.085-0.186,0.19-0.186H34.416z     M70.473,49.864c0.105,0,0.19,0.085,0.19,0.19v22.103c0,0.104-0.085,0.189-0.19,0.189H29.527c-0.104,0-0.19-0.085-0.19-0.189    V50.055c0-0.105,0.086-0.19,0.19-0.19H70.473z M70.013,43.158c0.105,0,0.19,0.083,0.19,0.186v4.007    c0,0.103-0.085,0.185-0.19,0.185h-4.429c-0.105,0-0.19-0.082-0.19-0.185v-4.007c0-0.103,0.085-0.186,0.19-0.186H70.013z     M61.27,43.158c0.105,0,0.19,0.083,0.19,0.186v4.007c0,0.103-0.085,0.185-0.19,0.185h-4.429c-0.104,0-0.189-0.082-0.189-0.185    v-4.007c0-0.103,0.085-0.186,0.189-0.186H61.27z M51.902,43.158c0.104,0,0.189,0.083,0.189,0.186v4.007    c0,0.103-0.085,0.185-0.189,0.185h-4.43c-0.104,0-0.189-0.082-0.189-0.185v-4.007c0-0.103,0.085-0.186,0.189-0.186H51.902z     M43.159,43.158c0.104,0,0.189,0.083,0.189,0.186v4.007c0,0.103-0.085,0.185-0.189,0.185h-4.43c-0.104,0-0.189-0.082-0.189-0.185    v-4.007c0-0.103,0.085-0.186,0.189-0.186H43.159z M34.416,43.158c0.105,0,0.19,0.083,0.19,0.186v4.007    c0,0.103-0.085,0.185-0.19,0.185h-4.429c-0.105,0-0.19-0.082-0.19-0.185v-4.007c0-0.103,0.085-0.186,0.19-0.186H34.416z" fill="#F67800"/><path d="M57.869,60.593l-12.004-6.565c-0.598-0.297-1.088,0.005-1.088,0.671v12.873c0,0.668,0.49,0.968,1.088,0.67    l12.004-6.563C58.468,61.38,58.468,60.892,57.869,60.593z" fill="#F67800"/></g></g></svg>