<?xml version="1.0" ?><!DOCTYPE svg  PUBLIC '-//W3C//DTD SVG 1.1//EN'  'http://www.w3.org/Graphics/SVG/1.1/DTD/svg11.dtd'><svg enable-background="new 0 0 100 100" height="100px" id="Layer_1" version="1.1" viewBox="0 0 100 100" width="100px" xml:space="preserve" xmlns="http://www.w3.org/2000/svg" xmlns:xlink="http://www.w3.org/1999/xlink"><g><g><path d="M61.938,60.356l-17.985-8.993c-0.846-0.421-1.539,0.008-1.539,0.955v17.617    c0,0.95,0.693,1.375,1.539,0.953l17.985-8.991C62.783,61.476,62.783,60.782,61.938,60.356z" fill="#4418CD"/><path d="M50,37.74c-12.884,0-23.365,10.481-23.365,23.365S37.116,84.472,50,84.472s23.365-10.482,23.365-23.366    S62.884,37.74,50,37.74z M50,81.539c-11.267,0-20.434-9.166-20.434-20.434c0-11.267,9.167-20.433,20.434-20.433    s20.434,9.166,20.434,20.433C70.434,72.373,61.267,81.539,50,81.539z" fill="#4418CD"/></g><g><path d="M13.815,95h72.369c2.032,0,3.685-1.653,3.685-3.685V8.685C89.869,6.653,88.217,5,86.185,5H13.815    c-2.032,0-3.685,1.653-3.685,3.685v82.631C10.131,93.347,11.783,95,13.815,95z M32.418,26.779l-0.215-6.027    c-0.004-0.115-0.008-0.232-0.013-0.353c-0.021,0.073-0.044,0.146-0.065,0.22l-1.7,5.936h-3.416L25.6,20.99l-0.249,5.789h-4.203    l0.898-15.347h5.133l1.396,5.179c0.148,0.602,0.283,1.166,0.405,1.698c0.144-0.576,0.293-1.158,0.444-1.719l1.522-5.158h5.05    l0.772,15.347H32.418z M50.903,19.063c-0.392,0.668-0.899,1.21-1.521,1.594c-0.597,0.381-1.22,0.629-1.851,0.762    c-0.789,0.144-1.88,0.205-3.318,0.205h-1.234v5.186H38.42V11.691h5.645c1.941,0,3.191,0.082,3.825,0.234    c1.021,0.237,1.888,0.774,2.576,1.585c0.688,0.81,1.031,1.851,1.031,3.094C51.497,17.559,51.3,18.388,50.903,19.063z     M64.252,26.894h-11.18V11.774h10.944v3.958h-6.657v1.293h6.194v3.948h-6.194v1.972h6.893V26.894z M78.853,24.318l-0.221,0.232    c-0.599,0.631-1.457,1.186-2.55,1.648c-1.092,0.461-2.215,0.694-3.339,0.694c-1.442,0-2.726-0.339-3.814-1.009    c-1.103-0.677-1.939-1.654-2.489-2.903c-0.529-1.199-0.796-2.52-0.796-3.922c0-1.525,0.302-2.906,0.896-4.107    c0.611-1.236,1.522-2.198,2.705-2.86c0.912-0.514,2.044-0.775,3.362-0.775c1.723,0,3.107,0.416,4.116,1.235    c0.964,0.783,1.602,1.856,1.905,3.188l-4.069,0.873c-0.137-0.4-0.346-0.718-0.646-0.956c-0.338-0.27-0.767-0.4-1.307-0.4    c-0.854,0-1.51,0.278-2,0.851c-0.515,0.604-0.775,1.559-0.775,2.842c0,1.406,0.269,2.449,0.8,3.1    c0.498,0.61,1.137,0.907,1.951,0.907c0.414,0,0.838-0.091,1.264-0.272c0.323-0.137,0.614-0.294,0.869-0.472v-0.515h-2.869v-3.883    h7.006V24.318z M84.736,32.346l-0.002,57.521H15.269l-0.012-57.521H84.736z" fill="#4418CD"/><path d="M45.754,15.484c-0.218-0.035-0.756-0.079-2.061-0.079h-0.715v2.508h0.913c1.498,0,1.994-0.12,2.138-0.165    c0.264-0.096,0.457-0.24,0.604-0.431c0.139-0.189,0.213-0.406,0.213-0.67c0-0.329-0.1-0.572-0.288-0.767    C46.35,15.665,46.088,15.54,45.754,15.484z" fill="#4418CD"/></g></g></svg>