<?xml version="1.0" ?><!DOCTYPE svg  PUBLIC '-//W3C//DTD SVG 1.1//EN'  'http://www.w3.org/Graphics/SVG/1.1/DTD/svg11.dtd'><svg enable-background="new 0 0 100 100" height="100px" id="Layer_1" version="1.1" viewBox="0 0 100 100" width="100px" xml:space="preserve" xmlns="http://www.w3.org/2000/svg" xmlns:xlink="http://www.w3.org/1999/xlink"><g><g><path d="M13.815,95h72.369c2.032,0,3.685-1.653,3.685-3.685V8.685C89.869,6.653,88.217,5,86.185,5H13.815    c-2.032,0-3.685,1.653-3.685,3.685v82.631C10.131,93.347,11.783,95,13.815,95z M38.781,26.895l-0.216-6.068    c-0.004-0.116-0.008-0.234-0.013-0.355c-0.021,0.074-0.044,0.147-0.066,0.222l-1.711,5.976h-3.439l-1.419-5.603l-0.251,5.829    h-4.231l0.905-15.451h5.168l1.404,5.214c0.15,0.606,0.286,1.174,0.41,1.71c0.144-0.58,0.294-1.166,0.445-1.73l1.533-5.193h5.084    l0.778,15.451H38.781z M57.59,18.837c-0.394,0.671-0.903,1.214-1.526,1.599c-0.6,0.383-1.224,0.631-1.856,0.765    c-0.793,0.144-1.886,0.206-3.329,0.206h-1.237v5.2h-4.573V11.441h5.662c1.947,0,3.2,0.083,3.838,0.236    c1.023,0.237,1.893,0.776,2.583,1.589c0.69,0.813,1.034,1.856,1.034,3.104C58.185,17.328,57.986,18.159,57.59,18.837z     M72.565,24.32l-0.221,0.231c-0.599,0.631-1.457,1.186-2.551,1.647c-1.091,0.462-2.214,0.695-3.338,0.695    c-1.442,0-2.726-0.339-3.814-1.009c-1.103-0.677-1.939-1.654-2.49-2.903c-0.527-1.199-0.795-2.52-0.795-3.922    c0-1.525,0.302-2.907,0.896-4.107c0.611-1.236,1.521-2.198,2.705-2.86c0.912-0.514,2.043-0.775,3.362-0.775    c1.723,0,3.107,0.416,4.116,1.235c0.964,0.783,1.602,1.856,1.906,3.188l-4.07,0.873c-0.137-0.4-0.347-0.718-0.646-0.956    c-0.339-0.271-0.767-0.4-1.307-0.4c-0.854,0-1.51,0.277-2,0.851c-0.515,0.604-0.776,1.559-0.776,2.843    c0,1.405,0.27,2.448,0.801,3.099c0.498,0.611,1.137,0.907,1.951,0.907c0.413,0,0.838-0.091,1.264-0.272    c0.323-0.137,0.614-0.295,0.869-0.472v-0.515H65.56v-3.883h7.006V24.32z M84.736,32.346l-0.002,57.521H15.269l-0.012-57.521    H84.736z" fill="#3598DB"/><path d="M52.424,15.247c-0.219-0.036-0.758-0.08-2.066-0.08h-0.717v2.516h0.916c1.501,0,1.999-0.119,2.145-0.165    c0.263-0.097,0.457-0.241,0.605-0.432c0.139-0.191,0.213-0.408,0.213-0.672c0-0.33-0.099-0.575-0.288-0.77    C53.021,15.428,52.759,15.303,52.424,15.247z" fill="#3598DB"/></g><path d="M50,37.74c-12.884,0-23.365,10.481-23.365,23.365c0,12.885,10.481,23.366,23.365,23.366   S73.365,73.99,73.365,61.105C73.365,48.222,62.884,37.74,50,37.74z M57.476,70.798c-2.606,0.463-5.003-0.774-5.354-2.76   s1.479-3.966,4.085-4.424c0.894-0.157,1.762-0.111,2.532,0.092v-0.001l0.008-8.995l-12.895,2.341l-0.014,12.838   c0.109,1.873-1.656,3.666-4.121,4.103c-2.608,0.459-5.003-0.777-5.354-2.761c-0.352-1.985,1.479-3.969,4.084-4.425   c0.895-0.159,1.762-0.112,2.533,0.089V51.474l18.61-3.349l0.006,18.571C61.707,68.569,59.94,70.365,57.476,70.798z" fill="#3598DB"/></g></svg>