<svg width="217" height="220" xmlns="http://www.w3.org/2000/svg" xmlns:xlink="http://www.w3.org/1999/xlink" overflow="hidden"><defs><clipPath id="clip0"><rect x="862" y="95" width="217" height="220"/></clipPath></defs><g clip-path="url(#clip0)" transform="translate(-862 -95)"><path d="M979 189 979 198.036C978.587 198.342 978.254 198.669 978 199L978 189.964C978.254 189.63 978.587 189.306 979 189" fill="#19486F" fill-rule="evenodd"/><path d="M979 190 979 198.543C978.59 198.698 978.307 198.852 978 199L978 190.458C978.307 190.303 978.59 190.142 979 190" fill="#19486F" fill-rule="evenodd"/><path d="M1024.5 197C1032.03 197 1038.41 197.592 1043.69 198.432 1055.01 200.316 1061 203.541 1061 205.528 1061 207.504 1055.01 210.726 1043.69 212.554 1038.41 213.457 1032.03 214 1024.5 214 1000.86 214 988 208.399 988 205.528 988 202.642 1000.86 197 1024.5 197Z" fill="#2E73B7" fill-rule="evenodd"/><path d="M1062.04 205 1062.04 214.848C1062.04 214.898 1061 214.951 1061 215L1061 205.152C1061 205.095 1062.04 205.042 1062.04 205" fill="#19486F" fill-rule="evenodd"/><path d="M1062.01 206 1062.01 214.807C1061.8 214.874 1061.4 214.943 1061 215L1061 206.186C1061.4 206.123 1061.8 206.06 1062.01 206" fill="#19486F" fill-rule="evenodd"/><path d="M1062 206 1062 215.701C1061.74 215.802 1061.39 215.892 1061 216L1061 206.292C1061.36 206.187 1061.74 206.101 1062 206" fill="#19486F" fill-rule="evenodd"/><path d="M1061 205.637 1061 215.211C1059.91 217.184 1054.03 219.928 1043.84 221.562 1038.55 222.466 1032.14 223 1024.6 223 1000.9 223 988 217.434 988 214.564L988 205C988 207.857 1000.9 213.43 1024.6 213.43 1032.14 213.43 1038.55 212.889 1043.84 211.991 1054.03 210.357 1059.91 207.617 1061 205.637" fill="#19486F" fill-rule="evenodd"/><path d="M1063.01 281 1063.01 289.799C1063.01 289.865 1062.44 289.934 1062 290L1062 281.195C1062.44 281.135 1063.01 281.072 1063.01 281" fill="#19486F" fill-rule="evenodd"/><path d="M1062.01 281 1062.01 290.749C1061.89 290.822 1061.53 290.92 1061 291L1061 281.258C1061.53 281.171 1061.89 281.098 1062.01 281" fill="#19486F" fill-rule="evenodd"/><path d="M1062 281 1062 290.592C1061.78 290.733 1061.43 290.86 1061 291.001L1061 281.409C1061.42 281.268 1061.78 281.134 1062 281" fill="#19486F" fill-rule="evenodd"/><path d="M1061 281 1061 291.047C1059.28 294.255 1048.89 299 1026.71 299 1013.36 299 1002.56 297.178 996 295.162L996 285.1C1002.56 287.12 1013.35 288.952 1026.71 288.952 1048.89 288.952 1059.28 284.2 1061 281" fill="#19486F" fill-rule="evenodd"/><path d="M895.001 284.937 895.001 294C887.272 294 881 287.782 881 280.063L881 271C881.004 278.705 887.275 284.937 895.001 284.937" fill="#19486F" fill-rule="evenodd"/><path d="M983 285 983 293.904 895 294 895 285.106Z" fill="#19486F" fill-rule="evenodd"/><path d="M1060.45 185.972C1047.39 181.426 1025.93 181.265 1019.79 181.344 1001.88 181.584 981.469 185.811 978.05 191.087L977.909 192.153 977.96 195.393 977.909 280.259C977.909 281.825 981.218 283.526 982.602 284.894L893.801 285C886.181 285 880 278.88 880 271.314L880 117.642C880 110.116 886.181 104.007 893.801 104.007L1047.19 104C1054.82 104 1061 110.106 1061 117.673" fill="#2E73B7" fill-rule="evenodd"/><path d="M1062 222 1061.97 280.54C1061.97 283.512 1051.72 289 1027.07 289 1013.57 289 1003.4 287.417 996.775 285.493 991.855 283.917 988.391 282.131 988 280.791L988 222.556C995.174 226.95 1009.96 229.271 1024.66 229.271L1025.61 229.271C1027.15 229.217 1028.61 229.217 1030.12 229.179L1030.72 229.124C1032.03 229.076 1033.23 229.024 1034.5 228.928 1035.14 228.88 1035.73 228.829 1036.34 228.773 1037.34 228.688 1038.29 228.626 1039.24 228.526 1039.8 228.433 1040.3 228.379 1040.8 228.286 1041.86 228.186 1042.86 228.045 1043.9 227.891 1051.93 226.603 1058.14 224.47 1062 222Z" fill="#2E73B7" fill-rule="evenodd"/><path d="M910.007 118C902.361 118 899 123.31 899 135.007 899 146.694 902.364 152 910.007 152 917.649 152 921 146.691 921 135.007 921.003 123.31 917.653 118 910.007 118ZM910.007 148.068C906.839 148.068 904.316 146.143 904.316 134.867 904.316 123.861 906.839 121.932 910.007 121.932 913.175 121.932 915.698 123.857 915.698 134.867 915.701 146.143 913.175 148.068 910.007 148.068Z" fill="#FFFFFF" fill-rule="evenodd"/><path d="M946.393 148.139C946.299 146.157 946.25 143.564 946.208 141.447 946.009 136.81 944.248 135.009 940.894 134.694L940.894 134.608C944.598 134.039 946.536 130.763 946.536 126.503 946.536 120.319 942.686 118 937.952 118L926 118 926 151 931.405 151 931.405 136.683 935.824 136.683C939.521 136.683 940.653 138.244 940.758 141.855 940.845 144.26 940.8 146.109 940.988 148.091 941.125 149.384 941.355 150.41 941.89 151L948 151C947.295 150.544 946.491 149.762 946.393 148.139ZM935.73 132.711 931.405 132.711 931.405 121.979 936.003 121.979C939.57 121.979 941.125 123.827 941.125 127.343 941.125 130.674 939.189 132.711 935.73 132.711Z" fill="#FFFFFF" fill-rule="evenodd"/><path d="M958.455 118 949 151 954.541 151 956.685 142.922 966.415 142.922 968.459 151 974 151 965.241 118 958.455 118ZM957.652 138.707 961.618 122.435 961.718 122.435 965.526 138.707 957.652 138.707Z" fill="#FFFFFF" fill-rule="evenodd"/><path d="M998 139.636 992.747 139.636 992.747 140.181C992.747 143.211 992.241 148.072 987.853 148.072 983.988 148.072 982.247 145.415 982.247 134.871 982.247 124.32 983.991 121.935 987.853 121.935 991.637 121.803 992.56 125.289 992.56 128.32L992.56 128.857 997.81 128.857 997.81 128.258C997.81 124.871 997.26 118 987.911 118 979.572 118 977 123.31 977 135.007 977 146.694 979.572 152 987.853 152 995.601 152 998 146.228 998 140.313L998 139.636Z" fill="#FFFFFF" fill-rule="evenodd"/><path d="M1020 146.572 1007.26 146.572 1007.26 118 1002 118 1002 151 1020 151Z" fill="#FFFFFF" fill-rule="evenodd"/><path d="M1043 146.572 1029.5 146.572 1029.5 136.042 1041.83 136.042 1041.83 131.6 1029.5 131.6 1029.5 122.435 1042.61 122.435 1042.61 118 1024 118 1024 151 1043 151Z" fill="#FFFFFF" fill-rule="evenodd"/><rect x="895" y="114" width="152" height="48.9998" fill="#2E73B7"/><text fill="#FFFFFF" font-family="Arial,Arial_MSFontService,sans-serif" font-weight="700" font-size="50" transform="matrix(1 0 0 1 895.029 161)">MsSql<tspan font-size="50" x="111.325" y="112">T</tspan></text></g></svg>