<svg width="216" height="221" xmlns="http://www.w3.org/2000/svg" xmlns:xlink="http://www.w3.org/1999/xlink" overflow="hidden"><defs><clipPath id="clip0"><rect x="1125" y="99" width="216" height="221"/></clipPath></defs><g clip-path="url(#clip0)" transform="translate(-1125 -99)"><path d="M1242 193 1242 202.036C1241.59 202.342 1241.25 202.669 1241 203L1241 193.964C1241.25 193.63 1241.59 193.306 1242 193" fill="#19486F" fill-rule="evenodd"/><path d="M1242 194 1242 203.492C1241.59 203.664 1241.31 203.836 1241 204L1241 194.508C1241.31 194.336 1241.59 194.157 1242 194" fill="#19486F" fill-rule="evenodd"/><path d="M1287.5 201C1295.03 201 1301.41 201.592 1306.69 202.432 1318.01 204.316 1324 207.541 1324 209.527 1324 211.504 1318.01 214.726 1306.69 216.554 1301.41 217.456 1295.03 218 1287.5 218 1263.86 218 1251 212.399 1251 209.527 1251 206.642 1263.86 201 1287.5 201Z" fill="#2E73B7" fill-rule="evenodd"/><path d="M1325.04 210 1325.04 219.848C1325.04 219.898 1324 219.951 1324 220L1324 210.152C1324 210.095 1325.04 210.042 1325.04 210" fill="#19486F" fill-rule="evenodd"/><path d="M1325.01 210 1325.01 219.786C1324.8 219.86 1324.4 219.937 1324 220L1324 210.207C1324.4 210.137 1324.8 210.067 1325.01 210" fill="#19486F" fill-rule="evenodd"/><path d="M1324 210 1324 219.701C1323.74 219.802 1323.39 219.892 1323 220L1323 210.292C1323.36 210.187 1323.74 210.101 1324 210" fill="#19486F" fill-rule="evenodd"/><path d="M1323 210.637 1323 220.211C1321.92 222.184 1316.12 224.928 1306.07 226.561 1300.85 227.466 1294.54 228 1287.1 228 1263.72 228 1251 222.434 1251 219.564L1251 210C1251 212.857 1263.72 218.43 1287.1 218.43 1294.54 218.43 1300.85 217.889 1306.07 216.991 1316.12 215.357 1321.92 212.617 1323 210.637" fill="#19486F" fill-rule="evenodd"/><path d="M1325.01 285 1325.01 294.776C1325.01 294.85 1324.44 294.927 1324 295L1324 285.217C1324.44 285.151 1325.01 285.08 1325.01 285" fill="#19486F" fill-rule="evenodd"/><path d="M1325.01 285 1325.01 294.749C1324.89 294.822 1324.53 294.92 1324 295L1324 285.258C1324.53 285.171 1324.89 285.098 1325.01 285" fill="#19486F" fill-rule="evenodd"/><path d="M1325 285 1325 294.591C1324.78 294.732 1324.43 294.859 1324 295L1324 285.409C1324.42 285.268 1324.78 285.134 1325 285" fill="#19486F" fill-rule="evenodd"/><path d="M1324 286 1324 295.489C1322.28 298.519 1311.89 303 1289.71 303 1276.36 303 1265.56 301.279 1259 299.375L1259 289.873C1265.56 291.78 1276.35 293.511 1289.71 293.511 1311.89 293.511 1322.28 289.023 1324 286" fill="#19486F" fill-rule="evenodd"/><path d="M1157 289.331 1157 298C1149.82 298 1144 292.053 1144 284.669L1144 276C1144 283.37 1149.83 289.331 1157 289.331" fill="#19486F" fill-rule="evenodd"/><path d="M1246 289 1246 297.904 1157 298 1157 289.106Z" fill="#19486F" fill-rule="evenodd"/><path d="M1323.45 189.972C1310.39 185.426 1288.93 185.265 1282.79 185.344 1264.88 185.584 1244.47 189.811 1241.05 195.087L1240.91 196.153 1240.96 199.393 1240.91 284.259C1240.91 285.825 1244.22 287.526 1245.6 288.894L1156.8 289C1149.18 289 1143 282.881 1143 275.314L1143 121.641C1143 114.116 1149.18 108.007 1156.8 108.007L1310.19 108C1317.82 108 1324 114.106 1324 121.672" fill="#2E73B7" fill-rule="evenodd"/><path d="M1324 226 1323.97 284.54C1323.97 287.511 1313.86 293 1289.54 293 1276.23 293 1266.19 291.417 1259.66 289.493 1254.8 287.917 1251.39 286.131 1251 284.791L1251 226.556C1258.08 230.95 1272.67 233.271 1287.16 233.271L1288.1 233.271C1289.62 233.216 1291.06 233.216 1292.55 233.179L1293.14 233.124C1294.44 233.076 1295.62 233.024 1296.87 232.928 1297.5 232.88 1298.09 232.828 1298.69 232.773 1299.68 232.687 1300.61 232.626 1301.54 232.526 1302.1 232.433 1302.59 232.378 1303.08 232.286 1304.13 232.186 1305.12 232.045 1306.14 231.89 1314.07 230.603 1320.19 228.469 1324 226Z" fill="#2E73B7" fill-rule="evenodd"/><path d="M1172.51 122C1164.51 122 1161 127.31 1161 139.007 1161 150.694 1164.52 156 1172.51 156 1180.5 156 1184 150.691 1184 139.007 1184 127.31 1180.5 122 1172.51 122ZM1172.51 152.068C1169.19 152.068 1166.56 150.143 1166.56 138.867 1166.56 127.861 1169.19 125.932 1172.51 125.932 1175.82 125.932 1178.46 127.857 1178.46 138.867 1178.46 150.143 1175.82 152.068 1172.51 152.068Z" fill="#FFFFFF" fill-rule="evenodd"/><path d="M1209.39 153.139C1209.3 151.157 1209.25 148.564 1209.21 146.448 1209.01 141.81 1207.25 140.009 1203.89 139.694L1203.89 139.608C1207.6 139.039 1209.54 135.763 1209.54 131.503 1209.54 125.319 1205.69 123 1200.95 123L1189 123 1189 156 1194.4 156 1194.4 141.683 1198.82 141.683C1202.52 141.683 1203.65 143.244 1203.76 146.856 1203.85 149.26 1203.8 151.109 1203.99 153.092 1204.12 154.385 1204.35 155.41 1204.89 156L1211 156C1210.29 155.544 1209.49 154.762 1209.39 153.139ZM1198.73 137.711 1194.4 137.711 1194.4 126.979 1199 126.979C1202.57 126.979 1204.12 128.828 1204.12 132.343 1204.12 135.674 1202.19 137.711 1198.73 137.711Z" fill="#FFFFFF" fill-rule="evenodd"/><path d="M1221.46 123 1212 156 1217.54 156 1219.69 147.923 1229.41 147.923 1231.46 156 1237 156 1228.24 123 1221.46 123ZM1220.65 143.707 1224.62 127.435 1224.72 127.435 1228.53 143.707 1220.65 143.707Z" fill="#FFFFFF" fill-rule="evenodd"/><path d="M1261 143.636 1255.5 143.636 1255.5 144.181C1255.5 147.211 1254.97 152.072 1250.37 152.072 1246.32 152.072 1244.5 149.415 1244.5 138.871 1244.5 128.32 1246.32 125.935 1250.37 125.935 1254.33 125.803 1255.3 129.289 1255.3 132.32L1255.3 132.857 1260.8 132.857 1260.8 132.258C1260.8 128.871 1260.22 122 1250.43 122 1241.69 122 1239 127.31 1239 139.007 1239 150.694 1241.69 156 1250.37 156 1258.49 156 1261 150.228 1261 144.313L1261 143.636Z" fill="#FFFFFF" fill-rule="evenodd"/><path d="M1283 151.572 1270.26 151.572 1270.26 123 1265 123 1265 156 1283 156Z" fill="#FFFFFF" fill-rule="evenodd"/><path d="M1305 151.572 1292.21 151.572 1292.21 141.042 1303.9 141.042 1303.9 136.6 1292.21 136.6 1292.21 127.435 1304.63 127.435 1304.63 123 1287 123 1287 156 1305 156Z" fill="#FFFFFF" fill-rule="evenodd"/><rect x="1157" y="118" width="152" height="50.0002" fill="#2E73B7"/><text fill="#FFFFFF" font-family="Arial,Arial_MSFontService,sans-serif" font-weight="700" font-size="50" transform="matrix(1 0 0 1 1157.72 165)">MySql<tspan font-size="50" x="111.325" y="113">T</tspan></text></g></svg>