<?xml version="1.0" ?><!DOCTYPE svg  PUBLIC '-//W3C//DTD SVG 1.1//EN'  'http://www.w3.org/Graphics/SVG/1.1/DTD/svg11.dtd'><svg enable-background="new 0 0 100 100" height="100px" id="Layer_1" version="1.1" viewBox="0 0 100 100" width="100px" xml:space="preserve" xmlns="http://www.w3.org/2000/svg" xmlns:xlink="http://www.w3.org/1999/xlink"><g><g><path d="M13.815,95h72.369c2.032,0,3.685-1.653,3.685-3.685V8.685C89.869,6.653,88.217,5,86.185,5H13.815    c-2.032,0-3.685,1.653-3.685,3.685v82.631C10.131,93.347,11.783,95,13.815,95z M34.324,26.894c-3.908,0-6.639-3.161-6.639-7.688    c0-4.646,2.813-7.89,6.843-7.89c3.941,0,6.695,3.145,6.695,7.647C41.224,23.78,38.516,26.894,34.324,26.894z M56.727,24.345    l-0.218,0.231c-0.593,0.624-1.442,1.172-2.524,1.629c-1.08,0.457-2.191,0.688-3.304,0.688c-1.428,0-2.697-0.336-3.774-0.998    c-1.091-0.67-1.92-1.637-2.464-2.874c-0.523-1.187-0.788-2.492-0.788-3.881c0-1.509,0.299-2.877,0.887-4.064    c0.606-1.223,1.507-2.176,2.678-2.83c0.902-0.509,2.022-0.767,3.328-0.767c1.704,0,3.074,0.411,4.072,1.222    c0.953,0.774,1.586,1.837,1.887,3.154l-4.027,0.863c-0.136-0.396-0.343-0.71-0.639-0.945c-0.336-0.268-0.759-0.397-1.293-0.397    c-0.847,0-1.494,0.275-1.979,0.844c-0.511,0.597-0.769,1.542-0.769,2.812c0,1.392,0.267,2.424,0.792,3.067    c0.493,0.604,1.125,0.897,1.931,0.897c0.409,0,0.83-0.09,1.251-0.27c0.32-0.136,0.607-0.292,0.86-0.467v-0.51h-2.84v-3.842h6.934    V24.345z M72.314,24.345l-0.219,0.231c-0.593,0.624-1.441,1.172-2.524,1.629c-1.079,0.457-2.19,0.688-3.304,0.688    c-1.427,0-2.697-0.336-3.774-0.998c-1.091-0.67-1.919-1.637-2.463-2.874c-0.523-1.187-0.788-2.492-0.788-3.881    c0-1.509,0.299-2.877,0.887-4.064c0.605-1.223,1.507-2.176,2.678-2.83c0.902-0.509,2.022-0.767,3.328-0.767    c1.703,0,3.074,0.411,4.072,1.222c0.953,0.774,1.585,1.837,1.887,3.154l-4.028,0.863c-0.136-0.396-0.343-0.71-0.639-0.945    c-0.335-0.268-0.759-0.397-1.292-0.397c-0.848,0-1.495,0.275-1.98,0.844c-0.51,0.597-0.768,1.542-0.768,2.812    c0,1.392,0.267,2.424,0.792,3.067c0.493,0.604,1.125,0.897,1.931,0.897c0.409,0,0.829-0.09,1.25-0.27    c0.32-0.136,0.608-0.292,0.86-0.467v-0.51h-2.839v-3.842h6.934V24.345z M84.736,32.346l-0.002,57.521H15.269l-0.012-57.521H84.736    z" fill="#0765D6"/><path d="M34.454,15.275c-1.566,0-2.267,1.944-2.267,3.87c0,1.748,0.599,3.789,2.285,3.789    c1.66,0,2.249-2.084,2.249-3.87C36.722,17.24,36.012,15.275,34.454,15.275z" fill="#0765D6"/></g><path d="M39.09,80.512c3.714-0.655,6.373-3.357,6.207-6.179l-0.004-19.335l19.473-3.526l-0.038,13.55l0,0   c-1.161-0.306-2.468-0.374-3.814-0.14c-3.924,0.692-6.681,3.676-6.152,6.663c0.528,2.992,4.138,4.855,8.063,4.157   c3.712-0.651,6.373-3.355,6.207-6.176l-0.008-27.971l-28.03,5.042v23.228c-1.162-0.304-2.466-0.374-3.813-0.137   c-3.924,0.688-6.682,3.674-6.153,6.666C31.556,79.343,35.163,81.203,39.09,80.512z" fill="#0765D6"/></g></svg>