<svg width="224" height="220" xmlns="http://www.w3.org/2000/svg" xmlns:xlink="http://www.w3.org/1999/xlink" overflow="hidden"><defs><clipPath id="clip0"><rect x="615" y="97" width="224" height="220"/></clipPath></defs><g clip-path="url(#clip0)" transform="translate(-615 -97)"><path d="M732 191 732 200.036C731.587 200.342 731.254 200.669 731 201L731 191.964C731.254 191.63 731.587 191.306 732 191" fill="#19486F" fill-rule="evenodd"/><path d="M732 192 732 200.543C731.59 200.698 731.307 200.852 731 201L731 192.458C731.307 192.303 731.59 192.142 732 192" fill="#19486F" fill-rule="evenodd"/><path d="M777.503 199C785.026 199 791.414 199.592 796.69 200.432 808.011 202.315 814 205.541 814 207.527 814 209.504 808.011 212.726 796.69 214.554 791.414 215.456 785.026 216 777.503 216 753.861 216 741 210.399 741 207.527 741 204.642 753.861 199 777.503 199Z" fill="#2E73B7" fill-rule="evenodd"/><path d="M815.035 207 815.035 216.848C815.035 216.898 814 216.951 814 217L814 207.152C814 207.095 815.035 207.042 815.035 207" fill="#19486F" fill-rule="evenodd"/><path d="M815.007 207 815.007 216.786C814.803 216.86 814.401 216.937 814 217L814 207.207C814.401 207.137 814.803 207.067 815.007 207" fill="#19486F" fill-rule="evenodd"/><path d="M815 208 815 216.731C814.744 216.822 814.385 216.903 814 217L814 208.263C814.358 208.169 814.744 208.091 815 208" fill="#19486F" fill-rule="evenodd"/><path d="M814 207.637 814 217.211C812.907 219.184 807.027 221.928 796.838 223.562 791.547 224.466 785.142 225.001 777.6 225.001 753.895 225.001 741 219.434 741 216.564L741 207C741 209.857 753.895 215.43 777.6 215.43 785.142 215.43 791.547 214.889 796.838 213.991 807.027 212.357 812.907 209.617 814 207.637" fill="#19486F" fill-rule="evenodd"/><path d="M815.015 282 815.015 291.776C815.015 291.85 814.439 291.927 814 292L814 282.217C814.439 282.151 815.015 282.08 815.015 282" fill="#19486F" fill-rule="evenodd"/><path d="M815.006 283 815.006 291.774C814.888 291.84 814.534 291.928 814 292L814 283.232C814.534 283.154 814.888 283.088 815.006 283" fill="#19486F" fill-rule="evenodd"/><path d="M815.002 283 815.002 292.591C814.776 292.732 814.434 292.859 814 293L814 283.409C814.417 283.268 814.776 283.134 815.002 283" fill="#19486F" fill-rule="evenodd"/><path d="M814 283 814 292.489C812.275 295.519 801.887 300 779.712 300 766.356 300 755.558 298.28 749 296.376L749 286.873C755.558 288.78 766.353 290.511 779.712 290.511 801.887 290.511 812.275 286.023 814 283" fill="#19486F" fill-rule="evenodd"/><path d="M648 286.937 648 296C640.272 296 634 289.782 634 282.063L634 273C634.004 280.705 640.275 286.937 648 286.937" fill="#19486F" fill-rule="evenodd"/><path d="M736 287 736 295.904 648 296 648 287.106Z" fill="#19486F" fill-rule="evenodd"/><path d="M813.453 187.425C800.388 182.854 778.93 182.692 772.787 182.771 754.881 183.012 734.469 187.263 731.049 192.568L730.908 193.64 730.96 196.898 730.908 282.232C730.908 283.808 734.217 285.518 735.602 286.893L646.801 287C639.181 287 633 280.847 633 273.239L633 118.717C633 111.15 639.181 105.007 646.801 105.007L800.192 105C807.819 105 814 111.139 814 118.748" fill="#2E73B7" fill-rule="evenodd"/><path d="M814 224 813.966 282.541C813.966 285.512 803.863 291.001 779.538 291.001 766.229 291.001 756.188 289.417 749.656 287.494 744.803 285.917 741.385 284.131 741 282.791L741 224.557C748.077 228.95 762.665 231.272 777.164 231.272L778.099 231.272C779.623 231.217 781.063 231.217 782.55 231.179L783.14 231.124C784.436 231.076 785.616 231.025 786.868 230.928 787.499 230.88 788.089 230.829 788.686 230.774 789.678 230.688 790.613 230.626 791.544 230.527 792.1 230.434 792.591 230.379 793.082 230.286 794.129 230.186 795.115 230.045 796.145 229.891 804.068 228.603 810.194 226.47 814 224Z" fill="#2E73B7" fill-rule="evenodd"/><path d="M663.007 119C655.361 119 652 124.466 652 136.507 652 148.538 655.364 154 663.007 154 670.65 154 674 148.534 674 136.507 674.004 124.466 670.653 119 663.007 119ZM663.007 149.953C659.839 149.953 657.316 147.971 657.316 136.363 657.316 125.033 659.839 123.048 663.007 123.048 666.176 123.048 668.698 125.029 668.698 136.363 668.701 147.971 666.176 149.953 663.007 149.953Z" fill="#FFFFFF" fill-rule="evenodd"/><path d="M699.393 150.139C699.299 148.157 699.25 145.564 699.208 143.447 699.009 138.81 697.248 137.009 693.894 136.694L693.894 136.608C697.597 136.039 699.536 132.763 699.536 128.503 699.536 122.319 695.686 120 690.952 120L679 120 679 153 684.405 153 684.405 138.683 688.824 138.683C692.521 138.683 693.653 140.244 693.758 143.855 693.845 146.26 693.8 148.109 693.988 150.091 694.125 151.385 694.355 152.41 694.89 153L701 153C700.294 152.544 699.491 151.762 699.393 150.139ZM688.73 134.711 684.405 134.711 684.405 123.979 689.003 123.979C692.57 123.979 694.125 125.828 694.125 129.343 694.125 132.674 692.189 134.711 688.73 134.711Z" fill="#FFFFFF" fill-rule="evenodd"/><path d="M711.455 120 702 153 707.541 153 709.685 144.922 719.415 144.922 721.46 153 727 153 718.241 120 711.455 120ZM710.652 140.707 714.618 124.435 714.718 124.435 718.526 140.707 710.652 140.707Z" fill="#FFFFFF" fill-rule="evenodd"/><path d="M751 141.273 745.747 141.273 745.747 141.833C745.747 144.952 745.241 149.956 740.853 149.956 736.988 149.956 735.247 147.221 735.247 136.367 735.247 125.505 736.991 123.051 740.853 123.051 744.637 122.915 745.56 126.503 745.56 129.623L745.56 130.177 750.81 130.177 750.81 129.56C750.81 126.073 750.26 119 740.911 119 732.573 119 730 124.466 730 136.507 730 148.538 732.573 154 740.853 154 748.601 154 751 148.058 751 141.969L751 141.273Z" fill="#FFFFFF" fill-rule="evenodd"/><path d="M773 148.572 760.262 148.572 760.262 120 755 120 755 153 773 153Z" fill="#FFFFFF" fill-rule="evenodd"/><path d="M795 148.572 782.208 148.572 782.208 138.042 793.896 138.042 793.896 133.6 782.208 133.6 782.208 124.435 794.633 124.435 794.633 120 777 120 777 153 795 153Z" fill="#FFFFFF" fill-rule="evenodd"/><rect x="648" y="115" width="152" height="49.9998" fill="#2E73B7"/><text fill="#FFFFFF" font-family="Arial,Arial_MSFontService,sans-serif" font-weight="700" font-size="50" transform="matrix(1 0 0 1 647.775 162)">Oracle<tspan font-size="50" x="111.325" y="113">T</tspan></text></g></svg>