<?xml version="1.0" ?><!DOCTYPE svg  PUBLIC '-//W3C//DTD SVG 1.1//EN'  'http://www.w3.org/Graphics/SVG/1.1/DTD/svg11.dtd'><svg enable-background="new 0 0 100 100" height="100px" id="Layer_1" version="1.1" viewBox="0 0 100 100" width="100px" xml:space="preserve" xmlns="http://www.w3.org/2000/svg" xmlns:xlink="http://www.w3.org/1999/xlink"><g><g><path d="M13.815,95h72.369c2.032,0,3.685-1.653,3.685-3.685V8.685C89.869,6.653,88.217,5,86.185,5H13.815    c-2.032,0-3.685,1.653-3.685,3.685v82.631C10.131,93.347,11.783,95,13.815,95z M40.008,19.004    c-0.399,0.682-0.917,1.231-1.549,1.623c-0.609,0.389-1.243,0.641-1.886,0.775c-0.805,0.147-1.916,0.21-3.381,0.21h-1.256v5.281    h-4.644V11.494h5.749c1.977,0,3.25,0.085,3.896,0.24c1.04,0.241,1.922,0.788,2.623,1.613c0.702,0.825,1.051,1.886,1.051,3.151    C40.612,17.472,40.41,18.315,40.008,19.004z M56.481,26.894h-4.637v-5.996h-4.396v5.996h-4.638V11.495h4.638v5.387h4.396v-5.387    h4.637V26.894z M72.104,18.826c-0.399,0.681-0.917,1.232-1.55,1.623c-0.609,0.389-1.242,0.641-1.885,0.776    c-0.806,0.146-1.916,0.209-3.381,0.209h-1.257v5.281h-4.644V11.316h5.749c1.978,0,3.251,0.085,3.897,0.24    c1.04,0.241,1.922,0.788,2.623,1.613c0.702,0.825,1.051,1.886,1.051,3.151C72.708,17.294,72.507,18.138,72.104,18.826z     M84.736,32.346l-0.002,57.521H15.269l-0.012-57.521H84.736z" fill="#844280"/><path d="M34.763,15.358c-0.223-0.036-0.77-0.081-2.099-0.081h-0.728v2.554h0.929c1.525,0,2.031-0.121,2.179-0.167    c0.267-0.098,0.464-0.245,0.614-0.439c0.142-0.193,0.217-0.413,0.217-0.681c0-0.336-0.101-0.585-0.293-0.782    C35.369,15.542,35.102,15.415,34.763,15.358z" fill="#844280"/><path d="M66.858,15.181c-0.222-0.036-0.771-0.08-2.099-0.08h-0.729v2.554h0.93c1.525,0,2.03-0.121,2.179-0.168    c0.267-0.098,0.464-0.245,0.614-0.438c0.142-0.194,0.217-0.414,0.217-0.683c0-0.334-0.102-0.583-0.293-0.78    C67.464,15.364,67.198,15.237,66.858,15.181z" fill="#844280"/></g><path d="M50,37.74c-6.241,0-12.108,2.431-16.521,6.844c-4.414,4.413-6.844,10.281-6.844,16.521   c0,6.241,2.43,12.109,6.844,16.522c4.413,4.413,10.28,6.844,16.521,6.844s12.108-2.431,16.521-6.844   c4.414-4.413,6.844-10.281,6.844-16.522c0-6.24-2.43-12.108-6.844-16.521C62.108,40.171,56.241,37.74,50,37.74z M50,82.674   c-11.893,0-21.568-9.675-21.568-21.568c0-5.973,2.442-11.383,6.379-15.292c0.131,0.376,0.359,0.745,0.209,1.062   c-0.109,0.23-0.634,0.407-0.771,0.634c-0.119,0.2-0.104,0.456-0.15,0.672c-0.112,0.528-0.156,1.14-0.245,1.685   c-0.079,0.483-0.545,0.952-0.771,1.381c-0.125,0.236-0.307,0.42-0.415,0.662c-0.101,0.226-0.115,0.477-0.128,0.732   c-0.028,0.552-0.214,1.103-0.03,1.611c0.198,0.551,0.457,1.061,0.573,1.649c0.104,0.52,0.064,1.037,0.267,1.533   c0.186,0.46,0.433,1.023,0.827,1.358c0.214,0.182,0.464,0.264,0.673,0.457c0.087,0.081,0.206,0.198,0.313,0.25   c0.099,0.046,0.232,0.011,0.317,0.052c0.535,0.255,0.217,1.041,0.347,1.483c0.144,0.493,0.761,0.849,1.132,1.172   c0.262,0.229,1.08,0.292,1.08,0.292c0.044,0.025,0.903,0.693,1.558,0.377c0.483-0.233,0.668-0.26,1.074,0.147   c0.471,0.472,0.502,0.504,1.163,0.595c0.643,0.089,0.968,0.305,1.417,0.805c0.366,0.407,0.768,0.658,1.212,0.945   c0.369,0.236,0.53,0.165,0.883,0.294c0.194,0.071,0.293,0.251,0.472,0.341c0.185,0.093,0.467,0.176,0.686,0.043   c0.071-0.044-0.061-0.303,0.026-0.337c0.215-0.085,0.157,0.089,0.284,0.091c0.124,0.002,0.316-0.054,0.503-0.145   c0.077,0.14,0.25,0.21,0.294,0.377c0.044,0.172,0.059,0.356,0.102,0.527c0.038,0.157,0.119,0.244,0.099,0.429   c-0.033,0.306-0.131,0.225-0.322,0.373c-0.322,0.251-0.278,0.687-0.504,0.977c-0.212,0.273-0.32,0.43-0.356,0.802   c-0.012,0.128-0.04,0.373-0.001,0.49c0.048,0.146,0.233,0.237,0.299,0.371c0.128,0.259,0.056,0.653,0.101,0.953   c0.057,0.372,0.201,0.564,0.478,0.826c0.294,0.279,0.659,0.362,0.954,0.596c0.341,0.267,0.482,0.432,0.618,0.796   c0.177,0.473,0.325,0.595,0.771,0.761c0.79,0.295,1.937,0.14,2.654,0.574c0.483,0.292,0.565,0.464,0.597,1.023   c0.021,0.357-0.133,0.694-0.179,1.051c-0.095,0.748-0.661,1.548-0.257,2.277c0.223,0.403,0.618,0.746,0.654,1.224   c0,0-0.018,1.217,0.678,1.366c0.696,0.149,1.241-1.126,1.241-1.126l0.066-0.065c0.456-0.463,1.008-0.723,1.549-1.069   c0.271-0.172,0.439-0.387,0.677-0.579c0.312-0.254,0.426-0.227,0.423-0.668c-0.003-0.462,0.096-0.478,0.494-0.6   c0.31-0.095,0.54-0.15,0.646-0.494c0.096-0.31,0.009-0.664,0.178-0.96c0.249-0.434,0.447-0.249,0.833-0.132   c0.364,0.11,0.842-0.276,0.972-0.628c0.132-0.359-0.093-0.543,0.223-0.89c0.462-0.507,1.143-0.683,1.654-1.125   c0.22-0.189,0.505-0.477,0.628-0.735c0.069-0.145,0.062-0.341,0.133-0.489c0.067-0.142,0.243-0.284,0.301-0.438   c0.208-0.563-0.148-1.535-0.015-2.099c0.087-0.365,0.679-0.747,0.88-1.06c0.177-0.272,0.194-0.583,0.371-0.854   c0.334-0.512,0.745-1.311-0.039-1.671c-0.64-0.294-1.417-0.409-2.12-0.348c-0.311,0.027-0.608,0.04-0.93,0.025   c-0.318-0.015-0.594-0.14-0.918-0.158c-0.163-0.009-0.426,0.153-0.571,0.09c-0.227-0.1-0.104-0.287-0.203-0.484   c-0.199-0.396-0.486-0.296-0.854-0.366c-0.177-0.035-0.402-0.123-0.516-0.286c-0.242-0.348,0.027-0.431-0.378-0.509   c-0.138-0.026-0.305,0.04-0.438,0.002c-0.312-0.09-0.431-0.343-0.785-0.334c-0.171,0.004-0.382,0.042-0.532,0.1   c-0.148,0.057-0.314,0.337-0.462,0.356c-0.377,0.051-0.6-0.5-0.828-0.72c-0.232-0.224-0.5-0.442-0.793-0.497   c-0.344-0.063-0.723,0.09-1.064,0.041c-0.349-0.05-0.666,0.06-0.966,0.125c-0.323,0.07-0.579,0.138-0.927,0.154   c-0.425,0.021-0.755-0.083-1.119-0.246c-0.433-0.193-0.715,0.026-1.077,0.092c-0.229,0.041-0.465-0.055-0.649,0.063   c-0.161,0.103-0.167,0.324-0.293,0.459c-0.207,0.224-0.356-0.045-0.461,0.28c-0.144,0.442-0.5,0.826-0.843,1.103   c-0.027,0.022-0.041,0.048-0.064,0.072c-0.368,0.108-0.821,0.369-1.111,0.361c-0.381-0.009-0.743-0.048-1.058-0.257   c-0.659-0.438-0.216-1.463-0.686-2.003c-0.296-0.142-0.786-0.441-1.165-0.342c-0.352,0.092-1.002,0.875-0.979-0.004   c0.004-0.169,0.164-0.394,0.197-0.625c0.03-0.206-0.031-0.425,0-0.629c0.072-0.491,0.447-0.883-0.086-1.073   c-0.385-0.137-1.008,0.08-1.181,0.437c-0.226,0.464,0.198,0.874-0.396,1.073c-0.538,0.18-1.871-0.468-2.122-1.103   c0.006-0.556,0.135-1.533,0.157-1.695c0.016-0.108-0.092-0.785,0.03-1.019c0.203-0.387,0.51-0.939,0.984-1.031   c0.531-0.102,1.001,0.436,1.56,0.271c0.675-0.199,0.056-0.413,0.448-0.769c0.271-0.246,0.767,0.143,0.957,0.2   c0.548,0.169,1.58,1.319,2.153,0.883c0.338-0.256-0.327-1.086-0.314-1.482c0.028-0.853,0.399-0.522,0.88-0.99   c0.24-0.233,0.299-0.847,0.383-1.158c0.121-0.454,0.234-0.96,0.357-1.456c0.11-0.447,0.427-0.557,0.765-0.845   c0.145-0.123,0.435-0.346,0.483-0.536c0.054-0.206-0.104-0.423-0.068-0.638c0.049-0.301,0.287-0.4,0.508-0.58   c0.167-0.136,0.678-0.463,0.896-0.488c-0.239,0.19-0.436,0.727-0.176,0.922c0.334,0.252,0.271-0.265,0.444-0.555   c0.12-0.202,0.254-0.449,0.421-0.59c0.195-0.164,0.449-0.163,0.677-0.219c0.219-0.053,0.508-0.258,0.274-0.487   c-0.246-0.239-0.521,0.102-0.739,0.194c-0.234,0.1-0.438,0.163-0.7,0.099c-0.348-0.085-0.102-0.285-0.309-0.505   c-0.124-0.132-0.22-0.079-0.299-0.25c-0.048-0.104-0.053-0.338,0.019-0.427c0.165-0.207,0.671-0.098,0.932-0.108   c0.349-0.014,0.503-0.053,0.607-0.367c0.1-0.299,0.411-0.456,0.37-0.004c-0.023,0.268-0.066,0.573,0.092,0.81   c0.158,0.239,0.438,0.219,0.694,0.219c0.247,0,0.496,0.005,0.741,0.005c0.309,0,0.514-0.091,0.369-0.466   c-0.226-0.582-0.974-0.255-1.39-0.493c-0.472-0.269-0.202-0.901-0.606-1.213c-0.449-0.347-1.086-0.217-1.519-0.547   c-0.232-0.177-0.343-0.296-0.675-0.237c-0.268,0.047-0.532,0.19-0.81,0.219c-0.359,0.037-0.731-0.038-1.089,0.004   c-0.226,0.027-0.835,0.06-0.976,0.275c-0.181,0.274,0.133,0.455-0.286,0.579c-0.232,0.068-0.487,0.188-0.562,0.465   c-0.068,0.252,0.078,0.547,0.215,0.741c0.15,0.214,0.485,0.5-0.011,0.398c-0.261-0.054-0.395-0.004-0.498-0.218   c-0.109-0.229-0.037-0.451-0.098-0.7c-0.127-0.527-1.056-0.096-1.45-0.279c-0.177-0.081-0.327-0.317-0.518-0.414   c-0.184-0.093-0.447-0.192-0.658-0.168c-0.006-0.093,0.034-0.169,0.093-0.24c0.086-0.105,0.232-0.113,0.289-0.261   c0.04-0.105-0.008-0.234,0.034-0.347c0.102-0.276,0.424-0.408,0.645-0.561c0.209-0.144,0.409-0.247,0.626-0.366   c0.126-0.068,0.321-0.095,0.429-0.165c0.078-0.052,0.191-0.237,0.269-0.316c0.396-0.399,0.95-0.154,1.41,0.043   c0.246,0.104,0.416,0.349,0.677,0.417c0.223,0.059,0.528,0.093,0.761,0.096c0.55,0.007,0.771-0.522,0.729-1.023   c-0.048-0.579-0.585-0.789-1.054-1.096c-0.467-0.306-0.976-0.384-1.527-0.461c-0.447-0.063-1.215,0.073-1.389,0.565   c-0.074,0.21,0.084,0.546-0.096,0.627c-0.199,0.091-0.553-0.106-0.7-0.193c-0.268-0.157-0.361-0.306-0.688-0.323   c-0.278-0.016-0.574-0.031-0.86-0.019c-0.274,0.012-0.532,0.059-0.746,0.242c-0.181,0.153-0.294,0.483-0.529,0.587   c-0.337,0.147-1.067,0.039-1.438,0.02c-0.004-0.076-0.017-0.157-0.034-0.237c3.354-2.151,7.33-3.416,11.603-3.416   c2.433,0,4.764,0.424,6.946,1.169c-0.283,0.024-0.567,0.044-0.855,0.031c-0.577-0.024-1.067-0.335-1.636-0.387   c-0.653-0.059-0.765,0.177-1.275,0.398c-1.001,0.435-2.271-0.087-3.151-0.551c-0.769-0.404-2.38-0.644-2.764,0.44l-0.856,0.478   c-0.277,0.396-0.214,0.884,0.244,1.003c1.129,0.293,2.006-0.409,2.674,0.824c0.32,0.591,2.096,1.911,2.798,1.212   c0.34-0.338-0.055-0.818-0.106-1.215c-0.066-0.5,0.217-0.977,0.573-1.303c0.794-0.729,2.053-0.46,3.054-0.412   c1.063,0.051,1.761,0.759,2.795,0.806c0.189,0.009,0.667-0.028,0.791,0.103c0.236,0.25-0.019,0.353-0.17,0.615   c-0.378,0.66,0.039,0.596,0.637,0.672c0.642,0.082,0.698,0.051,0.866,0.673c0.113,0.419-0.023,0.334,0.411,0.444   c0.273,0.069,0.507,0.044,0.779,0.18c0.328,0.163,0.663,0.571,0.924,0.821c0.171,0.164,0.146-0.019,0.237,0.282   c0.054,0.176-0.022,0.405,0,0.59c0.074,0.604,0.905,1.589,1.635,1.429c0.993-0.218-0.231-1.296-0.38-1.775   c-0.04-0.13,0.008-0.433-0.052-0.532c-0.082-0.138-0.3-0.11-0.437-0.247c-0.25-0.251-0.169-0.566,0.021-0.824   c1.429,1.179,2.687,2.549,3.772,4.052c-0.152-0.085-0.318-0.164-0.507-0.243c-0.311-0.131-0.688-0.261-0.949-0.506   c-0.25-0.236-0.223-0.546-0.589-0.627c-0.009,0.302-0.201,1.83-0.326,1.89c-0.133,0.774,0.337,1.019,0.705,1.511   c0.375,0.501,0.328,1.169,0.327,1.803c-0.001,0.608-0.069,1.458,0.127,2.031c0.216,0.632,0.853,0.916,1.112,1.544   c0.206,0.498,0.238,1.147,0.393,1.63c0.242,0.76,0.793,1.157,1.42,1.63c0.363,0.274,0.951,0.981,1.509,0.981   s0.764-1.071,0.764-1.071c0.003,0,0.004-0.003,0.006-0.003c0.063,0.667,0.103,1.34,0.103,2.022   C71.568,72.999,61.893,82.674,50,82.674z M42.581,50.555c0.029,0.139,0.305,0.223,0.234,0.394c-0.197,0.485-0.58-0.068-0.582-0.35   c-0.002-0.305,0.178-0.563,0.145-0.903v-0.048c0.105-0.101,0.251-0.146,0.384-0.039c0.273,0.223-0.041,0.246-0.098,0.425   C42.588,50.278,42.514,50.229,42.581,50.555z M41.95,48.984l-0.541,0.289c-0.235,0.021-0.617,0.09-0.558-0.232   c0.247-0.119,0.49-0.244,0.74-0.354c0.158-0.07,0.417-0.343,0.562-0.379c0.291-0.072,0.365,0.003,0.567,0.195   c0.12,0.113,0.189-0.013,0.29,0.189c0.05,0.099-0.003,0.375-0.009,0.479C42.67,49.182,42.175,49.25,41.95,48.984z M43.584,50.657   c-0.158-0.057-0.201-0.399-0.189-0.534l-0.136-0.811c0.641-0.246,0.586,0.373,1.189,0.337c-0.055,0.207-0.257,0.217-0.368,0.328   c-0.13,0.131-0.152,0.174-0.252,0.338C43.734,50.471,43.942,50.785,43.584,50.657z" fill="#844280"/></g></svg>