<?xml version="1.0" ?><!DOCTYPE svg  PUBLIC '-//W3C//DTD SVG 1.1//EN'  'http://www.w3.org/Graphics/SVG/1.1/DTD/svg11.dtd'><svg enable-background="new 0 0 100 100" height="100px" id="Layer_1" version="1.1" viewBox="0 0 100 100" width="100px" xml:space="preserve" xmlns="http://www.w3.org/2000/svg" xmlns:xlink="http://www.w3.org/1999/xlink"><g><g><path d="M13.815,95h72.369c2.032,0,3.685-1.653,3.685-3.685V8.685C89.869,6.652,88.217,5,86.185,5H13.815    c-2.032,0-3.685,1.652-3.685,3.685v82.631C10.131,93.347,11.783,95,13.815,95z M40.755,18.915    c-0.399,0.681-0.917,1.232-1.55,1.623c-0.609,0.389-1.243,0.641-1.886,0.775c-0.805,0.147-1.916,0.21-3.381,0.21h-1.257v5.282    h-4.645V11.404h5.75c1.978,0,3.251,0.083,3.897,0.239c1.04,0.241,1.923,0.788,2.624,1.614c0.702,0.825,1.051,1.885,1.051,3.151    C41.359,17.382,41.158,18.227,40.755,18.915z M56.362,26.894h-4.274l-3.902-6.872v6.872h-4.622V11.316h4.402l3.979,7.069v-7.069    h4.418V26.894z M71.963,24.261l-0.218,0.229c-0.593,0.624-1.44,1.172-2.522,1.629c-1.079,0.456-2.189,0.687-3.301,0.687    c-1.427,0-2.695-0.335-3.771-0.996c-1.09-0.67-1.918-1.636-2.462-2.872c-0.522-1.186-0.787-2.49-0.787-3.877    c0-1.509,0.298-2.875,0.886-4.062c0.605-1.223,1.506-2.175,2.676-2.829c0.902-0.508,2.021-0.766,3.325-0.766    c1.702,0,3.072,0.411,4.069,1.221c0.953,0.774,1.584,1.836,1.885,3.151l-4.024,0.863c-0.135-0.396-0.343-0.709-0.639-0.944    c-0.335-0.268-0.758-0.396-1.291-0.396c-0.846,0-1.493,0.274-1.979,0.842c-0.509,0.596-0.768,1.541-0.768,2.81    c0,1.391,0.267,2.421,0.792,3.064c0.493,0.604,1.123,0.897,1.929,0.897c0.409,0,0.829-0.091,1.25-0.269    c0.32-0.137,0.607-0.293,0.859-0.468v-0.509h-2.837v-3.839h6.928V24.261z M84.736,32.346l-0.002,57.521H15.269l-0.012-57.521    H84.736z" fill="#F37022"/><path d="M35.509,15.269c-0.223-0.036-0.771-0.081-2.099-0.081h-0.729v2.555h0.93c1.525,0,2.031-0.121,2.179-0.168    c0.267-0.098,0.464-0.244,0.614-0.438c0.142-0.193,0.217-0.414,0.217-0.682c0-0.336-0.101-0.584-0.293-0.782    C36.115,15.452,35.849,15.325,35.509,15.269z" fill="#F37022"/></g><g><path d="M24.118,74.622l45.858,8.087c0.522,0.091,1.02-0.259,1.113-0.78l5.722-32.457    c0.094-0.523-0.256-1.021-0.778-1.111l-4.373-0.772V40.45c0-0.531-0.43-0.962-0.961-0.962H24.133c-0.53,0-0.96,0.431-0.96,0.962    v33.046C23.173,74.027,23.597,74.531,24.118,74.622z M26.507,43.784c0-0.53,0.431-0.96,0.961-0.96h39.896    c0.529,0,0.959,0.43,0.959,0.96v26.291c0,0.53-0.43,0.96-0.959,0.96H27.468c-0.53,0-0.961-0.43-0.961-0.96V43.784z" fill="#F37022"/><g><path d="M49.201,61.263c1.374-0.168,4.546-1.718,4.205-3.353c-0.132-0.627-1.012-1.507-1.639-1.638     c-1.634-0.341-3.184,2.825-3.353,4.201C48.744,60.659,49.017,60.933,49.201,61.263z" fill="#F37022"/><path d="M45.633,61.256c0.185-0.329,0.458-0.603,0.788-0.786c-0.167-1.374-1.717-4.546-3.352-4.205     c-0.627,0.131-1.508,1.012-1.639,1.639C41.089,59.537,44.257,61.087,45.633,61.256z" fill="#F37022"/><path d="M45.447,62.809c-0.049-0.176-0.077-0.36-0.077-0.553c0-0.194,0.028-0.382,0.08-0.56     c-1.09-0.854-4.43-2.002-5.345-0.604c-0.351,0.536-0.351,1.782,0,2.317C41.02,64.807,44.356,63.661,45.447,62.809z" fill="#F37022"/><path d="M47.415,60.212c0.194,0,0.381,0.028,0.56,0.079c0.854-1.089,2.001-4.43,0.604-5.344     c-0.535-0.351-1.781-0.352-2.316,0c-1.397,0.914-0.253,4.25,0.601,5.342C47.038,60.24,47.223,60.212,47.415,60.212z" fill="#F37022"/><path d="M54.725,61.103c-0.915-1.396-4.251-0.252-5.343,0.602c0.05,0.176,0.077,0.36,0.077,0.552     c0,0.194-0.028,0.382-0.079,0.56c1.089,0.854,4.429,2.002,5.345,0.604C55.074,62.883,55.074,61.639,54.725,61.103z" fill="#F37022"/><path d="M45.629,63.25c-1.375,0.167-4.547,1.716-4.205,3.352c0.131,0.627,1.011,1.507,1.638,1.639     c1.634,0.341,3.184-2.827,3.353-4.202C46.085,63.853,45.813,63.58,45.629,63.25z" fill="#F37022"/><path d="M49.197,63.257c-0.186,0.329-0.459,0.602-0.789,0.785c0.168,1.375,1.717,4.547,3.353,4.205     c0.627-0.132,1.507-1.012,1.638-1.638C53.74,64.975,50.572,63.426,49.197,63.257z" fill="#F37022"/><path d="M47.415,64.301c-0.195,0-0.383-0.028-0.561-0.08c-0.854,1.089-2.001,4.43-0.604,5.345     c0.536,0.351,1.781,0.351,2.317,0c1.396-0.915,0.252-4.251-0.602-5.343C47.791,64.273,47.606,64.301,47.415,64.301z" fill="#F37022"/></g><g><path d="M58.573,49.447c1.049,0.243,3.777-0.046,3.962-1.33c0.071-0.493-0.338-1.37-0.761-1.633     c-1.103-0.684-3.076,1.219-3.565,2.178C58.4,48.886,58.526,49.158,58.573,49.447z" fill="#F37022"/><path d="M55.969,48.494c0.223-0.191,0.495-0.317,0.785-0.365c0.243-1.048-0.046-3.776-1.331-3.962     c-0.492-0.07-1.369,0.338-1.632,0.762C53.107,46.031,55.009,48.005,55.969,48.494z" fill="#F37022"/><path d="M55.421,49.579c0.011-0.142,0.039-0.284,0.09-0.424c0.053-0.143,0.123-0.271,0.208-0.389     c-0.569-0.913-2.704-2.639-3.744-1.861c-0.398,0.298-0.729,1.208-0.615,1.692C51.655,49.861,54.397,49.912,55.421,49.579z" fill="#F37022"/><path d="M57.548,48.205c0.142,0.052,0.271,0.123,0.388,0.208c0.913-0.569,2.64-2.704,1.861-3.744     c-0.298-0.398-1.207-0.729-1.691-0.615c-1.265,0.296-1.314,3.037-0.981,4.062C57.266,48.126,57.408,48.154,57.548,48.205z" fill="#F37022"/><path d="M62.649,50.8c-0.296-1.265-3.037-1.314-4.062-0.981c-0.011,0.142-0.039,0.283-0.09,0.424     c-0.052,0.142-0.123,0.271-0.207,0.388c0.568,0.913,2.703,2.64,3.742,1.861C62.432,52.192,62.764,51.283,62.649,50.8z" fill="#F37022"/><path d="M55.436,49.949c-1.048-0.243-3.777,0.046-3.962,1.331c-0.071,0.492,0.338,1.369,0.761,1.632     c1.103,0.684,3.076-1.219,3.565-2.178C55.608,50.511,55.482,50.239,55.436,49.949z" fill="#F37022"/><path d="M58.04,50.902c-0.223,0.192-0.495,0.318-0.785,0.365c-0.242,1.048,0.046,3.777,1.331,3.963     c0.493,0.07,1.37-0.339,1.632-0.762C60.901,53.365,59,51.393,58.04,50.902z" fill="#F37022"/><path d="M56.461,51.191c-0.143-0.052-0.271-0.122-0.388-0.207c-0.913,0.568-2.64,2.704-1.861,3.743     c0.298,0.399,1.207,0.73,1.691,0.616c1.264-0.296,1.314-3.037,0.981-4.062C56.743,51.271,56.602,51.243,56.461,51.191z" fill="#F37022"/></g><g><path d="M39.394,49.447c1.049,0.243,3.777-0.046,3.963-1.33c0.07-0.493-0.338-1.37-0.762-1.633     c-1.103-0.684-3.076,1.219-3.565,2.178C39.221,48.886,39.347,49.158,39.394,49.447z" fill="#F37022"/><path d="M36.789,48.494c0.223-0.191,0.495-0.317,0.785-0.365c0.243-1.048-0.046-3.776-1.331-3.962     c-0.492-0.07-1.369,0.338-1.632,0.762C33.928,46.031,35.83,48.005,36.789,48.494z" fill="#F37022"/><path d="M36.241,49.579c0.011-0.142,0.04-0.284,0.091-0.424c0.052-0.143,0.122-0.271,0.207-0.389     c-0.569-0.913-2.704-2.639-3.744-1.861c-0.398,0.298-0.729,1.208-0.615,1.692C32.477,49.861,35.218,49.912,36.241,49.579z" fill="#F37022"/><path d="M38.368,48.205c0.143,0.052,0.271,0.123,0.388,0.207c0.914-0.568,2.64-2.703,1.862-3.743     c-0.299-0.398-1.208-0.729-1.692-0.615c-1.264,0.296-1.314,3.037-0.981,4.062C38.086,48.126,38.229,48.154,38.368,48.205z" fill="#F37022"/><path d="M43.471,50.8c-0.297-1.265-3.038-1.314-4.063-0.981c-0.011,0.142-0.039,0.283-0.09,0.424     c-0.052,0.142-0.123,0.271-0.207,0.388c0.569,0.913,2.703,2.64,3.743,1.861C43.253,52.192,43.584,51.283,43.471,50.8z" fill="#F37022"/><path d="M36.256,49.949c-1.048-0.243-3.777,0.046-3.962,1.331c-0.071,0.492,0.338,1.369,0.761,1.632     c1.103,0.684,3.076-1.219,3.566-2.178C36.429,50.511,36.303,50.239,36.256,49.949z" fill="#F37022"/><path d="M38.86,50.902c-0.223,0.192-0.495,0.318-0.785,0.365c-0.242,1.048,0.046,3.777,1.331,3.963     c0.493,0.07,1.37-0.339,1.632-0.762C41.722,53.365,39.82,51.393,38.86,50.902z" fill="#F37022"/><path d="M37.281,51.191c-0.142-0.052-0.271-0.122-0.388-0.207c-0.913,0.568-2.64,2.704-1.861,3.743     c0.298,0.399,1.207,0.73,1.692,0.616c1.263-0.296,1.313-3.037,0.98-4.062C37.563,51.271,37.422,51.243,37.281,51.191z" fill="#F37022"/></g></g></g></svg>