<?xml version="1.0" ?><!DOCTYPE svg  PUBLIC '-//W3C//DTD SVG 1.1//EN'  'http://www.w3.org/Graphics/SVG/1.1/DTD/svg11.dtd'><svg enable-background="new 0 0 100 100" height="100px" id="Layer_1" version="1.1" viewBox="0 0 100 100" width="100px" xml:space="preserve" xmlns="http://www.w3.org/2000/svg" xmlns:xlink="http://www.w3.org/1999/xlink"><g><g><path d="M13.815,95h72.369c2.032,0,3.685-1.653,3.685-3.685V8.685C89.869,6.653,88.217,5,86.185,5H13.815    c-2.032,0-3.685,1.653-3.685,3.685v82.631C10.131,93.347,11.783,95,13.815,95z M49.52,18.922c-0.377,0.642-0.864,1.161-1.461,1.53    c-0.574,0.366-1.171,0.604-1.776,0.731c-0.758,0.138-1.806,0.196-3.187,0.196h-1.185v4.979h-4.563V11.844h5.605    c1.864,0,3.064,0.079,3.674,0.227c0.979,0.226,1.811,0.742,2.472,1.521c0.661,0.777,0.99,1.776,0.99,2.97    C50.089,17.478,49.899,18.272,49.52,18.922z M59.05,17.123c2.438,1.015,3.572,2.518,3.572,4.729c0,2.284-1.557,5.041-5.69,5.041    c-1.528,0-3.462-0.539-4.241-1.024l-0.457-0.284l0.643-3.914l1.011,0.585c0.596,0.343,1.985,0.724,3.024,0.724    c0.685,0,1.168-0.389,1.168-0.909c0-0.215,0-0.537-1.485-1.136c-2.498-0.979-3.766-2.559-3.766-4.694    c0-2.847,2.27-4.924,5.391-4.924c1.423,0,3.012,0.429,3.846,0.852l0.588,0.3l-1.045,3.784l-0.894-0.483    c-0.384-0.208-1.367-0.538-2.369-0.538c-0.749,0-0.919,0.553-0.919,0.752C57.426,16.232,57.426,16.431,59.05,17.123z     M84.736,32.346l-0.002,57.521H15.269l-0.012-57.521H84.736z" fill="#CC0000"/><path d="M44.576,15.485c-0.21-0.034-0.727-0.076-1.979-0.076h-0.687v2.407h0.876c1.438,0,1.914-0.113,2.054-0.157    c0.251-0.093,0.438-0.231,0.579-0.413c0.134-0.184,0.204-0.391,0.204-0.644c0-0.315-0.095-0.551-0.276-0.736    C45.146,15.659,44.896,15.539,44.576,15.485z" fill="#CC0000"/></g><path d="M30.38,83.611c-0.005,0-0.009,0-0.013,0c-0.765,0-1.463-0.296-2.023-0.856   c-0.676-0.676-0.96-1.567-0.801-2.509c0.573-3.378,6.777-6.913,10.679-8.826c1.475-2.585,2.998-5.557,4.418-8.622   c1.284-2.772,2.451-5.617,3.387-8.257c-2.019-4.777-3.57-11.215-1.545-14.314c0.685-1.049,1.753-1.626,3.005-1.626   c1.141,0,2.078,0.47,2.711,1.359c1.569,2.208,1.087,7.075-1.436,14.475c0.926,2.04,2.015,3.964,3.238,5.722   c1.304,1.87,3.188,3.646,5.469,5.155c2.269-0.339,4.389-0.511,6.31-0.511c3.896,0,6.529,0.689,7.829,2.049   c0.62,0.651,0.929,1.451,0.89,2.316c-0.029,0.632-0.404,2.697-4.018,2.697c-3.203,0-7.694-1.515-11.563-3.883   c-2.327,0.39-4.711,0.943-7.09,1.648c-3.318,0.984-6.694,2.274-9.789,3.745C34.105,83.561,31.316,83.611,30.38,83.611z    M35.544,75.762c-3.537,2.124-5.323,3.934-5.488,4.91c-0.023,0.133-0.006,0.186,0.09,0.281c0.109,0.11,0.172,0.11,0.222,0.11   C31.038,81.063,32.774,79.853,35.544,75.762z M42.297,69.453l-0.103,0.18c2.259-0.933,4.597-1.762,6.906-2.446   c1.562-0.463,3.125-0.863,4.675-1.197l-0.116-0.074l0.273-0.043c-1.609-1.313-2.975-2.755-4.022-4.261   c-0.836-1.199-1.611-2.47-2.321-3.798l-0.058,0.166l-0.035-0.08c-0.765,1.962-1.625,3.983-2.544,5.969   c-0.9,1.941-1.841,3.85-2.787,5.648L42.297,69.453z M61.33,67.44c2.847,1.284,5.469,1.875,7.149,1.875   c0.944,0,1.368-0.188,1.472-0.274c0.004-0.127-0.021-0.26-0.187-0.431c-0.582-0.61-2.462-1.262-5.986-1.262   C62.998,67.349,62.182,67.379,61.33,67.44z M47.486,41.148c-0.401,0-0.653,0.137-0.872,0.471c-0.813,1.243-0.75,4.636,0.671,9.023   c1.545-5.391,1.474-8.308,0.835-9.207C47.994,41.259,47.844,41.148,47.486,41.148z" fill="#CC0000"/></g></svg>