<?xml version="1.0" ?><!DOCTYPE svg  PUBLIC '-//W3C//DTD SVG 1.1//EN'  'http://www.w3.org/Graphics/SVG/1.1/DTD/svg11.dtd'><svg enable-background="new 0 0 100 100" height="100px" id="Layer_1" version="1.1" viewBox="0 0 100 100" width="100px" xml:space="preserve" xmlns="http://www.w3.org/2000/svg" xmlns:xlink="http://www.w3.org/1999/xlink"><g><g><path d="M13.815,95h72.369c2.032,0,3.685-1.653,3.685-3.685V8.685C89.869,6.653,88.217,5,86.185,5H13.815    c-2.032,0-3.685,1.653-3.685,3.685v82.631C10.131,93.347,11.783,95,13.815,95z M42.104,18.918    c-0.384,0.654-0.882,1.185-1.489,1.56c-0.586,0.374-1.194,0.616-1.812,0.746c-0.773,0.141-1.841,0.2-3.249,0.2h-1.208V26.5h-4.461    V11.702h5.524c1.899,0,3.123,0.081,3.744,0.229c1,0.232,1.848,0.758,2.521,1.551c0.674,0.794,1.009,1.813,1.009,3.028    C42.684,17.445,42.49,18.256,42.104,18.918z M49.249,26.894c-1.549,0-3.506-0.545-4.293-1.035l-0.42-0.261l0.629-3.825    l0.927,0.535c0.618,0.355,2.059,0.753,3.136,0.753c0.743,0,1.187-0.346,1.187-0.924c0-0.256,0-0.604-1.571-1.239    c-2.52-0.987-3.799-2.577-3.799-4.723c0-2.86,2.194-4.858,5.336-4.858c1.44,0,3.049,0.434,3.895,0.861l0.541,0.274l-1.021,3.701    l-0.82-0.443c-0.399-0.217-1.421-0.56-2.464-0.56c-0.865,0-0.933,0.582-0.933,0.761c0,0.299,0,0.515,1.711,1.245    c2.458,1.022,3.604,2.535,3.604,4.759C54.892,24.212,53.414,26.894,49.249,26.894z M67.852,24.688    c-1.402,1.27-3.464,1.91-6.133,1.91c-1.201,0-2.377-0.069-3.325-0.205l-0.615-0.088V11.996l0.593-0.104    c1.06-0.186,2.516-0.288,3.948-0.288c2.443,0,4.128,0.489,5.465,1.586c1.523,1.232,2.331,3.161,2.331,5.575    C70.115,21.937,68.884,23.736,67.852,24.688z M84.736,32.346l-0.002,57.521H15.269l-0.012-57.521H84.736z" fill="#1463B8"/><path d="M37.063,15.415c-0.214-0.035-0.739-0.078-2.017-0.078h-0.7v2.455h0.895c1.465,0,1.951-0.116,2.092-0.161    c0.257-0.095,0.447-0.235,0.592-0.422c0.135-0.186,0.208-0.398,0.208-0.655c0-0.322-0.097-0.561-0.281-0.751    C37.646,15.592,37.389,15.469,37.063,15.415z" fill="#1463B8"/><path d="M62.609,15.35c-0.211,0-0.389,0.008-0.537,0.019v7.443c0.087,0.001,0.173,0.001,0.247,0.001h0.048    c1.063,0,1.887-0.308,2.449-0.917c0.614-0.664,0.926-1.684,0.926-3.032c0.007-1.205-0.289-2.116-0.881-2.713    C64.334,15.619,63.575,15.35,62.609,15.35z" fill="#1463B8"/></g><g><path d="M30.962,46.479V81.79c0,0.956,0.774,1.731,1.73,1.731h40.673c0.956,0,1.73-0.775,1.73-1.731V46.479    c0-0.956-0.774-1.731-1.73-1.731H32.692C31.736,44.748,30.962,45.523,30.962,46.479z M71.949,74.652H34.108    c-0.144,0-0.26-0.116-0.26-0.26V47.546c0-0.144,0.116-0.26,0.26-0.26h37.841c0.144,0,0.26,0.116,0.26,0.26v26.847    C72.209,74.536,72.093,74.652,71.949,74.652z" fill="#1463B8"/><path d="M28.051,68.595c-0.144,0-0.26-0.116-0.26-0.26V41.488c0-0.144,0.116-0.26,0.26-0.26h37.841    c0.144,0,0.26,0.116,0.26,0.26v1.529h2.887v-2.596c0-0.956-0.774-1.731-1.73-1.731H26.635c-0.956,0-1.73,0.775-1.73,1.731v35.311    c0,0.956,0.774,1.731,1.73,1.731h2.596v-8.869H28.051z" fill="#1463B8"/><circle cx="64.339" cy="53.515" fill="#1463B8" r="3.85"/><path d="M69.613,71.41l-7.854-8.774c-0.096-0.107-0.252-0.107-0.348-0.001l-7.95,8.776    c-0.096,0.106-0.058,0.192,0.086,0.192h15.979C69.67,71.604,69.708,71.518,69.613,71.41z" fill="#1463B8"/><path d="M49.582,56.908L36.446,71.411c-0.097,0.106-0.059,0.192,0.085,0.192h14.548    c0.144,0,0.338-0.086,0.435-0.192l5.558-6.136c0.097-0.106,0.097-0.279,0.001-0.386l-7.144-7.98    C49.834,56.803,49.678,56.802,49.582,56.908z" fill="#1463B8"/></g></g></svg>