<?xml version="1.0" ?><!DOCTYPE svg  PUBLIC '-//W3C//DTD SVG 1.1//EN'  'http://www.w3.org/Graphics/SVG/1.1/DTD/svg11.dtd'><svg enable-background="new 0 0 100 100" height="100px" id="Layer_1" version="1.1" viewBox="0 0 100 100" width="100px" xml:space="preserve" xmlns="http://www.w3.org/2000/svg" xmlns:xlink="http://www.w3.org/1999/xlink"><g><path d="M26.805,80.586c0.31,0,0.614-0.072,0.914-0.217c1.494-0.729,5.511-2.425,10.528-2.425   c3.968,0,9.563,2.214,10.586,2.549c1.021,0.336,1.451,0.357,2.334,0c0.884-0.356,6.618-2.549,10.586-2.549   c5.018,0,9.034,1.695,10.534,2.428c0.293,0.142,0.599,0.214,0.908,0.214c0.56,0,1.084-0.242,1.44-0.666   c0.302-0.357,0.46-0.809,0.46-1.305V46.866c0-0.897-0.533-1.834-1.296-2.276c-1.259-0.734-5.848-3.131-12.047-3.131   c-5.253,0-9.376,1.808-11.753,3.185c-2.377-1.377-6.5-3.185-11.753-3.185c-6.199,0-10.788,2.396-12.044,3.129   c-0.766,0.444-1.299,1.381-1.299,2.278v31.749C24.904,79.721,25.739,80.586,26.805,80.586z M61.753,44.635   c5.01,0,8.778,1.775,10.167,2.54v29.572c-2.258-0.891-5.892-1.979-10.167-1.979c-4.245,0-7.81,1.039-10.165,1.978V47.904   c0-0.162-0.024-0.319-0.07-0.468C53.364,46.363,57.066,44.635,61.753,44.635z M28.08,47.175c1.385-0.763,5.155-2.54,10.167-2.54   c4.687,0,8.389,1.729,10.235,2.802c-0.046,0.148-0.07,0.306-0.07,0.468v28.841c-2.355-0.938-5.92-1.978-10.165-1.978   c-4.276,0-7.912,1.09-10.167,1.979V47.175z" fill="#087466"/><g><path d="M13.815,95h72.369c2.032,0,3.685-1.653,3.685-3.685V8.685C89.869,6.653,88.217,5,86.185,5H13.815    c-2.032,0-3.685,1.653-3.685,3.685v82.631C10.131,93.347,11.783,95,13.815,95z M41.918,18.996    c-0.397,0.677-0.912,1.225-1.54,1.613c-0.605,0.387-1.236,0.638-1.874,0.771c-0.8,0.146-1.904,0.208-3.36,0.208h-1.249v5.25    h-4.615V11.531h5.715c1.965,0,3.23,0.085,3.873,0.239c1.033,0.239,1.91,0.783,2.607,1.604s1.044,1.874,1.044,3.133    C42.519,17.473,42.318,18.312,41.918,18.996z M55.955,19.277c0,1.668-0.071,2.834-0.219,3.562    c-0.164,0.812-0.478,1.516-0.933,2.091c-0.458,0.579-1.068,1.042-1.813,1.377c-0.736,0.33-1.636,0.491-2.752,0.491    c-1.329,0-2.337-0.178-3.084-0.541c-0.744-0.362-1.348-0.849-1.793-1.444c-0.435-0.582-0.727-1.209-0.867-1.861    c-0.177-0.836-0.263-2.002-0.263-3.566v-8.068h4.508v8.177c0,1.453,0.052,1.898,0.074,2.022c0.057,0.292,0.185,0.519,0.392,0.691    c0.203,0.167,0.524,0.252,0.958,0.252c0.416,0,0.741-0.075,0.893-0.208c0.174-0.152,0.264-0.31,0.298-0.525    c0.063-0.396,0.094-1.095,0.094-2.079v-8.33h4.508V19.277z M70.246,24.242c-0.323,0.715-0.777,1.299-1.349,1.734    c-0.579,0.443-1.29,0.719-2.115,0.816c-0.462,0.055-1.507,0.088-3.194,0.101h-0.003h-5.222v-15.48h5.975    c1.067,0,1.853,0.05,2.402,0.15c0.614,0.114,1.173,0.354,1.662,0.718c0.483,0.359,0.89,0.837,1.205,1.421    c0.323,0.599,0.487,1.272,0.487,2.004c0,0.793-0.2,1.532-0.595,2.197c-0.145,0.244-0.31,0.469-0.493,0.67    c0.367,0.261,0.683,0.577,0.942,0.944c0.512,0.729,0.771,1.588,0.771,2.554C70.721,22.813,70.561,23.544,70.246,24.242z     M84.736,32.346l-0.002,57.521H15.269l-0.012-57.521H84.736z" fill="#087466"/><path d="M36.704,15.373c-0.221-0.037-0.765-0.08-2.086-0.08h-0.724v2.538h0.924c1.517,0,2.019-0.121,2.165-0.167    c0.266-0.097,0.462-0.243,0.611-0.436c0.14-0.192,0.215-0.411,0.215-0.679c0-0.333-0.101-0.579-0.29-0.775    C37.307,15.556,37.041,15.429,36.704,15.373z" fill="#087466"/><path d="M65.271,16.894c0.252-0.032,0.433-0.112,0.554-0.245c0.073-0.079,0.169-0.221,0.169-0.545    c0-0.242-0.048-0.421-0.148-0.544c-0.031-0.038-0.126-0.155-0.454-0.199c-0.118-0.014-0.558-0.04-2.096-0.04h-0.681v1.614h0.889    C64.77,16.935,65.154,16.909,65.271,16.894z" fill="#087466"/><path d="M65.896,20.989c-0.091-0.034-0.505-0.147-2.001-0.147h-1.28v2.116h1.585c1.208,0,1.521-0.05,1.588-0.064    l0.022-0.005c0.201-0.04,0.351-0.128,0.474-0.277c0.119-0.146,0.18-0.372,0.18-0.673c0-0.264-0.05-0.471-0.153-0.632    C66.217,21.162,66.086,21.062,65.896,20.989z" fill="#087466"/></g></g></svg>