<?xml version="1.0" ?><!DOCTYPE svg  PUBLIC '-//W3C//DTD SVG 1.1//EN'  'http://www.w3.org/Graphics/SVG/1.1/DTD/svg11.dtd'><svg enable-background="new 0 0 100 100" height="100px" id="Layer_1" version="1.1" viewBox="0 0 100 100" width="100px" xml:space="preserve" xmlns="http://www.w3.org/2000/svg" xmlns:xlink="http://www.w3.org/1999/xlink"><g><g><path d="M13.815,95h72.369c2.032,0,3.685-1.653,3.685-3.685V8.685C89.869,6.653,88.217,5,86.185,5H13.815    c-2.032,0-3.685,1.653-3.685,3.685v82.631C10.131,93.347,11.783,95,13.815,95z M36.295,26.894l-2.109-3.422    c-0.838-1.369-1.167-1.809-1.288-1.949c-0.156-0.18-0.311-0.3-0.459-0.357c-0.069-0.026-0.27-0.082-0.739-0.099v5.827h-4.395    V11.316h6.454c1.488,0,2.564,0.143,3.289,0.435c0.788,0.319,1.422,0.884,1.887,1.68c0.443,0.764,0.669,1.641,0.669,2.605    c0,1.235-0.348,2.281-1.034,3.109c-0.386,0.465-0.873,0.835-1.456,1.107c0.104,0.105,0.203,0.212,0.297,0.321    c0.401,0.47,0.912,1.252,1.563,2.394l2.257,3.926H36.295z M52.511,26.894L51.39,23.72h-3.981l-1.061,3.174h-4.664l5.572-15.577    h4.063l5.729,15.577H52.511z M67.761,26.894l-2.109-3.422c-0.839-1.369-1.167-1.809-1.288-1.949    c-0.157-0.18-0.311-0.3-0.459-0.357c-0.07-0.026-0.271-0.082-0.739-0.099v5.827h-4.395V11.316h6.453    c1.489,0,2.565,0.143,3.289,0.435c0.788,0.319,1.423,0.884,1.887,1.68c0.443,0.764,0.669,1.641,0.669,2.605    c0,1.235-0.348,2.281-1.033,3.109c-0.386,0.465-0.873,0.835-1.457,1.107c0.105,0.105,0.204,0.212,0.297,0.321    c0.402,0.47,0.913,1.252,1.563,2.394l2.257,3.926H67.761z M84.736,32.346l-0.002,57.521H15.269l-0.012-57.521H84.736z" fill="#67005E"/><path d="M34.68,15.323c-0.081-0.01-0.42-0.037-1.762-0.037h-1.219v1.938h1.113c1.628,0,1.994-0.101,2.051-0.121    c0.143-0.053,0.242-0.134,0.323-0.264c0.094-0.149,0.141-0.357,0.141-0.623c0-0.281-0.058-0.495-0.171-0.638    C35.09,15.496,34.968,15.379,34.68,15.323z" fill="#67005E"/><polygon fill="#67005E" points="48.741,19.76 50.004,19.76 49.366,17.89   "/><path d="M66.145,15.323c-0.08-0.01-0.419-0.037-1.761-0.037h-1.219v1.938h1.114c1.627,0,1.992-0.101,2.049-0.121    c0.144-0.053,0.243-0.134,0.324-0.264c0.093-0.149,0.141-0.357,0.141-0.623c0-0.281-0.058-0.495-0.171-0.638    C66.556,15.496,66.434,15.379,66.145,15.323z" fill="#67005E"/></g><g><path d="M67.756,43.789H32.244c-1.182,0-2.148,0.869-2.148,1.929v5.661c0,1.061,0.967,1.929,2.148,1.929h35.512    c1.182,0,2.148-0.868,2.148-1.929v-5.661C69.904,44.658,68.938,43.789,67.756,43.789z M35.09,51.234h-1.73v-5.372h1.73V51.234z" fill="#67005E"/><path d="M67.756,56.347H32.244c-1.182,0-2.148,0.869-2.148,1.929v5.661c0,1.061,0.967,1.929,2.148,1.929h35.512    c1.182,0,2.148-0.868,2.148-1.929v-5.661C69.904,57.216,68.938,56.347,67.756,56.347z M35.09,63.792h-1.73V58.42h1.73V63.792z" fill="#67005E"/><path d="M67.756,68.904H32.244c-1.182,0-2.148,0.869-2.148,1.929v5.662c0,1.06,0.967,1.928,2.148,1.928h35.512    c1.182,0,2.148-0.868,2.148-1.928v-5.662C69.904,69.773,68.938,68.904,67.756,68.904z M35.09,76.35h-1.73v-5.372h1.73V76.35z" fill="#67005E"/></g></g></svg>