<?xml version="1.0" ?><!DOCTYPE svg  PUBLIC '-//W3C//DTD SVG 1.1//EN'  'http://www.w3.org/Graphics/SVG/1.1/DTD/svg11.dtd'><svg enable-background="new 0 0 100 100" height="100px" id="Layer_1" version="1.1" viewBox="0 0 100 100" width="100px" xml:space="preserve" xmlns="http://www.w3.org/2000/svg" xmlns:xlink="http://www.w3.org/1999/xlink"><g><g><path d="M13.815,95h72.369c2.032,0,3.685-1.653,3.685-3.685V8.685C89.869,6.653,88.217,5,86.185,5H13.815    c-2.032,0-3.685,1.653-3.685,3.685v82.631C10.131,93.347,11.783,95,13.815,95z M36.902,25.222c-1.383,0-3.129-0.486-3.832-0.924    l-0.374-0.233l0.561-3.414l0.828,0.478c0.552,0.317,1.837,0.672,2.799,0.672c0.663,0,1.06-0.309,1.06-0.824    c0-0.229,0-0.541-1.403-1.106c-2.25-0.881-3.391-2.3-3.391-4.216c0-2.554,1.959-4.337,4.764-4.337c1.285,0,2.721,0.387,3.477,0.77    l0.482,0.244l-0.913,3.305l-0.731-0.396c-0.356-0.193-1.269-0.5-2.199-0.5c-0.772,0-0.833,0.521-0.833,0.68    c0,0.267,0,0.459,1.528,1.111c2.193,0.913,3.216,2.263,3.216,4.247C41.939,22.827,40.62,25.222,36.902,25.222z M54.732,26.894    l-0.611-0.194c-1.52-0.483-2.819-0.987-4.348-1.691c-0.143-0.062-0.324-0.101-0.526-0.114c-2.656-0.191-5.334-2.318-5.334-6.637    c0-4.032,2.444-6.848,5.94-6.848c3.403,0,5.779,2.716,5.779,6.603c0,2.103-0.669,3.919-1.809,5.045    c0.449,0.112,0.901,0.213,1.325,0.31l0.734,0.166L54.732,26.894z M67.304,25.03l-9.535,0.017V11.508h3.96v9.954h5.575V25.03z     M84.736,32.346l-0.002,57.521H15.269l-0.012-57.521H84.736z" fill="#9C325C"/><path d="M49.79,14.837c-1.359,0-1.979,1.728-1.979,3.332c-0.009,1.23,0.313,2.264,0.881,2.836    c0.304,0.307,0.668,0.461,1.083,0.461c1.449,0,1.963-1.804,1.963-3.349C51.737,16.536,51.127,14.837,49.79,14.837z" fill="#9C325C"/></g><path d="M50,37.74c-9.053,0-18.416,2.814-18.416,7.523v31.685c0,4.709,9.363,7.523,18.416,7.523   s18.416-2.814,18.416-7.523V45.264C68.416,40.555,59.053,37.74,50,37.74z M66.354,76.948c0,2.28-6.222,5.461-16.354,5.461   s-16.354-3.181-16.354-5.461v-7.016C36.9,72.472,43.529,73.91,50,73.91s13.1-1.438,16.354-3.978V76.948z M66.354,66.387   c0,2.281-6.222,5.462-16.354,5.462s-16.354-3.181-16.354-5.462v-7.016c3.255,2.54,9.884,3.978,16.354,3.978   s13.1-1.438,16.354-3.978V66.387z M66.354,55.825c0,2.281-6.222,5.462-16.354,5.462s-16.354-3.181-16.354-5.462v-7.017   c3.255,2.54,9.884,3.979,16.354,3.979s13.1-1.438,16.354-3.979V55.825z" fill="#9C325C"/></g></svg>