<?xml version="1.0" ?><!DOCTYPE svg  PUBLIC '-//W3C//DTD SVG 1.1//EN'  'http://www.w3.org/Graphics/SVG/1.1/DTD/svg11.dtd'><svg enable-background="new 0 0 100 100" height="100px" id="Layer_1" version="1.1" viewBox="0 0 100 100" width="100px" xml:space="preserve" xmlns="http://www.w3.org/2000/svg" xmlns:xlink="http://www.w3.org/1999/xlink"><g><path d="M13.815,95h72.369c2.032,0,3.685-1.653,3.685-3.685V8.685C89.869,6.653,88.217,5,86.185,5H13.815   c-2.032,0-3.685,1.653-3.685,3.685v82.631C10.131,93.347,11.783,95,13.815,95z M35.652,17.124c2.438,1.014,3.572,2.518,3.572,4.729   c0,2.283-1.557,5.041-5.69,5.041c-1.527,0-3.462-0.54-4.241-1.024l-0.456-0.284l0.643-3.914l1.01,0.584   c0.597,0.343,1.985,0.725,3.024,0.725c0.686,0,1.168-0.389,1.168-0.91c0-0.214,0-0.536-1.485-1.135   c-2.498-0.979-3.766-2.559-3.766-4.695c0-2.845,2.27-4.923,5.392-4.923c1.422,0,3.011,0.429,3.845,0.852l0.588,0.3l-1.045,3.783   l-0.894-0.482c-0.384-0.208-1.367-0.538-2.369-0.538c-0.748,0-0.919,0.553-0.919,0.752C34.028,16.233,34.028,16.431,35.652,17.124z    M55.133,26.581h-4.208l-1.115-6.174l-1.251,6.174h-4.244l-3.255-14.93h4.506l1.039,6.164c0.023,0.133,0.046,0.267,0.068,0.4   c0.028-0.149,0.057-0.3,0.085-0.453l1.159-6.111h4.185l1.077,6.164c0.001-0.012,0.003-0.022,0.005-0.034l1.121-6.13h4.368   L55.133,26.581z M71.163,15.354h-6.115v1.869h5.669v3.718h-5.669v5.851h-4.329v-15.35h10.444V15.354z M84.736,32.346l-0.002,57.521   H15.269l-0.012-57.521H84.736z" fill="#CC0000"/><path d="M66.001,49.225L66,41.202c-5.745,0.103-10.521,2.379-13.999,6.769c-2.82,3.551-4.499,7.945-6.119,12.185   c-3.171,8.301-5.463,12.984-11.883,12.826l0.01,8.021c0.177,0.006,0.319,0.008,0.493,0.008c5.319,0,9.672-2.07,12.942-6.164   c2.264-2.831,3.783-6.307,5.15-9.804h9.478v-8.021h-6.219C58.167,52.154,60.791,49.313,66.001,49.225z" fill="#CC0000"/></g></svg>