<svg width="223" height="221" xmlns="http://www.w3.org/2000/svg" xmlns:xlink="http://www.w3.org/1999/xlink" overflow="hidden"><defs><clipPath id="clip0"><rect x="1183" y="349" width="223" height="221"/></clipPath></defs><g clip-path="url(#clip0)" transform="translate(-1183 -349)"><path d="M1301 444 1301 452.132C1300.59 452.408 1300.25 452.702 1300 453L1300 444.868C1300.25 444.567 1300.59 444.276 1301 444" fill="#19486F" fill-rule="evenodd"/><path d="M1301 444 1301 453.492C1300.59 453.664 1300.31 453.836 1300 454L1300 444.508C1300.31 444.336 1300.59 444.158 1301 444" fill="#19486F" fill-rule="evenodd"/><path d="M1345.5 451C1353.03 451 1359.41 451.592 1364.69 452.432 1376.01 454.315 1382 457.541 1382 459.527 1382 461.504 1376.01 464.726 1364.69 466.554 1359.41 467.456 1353.03 468 1345.5 468 1321.86 468 1309 462.399 1309 459.527 1309 456.642 1321.86 451 1345.5 451Z" fill="#2E73B7" fill-rule="evenodd"/><path d="M1383.04 460 1383.04 469.848C1383.04 469.898 1382 469.951 1382 470L1382 460.152C1382 460.095 1383.04 460.042 1383.04 460" fill="#19486F" fill-rule="evenodd"/><path d="M1383.01 460 1383.01 469.786C1382.8 469.86 1382.4 469.937 1382 470L1382 460.207C1382.4 460.137 1382.8 460.067 1383.01 460" fill="#19486F" fill-rule="evenodd"/><path d="M1383 460 1383 469.701C1382.74 469.802 1382.39 469.892 1382 470L1382 460.292C1382.36 460.187 1382.74 460.101 1383 460" fill="#19486F" fill-rule="evenodd"/><path d="M1382 460.637 1382 470.211C1380.91 472.184 1375.03 474.928 1364.84 476.562 1359.55 477.466 1353.14 478.001 1345.6 478.001 1321.9 478.001 1309 472.434 1309 469.564L1309 460C1309 462.857 1321.9 468.43 1345.6 468.43 1353.14 468.43 1359.55 467.889 1364.84 466.991 1375.03 465.357 1380.91 462.617 1382 460.637" fill="#19486F" fill-rule="evenodd"/><path d="M1384.01 535 1384.01 544.776C1384.01 544.85 1383.44 544.927 1383 545L1383 535.217C1383.44 535.151 1384.01 535.08 1384.01 535" fill="#19486F" fill-rule="evenodd"/><path d="M1384.01 535 1384.01 544.749C1383.89 544.822 1383.53 544.92 1383 545L1383 535.258C1383.53 535.171 1383.89 535.098 1384.01 535" fill="#19486F" fill-rule="evenodd"/><path d="M1384 535 1384 544.591C1383.78 544.732 1383.43 544.859 1383 545L1383 535.409C1383.42 535.268 1383.78 535.134 1384 535" fill="#19486F" fill-rule="evenodd"/><path d="M1383 536 1383 545.489C1381.25 548.519 1370.7 553 1348.18 553 1334.62 553 1323.66 551.28 1317 549.375L1317 539.873C1323.66 541.78 1334.62 543.511 1348.18 543.511 1370.7 543.511 1381.25 539.023 1383 536" fill="#19486F" fill-rule="evenodd"/><path d="M1216 539.331 1216 548C1208.27 548 1202 542.053 1202 534.669L1202 526C1202 533.37 1208.28 539.331 1216 539.331" fill="#19486F" fill-rule="evenodd"/><path d="M1305 539 1305 547.904 1216 548 1216 539.106Z" fill="#19486F" fill-rule="evenodd"/><path d="M1381.46 439.972C1368.46 435.426 1347.12 435.265 1341.01 435.344 1323.21 435.584 1302.91 439.811 1299.51 445.087L1299.37 446.153 1299.42 449.393 1299.37 534.259C1299.37 535.825 1302.66 537.526 1304.03 538.894L1215.72 539C1208.15 539 1202 532.88 1202 525.314L1202 371.641C1202 364.116 1208.15 358.007 1215.72 358.007L1368.27 358C1375.85 358 1382 364.106 1382 371.672" fill="#2E73B7" fill-rule="evenodd"/><path d="M1383 476 1382.97 534.54C1382.97 537.512 1372.72 543 1348.07 543 1334.57 543 1324.4 541.417 1317.77 539.494 1312.85 537.917 1309.39 536.131 1309 534.791L1309 476.557C1316.17 480.95 1330.96 483.272 1345.66 483.272L1346.61 483.272C1348.15 483.217 1349.61 483.217 1351.12 483.179L1351.72 483.124C1353.03 483.076 1354.23 483.025 1355.5 482.928 1356.14 482.88 1356.73 482.829 1357.34 482.774 1358.34 482.688 1359.29 482.626 1360.24 482.526 1360.8 482.433 1361.3 482.379 1361.8 482.286 1362.86 482.186 1363.86 482.045 1364.9 481.891 1372.93 480.603 1379.14 478.47 1383 476Z" fill="#2E73B7" fill-rule="evenodd"/><path d="M1231.01 372C1223.36 372 1220 377.31 1220 389.007 1220 400.694 1223.36 406 1231.01 406 1238.65 406 1242 400.691 1242 389.007 1242 377.31 1238.65 372 1231.01 372ZM1231.01 402.068C1227.84 402.068 1225.32 400.143 1225.32 388.867 1225.32 377.861 1227.84 375.932 1231.01 375.932 1234.18 375.932 1236.7 377.857 1236.7 388.867 1236.7 400.143 1234.18 402.068 1231.01 402.068Z" fill="#FFFFFF" fill-rule="evenodd"/><path d="M1267.47 403.139C1267.38 401.157 1267.33 398.564 1267.29 396.447 1267.1 391.81 1265.42 390.009 1262.22 389.694L1262.22 389.608C1265.75 389.039 1267.6 385.763 1267.6 381.503 1267.6 375.319 1263.93 373 1259.41 373L1248 373 1248 406 1253.16 406 1253.16 391.683 1257.38 391.683C1260.91 391.683 1261.99 393.244 1262.09 396.855 1262.17 399.26 1262.13 401.109 1262.31 403.091 1262.44 404.385 1262.66 405.41 1263.17 406L1269 406C1268.33 405.544 1267.56 404.762 1267.47 403.139ZM1257.29 387.711 1253.16 387.711 1253.16 376.979 1257.55 376.979C1260.95 376.979 1262.44 378.828 1262.44 382.343 1262.44 385.674 1260.59 387.711 1257.29 387.711Z" fill="#FFFFFF" fill-rule="evenodd"/><path d="M1280.46 373 1271 406 1276.54 406 1278.68 397.922 1288.41 397.922 1290.46 406 1296 406 1287.24 373 1280.46 373ZM1279.65 393.707 1283.62 377.435 1283.72 377.435 1287.53 393.707 1279.65 393.707Z" fill="#FFFFFF" fill-rule="evenodd"/><path d="M1319 393.636 1313.75 393.636 1313.75 394.181C1313.75 397.211 1313.24 402.072 1308.85 402.072 1304.99 402.072 1303.25 399.415 1303.25 388.871 1303.25 378.32 1304.99 375.935 1308.85 375.935 1312.64 375.803 1313.56 379.289 1313.56 382.32L1313.56 382.857 1318.81 382.857 1318.81 382.258C1318.81 378.871 1318.26 372 1308.91 372 1300.57 372 1298 377.31 1298 389.007 1298 400.694 1300.57 406 1308.85 406 1316.6 406 1319 400.228 1319 394.313L1319 393.636Z" fill="#FFFFFF" fill-rule="evenodd"/><path d="M1342 401.572 1328.55 401.572 1328.55 373 1323 373 1323 406 1342 406Z" fill="#FFFFFF" fill-rule="evenodd"/><path d="M1364 401.572 1351.21 401.572 1351.21 391.042 1362.9 391.042 1362.9 386.6 1351.21 386.6 1351.21 377.435 1363.63 377.435 1363.63 373 1346 373 1346 406 1364 406Z" fill="#FFFFFF" fill-rule="evenodd"/><rect x="1216" y="368" width="152" height="49.9998" fill="#2E73B7"/><text fill="#FFFFFF" font-family="Arial,Arial_MSFontService,sans-serif" font-weight="700" font-size="50" transform="matrix(1 0 0 1 1216.34 415)">Tibero<tspan font-size="50" x="111.325" y="113">T</tspan></text></g></svg>