<?xml version="1.0" ?><!DOCTYPE svg  PUBLIC '-//W3C//DTD SVG 1.1//EN'  'http://www.w3.org/Graphics/SVG/1.1/DTD/svg11.dtd'><svg enable-background="new 0 0 100 100" height="100px" id="Layer_1" version="1.1" viewBox="0 0 100 100" width="100px" xml:space="preserve" xmlns="http://www.w3.org/2000/svg" xmlns:xlink="http://www.w3.org/1999/xlink"><g><path d="M13.815,95h72.369c2.032,0,3.685-1.653,3.685-3.685V8.685C89.869,6.653,88.217,5,86.185,5H13.815   c-2.032,0-3.685,1.653-3.685,3.685v82.631C10.131,93.347,11.783,95,13.815,95z M39.503,15.403h-3.844v11.49h-4.55v-11.49h-3.786   v-4.087h12.18V15.403z M46.274,26.894h-4.656V11.316h4.656V26.894z M59.576,15.286h-6.205v1.898h5.751v3.772h-5.751v5.937h-4.395   V11.316h10.6V15.286z M72.677,15.286h-6.206v1.898h5.752v3.772h-5.752v5.937h-4.394V11.316h10.6V15.286z M84.736,32.346   l-0.002,57.521H15.269l-0.012-57.521H84.736z" fill="#589C00"/><g><path d="M49.999,54.048c-4.63,0-8.396,3.768-8.396,8.398c0,4.63,3.767,8.396,8.396,8.396    c4.631,0,8.398-3.767,8.398-8.396C58.397,57.815,54.63,54.048,49.999,54.048z" fill="#589C00"/><path d="M62.801,48.611c-0.263,0-0.643-0.13-0.85-0.291l-3.902-3.04c-0.52-0.404-1.546-0.732-2.294-0.732H44.246    c-0.748,0-1.775,0.328-2.295,0.732l-3.902,3.04c-0.207,0.161-0.588,0.291-0.85,0.291h-7.849c-1.97,0-3.581,1.611-3.581,3.582    V74.08c0,1.97,1.611,3.584,3.581,3.584h41.299c1.97,0,3.581-1.614,3.581-3.584V52.193c0-1.971-1.611-3.582-3.581-3.582H62.801z     M49.999,73.868c-6.298,0-11.422-5.123-11.422-11.422s5.124-11.424,11.422-11.424c6.3,0,11.424,5.125,11.424,11.424    S56.299,73.868,49.999,73.868z M69.309,54.283c-1.1,0-1.99-0.893-1.99-1.99c0-1.1,0.891-1.99,1.99-1.99    c1.099,0,1.99,0.891,1.99,1.99C71.299,53.391,70.407,54.283,69.309,54.283z" fill="#589C00"/></g></g></svg>