<?xml version="1.0" ?><!DOCTYPE svg  PUBLIC '-//W3C//DTD SVG 1.1//EN'  'http://www.w3.org/Graphics/SVG/1.1/DTD/svg11.dtd'><svg enable-background="new 0 0 100 100" height="100px" id="Layer_1" version="1.1" viewBox="0 0 100 100" width="100px" xml:space="preserve" xmlns="http://www.w3.org/2000/svg" xmlns:xlink="http://www.w3.org/1999/xlink"><g><g><rect fill="#0C6ECE" height="3.871" width="50.191" x="24.904" y="47.677"/><rect fill="#0C6ECE" height="3.871" width="50.191" x="24.904" y="59.17"/><rect fill="#0C6ECE" height="3.872" width="50.191" x="24.904" y="70.663"/></g><path d="M86.185,5H13.815c-2.032,0-3.685,1.653-3.685,3.685v82.631c0,2.031,1.652,3.685,3.685,3.685h72.369   c2.032,0,3.685-1.653,3.685-3.685V8.685C89.869,6.653,88.217,5,86.185,5z M58.609,11.408h11.914v4.063h-3.822v11.423h-4.328V15.472   h-3.764V11.408z M43.021,11.317h5.204l1.925,3.356l1.885-3.356h5.175l-4.435,7.54l4.85,7.946h-5.313l-2.204-3.745l-2.212,3.745   h-5.283l4.838-8.042L43.021,11.317z M29.477,11.408H41.39v4.063h-3.731v11.423h-4.417V15.472h-3.765V11.408z M84.734,89.866H15.269   l-0.012-57.521h69.479L84.734,89.866z" fill="#0C6ECE"/></g></svg>