<?xml version="1.0" ?><!DOCTYPE svg  PUBLIC '-//W3C//DTD SVG 1.1//EN'  'http://www.w3.org/Graphics/SVG/1.1/DTD/svg11.dtd'><svg enable-background="new 0 0 100 100" height="100px" id="Layer_1" version="1.1" viewBox="0 0 100 100" width="100px" xml:space="preserve" xmlns="http://www.w3.org/2000/svg" xmlns:xlink="http://www.w3.org/1999/xlink"><g><g><path d="M13.815,95h72.369c2.032,0,3.685-1.653,3.685-3.685V8.685C89.869,6.653,88.217,5,86.185,5H13.815    c-2.032,0-3.685,1.653-3.685,3.685v82.631C10.131,93.347,11.783,95,13.815,95z M37.224,26.894l-1.162-6.441l-1.306,6.441h-4.428    l-3.396-15.577h4.702l1.084,6.432c0.023,0.139,0.048,0.277,0.071,0.417c0.028-0.155,0.058-0.313,0.088-0.473l1.21-6.376h4.366    l1.123,6.432c0.002-0.012,0.004-0.024,0.006-0.036l1.171-6.396h4.557l-3.693,15.577H37.224z M54.54,26.894l-0.997-3.61h-2.536    l-0.919,3.61h-4.812l4.373-15.577h5.174l4.437,15.577H54.54z M68.249,26.894h-4.731l-4.585-15.577h4.991l1.72,6.511    c0.149,0.564,0.307,1.165,0.461,1.798c0.143-0.574,0.295-1.155,0.456-1.742l1.801-6.566h4.707L68.249,26.894z M84.736,32.346    l-0.002,57.521H15.269l-0.012-57.521H84.736z" fill="#589C00"/><polygon fill="#589C00" points="51.816,19.393 52.71,19.393 52.252,17.695   "/></g><path d="M50.063,40.337l-1.029,0.002c-0.367,0-0.666,0.299-0.666,0.666v28.842c-1.291-0.337-2.739-0.416-4.236-0.15   c-4.356,0.764-7.419,4.08-6.831,7.401c0.586,3.318,4.592,5.385,8.952,4.617c4.124-0.729,7.076-3.728,6.894-6.857l-0.005-21.383   c0.635,0.862,8.363,7.683,6.354,15.203c-0.186,0.691,0.19,1.418,0.873,1.633s1.414-0.164,1.6-0.855   c2.388-8.867-0.97-12.986-4.54-17.521c-2.335-2.964-5.074-6.198-6.515-10.958C50.807,40.624,50.432,40.336,50.063,40.337z" fill="#589C00"/></g></svg>