<?xml version="1.0" ?><!DOCTYPE svg  PUBLIC '-//W3C//DTD SVG 1.1//EN'  'http://www.w3.org/Graphics/SVG/1.1/DTD/svg11.dtd'><svg enable-background="new 0 0 100 100" height="100px" id="Layer_1" version="1.1" viewBox="0 0 100 100" width="100px" xml:space="preserve" xmlns="http://www.w3.org/2000/svg" xmlns:xlink="http://www.w3.org/1999/xlink"><g><g><path d="M13.815,95h72.369c2.032,0,3.685-1.653,3.685-3.685V8.685C89.869,6.653,88.217,5,86.185,5H13.815    c-2.032,0-3.685,1.653-3.685,3.685v82.631C10.131,93.347,11.783,95,13.815,95z M39.168,26.894h-4.42l-1.138-6.307l-1.278,6.307    h-4.455l-3.396-15.577h4.74l1.084,6.433c0.015,0.09,0.03,0.18,0.046,0.271c0.021-0.108,0.041-0.218,0.062-0.328l1.209-6.376h4.395    l1.098,6.285l1.15-6.285h4.597L39.168,26.894z M55.805,26.894l-0.218-6.117c-0.004-0.117-0.008-0.237-0.012-0.358    c-0.022,0.074-0.045,0.148-0.067,0.224l-1.725,6.023h-3.468l-1.43-5.646l-0.254,5.875h-4.266l0.913-15.577h5.209l1.416,5.257    c0.151,0.611,0.288,1.184,0.413,1.724c0.146-0.585,0.297-1.176,0.45-1.744l1.545-5.236h5.125l0.785,15.577H55.805z M70.761,26.894    l-0.993-3.598H67.28l-0.917,3.598h-4.651l4.372-15.577h4.999l4.436,15.577H70.761z M84.736,32.346l-0.002,57.521H15.269    l-0.012-57.521H84.736z" fill="#0C6ECE"/><polygon fill="#0C6ECE" points="68.1,19.366 68.923,19.366 68.501,17.803   "/></g><path d="M50,37.74c-12.884,0-23.365,10.481-23.365,23.365c0,12.885,10.481,23.366,23.365,23.366   S73.365,73.99,73.365,61.105C73.365,48.222,62.884,37.74,50,37.74z M57.476,70.798c-2.606,0.463-5.003-0.774-5.354-2.76   s1.479-3.966,4.085-4.424c0.894-0.157,1.762-0.111,2.532,0.092v-0.001l0.008-8.995l-12.895,2.341l-0.014,12.838   c0.109,1.873-1.656,3.666-4.121,4.103c-2.608,0.459-5.003-0.777-5.354-2.761c-0.352-1.985,1.479-3.969,4.084-4.425   c0.895-0.159,1.762-0.112,2.533,0.089V51.474l18.61-3.349l0.006,18.571C61.707,68.569,59.94,70.365,57.476,70.798z" fill="#0C6ECE"/></g></svg>