<?xml version="1.0" ?><!DOCTYPE svg  PUBLIC '-//W3C//DTD SVG 1.1//EN'  'http://www.w3.org/Graphics/SVG/1.1/DTD/svg11.dtd'><svg enable-background="new 0 0 100 100" height="100px" id="Layer_1" version="1.1" viewBox="0 0 100 100" width="100px" xml:space="preserve" xmlns="http://www.w3.org/2000/svg" xmlns:xlink="http://www.w3.org/1999/xlink"><path d="M50,81.875c11.453,0,20.77-9.316,20.77-20.77c0-11.452-9.316-20.769-20.77-20.769s-20.77,9.316-20.77,20.769  C29.23,72.559,38.547,81.875,50,81.875z M42.674,53.147c0-0.837,0.608-1.213,1.354-0.838l16.237,8.117  c0.744,0.371,0.744,0.979,0,1.357l-16.237,8.118c-0.746,0.375-1.354-0.001-1.354-0.838V53.147z" fill="#0082C6"/><path d="M13.815,95h72.369c2.032,0,3.685-1.653,3.685-3.685V8.685C89.869,6.653,88.217,5,86.185,5H13.815  c-2.032,0-3.685,1.653-3.685,3.685v82.631C10.131,93.347,11.783,95,13.815,95z M39.09,26.894h-4.392l-1.163-6.441l-1.306,6.441  h-4.428l-3.396-15.577h4.701l1.084,6.432c0.024,0.139,0.048,0.278,0.071,0.418c0.029-0.156,0.059-0.313,0.089-0.474l1.209-6.376  h4.367l1.123,6.432c0.001-0.012,0.003-0.024,0.005-0.035l1.17-6.396h4.558L39.09,26.894z M55.83,26.894l-0.219-6.112  c-0.006-0.165-0.011-0.339-0.018-0.521c-0.037,0.128-0.075,0.254-0.112,0.379l-1.726,6.025h-3.439l-1.474-5.819l-0.261,6.049h-4.229  l0.913-15.577h5.183l1.416,5.255c0.161,0.653,0.307,1.263,0.438,1.836c0.153-0.621,0.314-1.252,0.478-1.856l1.545-5.234h5.099  l0.785,15.577H55.83z M70.775,26.894h-4.732l-4.585-15.577h4.991l1.721,6.511c0.148,0.564,0.306,1.166,0.46,1.798  c0.143-0.574,0.295-1.155,0.456-1.742l1.801-6.566h4.707L70.775,26.894z M84.736,32.346l-0.002,57.521H15.269l-0.012-57.521H84.736z  " fill="#0082C6"/></svg>