<?xml version="1.0" ?><!DOCTYPE svg  PUBLIC '-//W3C//DTD SVG 1.1//EN'  'http://www.w3.org/Graphics/SVG/1.1/DTD/svg11.dtd'><svg enable-background="new 0 0 100 100" height="100px" id="Layer_1" version="1.1" viewBox="0 0 100 100" width="100px" xml:space="preserve" xmlns="http://www.w3.org/2000/svg" xmlns:xlink="http://www.w3.org/1999/xlink"><g><path d="M13.815,95h72.369c2.032,0,3.685-1.653,3.685-3.685V8.685C89.869,6.653,88.217,5,86.185,5H13.815   c-2.032,0-3.685,1.653-3.685,3.685v82.631C10.131,93.347,11.783,95,13.815,95z M39.551,26.708l-2.165-3.677l-2.172,3.677h-5.187   l4.75-7.896l-4.349-7.311h5.11l1.89,3.296l1.851-3.296h5.081l-4.354,7.403l4.762,7.803H39.551z M57.565,26.691l-10.71,0.017V11.502   h4.448v11.181h6.262V26.691z M64.329,26.894c-1.548,0-3.505-0.545-4.292-1.035l-0.419-0.261l0.628-3.826l0.928,0.537   c0.618,0.355,2.057,0.752,3.135,0.752c0.743,0,1.188-0.346,1.188-0.924c0-0.256,0-0.605-1.572-1.239   c-2.52-0.987-3.798-2.577-3.798-4.724c0-2.859,2.193-4.857,5.336-4.857c1.439,0,3.048,0.433,3.894,0.862l0.54,0.274l-1.021,3.701   l-0.819-0.444c-0.398-0.216-1.42-0.56-2.464-0.56c-0.865,0-0.933,0.582-0.933,0.761c0,0.299,0,0.515,1.712,1.245   c2.457,1.022,3.603,2.535,3.603,4.759C69.973,24.212,68.495,26.894,64.329,26.894z M84.736,32.346l-0.002,57.521H15.269   l-0.012-57.521H84.736z" fill="#08A626"/><g><g><rect fill="#08A626" height="8.706" width="13.059" x="61.172" y="43.405"/><rect fill="#08A626" height="8.706" width="13.059" x="61.172" y="56.754"/><rect fill="#08A626" height="8.705" width="13.059" x="61.172" y="70.103"/><rect fill="#08A626" height="8.705" width="13.059" x="43.471" y="70.103"/><rect fill="#08A626" height="8.705" width="13.059" x="25.77" y="70.103"/></g><polygon fill="#08A626" points="47.275,54.125 55.117,44.317 47.331,44.317 43.33,49.599 39.531,44.317 31.467,44.317     39.455,54.351 31.138,64.983 38.897,64.983 43.322,59.006 47.706,64.983 55.804,64.983   "/></g></g></svg>