<?xml version="1.0" ?><!DOCTYPE svg  PUBLIC '-//W3C//DTD SVG 1.1//EN'  'http://www.w3.org/Graphics/SVG/1.1/DTD/svg11.dtd'><svg enable-background="new 0 0 100 100" height="100px" id="Layer_1" version="1.1" viewBox="0 0 100 100" width="100px" xml:space="preserve" xmlns="http://www.w3.org/2000/svg" xmlns:xlink="http://www.w3.org/1999/xlink"><g><path d="M13.815,95h72.369c2.032,0,3.685-1.653,3.685-3.685V8.685C89.869,6.653,88.217,5,86.185,5H13.815   c-2.032,0-3.685,1.653-3.685,3.685v82.631C10.131,93.347,11.783,95,13.815,95z M33.339,26.38l-2.069-3.515l-2.075,3.515h-4.955   l4.538-7.546l-4.155-6.985h4.884l1.804,3.149l1.771-3.149h4.855l-4.162,7.075l4.55,7.456H33.339z M49.423,26.634h-9.884v-15.04   h4.54v10.884h5.344V26.634z M55.604,26.894c-1.547,0-3.505-0.546-4.293-1.035l-0.418-0.261l0.628-3.826l0.928,0.537   c0.618,0.354,2.057,0.751,3.135,0.751c0.743,0,1.187-0.346,1.187-0.924c0-0.256,0-0.604-1.571-1.238   C52.679,19.91,51.4,18.32,51.4,16.174c0-2.86,2.193-4.857,5.337-4.857c1.438,0,3.048,0.433,3.894,0.862l0.54,0.274l-1.021,3.7   L59.33,15.71c-0.399-0.216-1.421-0.56-2.465-0.56c-0.865,0-0.932,0.581-0.932,0.76c0,0.3,0,0.516,1.71,1.246   c2.459,1.022,3.604,2.534,3.604,4.759C61.247,24.212,59.77,26.894,55.604,26.894z M70.776,26.38l-2.069-3.515l-2.075,3.515h-4.956   l4.538-7.546l-4.155-6.985h4.884l1.805,3.149l1.771-3.149h4.854l-4.161,7.075l4.55,7.456H70.776z M84.736,32.346l-0.002,57.521   H15.269l-0.012-57.521H84.736z" fill="#08A626"/><g><g><rect fill="#08A626" height="8.705" width="13.058" x="61.173" y="43.404"/><rect fill="#08A626" height="8.705" width="13.058" x="61.173" y="56.753"/><rect fill="#08A626" height="8.705" width="13.058" x="61.173" y="70.103"/><rect fill="#08A626" height="8.705" width="13.059" x="43.471" y="70.103"/><rect fill="#08A626" height="8.705" width="13.058" x="25.77" y="70.103"/></g><polygon fill="#08A626" points="47.278,54.126 55.118,44.318 47.327,44.318 43.33,49.596 39.529,44.318 31.47,44.318     39.457,54.352 31.141,64.981 38.9,64.981 43.321,59.002 47.704,64.981 55.801,64.981   "/></g></g></svg>