<?xml version="1.0" ?><!DOCTYPE svg  PUBLIC '-//W3C//DTD SVG 1.1//EN'  'http://www.w3.org/Graphics/SVG/1.1/DTD/svg11.dtd'><svg enable-background="new 0 0 100 100" height="100px" id="Layer_1" version="1.1" viewBox="0 0 100 100" width="100px" xml:space="preserve" xmlns="http://www.w3.org/2000/svg" xmlns:xlink="http://www.w3.org/1999/xlink"><g><path d="M13.815,95h72.369c2.032,0,3.685-1.653,3.685-3.685V8.685C89.869,6.653,88.217,5,86.185,5H13.815   c-2.032,0-3.685,1.653-3.685,3.685v82.631C10.131,93.347,11.783,95,13.815,95z M36.681,26.785l-2.187-3.715L32.3,26.785h-5.238   l4.798-7.976l-4.393-7.384h5.161l1.909,3.328l1.869-3.328h5.133l-4.398,7.478l4.81,7.882H36.681z M54.815,26.785l-0.215-6.032   c-0.004-0.113-0.008-0.231-0.012-0.354c-0.022,0.074-0.044,0.147-0.066,0.222l-1.7,5.939h-3.42l-1.41-5.568l-0.249,5.794h-4.207   l0.899-15.359h5.138l1.396,5.183c0.149,0.604,0.285,1.167,0.408,1.7c0.143-0.576,0.292-1.16,0.443-1.721l1.523-5.162h5.054   l0.774,15.359H54.815z M72.938,26.876l-10.971,0.018V11.316h4.556V22.77h6.415V26.876z M84.736,32.346l-0.002,57.521H15.269   l-0.012-57.521H84.736z" fill="#2A58D6"/><path d="M66.521,44.585C62.108,40.171,56.241,37.74,50,37.74s-12.108,2.431-16.521,6.845   c-4.415,4.412-6.845,10.279-6.845,16.521s2.43,12.109,6.845,16.521c4.412,4.414,10.279,6.845,16.521,6.845   s12.108-2.431,16.521-6.845c4.414-4.413,6.845-10.28,6.845-16.521C73.365,54.865,70.935,48.998,66.521,44.585z M61.145,71.368   c0.704-2.778,1.106-5.771,1.201-8.898h8.246c-0.292,4.432-2.043,8.701-4.95,12.082C64.273,73.316,62.764,72.246,61.145,71.368z    M51.364,68.582V62.47h8.249c-0.086,2.681-0.424,5.272-1.003,7.713C56.293,69.263,53.859,68.725,51.364,68.582z M63.729,76.5   c-1.972,1.758-4.289,3.139-6.761,4.031c0.735-0.937,1.416-2.029,2.031-3.259c0.498-0.997,0.951-2.082,1.349-3.229   C61.548,74.741,62.684,75.566,63.729,76.5z M60.348,48.169c-0.397-1.147-0.851-2.233-1.349-3.23   c-0.615-1.229-1.296-2.321-2.031-3.258c2.472,0.893,4.789,2.272,6.761,4.031C62.684,46.646,61.549,47.47,60.348,48.169z    M59.613,59.742h-8.249V53.63c2.495-0.143,4.929-0.681,7.246-1.601C59.189,54.47,59.527,57.062,59.613,59.742z M51.364,50.896   V40.692c2.555,0.835,4.958,4.043,6.501,8.703C55.801,50.247,53.616,50.751,51.364,50.896z M51.364,81.519V71.315   c2.252,0.146,4.437,0.649,6.501,1.501C56.322,77.477,53.919,80.685,51.364,81.519z M70.592,59.742h-8.246   c-0.095-3.129-0.497-6.12-1.202-8.898c1.62-0.879,3.131-1.948,4.498-3.184C68.549,51.041,70.3,55.311,70.592,59.742z    M38.855,71.368c-1.619,0.878-3.13,1.948-4.497,3.184c-2.907-3.381-4.658-7.65-4.95-12.082h8.246   C37.748,65.598,38.151,68.59,38.855,71.368z M48.636,53.63v6.112h-8.249c0.086-2.681,0.424-5.272,1.003-7.713   C43.706,52.949,46.141,53.487,48.636,53.63z M36.271,45.712c1.972-1.759,4.288-3.139,6.761-4.031   c-0.735,0.937-1.416,2.029-2.031,3.258c-0.498,0.997-0.951,2.083-1.349,3.23C38.451,47.47,37.316,46.646,36.271,45.712z    M29.408,59.742c0.292-4.432,2.043-8.701,4.95-12.082c1.367,1.234,2.878,2.305,4.497,3.184c-0.704,2.778-1.107,5.77-1.201,8.898   H29.408z M39.652,74.043c0.397,1.147,0.851,2.232,1.349,3.229c0.615,1.229,1.296,2.322,2.031,3.259   c-2.473-0.893-4.789-2.273-6.761-4.031C37.316,75.566,38.452,74.741,39.652,74.043z M40.387,62.47h8.249v6.112   c-2.495,0.143-4.93,0.681-7.246,1.601C40.811,67.742,40.473,65.15,40.387,62.47z M48.636,71.315v10.203   c-2.555-0.834-4.957-4.042-6.501-8.702C44.199,71.965,46.384,71.461,48.636,71.315z M48.636,40.692v10.204   c-2.252-0.146-4.437-0.649-6.501-1.501C43.679,44.735,46.081,41.527,48.636,40.692z" fill="#2A58D6"/></g></svg>