<?xml version="1.0" ?><!DOCTYPE svg  PUBLIC '-//W3C//DTD SVG 1.1//EN'  'http://www.w3.org/Graphics/SVG/1.1/DTD/svg11.dtd'><svg enable-background="new 0 0 100 100" height="100px" id="Layer_1" version="1.1" viewBox="0 0 100 100" width="100px" xml:space="preserve" xmlns="http://www.w3.org/2000/svg" xmlns:xlink="http://www.w3.org/1999/xlink"><g><g><path d="M63.57,17.534c0.244-0.074,0.432-0.217,0.567-0.429c0.134-0.185,0.205-0.43,0.205-0.682    c0-0.32-0.101-0.605-0.285-0.806c-0.172-0.215-0.428-0.327-0.743-0.37c-0.209-0.073-0.716-0.102-1.932-0.102h-0.684v2.59h0.859    C62.986,17.736,63.455,17.603,63.57,17.534z" fill="#484C56"/><path d="M86.185,5H13.815c-2.032,0-3.685,1.652-3.685,3.685v82.631c0,2.031,1.652,3.685,3.685,3.685h72.369    c2.032,0,3.685-1.653,3.685-3.685V8.685C89.869,6.652,88.217,5,86.185,5z M56.237,11.317h5.505c1.816,0,2.999,0.087,3.573,0.265    c0.958,0.236,1.786,0.808,2.429,1.608c0.644,0.84,0.96,1.915,0.96,3.198c0,0.985-0.174,1.828-0.532,2.501    c-0.386,0.713-0.856,1.267-1.427,1.646c-0.574,0.409-1.163,0.64-1.757,0.782c-0.746,0.145-1.751,0.218-3.104,0.218h-1.186v5.342    h-4.462V11.317z M47.662,11.317h4.646v15.561h-4.646V11.317z M31.296,23.353l6.736-8.271h-5.85v-3.693h12.365v3.056l-7.104,8.675    h7.431v3.775H31.296V23.353z M84.738,89.866H15.272L15.26,32.346h69.48L84.738,89.866z" fill="#484C56"/></g><g><rect fill="#484C56" height="3.308" width="5.512" x="50" y="36.01"/><rect fill="#484C56" height="3.308" width="5.512" x="50" y="42.625"/><rect fill="#484C56" height="3.308" width="5.512" x="50" y="49.24"/><rect fill="#484C56" height="3.308" width="5.512" x="50" y="55.855"/><rect fill="#484C56" height="3.307" width="5.512" x="50" y="62.472"/><rect fill="#484C56" height="3.309" width="5.512" x="44.488" y="59.163"/><rect fill="#484C56" height="3.308" width="5.512" x="44.488" y="52.548"/><rect fill="#484C56" height="3.308" width="5.512" x="44.488" y="45.933"/><rect fill="#484C56" height="3.308" width="5.512" x="44.488" y="39.317"/><path d="M50,72.23c-1.538,0-2.611-1.073-2.611-2.611c0-1.537,1.073-2.61,2.611-2.61    c1.537,0,2.611,1.073,2.611,2.61C52.611,71.157,51.537,72.23,50,72.23z" fill="#484C56"/><path d="M48.858,65.869c0.118-0.035,0.238-0.066,0.362-0.091h-4.732v3.308h1.645    C46.324,67.489,47.369,66.278,48.858,65.869z" fill="#484C56"/><path d="M53.335,82.682l-1.159-9.767c-0.61,0.387-1.352,0.607-2.176,0.607c-0.825,0-1.565-0.221-2.176-0.607    l-1.159,9.767c-0.191,1.945,1.397,3.521,3.335,3.521S53.526,84.627,53.335,82.682z M50,85.291c-1.302,0-2.357-1.06-2.357-2.357    c0-1.306,1.056-2.357,2.357-2.357s2.357,1.052,2.357,2.357C52.357,84.231,51.302,85.291,50,85.291z" fill="#484C56"/></g></g></svg>