<?xml version="1.0" ?><!DOCTYPE svg  PUBLIC '-//W3C//DTD SVG 1.1//EN'  'http://www.w3.org/Graphics/SVG/1.1/DTD/svg11.dtd'><svg enable-background="new 0 0 100 100" height="100px" id="Layer_1" version="1.1" viewBox="0 0 100 100" width="100px" xml:space="preserve" xmlns="http://www.w3.org/2000/svg" xmlns:xlink="http://www.w3.org/1999/xlink"><g><g><path d="M13.815,95h72.369c2.032,0,3.685-1.653,3.685-3.685V8.685C89.869,6.653,88.217,5,86.185,5H13.815    c-2.032,0-3.685,1.653-3.685,3.685v82.631C10.131,93.347,11.783,95,13.815,95z M38.375,26.894H24.812l0.001-3.553l6.73-8.286    h-5.857V11.36h12.386v3.052l-7.112,8.704h7.416V26.894z M45.629,26.851h-4.644V11.316h4.644V26.851z M59.556,20.53    c-0.561,0.386-1.15,0.65-1.74,0.779c-0.743,0.146-1.766,0.215-3.12,0.215h-1.163v5.326h-4.466V11.316h5.485    c1.823,0,3,0.078,3.593,0.236c0.962,0.25,1.78,0.799,2.422,1.632c0.652,0.833,0.975,1.905,0.975,3.183    c0,0.98-0.186,1.83-0.559,2.521C60.617,19.576,60.136,20.13,59.556,20.53z M70.256,26.765l-2.348-3.986l-2.354,3.986H60.65    l4.789-7.962l-4.377-7.357h4.825l2.066,3.604l2.023-3.604h4.797l-4.386,7.456l4.8,7.863H70.256z M84.736,32.346l-0.002,57.521    H15.269l-0.012-57.521H84.736z" fill="#0462C2"/><path d="M56.144,15.211c-0.209-0.04-0.712-0.087-1.941-0.087h-0.67v2.582h0.86c1.409,0,1.872-0.119,2.008-0.173    c0.246-0.094,0.429-0.237,0.57-0.434c0.132-0.193,0.198-0.421,0.198-0.691c0-0.334-0.095-0.594-0.273-0.794    C56.7,15.397,56.455,15.268,56.144,15.211z" fill="#0462C2"/></g><g><rect fill="#0462C2" height="3.308" width="5.512" x="50" y="36.01"/><rect fill="#0462C2" height="3.308" width="5.512" x="50" y="42.625"/><rect fill="#0462C2" height="3.308" width="5.512" x="50" y="49.24"/><rect fill="#0462C2" height="3.308" width="5.512" x="50" y="55.855"/><rect fill="#0462C2" height="3.307" width="5.512" x="50" y="62.472"/><rect fill="#0462C2" height="3.309" width="5.512" x="44.488" y="59.163"/><rect fill="#0462C2" height="3.308" width="5.512" x="44.488" y="52.548"/><rect fill="#0462C2" height="3.308" width="5.512" x="44.488" y="45.933"/><rect fill="#0462C2" height="3.308" width="5.512" x="44.488" y="39.317"/><path d="M50,72.23c-1.538,0-2.611-1.073-2.611-2.611c0-1.537,1.073-2.611,2.611-2.611    c1.537,0,2.611,1.074,2.611,2.611C52.611,71.157,51.537,72.23,50,72.23z" fill="#0462C2"/><path d="M48.858,65.869c0.118-0.035,0.238-0.066,0.362-0.091h-4.732v3.308h1.645    C46.324,67.489,47.369,66.278,48.858,65.869z" fill="#0462C2"/><path d="M53.335,82.682l-1.159-9.767c-0.61,0.387-1.352,0.607-2.176,0.607c-0.825,0-1.565-0.221-2.176-0.607    l-1.159,9.767c-0.191,1.945,1.397,3.521,3.335,3.521S53.526,84.627,53.335,82.682z M50,85.291c-1.302,0-2.357-1.06-2.357-2.357    c0-1.306,1.056-2.357,2.357-2.357s2.357,1.052,2.357,2.357C52.357,84.231,51.302,85.291,50,85.291z" fill="#0462C2"/></g></g></svg>